<svg width="324" height="349" viewBox="0 0 324 349" fill="none" xmlns="http://www.w3.org/2000/svg">
<path d="M323.163 156.018C322.615 150.209 321.787 144.372 320.701 138.665C319.629 133.038 318.283 127.4 316.698 121.913C315.128 116.485 313.294 111.083 311.235 105.853C309.196 100.671 306.899 95.5271 304.396 90.5761C301.914 85.6572 299.172 80.8081 296.261 76.1628C293.36 71.539 290.215 67.0117 286.91 62.7097C283.616 58.4131 280.092 54.2398 276.428 50.2972C272.769 46.36 268.891 42.5676 264.894 39.0166C260.891 35.4656 256.684 32.0755 252.392 28.9536C248.076 25.8156 243.57 22.8707 238.999 20.1994C234.398 17.512 229.623 15.0338 224.803 12.8399C224.499 12.7004 224.145 12.856 224.015 13.1832C223.886 13.5104 224.03 13.8912 224.334 14.0307C229.12 16.2085 233.86 18.6653 238.426 21.3366C242.962 23.9864 247.433 26.9099 251.72 30.0264C255.981 33.1268 260.158 36.4847 264.131 40.0143C268.099 43.5385 271.947 47.3041 275.581 51.2091C279.214 55.1195 282.718 59.266 285.983 63.5304C289.263 67.8056 292.383 72.3007 295.265 76.887C298.156 81.4947 300.872 86.3063 303.34 91.193C305.822 96.1118 308.105 101.213 310.129 106.357C312.167 111.55 313.992 116.908 315.552 122.294C317.127 127.738 318.463 133.333 319.524 138.923C320.601 144.587 321.424 150.386 321.967 156.147C322.52 161.999 322.799 167.969 322.799 173.886C322.799 179.802 322.52 185.772 321.967 191.625C321.424 197.386 320.601 203.184 319.524 208.849C318.463 214.438 317.127 220.027 315.552 225.477C313.997 230.863 312.172 236.227 310.129 241.414C308.105 246.558 305.822 251.659 303.34 256.578C300.872 261.465 298.156 266.276 295.265 270.884C292.383 275.47 289.263 279.966 285.983 284.241C282.713 288.505 279.214 292.646 275.581 296.562C271.947 300.472 268.099 304.238 264.131 307.757C260.158 311.286 255.981 314.644 251.72 317.745C247.433 320.861 242.962 323.785 238.426 326.435C238.137 326.606 238.027 326.998 238.186 327.309C238.296 327.523 238.5 327.647 238.715 327.647C238.81 327.647 238.909 327.62 238.999 327.566C243.57 324.895 248.076 321.95 252.392 318.812C256.689 315.69 260.896 312.306 264.894 308.749C268.891 305.198 272.769 301.406 276.428 297.469C280.092 293.526 283.616 289.353 286.91 285.056C290.215 280.749 293.36 276.221 296.261 271.603C299.177 266.963 301.914 262.114 304.396 257.19C306.899 252.233 309.196 247.095 311.235 241.913C313.289 236.683 315.128 231.281 316.698 225.853C318.283 220.365 319.629 214.733 320.701 209.101C321.787 203.393 322.615 197.552 323.163 191.748C323.721 185.853 324.001 179.84 324.001 173.88C324.001 167.926 323.716 161.913 323.163 156.018Z" fill="#830016" fill-opacity="0.3"/>
<path d="M178.067 1.29095C183.426 1.87564 188.814 2.76071 194.073 3.91935C194.113 3.93008 194.152 3.93008 194.192 3.93008C194.471 3.93008 194.721 3.72088 194.78 3.41513C194.845 3.06646 194.636 2.72316 194.312 2.65343C189.013 1.48406 183.585 0.593622 178.187 0.00357299C177.848 -0.0339756 177.564 0.228864 177.529 0.582893C177.499 0.942287 177.738 1.25877 178.067 1.29095Z" fill="#830016" fill-opacity="0.3"/>
<path d="M58.6515 40.1644C58.786 40.1644 58.9206 40.1161 59.0353 40.0142C63.008 36.4846 67.185 33.1267 71.4468 30.0263C75.7335 26.9098 80.2047 23.9863 84.7406 21.3365C89.3065 18.6652 94.0468 16.2084 98.832 14.0306C103.662 11.8313 108.642 9.86808 113.646 8.19449C118.705 6.49944 123.904 5.06187 129.093 3.91932C134.357 2.76068 139.74 1.8756 145.099 1.29092C145.428 1.25337 145.667 0.93689 145.637 0.582861C145.602 0.228831 145.318 -0.0286444 144.979 0.00354008C139.581 0.593589 134.153 1.48403 128.854 2.65339C123.625 3.80667 118.386 5.25497 113.287 6.96075C108.248 8.64507 103.228 10.6244 98.3634 12.8398C93.5433 15.0337 88.7681 17.5119 84.1674 20.1993C79.5966 22.8706 75.0905 25.8155 70.7739 28.9535C66.4772 32.0754 62.2702 35.4601 58.2726 39.0165C58.0184 39.2418 57.9785 39.6494 58.1929 39.9284C58.3075 40.0839 58.482 40.1644 58.6515 40.1644Z" fill="#830016" fill-opacity="0.3"/>
<path d="M19.8269 91.1929C19.9865 90.8818 19.8768 90.4848 19.5877 90.3185C19.2936 90.1469 18.9297 90.2649 18.7702 90.576C16.268 95.5324 13.9701 100.671 11.9314 105.853C9.87778 111.083 8.03848 116.485 6.46834 121.913C4.88326 127.4 3.53743 133.033 2.46575 138.665C1.37912 144.372 0.551679 150.214 0.00337834 156.018C-0.0315135 156.372 0.207745 156.688 0.54171 156.726C0.561648 156.726 0.581587 156.731 0.601525 156.731C0.905583 156.731 1.16478 156.484 1.19967 156.152C1.74299 150.391 2.56544 144.592 3.6421 138.928C4.70381 133.338 6.03967 127.749 7.61479 122.299C9.16997 116.914 10.9943 111.55 13.038 106.362C15.0617 101.213 17.3446 96.1117 19.8269 91.1929Z" fill="#830016" fill-opacity="0.3"/>
<path d="M1.19979 191.625C1.1649 191.271 0.875797 191.013 0.541832 191.045C0.212852 191.083 -0.0264068 191.399 0.0035005 191.753C0.551801 197.563 1.37924 203.399 2.46587 209.106C2.52568 209.412 2.77491 209.621 3.05405 209.621C3.09392 209.621 3.1338 209.616 3.17368 209.61C3.49767 209.541 3.70702 209.197 3.64222 208.849C2.56556 203.184 1.74809 197.391 1.19979 191.625Z" fill="#830016" fill-opacity="0.3"/>
<path d="M161.583 347.376C156.085 347.376 150.537 347.075 145.099 346.48C139.741 345.895 134.352 345.01 129.094 343.852C123.905 342.709 118.706 341.271 113.647 339.576C108.647 337.903 103.663 335.94 98.8326 333.74C94.0474 331.562 89.3071 329.106 84.7412 326.434C80.2053 323.785 75.7341 320.861 71.4474 317.745C67.1856 314.644 63.0086 311.286 59.0359 307.757C55.0682 304.232 51.2201 300.467 47.5864 296.562C43.9526 292.651 40.4485 288.505 37.1836 284.241C33.9038 279.965 30.7834 275.47 27.9024 270.884C25.0113 266.276 22.2948 261.465 19.8274 256.578C17.3451 251.659 15.0622 246.558 13.0384 241.414C12.9088 241.087 12.5549 240.931 12.2509 241.07C11.9468 241.21 11.8023 241.591 11.9319 241.918C13.9705 247.1 16.2684 252.244 18.7707 257.195C21.253 262.114 23.9945 266.963 26.9055 271.608C29.8065 276.232 32.9517 280.754 36.2565 285.061C39.5513 289.358 43.0754 293.531 46.739 297.474C50.3977 301.411 54.2756 305.203 58.2733 308.754C62.2759 312.305 66.4828 315.696 70.7745 318.817C75.0911 321.955 79.5972 324.9 84.168 327.572C88.7688 330.259 93.544 332.737 98.364 334.931C103.229 337.146 108.248 339.12 113.288 340.81C118.387 342.516 123.621 343.964 128.855 345.118C134.158 346.287 139.581 347.177 144.98 347.767C150.463 348.368 156.045 348.669 161.583 348.669C161.917 348.669 162.186 348.379 162.186 348.019C162.186 347.665 161.917 347.376 161.583 347.376Z" fill="#830016" fill-opacity="0.3"/>
<path d="M219.601 321.805C215.135 323.844 210.524 325.662 205.899 327.212C201.223 328.779 196.418 330.114 191.613 331.177C186.748 332.249 181.773 333.07 176.814 333.612C176.485 333.649 176.246 333.966 176.275 334.32C176.305 334.652 176.57 334.899 176.874 334.899C176.894 334.899 176.913 334.899 176.933 334.894C181.928 334.347 186.947 333.521 191.852 332.437C196.697 331.37 201.542 330.023 206.258 328.441C210.918 326.88 215.564 325.045 220.07 322.991C220.374 322.851 220.518 322.471 220.389 322.143C220.259 321.822 219.905 321.671 219.601 321.805Z" fill="#830016" fill-opacity="0.3"/>
<path d="M267.03 287.363C263.666 290.983 260.102 294.47 256.428 297.731C252.755 300.998 248.887 304.109 244.939 306.984C244.665 307.183 244.59 307.585 244.779 307.88C244.894 308.063 245.083 308.165 245.278 308.165C245.392 308.165 245.512 308.127 245.612 308.052C249.594 305.155 253.487 302.017 257.191 298.724C260.889 295.436 264.488 291.917 267.878 288.269C268.112 288.017 268.112 287.609 267.878 287.357C267.644 287.105 267.265 287.111 267.03 287.363Z" fill="#830016" fill-opacity="0.3"/>
<path d="M285.43 264.49C285.535 264.565 285.649 264.603 285.764 264.603C285.958 264.603 286.148 264.501 286.262 264.319C288.964 260.017 291.506 255.527 293.804 250.973C296.122 246.392 298.255 241.634 300.144 236.828C300.274 236.5 300.129 236.12 299.825 235.98C299.521 235.841 299.167 235.996 299.038 236.323C297.159 241.087 295.045 245.807 292.747 250.356C290.464 254.872 287.947 259.325 285.265 263.594C285.081 263.889 285.156 264.292 285.43 264.49Z" fill="#830016" fill-opacity="0.3"/>
<path d="M307.744 206.204C307.68 206.553 307.889 206.896 308.213 206.966C308.253 206.977 308.293 206.977 308.333 206.977C308.612 206.977 308.861 206.767 308.921 206.462C309.928 201.178 310.695 195.776 311.204 190.407C311.722 184.952 311.981 179.389 311.981 173.886C311.981 168.377 311.722 162.82 311.204 157.359C310.695 151.989 309.928 146.588 308.921 141.304C307.929 136.096 306.678 130.882 305.207 125.807C303.752 120.792 302.052 115.787 300.143 110.944C298.254 106.137 296.12 101.379 293.803 96.7985C291.5 92.2444 288.963 87.7546 286.261 83.4526C283.574 79.1775 280.658 74.9828 277.598 70.9919C274.542 67.0117 271.277 63.1442 267.883 59.4913C267.649 59.2392 267.27 59.2392 267.036 59.4913C266.801 59.7434 266.801 60.1511 267.036 60.4032C270.4 64.0239 273.645 67.8646 276.671 71.8126C279.711 75.7766 282.602 79.9338 285.269 84.1768C287.951 88.4466 290.468 92.8988 292.751 97.4153C295.049 101.959 297.167 106.679 299.041 111.448C300.936 116.254 302.625 121.216 304.066 126.194C305.526 131.23 306.762 136.401 307.749 141.567C308.746 146.808 309.509 152.166 310.012 157.493C310.526 162.905 310.785 168.425 310.785 173.886C310.785 179.346 310.526 184.866 310.012 190.278C309.504 195.605 308.741 200.963 307.744 206.204Z" fill="#830016" fill-opacity="0.3"/>
<path d="M116.906 19.3249C116.587 19.4322 116.413 19.7916 116.512 20.1349C116.612 20.4728 116.946 20.6659 117.265 20.5586C121.941 18.9923 126.746 17.6567 131.551 16.5946C136.416 15.5218 141.39 14.7011 146.35 14.1593C156.404 13.0596 166.762 13.0596 176.816 14.1593C181.77 14.7011 186.75 15.5218 191.615 16.5946C196.42 17.6567 201.225 18.987 205.9 20.5586C210.526 22.1088 215.137 23.9273 219.603 25.9656C224.029 27.9825 228.416 30.2622 232.643 32.7351C236.84 35.1918 240.977 37.9007 244.944 40.7866C245.049 40.8617 245.164 40.8992 245.278 40.8992C245.473 40.8992 245.662 40.7973 245.777 40.6149C245.961 40.3199 245.891 39.9176 245.617 39.7191C241.62 36.8118 237.448 34.0815 233.216 31.6033C228.954 29.109 224.533 26.8131 220.071 24.7802C215.565 22.7257 210.92 20.8912 206.259 19.3303C201.544 17.7478 196.699 16.4068 191.854 15.334C186.954 14.2505 181.935 13.4244 176.935 12.8773C166.802 11.7669 156.359 11.7669 146.225 12.8773C141.231 13.4244 136.211 14.2505 131.307 15.334C126.467 16.4015 121.622 17.7425 116.906 19.3249Z" fill="#830016" fill-opacity="0.3"/>
<path d="M78.2247 40.7867C82.1924 37.9008 86.3296 35.192 90.5266 32.7352C90.8207 32.5636 90.9253 32.172 90.7658 31.8609C90.6063 31.5498 90.2424 31.4317 89.9484 31.6034C85.7165 34.0816 81.5444 36.8119 77.5468 39.7192C77.2726 39.9177 77.1979 40.32 77.3873 40.615C77.5019 40.7974 77.6913 40.8993 77.8857 40.8993C78.0004 40.8993 78.12 40.8618 78.2247 40.7867Z" fill="#830016" fill-opacity="0.3"/>
<path d="M14.2441 206.462C15.236 211.67 16.4872 216.884 17.9576 221.958C19.4131 226.974 21.1128 231.979 23.0219 236.822C24.9111 241.629 27.0444 246.386 29.3623 250.967C31.6651 255.521 34.2023 260.011 36.9039 264.313C39.5906 268.588 42.5065 272.783 45.567 276.774C48.6226 280.754 51.8875 284.622 55.2819 288.275C58.6714 291.922 62.2653 295.441 65.9688 298.729C69.6723 302.017 73.5703 305.155 77.5479 308.057C81.5456 310.965 85.7176 313.695 89.9495 316.173C94.2113 318.667 98.6326 320.963 103.094 322.996C107.6 325.051 112.245 326.885 116.906 328.446C121.621 330.029 126.466 331.37 131.311 332.442C136.211 333.526 141.231 334.352 146.23 334.899C146.25 334.899 146.27 334.905 146.29 334.905C146.594 334.905 146.853 334.658 146.888 334.325C146.923 333.971 146.684 333.655 146.35 333.617C141.395 333.075 136.416 332.255 131.551 331.182C126.745 330.12 121.94 328.789 117.265 327.218C112.639 325.668 108.028 323.849 103.562 321.811C99.136 319.794 94.7496 317.514 90.5227 315.041C86.3257 312.585 82.1885 309.876 78.2208 306.99C74.2731 304.115 70.4051 301.004 66.7315 297.737C63.0578 294.475 59.4939 290.983 56.1293 287.368C52.7647 283.747 49.5198 279.907 46.4942 275.959C43.4536 271.995 40.5625 267.837 37.8958 263.594C35.2141 259.325 32.6969 254.872 30.414 250.356C28.1161 245.813 25.9977 241.092 24.1235 236.323C22.2294 231.517 20.5396 226.555 19.0991 221.578C17.6386 216.541 16.4024 211.37 15.4155 206.204C14.4186 200.963 13.6559 195.605 13.1525 190.278C12.6391 184.866 12.3799 179.346 12.3799 173.886C12.3799 168.425 12.6391 162.905 13.1525 157.493C13.6559 152.166 14.4186 146.808 15.4155 141.567C16.4024 136.401 17.6386 131.23 19.0991 126.194C20.5396 121.216 22.2294 116.254 24.1235 111.448C26.0027 106.684 28.1161 101.964 30.414 97.4153C32.6969 92.8988 35.2141 88.4466 37.8958 84.1768C40.5625 79.9338 43.4536 75.7766 46.4942 71.8126C49.5248 67.8646 52.7647 64.0239 56.1293 60.4032C56.3636 60.1511 56.3636 59.7434 56.1293 59.4913C55.895 59.2392 55.5162 59.2392 55.2819 59.4913C51.8924 63.1389 48.6226 67.0117 45.567 70.9919C42.5015 74.9881 39.5856 79.1775 36.9039 83.4526C34.2023 87.7546 31.6601 92.2444 29.3623 96.7985C27.0444 101.379 24.9111 106.137 23.0219 110.944C21.1128 115.787 19.4081 120.792 17.9576 125.807C16.4872 130.887 15.236 136.101 14.2441 141.304C13.2372 146.588 12.4696 151.989 11.9612 157.359C11.4428 162.814 11.1836 168.377 11.1836 173.88C11.1836 179.389 11.4428 184.946 11.9612 190.407C12.4696 195.782 13.2372 201.183 14.2441 206.462Z" fill="#830016" fill-opacity="0.3"/>
<path d="M249.813 289.09C253.227 286.054 256.547 282.814 259.672 279.445C262.802 276.076 265.818 272.504 268.634 268.835C271.461 265.15 274.152 261.282 276.63 257.334C279.127 253.36 281.47 249.218 283.588 245.018C285.726 240.792 287.695 236.398 289.44 231.968C289.57 231.64 289.425 231.26 289.121 231.12C288.817 230.981 288.463 231.136 288.333 231.463C286.604 235.857 284.65 240.212 282.531 244.402C280.428 248.564 278.11 252.668 275.633 256.61C273.175 260.526 270.504 264.361 267.707 268.009C264.916 271.646 261.925 275.186 258.82 278.528C255.719 281.864 252.43 285.083 249.045 288.092C245.656 291.107 242.092 293.976 238.453 296.621C234.794 299.281 230.981 301.781 227.108 304.045C223.21 306.324 219.163 308.427 215.085 310.288C210.968 312.166 206.716 313.845 202.45 315.272C198.138 316.72 193.702 317.948 189.275 318.925C184.789 319.917 180.198 320.673 175.628 321.172C170.992 321.682 166.267 321.939 161.581 321.939C161.247 321.939 160.978 322.229 160.978 322.588C160.978 322.948 161.247 323.237 161.581 323.237C166.307 323.237 171.072 322.98 175.752 322.465C180.363 321.961 184.994 321.199 189.515 320.196C193.981 319.209 198.452 317.97 202.803 316.511C207.105 315.068 211.392 313.378 215.549 311.479C219.666 309.602 223.749 307.483 227.676 305.182C231.579 302.897 235.432 300.376 239.121 297.694C242.794 295.022 246.393 292.131 249.813 289.09Z" fill="#830016" fill-opacity="0.3"/>
<path d="M299.651 158.641C299.616 158.287 299.332 158.035 298.993 158.062C298.664 158.099 298.424 158.416 298.454 158.77C298.928 163.764 299.167 168.849 299.167 173.886C299.167 178.923 298.928 184.013 298.454 189.002C297.991 193.915 297.288 198.855 296.366 203.689C296.296 204.037 296.51 204.38 296.834 204.45C296.874 204.461 296.914 204.461 296.954 204.461C297.233 204.461 297.482 204.252 297.542 203.946C298.469 199.07 299.182 194.087 299.651 189.13C300.129 184.094 300.368 178.965 300.368 173.88C300.368 168.806 300.129 163.672 299.651 158.641Z" fill="#830016" fill-opacity="0.3"/>
<path d="M293.542 130.361C293.602 130.361 293.662 130.351 293.722 130.335C294.036 130.227 294.215 129.868 294.116 129.525C292.775 124.895 291.205 120.282 289.44 115.809C287.696 111.378 285.727 106.985 283.588 102.758C281.47 98.5632 279.127 94.4167 276.63 90.4419C274.148 86.494 271.461 82.6265 268.635 78.9414C268.42 78.6624 268.041 78.6249 267.787 78.8555C267.533 79.0808 267.493 79.4885 267.708 79.7674C270.509 83.4204 273.176 87.2557 275.633 91.1661C278.11 95.1087 280.428 99.2122 282.532 103.375C284.65 107.569 286.604 111.92 288.334 116.313C290.078 120.749 291.638 125.319 292.964 129.911C293.049 130.184 293.288 130.361 293.542 130.361Z" fill="#830016" fill-opacity="0.3"/>
<path d="M239.128 50.0773C235.44 47.3952 231.592 44.8741 227.684 42.589C223.751 40.2878 219.669 38.169 215.557 36.2916C211.399 34.3981 207.113 32.703 202.811 31.2601C198.46 29.801 193.988 28.5619 189.522 27.5749C185.001 26.5772 180.366 25.8155 175.76 25.3059C166.409 24.2814 156.774 24.2814 147.423 25.3059C142.812 25.8102 138.181 26.5772 133.66 27.5749C129.194 28.5619 124.723 29.801 120.372 31.2601C120.052 31.3673 119.878 31.7267 119.978 32.07C120.077 32.408 120.406 32.6011 120.73 32.4938C125.042 31.0455 129.478 29.8171 133.905 28.8409C138.391 27.8485 142.981 27.0922 147.552 26.5933C156.824 25.5795 166.374 25.5795 175.645 26.5933C180.216 27.0922 184.807 27.8485 189.293 28.8409C193.719 29.8171 198.155 31.0455 202.467 32.4938C206.729 33.926 210.981 35.5996 215.098 37.477C219.18 39.3384 223.223 41.4357 227.121 43.7208C230.994 45.9845 234.807 48.4841 238.466 51.1447C242.104 53.7946 245.668 56.6643 249.058 59.6736C249.167 59.7755 249.307 59.8238 249.442 59.8238C249.616 59.8238 249.785 59.7433 249.905 59.5878C250.114 59.3142 250.08 58.9065 249.825 58.6759C246.396 55.6452 242.797 52.7486 239.128 50.0773Z" fill="#830016" fill-opacity="0.3"/>
<path d="M63.4918 68.3257C60.3615 71.6944 57.3459 75.2668 54.5296 78.9358C51.7034 82.621 49.0117 86.4885 46.5344 90.4364C44.0371 94.4112 41.6944 98.5523 39.576 102.752C37.4376 106.979 35.4687 111.372 33.7241 115.803C31.9645 120.277 30.3894 124.89 29.0486 129.519C28.9489 129.862 29.1283 130.222 29.4424 130.329C29.5022 130.351 29.562 130.356 29.6218 130.356C29.876 130.356 30.1153 130.179 30.195 129.9C31.5259 125.314 33.0811 120.738 34.8257 116.302C36.5553 111.909 38.5093 107.553 40.6277 103.364C42.7312 99.2013 45.049 95.0978 47.5263 91.1552C49.9837 87.2394 52.6554 83.4041 55.4518 79.7566C58.2431 76.1197 61.2338 72.5794 64.3392 69.2376C67.4396 65.9011 70.7294 62.6827 74.1139 59.6735C77.5034 56.6588 81.0674 53.7891 84.7061 51.1446C88.3648 48.484 92.178 45.9843 96.0509 43.7207C96.345 43.549 96.4497 43.1575 96.2902 42.8463C96.1307 42.5352 95.7668 42.4172 95.4727 42.5889C91.5698 44.874 87.7168 47.3951 84.0282 50.0771C80.3546 52.7484 76.7607 55.645 73.3413 58.6811C69.9419 61.7172 66.6221 64.9624 63.4918 68.3257Z" fill="#830016" fill-opacity="0.3"/>
<path d="M23.5156 158.641C23.0371 163.678 22.7979 168.806 22.7979 173.891C22.7979 174.25 23.067 174.54 23.401 174.54C23.7349 174.54 24.0041 174.25 24.0041 173.891C24.0041 168.854 24.2434 163.763 24.7169 158.775C24.7518 158.421 24.5125 158.104 24.1786 158.067C23.8446 158.035 23.5505 158.281 23.5156 158.641Z" fill="#830016" fill-opacity="0.3"/>
<path d="M29.0492 218.252C30.39 222.881 31.9601 227.494 33.7247 231.968C35.4693 236.399 37.4382 240.792 39.5765 245.019C41.695 249.213 44.0377 253.36 46.535 257.335C49.0173 261.283 51.7039 265.15 54.5302 268.835C57.3465 272.504 60.3621 276.077 63.4924 279.445C66.6227 282.814 69.9374 286.059 73.3519 289.09C76.7713 292.131 80.3651 295.023 84.0387 297.694C87.7273 300.376 91.5754 302.897 95.4833 305.182C99.4161 307.483 103.498 309.602 107.611 311.48C111.768 313.373 116.055 315.068 120.356 316.511C124.708 317.97 129.179 319.209 133.645 320.196C133.685 320.207 133.725 320.207 133.765 320.207C134.044 320.207 134.293 319.998 134.353 319.692C134.423 319.343 134.208 319 133.884 318.93C129.458 317.954 125.022 316.726 120.71 315.277C116.448 313.845 112.196 312.172 108.079 310.294C103.997 308.433 99.9544 306.33 96.0565 304.05C92.1835 301.787 88.3703 299.287 84.7117 296.626C81.0729 293.977 77.509 291.107 74.1195 288.098C70.735 285.088 67.4452 281.87 64.3448 278.533C61.2394 275.192 58.2487 271.651 55.4573 268.014C52.656 264.362 49.9893 260.526 47.5319 256.616C45.0546 252.673 42.7367 248.57 40.6333 244.407C38.5148 240.212 36.5609 235.862 34.8312 231.469C33.0866 227.033 31.5265 222.463 30.2006 217.871C30.1009 217.533 29.7719 217.34 29.4479 217.447C29.1289 217.549 28.9544 217.909 29.0492 218.252Z" fill="#830016" fill-opacity="0.3"/>
<path d="M251.749 76.8601C248.873 73.765 245.822 70.7773 242.687 67.9933C242.432 67.768 242.054 67.8056 241.839 68.0791C241.63 68.3527 241.665 68.7604 241.919 68.991C245.024 71.7535 248.045 74.7038 250.896 77.772C253.747 80.8403 256.494 84.0909 259.056 87.4327C261.628 90.7853 264.08 94.3095 266.338 97.9034C268.606 101.513 270.74 105.284 272.674 109.114C274.618 112.966 276.412 116.962 278.002 121.001C279.607 125.072 281.038 129.278 282.259 133.489C283.495 137.753 284.542 142.136 285.379 146.513C286.222 150.943 286.87 155.481 287.298 159.998C287.732 164.573 287.951 169.246 287.951 173.88C287.951 178.515 287.732 183.187 287.298 187.762C286.87 192.284 286.227 196.822 285.379 201.248C284.547 205.625 283.495 210.002 282.259 214.272C281.038 218.482 279.607 222.688 278.002 226.759C276.412 230.798 274.623 234.795 272.674 238.646C270.74 242.476 268.606 246.247 266.338 249.857C264.08 253.451 261.628 256.975 259.056 260.328C256.494 263.669 253.747 266.92 250.896 269.988C248.045 273.057 245.024 276.012 241.919 278.769C238.804 281.537 235.529 284.176 232.189 286.606C228.83 289.047 225.325 291.343 221.771 293.424C218.193 295.521 214.479 297.447 210.726 299.158C206.947 300.88 203.045 302.42 199.122 303.739C195.159 305.069 191.087 306.196 187.024 307.097C182.902 308.009 178.685 308.701 174.488 309.162C170.231 309.629 165.89 309.865 161.588 309.865C161.254 309.865 160.985 310.155 160.985 310.514C160.985 310.873 161.254 311.163 161.588 311.163C165.93 311.163 170.316 310.922 174.613 310.455C178.85 309.988 183.106 309.291 187.263 308.368C191.366 307.462 195.478 306.325 199.481 304.978C203.438 303.648 207.381 302.092 211.194 300.354C214.978 298.627 218.731 296.68 222.345 294.567C225.934 292.464 229.473 290.147 232.862 287.684C236.237 285.228 239.541 282.567 242.687 279.772C245.822 276.988 248.873 274.001 251.749 270.906C254.63 267.805 257.401 264.528 259.988 261.154C262.585 257.769 265.057 254.213 267.34 250.581C269.633 246.939 271.782 243.13 273.735 239.263C275.699 235.379 277.509 231.34 279.114 227.263C280.734 223.149 282.179 218.912 283.41 214.658C284.657 210.351 285.718 205.931 286.561 201.511C287.413 197.037 288.066 192.456 288.495 187.897C288.933 183.278 289.153 178.558 289.153 173.88C289.153 169.203 288.928 164.488 288.495 159.864C288.061 155.299 287.413 150.718 286.561 146.25C285.718 141.835 284.657 137.41 283.41 133.102C282.179 128.849 280.734 124.606 279.114 120.497C277.509 116.42 275.699 112.386 273.735 108.497C271.782 104.63 269.628 100.821 267.34 97.1792C265.062 93.5478 262.585 89.9914 259.988 86.6066C257.396 83.238 254.625 79.9552 251.749 76.8601Z" fill="#830016" fill-opacity="0.3"/>
<path d="M199.474 42.7875C195.471 41.4464 191.359 40.3039 187.257 39.3974C186.933 39.3276 186.614 39.5529 186.549 39.9016C186.484 40.2503 186.693 40.5936 187.017 40.6633C191.08 41.5591 195.152 42.6909 199.115 44.0212C199.175 44.0427 199.235 44.048 199.294 44.048C199.549 44.048 199.788 43.871 199.868 43.5921C199.967 43.2541 199.793 42.8947 199.474 42.7875Z" fill="#830016" fill-opacity="0.3"/>
<path d="M161.582 36.6026C157.241 36.6026 152.854 36.844 148.558 37.3106C144.321 37.7773 140.064 38.4746 135.907 39.3973C131.805 40.3038 127.692 41.441 123.69 42.7874C119.732 44.1176 115.789 45.6732 111.976 47.4112C108.193 49.1384 104.439 51.0856 100.826 53.199C97.2368 55.3017 93.6978 57.6137 90.3083 60.0811C86.9337 62.5379 83.629 65.1985 80.4837 67.9932C77.3484 70.7771 74.2979 73.7649 71.4218 76.86C71.1875 77.1121 71.1875 77.5197 71.4218 77.7719C71.5414 77.9006 71.691 77.9596 71.8455 77.9596C72 77.9596 72.1545 77.8952 72.2692 77.7719C75.1203 74.7036 78.141 71.748 81.2464 68.9909C84.3617 66.223 87.6366 63.5892 90.9762 61.154C94.3358 58.7133 97.8399 56.4175 101.394 54.3362C104.973 52.2389 108.686 50.3131 112.44 48.602C116.218 46.8801 120.121 45.3406 124.044 44.0211C128.006 42.6908 132.079 41.5643 136.141 40.6632C140.263 39.7513 144.48 39.0593 148.677 38.598C152.934 38.1313 157.276 37.8953 161.577 37.8953C161.911 37.8953 162.181 37.6057 162.181 37.2463C162.181 36.8869 161.916 36.6026 161.582 36.6026Z" fill="#830016" fill-opacity="0.3"/>
<path d="M44.844 120.159C44.54 120.019 44.1861 120.175 44.0565 120.502C42.4365 124.616 40.991 128.854 39.7598 133.108C38.5136 137.415 37.4519 141.835 36.6095 146.255C35.7572 150.729 35.1042 155.31 34.6755 159.869C34.2369 164.488 34.0176 169.208 34.0176 173.886C34.0176 178.563 34.2419 183.278 34.6755 187.902C35.1092 192.467 35.7572 197.048 36.6095 201.516C37.4519 205.931 38.5136 210.356 39.7598 214.663C40.991 218.917 42.4365 223.16 44.0565 227.269C45.6615 231.346 47.4709 235.379 49.4348 239.268C51.3887 243.136 53.5421 246.944 55.83 250.586C58.1079 254.218 60.5852 257.774 63.1822 261.159C63.3018 261.315 63.4713 261.395 63.6458 261.395C63.7803 261.395 63.9149 261.347 64.0296 261.245C64.2838 261.02 64.3237 260.612 64.1093 260.333C61.5373 256.98 59.0849 253.456 56.8269 249.862C54.5589 246.252 52.4255 242.481 50.4915 238.651C48.5476 234.8 46.7531 230.804 45.163 226.765C43.558 222.693 42.1274 218.488 40.9062 214.277C39.6701 210.013 38.6233 205.63 37.7859 201.253C36.9435 196.822 36.2955 192.284 35.8668 187.768C35.4332 183.192 35.2139 178.52 35.2139 173.886C35.2139 169.251 35.4332 164.579 35.8668 160.003C36.2955 155.481 36.9385 150.943 37.7859 146.518C38.6183 142.141 39.6701 137.764 40.9062 133.494C42.1274 129.283 43.558 125.078 45.163 121.006C45.2926 120.674 45.1481 120.298 44.844 120.159Z" fill="#830016" fill-opacity="0.3"/>
<path d="M100.827 294.577C104.441 296.691 108.189 298.638 111.977 300.365C112.052 300.403 112.132 300.419 112.212 300.419C112.446 300.419 112.665 300.268 112.765 300.022C112.894 299.694 112.75 299.314 112.446 299.174C108.697 297.463 104.979 295.537 101.4 293.44C97.8461 291.359 94.337 289.063 90.9824 286.622C87.6427 284.192 84.3679 281.553 81.2525 278.785C80.9983 278.56 80.6195 278.598 80.4052 278.871C80.1958 279.145 80.2307 279.552 80.4849 279.783C83.6302 282.578 86.9349 285.238 90.3095 287.695C93.699 290.157 97.238 292.474 100.827 294.577Z" fill="#830016" fill-opacity="0.3"/>
<path d="M149.664 298.879C153.597 299.308 157.61 299.528 161.583 299.528C165.56 299.528 169.568 299.308 173.501 298.879C177.379 298.455 181.271 297.812 185.08 296.97C188.833 296.138 192.596 295.098 196.26 293.869C199.879 292.657 203.488 291.23 206.982 289.637C210.446 288.06 213.875 286.274 217.185 284.337C220.47 282.417 223.71 280.293 226.81 278.034C229.901 275.787 232.926 273.352 235.803 270.793C238.674 268.245 241.465 265.515 244.097 262.677C246.734 259.839 249.271 256.836 251.638 253.751C254.016 250.656 256.279 247.4 258.368 244.074C260.466 240.738 262.435 237.251 264.224 233.716C266.024 230.155 267.679 226.464 269.144 222.736C270.625 218.976 271.946 215.092 273.077 211.198C274.218 207.266 275.185 203.216 275.958 199.166C276.741 195.074 277.334 190.879 277.733 186.706C278.131 182.473 278.336 178.155 278.336 173.88C278.336 169.6 278.131 165.281 277.733 161.055C277.698 160.701 277.409 160.448 277.075 160.475C276.746 160.513 276.506 160.829 276.536 161.183C276.935 165.373 277.134 169.642 277.134 173.88C277.134 178.118 276.935 182.388 276.536 186.577C276.147 190.713 275.554 194.859 274.782 198.909C274.014 202.916 273.057 206.923 271.931 210.817C270.814 214.674 269.503 218.515 268.038 222.237C266.587 225.922 264.947 229.581 263.168 233.105C261.398 236.602 259.449 240.051 257.376 243.361C255.307 246.649 253.069 249.873 250.716 252.936C248.374 255.993 245.861 258.965 243.254 261.771C240.647 264.576 237.886 267.279 235.045 269.801C232.199 272.327 229.203 274.741 226.147 276.967C223.077 279.204 219.872 281.301 216.617 283.2C213.342 285.115 209.948 286.88 206.518 288.441C203.059 290.018 199.49 291.429 195.906 292.63C192.277 293.848 188.554 294.878 184.84 295.698C181.072 296.53 177.219 297.163 173.381 297.586C165.595 298.439 157.57 298.439 149.784 297.586C145.946 297.168 142.093 296.53 138.325 295.698C134.611 294.878 130.888 293.848 127.259 292.63C123.675 291.429 120.106 290.018 116.647 288.441C113.217 286.88 109.823 285.115 106.548 283.2C103.298 281.296 100.093 279.198 97.0176 276.967C93.9621 274.741 90.9663 272.332 88.1202 269.801C85.279 267.274 82.5175 264.576 79.9106 261.771C77.3037 258.965 74.7915 255.993 72.4487 252.936C70.096 249.868 67.858 246.649 65.7894 243.361C65.6049 243.066 65.2311 242.986 64.9569 243.189C64.6828 243.388 64.608 243.79 64.7974 244.085C66.886 247.406 69.149 250.662 71.5266 253.762C73.8942 256.852 76.4314 259.85 79.0682 262.688C81.7001 265.52 84.4914 268.25 87.3625 270.804C90.2386 273.357 93.2642 275.798 96.3546 278.045C99.46 280.303 102.695 282.422 105.98 284.348C109.29 286.284 112.719 288.065 116.183 289.648C119.677 291.241 123.286 292.668 126.905 293.88C130.569 295.108 134.332 296.154 138.085 296.98C141.889 297.817 145.786 298.455 149.664 298.879Z" fill="#830016" fill-opacity="0.3"/>
<path d="M251.643 94.009C249.275 90.9193 246.738 87.9208 244.101 85.0832C241.469 82.251 238.678 79.5207 235.807 76.9674C232.931 74.4141 229.905 71.9734 226.815 69.7258C226.541 69.522 226.167 69.6025 225.982 69.8975C225.798 70.1925 225.868 70.5948 226.142 70.7933C229.197 73.0194 232.193 75.4279 235.039 77.9597C237.88 80.4862 240.642 83.1843 243.249 85.9897C245.856 88.7951 248.368 91.7668 250.711 94.8244C253.063 97.8926 255.301 101.111 257.37 104.399C257.485 104.582 257.674 104.684 257.868 104.684C257.983 104.684 258.103 104.646 258.202 104.571C258.477 104.372 258.551 103.97 258.362 103.675C256.283 100.36 254.02 97.1095 251.643 94.009Z" fill="#830016" fill-opacity="0.3"/>
<path d="M195.512 54.3255C195.413 54.6688 195.592 55.0282 195.906 55.1355C199.49 56.3371 203.059 57.7478 206.518 59.3249C206.593 59.3624 206.673 59.3785 206.753 59.3785C206.987 59.3785 207.206 59.2283 207.306 58.9816C207.436 58.6543 207.291 58.2735 206.987 58.134C203.493 56.5409 199.884 55.1141 196.265 53.9018C195.946 53.7891 195.612 53.9822 195.512 54.3255Z" fill="#830016" fill-opacity="0.3"/>
<path d="M173.507 48.8918C165.641 48.0282 157.531 48.0282 149.666 48.8918C145.788 49.3156 141.895 49.9593 138.087 50.8014C134.333 51.6329 130.57 52.6735 126.906 53.9019C123.287 55.1142 119.679 56.541 116.184 58.1341C115.88 58.2736 115.736 58.6544 115.865 58.9817C115.96 59.2284 116.184 59.3786 116.419 59.3786C116.498 59.3786 116.578 59.3625 116.653 59.325C120.112 57.7479 123.681 56.3372 127.265 55.1356C130.894 53.918 134.617 52.8881 138.331 52.0674C142.099 51.2359 145.952 50.603 149.79 50.1792C157.576 49.3263 165.601 49.3263 173.387 50.1792C173.721 50.2114 174.01 49.9593 174.045 49.5999C174.075 49.2459 173.836 48.9294 173.507 48.8918Z" fill="#830016" fill-opacity="0.3"/>
<path d="M87.3574 76.9674C84.4863 79.5154 81.695 82.2457 79.0631 85.0833C76.4263 87.9209 73.8892 90.9247 71.5215 94.0091C69.1439 97.1042 66.8809 100.36 64.7923 103.686C62.6938 107.022 60.7249 110.509 58.9355 114.044C57.1361 117.606 55.4812 121.296 54.0157 125.024C52.5353 128.784 51.2144 132.668 50.0829 136.562C48.9415 140.494 47.9745 144.544 47.2019 148.594C46.4193 152.687 45.8261 156.881 45.4273 161.055C45.0286 165.287 44.8242 169.605 44.8242 173.88C44.8242 178.161 45.0286 182.479 45.4273 186.706C45.8211 190.884 46.4193 195.074 47.2019 199.166C47.9745 203.216 48.9464 207.266 50.0829 211.198C50.1627 211.477 50.4019 211.654 50.6561 211.654C50.716 211.654 50.7758 211.643 50.8356 211.627C51.1546 211.52 51.3291 211.161 51.2294 210.817C50.1029 206.923 49.1408 202.916 48.3782 198.909C47.6056 194.859 47.0174 190.707 46.6236 186.577C46.2249 182.388 46.0255 178.118 46.0255 173.88C46.0255 169.643 46.2249 165.373 46.6236 161.183C47.0124 157.048 47.6056 152.901 48.3782 148.851C49.1408 144.844 50.1029 140.837 51.2294 136.943C52.3459 133.086 53.6568 129.246 55.1223 125.523C56.5728 121.838 58.2127 118.18 59.9922 114.655C61.7617 111.158 63.7107 107.709 65.7843 104.399C67.8529 101.111 70.0909 97.8873 72.4436 94.8244C74.7864 91.7669 77.2986 88.7952 79.9055 85.9898C82.5124 83.1844 85.2739 80.4809 88.1151 77.9598C88.3693 77.7345 88.4092 77.3268 88.1948 77.0479C87.9905 76.7797 87.6116 76.7421 87.3574 76.9674Z" fill="#830016" fill-opacity="0.3"/>
<path d="M192.995 283.2C193.055 283.2 193.115 283.189 193.175 283.173C196.474 282.068 199.759 280.77 202.939 279.322C206.09 277.884 209.22 276.264 212.23 274.494C215.221 272.74 218.172 270.809 220.998 268.755C223.815 266.706 226.566 264.49 229.188 262.162C231.8 259.84 234.342 257.356 236.745 254.77C239.142 252.19 241.455 249.455 243.613 246.639C245.777 243.822 247.835 240.856 249.739 237.825C249.924 237.53 249.854 237.128 249.58 236.93C249.306 236.726 248.932 236.806 248.747 237.101C246.863 240.094 244.824 243.028 242.691 245.812C240.558 248.596 238.27 251.3 235.902 253.853C233.529 256.406 231.017 258.863 228.43 261.159C225.838 263.46 223.117 265.654 220.335 267.676C217.544 269.709 214.623 271.619 211.667 273.352C208.686 275.095 205.596 276.699 202.481 278.12C199.335 279.552 196.09 280.835 192.826 281.929C192.507 282.036 192.332 282.395 192.432 282.739C192.502 283.023 192.736 283.2 192.995 283.2Z" fill="#830016" fill-opacity="0.3"/>
<path d="M264.583 196.661C263.89 200.298 263.018 203.946 261.986 207.497C260.969 211.005 259.778 214.502 258.447 217.887C258.317 218.214 258.462 218.595 258.766 218.734C258.841 218.772 258.921 218.788 259 218.788C259.235 218.788 259.454 218.638 259.554 218.391C260.899 214.969 262.106 211.434 263.132 207.883C264.174 204.294 265.057 200.604 265.759 196.924C266.472 193.191 267.015 189.372 267.374 185.574C267.738 181.717 267.923 177.785 267.923 173.891C267.923 169.997 267.738 166.065 267.374 162.208C267.015 158.41 266.472 154.591 265.759 150.857C265.057 147.178 264.174 143.487 263.132 139.899C263.033 139.561 262.699 139.368 262.38 139.475C262.061 139.582 261.886 139.942 261.986 140.285C263.013 143.836 263.885 147.478 264.583 151.12C265.286 154.811 265.824 158.587 266.178 162.342C266.537 166.156 266.721 170.045 266.721 173.896C266.721 177.748 266.537 181.637 266.178 185.45C265.824 189.195 265.286 192.971 264.583 196.661Z" fill="#830016" fill-opacity="0.3"/>
<path d="M172.439 60.0384C165.272 59.2552 157.895 59.2552 150.727 60.0384C147.193 60.4246 143.644 61.0093 140.179 61.7763C136.755 62.5327 133.326 63.4821 129.996 64.6032C126.696 65.7082 123.411 67.0063 120.231 68.4546C117.081 69.8922 113.951 71.5121 110.94 73.2823C107.949 75.0363 104.998 76.9674 102.172 79.0218C99.3559 81.0709 96.6045 83.2863 93.9826 85.6143C93.7284 85.8396 93.6885 86.2472 93.9028 86.5262C94.1122 86.7997 94.491 86.8373 94.7502 86.612C97.3422 84.3108 100.064 82.1169 102.845 80.0946C105.636 78.0617 108.557 76.152 111.513 74.4194C114.494 72.6761 117.584 71.0723 120.7 69.6508C123.845 68.2186 127.09 66.9366 130.355 65.8423C133.65 64.7373 137.034 63.7986 140.424 63.053C143.853 62.2966 147.357 61.7173 150.851 61.3365C157.939 60.5587 165.232 60.5587 172.32 61.3365C175.814 61.7173 179.323 62.2966 182.748 63.053C186.132 63.7986 189.522 64.7427 192.816 65.8423C196.081 66.9366 199.326 68.2186 202.471 69.6508C205.587 71.0723 208.677 72.6761 211.658 74.4194C214.619 76.152 217.535 78.0617 220.326 80.0946C223.107 82.1223 225.834 84.3108 228.421 86.612C231.003 88.9078 233.52 91.3646 235.893 93.9179C238.265 96.4712 240.548 99.1747 242.682 101.959C244.82 104.743 246.859 107.677 248.738 110.67C250.627 113.679 252.402 116.817 254.012 119.998C254.121 120.213 254.326 120.336 254.54 120.336C254.635 120.336 254.734 120.309 254.824 120.255C255.118 120.084 255.223 119.692 255.063 119.381C253.438 116.163 251.644 112.987 249.73 109.946C247.826 106.915 245.762 103.949 243.604 101.133C241.446 98.3218 239.138 95.5861 236.735 93.0006C234.333 90.4151 231.791 87.9316 229.179 85.6089C226.562 83.2809 223.805 81.0655 220.989 79.0165C218.163 76.962 215.212 75.031 212.221 73.2769C209.206 71.5121 206.08 69.8868 202.93 68.4492C199.75 67.0009 196.465 65.7028 193.165 64.5978C189.836 63.4821 186.406 62.5273 182.982 61.771C179.523 61.0146 175.974 60.4299 172.439 60.0384Z" fill="#830016" fill-opacity="0.3"/>
<path d="M69.154 119.998C69.3135 119.687 69.2038 119.29 68.9147 119.124C68.6206 118.952 68.2568 119.07 68.0972 119.381C66.4573 122.626 64.947 125.995 63.6161 129.385C62.2703 132.807 61.064 136.342 60.0372 139.893C58.9955 143.482 58.1132 147.172 57.4104 150.852C56.6976 154.586 56.1543 158.405 55.7954 162.203C55.4315 166.059 55.2471 169.991 55.2471 173.886C55.2471 177.78 55.4315 181.712 55.7954 185.569C55.8253 185.901 56.0895 186.148 56.3935 186.148C56.4135 186.148 56.4334 186.148 56.4533 186.143C56.7823 186.105 57.0216 185.788 56.9917 185.434C56.6328 181.621 56.4483 177.732 56.4483 173.88C56.4483 170.029 56.6328 166.14 56.9917 162.326C57.3456 158.571 57.8839 154.795 58.5867 151.104C59.2796 147.468 60.1519 143.82 61.1837 140.269C62.2005 136.761 63.3918 133.263 64.7227 129.879C66.0386 126.537 67.529 123.211 69.154 119.998Z" fill="#830016" fill-opacity="0.3"/>
<path d="M73.4303 237.825C75.3344 240.856 77.398 243.822 79.5563 246.638C81.7146 249.449 84.0224 252.185 86.425 254.77C88.8226 257.356 91.3697 259.839 93.9816 262.162C96.5985 264.49 99.3549 266.705 102.171 268.755C104.997 270.809 107.948 272.74 110.939 274.494C113.955 276.259 117.08 277.884 120.23 279.322C120.305 279.359 120.385 279.375 120.465 279.375C120.699 279.375 120.918 279.225 121.018 278.978C121.147 278.651 121.003 278.27 120.699 278.131C117.583 276.709 114.493 275.106 111.512 273.362C108.551 271.63 105.635 269.72 102.844 267.687C100.063 265.659 97.3362 263.471 94.7492 261.164C92.1672 258.869 89.65 256.412 87.2774 253.858C84.9047 251.305 82.6218 248.602 80.4884 245.818C78.35 243.034 76.3113 240.1 74.4322 237.106C72.543 234.097 70.7685 230.959 69.1585 227.778C68.999 227.467 68.6351 227.349 68.341 227.521C68.0469 227.693 67.9423 228.084 68.1018 228.395C69.7218 231.608 71.5162 234.784 73.4303 237.825Z" fill="#830016" fill-opacity="0.3"/>
<path d="M140.18 285.995C143.644 286.762 147.193 287.347 150.727 287.733C154.311 288.124 157.965 288.323 161.584 288.323C161.918 288.323 162.187 288.033 162.187 287.674C162.187 287.314 161.918 287.025 161.584 287.025C158.005 287.025 154.391 286.826 150.847 286.44C147.353 286.059 143.844 285.48 140.419 284.723C140.095 284.654 139.776 284.879 139.711 285.228C139.647 285.582 139.856 285.925 140.18 285.995Z" fill="#830016" fill-opacity="0.3"/>
<path d="M180.852 275.454C180.892 275.454 180.932 275.449 180.972 275.444C184.072 274.757 187.177 273.899 190.198 272.885C193.184 271.882 196.16 270.707 199.046 269.393C201.902 268.089 204.733 266.62 207.465 265.021C210.176 263.433 212.848 261.685 215.405 259.823C217.957 257.967 220.449 255.956 222.822 253.853C225.19 251.751 227.487 249.498 229.666 247.159C229.9 246.907 229.9 246.499 229.666 246.247C229.431 245.995 229.053 245.995 228.818 246.247C226.67 248.559 224.397 250.785 222.059 252.861C219.717 254.942 217.254 256.927 214.732 258.761C212.205 260.601 209.568 262.328 206.886 263.895C204.19 265.472 201.393 266.925 198.572 268.213C195.726 269.511 192.785 270.67 189.834 271.662C186.853 272.66 183.788 273.513 180.727 274.188C180.403 274.258 180.194 274.601 180.259 274.95C180.319 275.24 180.568 275.454 180.852 275.454Z" fill="#830016" fill-opacity="0.3"/>
<path d="M253.572 204.681C254.514 201.43 255.312 198.088 255.95 194.752C256.593 191.367 257.086 187.907 257.41 184.469C257.739 180.982 257.909 177.42 257.909 173.886C257.909 170.351 257.739 166.789 257.41 163.302C257.086 159.864 256.593 156.404 255.95 153.019C255.312 149.683 254.514 146.341 253.572 143.09C252.64 139.877 251.549 136.675 250.327 133.569C249.116 130.49 247.75 127.443 246.265 124.509C244.789 121.596 243.165 118.721 241.435 115.964C241.25 115.669 240.877 115.589 240.602 115.793C240.328 115.991 240.254 116.393 240.443 116.688C242.153 119.413 243.758 122.251 245.213 125.131C246.679 128.028 248.029 131.037 249.226 134.079C250.432 137.142 251.509 140.306 252.431 143.477C253.358 146.684 254.15 149.983 254.779 153.277C255.417 156.619 255.9 160.035 256.224 163.431C256.548 166.875 256.718 170.394 256.718 173.886C256.718 177.378 256.553 180.891 256.224 184.34C255.9 187.736 255.417 191.152 254.779 194.494C254.15 197.788 253.358 201.087 252.431 204.294C251.514 207.47 250.432 210.629 249.226 213.692C248.029 216.728 246.679 219.738 245.213 222.64C243.758 225.52 242.153 228.358 240.443 231.083C240.259 231.378 240.328 231.78 240.602 231.978C240.707 232.054 240.822 232.091 240.936 232.091C241.131 232.091 241.32 231.989 241.435 231.807C243.165 229.05 244.794 226.175 246.265 223.262C247.75 220.328 249.116 217.281 250.327 214.202C251.554 211.096 252.64 207.894 253.572 204.681Z" fill="#830016" fill-opacity="0.3"/>
<path d="M142.438 73.5987C145.539 72.9121 148.714 72.3918 151.874 72.0432C158.284 71.3405 164.889 71.3405 171.299 72.0432C174.459 72.3918 177.634 72.9121 180.735 73.5987C183.795 74.2746 186.861 75.1221 189.841 76.1252C192.792 77.1122 195.728 78.2762 198.579 79.5743C201.401 80.8617 204.197 82.3154 206.894 83.8924C209.57 85.4587 212.212 87.186 214.739 89.0258C217.256 90.8604 219.724 92.8451 222.067 94.9263C224.404 97.0022 226.677 99.2283 228.826 101.54C228.945 101.669 229.095 101.728 229.249 101.728C229.404 101.728 229.558 101.664 229.673 101.54C229.907 101.288 229.907 100.88 229.673 100.628C227.5 98.2896 225.197 96.0367 222.829 93.934C220.457 91.8259 217.964 89.8197 215.412 87.9584C212.855 86.0971 210.183 84.3484 207.472 82.7606C204.745 81.1621 201.909 79.6923 199.053 78.3889C196.167 77.0747 193.191 75.8999 190.205 74.8969C187.185 73.883 184.079 73.0248 180.979 72.3382C177.839 71.6462 174.624 71.1152 171.424 70.7665C164.929 70.0531 158.244 70.0531 151.754 70.7665C148.554 71.1152 145.339 71.6462 142.199 72.3382C141.875 72.4079 141.666 72.7512 141.731 73.0999C141.795 73.4486 142.114 73.6738 142.438 73.5987Z" fill="#830016" fill-opacity="0.3"/>
<path d="M124.123 78.3835C121.267 79.6869 118.436 81.1567 115.704 82.7552C112.992 84.343 110.321 86.0917 107.764 87.953C105.212 89.809 102.719 91.8205 100.347 93.9232C97.979 96.0259 95.6811 98.2788 93.5029 100.618C93.2686 100.87 93.2686 101.277 93.5029 101.529C93.6225 101.658 93.772 101.717 93.9265 101.717C94.0811 101.717 94.2356 101.653 94.3502 101.529C96.4986 99.2176 98.7715 96.9915 101.109 94.9156C103.452 92.8343 105.914 90.8496 108.437 89.0151C110.964 87.1752 113.601 85.448 116.282 83.8816C118.979 82.3046 121.775 80.851 124.597 79.5636C124.901 79.4241 125.045 79.0433 124.916 78.716C124.781 78.3996 124.427 78.244 124.123 78.3835Z" fill="#830016" fill-opacity="0.3"/>
<path d="M82.7264 116.694C82.9108 116.399 82.841 115.996 82.5669 115.798C82.2927 115.599 81.9189 115.674 81.7345 115.97C80.0048 118.727 78.3749 121.602 76.9044 124.514C75.419 127.449 74.0533 130.495 72.842 133.574C72.7124 133.902 72.857 134.282 73.161 134.422C73.2358 134.459 73.3156 134.476 73.3953 134.476C73.6296 134.476 73.8489 134.325 73.9486 134.079C75.1449 131.043 76.4957 128.033 77.9612 125.131C79.4067 122.256 81.0167 119.413 82.7264 116.694Z" fill="#830016" fill-opacity="0.3"/>
<path d="M67.2148 194.752C67.8528 198.088 68.6503 201.43 69.5924 204.681C70.5245 207.894 71.6161 211.096 72.8374 214.202C72.9321 214.449 73.1564 214.599 73.3906 214.599C73.4704 214.599 73.5502 214.583 73.6249 214.545C73.929 214.406 74.0735 214.025 73.9439 213.698C72.7377 210.635 71.661 207.47 70.7389 204.3C69.8117 201.092 69.0192 197.793 68.3911 194.5C67.7531 191.158 67.2696 187.741 66.9456 184.345C66.6216 180.902 66.4521 177.383 66.4521 173.891C66.4521 170.399 66.6166 166.885 66.9456 163.436C67.2696 160.041 67.7531 156.624 68.3911 153.282C68.4559 152.933 68.2466 152.59 67.9226 152.52C67.5986 152.451 67.2796 152.676 67.2148 153.024C66.5718 156.409 66.0783 159.869 65.7543 163.307C65.4253 166.794 65.2559 170.356 65.2559 173.891C65.2559 177.426 65.4253 180.987 65.7543 184.474C66.0783 187.907 66.5718 191.367 67.2148 194.752Z" fill="#830016" fill-opacity="0.3"/>
<path d="M87.278 239.789C89.2319 242.337 91.3254 244.815 93.4987 247.154C93.6183 247.282 93.7679 247.341 93.9224 247.341C94.0769 247.341 94.2314 247.277 94.3461 247.154C94.5803 246.901 94.5803 246.494 94.3461 246.242C92.1977 243.93 90.1341 241.484 88.2001 238.968C86.2611 236.441 84.4168 233.792 82.7171 231.083C82.5327 230.788 82.1588 230.707 81.8847 230.911C81.6105 231.11 81.5358 231.512 81.7252 231.807C83.4498 234.548 85.319 237.23 87.278 239.789Z" fill="#830016" fill-opacity="0.3"/>
<path d="M132.972 272.88C133.032 272.901 133.092 272.907 133.152 272.907C133.406 272.907 133.645 272.729 133.725 272.451C133.825 272.107 133.645 271.748 133.331 271.641C130.38 270.654 127.444 269.49 124.593 268.191C121.772 266.904 118.976 265.45 116.279 263.873C113.602 262.307 110.961 260.58 108.433 258.74C108.159 258.536 107.785 258.617 107.601 258.912C107.416 259.207 107.486 259.609 107.76 259.807C110.317 261.669 112.989 263.417 115.701 265.005C118.427 266.604 121.264 268.073 124.12 269.377C127.006 270.702 129.987 271.877 132.972 272.88Z" fill="#830016" fill-opacity="0.3"/>
<path d="M161.583 276.254C158.343 276.254 155.078 276.077 151.868 275.722C151.534 275.69 151.245 275.942 151.21 276.302C151.175 276.656 151.414 276.972 151.748 277.01C154.993 277.364 158.303 277.546 161.583 277.546C161.917 277.546 162.186 277.257 162.186 276.897C162.186 276.543 161.917 276.254 161.583 276.254Z" fill="#830016" fill-opacity="0.3"/>
<path d="M170.377 266.727C170.397 266.727 170.417 266.727 170.436 266.722C173.318 266.405 176.209 265.928 179.035 265.305C179.359 265.236 179.568 264.892 179.503 264.544C179.439 264.195 179.12 263.97 178.796 264.04C176.009 264.656 173.153 265.123 170.312 265.434C169.983 265.472 169.744 265.788 169.774 266.142C169.808 266.475 170.073 266.727 170.377 266.727Z" fill="#830016" fill-opacity="0.3"/>
<path d="M215.942 244.869C213.829 246.746 211.616 248.527 209.358 250.174C207.085 251.826 204.712 253.381 202.305 254.787C199.882 256.203 197.365 257.512 194.833 258.665C194.529 258.804 194.384 259.185 194.514 259.512C194.609 259.759 194.833 259.909 195.067 259.909C195.147 259.909 195.227 259.893 195.301 259.856C197.873 258.681 200.421 257.361 202.878 255.924C205.315 254.497 207.723 252.92 210.026 251.246C212.314 249.578 214.562 247.77 216.705 245.872C216.959 245.646 216.999 245.239 216.785 244.96C216.581 244.681 216.197 244.643 215.942 244.869Z" fill="#830016" fill-opacity="0.3"/>
<path d="M228.006 233.448C228.18 233.448 228.35 233.368 228.469 233.212C230.234 230.911 231.914 228.492 233.464 226.024C233.648 225.729 233.579 225.327 233.304 225.129C233.03 224.93 232.656 225.005 232.472 225.3C230.942 227.736 229.287 230.117 227.547 232.386C227.338 232.66 227.373 233.067 227.627 233.298C227.737 233.4 227.871 233.448 228.006 233.448Z" fill="#830016" fill-opacity="0.3"/>
<path d="M243.246 201.221C242.418 204.075 241.451 206.917 240.364 209.669C240.235 209.996 240.379 210.377 240.683 210.517C240.758 210.554 240.838 210.57 240.918 210.57C241.152 210.57 241.376 210.42 241.471 210.173C242.573 207.379 243.555 204.498 244.392 201.602C245.239 198.673 245.962 195.664 246.53 192.665C247.109 189.624 247.552 186.507 247.846 183.407C248.145 180.263 248.295 177.056 248.295 173.88C248.295 173.521 248.026 173.231 247.692 173.231C247.358 173.231 247.089 173.521 247.089 173.88C247.089 177.013 246.939 180.172 246.645 183.278C246.356 186.336 245.917 189.404 245.349 192.408C244.796 195.369 244.083 198.335 243.246 201.221Z" fill="#830016" fill-opacity="0.3"/>
<path d="M127.861 87.9154C125.289 89.0901 122.742 90.4097 120.284 91.8473C119.995 92.0189 119.886 92.4105 120.045 92.7216C120.205 93.0327 120.568 93.1507 120.863 92.9791C123.285 91.563 125.802 90.2541 128.334 89.1008C130.896 87.9315 133.538 86.8908 136.185 86.0004C138.862 85.0992 141.618 84.3375 144.375 83.7314C147.166 83.1145 150.017 82.6479 152.858 82.3367C158.621 81.7038 164.557 81.7038 170.319 82.3367C173.16 82.6479 176.012 83.1199 178.803 83.7314C181.559 84.3375 184.311 85.1046 186.993 86.0004C189.644 86.8908 192.286 87.9315 194.843 89.1008C197.38 90.2595 199.893 91.563 202.315 92.9791C204.723 94.3898 207.095 95.94 209.368 97.5922C211.626 99.2336 213.844 101.02 215.953 102.892C218.056 104.759 220.1 106.759 222.029 108.835C223.958 110.911 225.812 113.11 227.552 115.374C229.292 117.643 230.951 120.025 232.477 122.46C234.012 124.906 235.457 127.459 236.763 130.05C238.079 132.652 239.296 135.361 240.372 138.091C241.459 140.848 242.426 143.691 243.253 146.539C244.091 149.425 244.798 152.392 245.362 155.353C245.422 155.658 245.671 155.868 245.95 155.868C245.99 155.868 246.03 155.862 246.07 155.857C246.394 155.787 246.603 155.444 246.538 155.095C245.965 152.097 245.247 149.087 244.4 146.159C243.562 143.267 242.58 140.381 241.479 137.587C240.387 134.814 239.156 132.072 237.82 129.433C236.494 126.805 235.029 124.219 233.474 121.741C231.923 119.274 230.244 116.855 228.479 114.553C226.72 112.258 224.83 110.026 222.876 107.923C220.917 105.815 218.849 103.788 216.716 101.894C214.572 99.9899 212.329 98.1822 210.036 96.5194C207.733 94.8404 205.326 93.2687 202.888 91.8419C200.431 90.4043 197.879 89.0794 195.312 87.91C192.715 86.7246 190.033 85.6678 187.347 84.7667C184.63 83.8548 181.834 83.0823 179.042 82.4655C176.216 81.8432 173.32 81.3658 170.444 81.0494C164.597 80.411 158.581 80.411 152.739 81.0494C149.858 81.3658 146.967 81.8432 144.14 82.4655C141.344 83.0823 138.553 83.8548 135.836 84.7667C133.135 85.6732 130.458 86.7299 127.861 87.9154Z" fill="#830016" fill-opacity="0.3"/>
<path d="M89.8603 122.648C89.965 122.723 90.0796 122.761 90.1943 122.761C90.3887 122.761 90.5781 122.659 90.6927 122.476C92.223 120.041 93.8779 117.659 95.6175 115.39C97.3571 113.127 99.2113 110.927 101.14 108.851C103.069 106.776 105.113 104.775 107.217 102.908C107.471 102.683 107.511 102.275 107.296 101.996C107.082 101.723 106.703 101.68 106.449 101.91C104.316 103.804 102.247 105.831 100.288 107.934C98.334 110.037 96.4499 112.268 94.6853 114.564C92.9208 116.865 91.241 119.285 89.6908 121.752C89.5114 122.042 89.5861 122.444 89.8603 122.648Z" fill="#830016" fill-opacity="0.3"/>
<path d="M76.6293 192.671C77.2025 195.669 77.9203 198.678 78.7677 201.607C79.6051 204.498 80.587 207.384 81.6886 210.179C81.7833 210.426 82.0076 210.576 82.2419 210.576C82.3216 210.576 82.4014 210.56 82.4762 210.522C82.7802 210.383 82.9248 210.002 82.7952 209.675C81.7085 206.918 80.7415 204.075 79.9141 201.226C79.0767 198.34 78.3689 195.374 77.8056 192.413C77.2324 189.415 76.7988 186.341 76.5097 183.289C76.2156 180.188 76.066 177.024 76.066 173.891C76.066 170.758 76.2156 167.599 76.5097 164.493C76.7988 161.436 77.2374 158.367 77.8056 155.369C78.3689 152.408 79.0817 149.447 79.9141 146.556C80.7415 143.702 81.7085 140.859 82.7952 138.107C82.9248 137.78 82.7802 137.399 82.4762 137.26C82.1721 137.12 81.8182 137.276 81.6886 137.603C80.587 140.398 79.6051 143.278 78.7677 146.175C77.9203 149.104 77.1975 152.113 76.6293 155.111C76.0511 158.153 75.6074 161.269 75.3134 164.37C75.0143 167.513 74.8647 170.721 74.8647 173.896C74.8647 177.072 75.0143 180.28 75.3134 183.423C75.6074 186.513 76.0511 189.629 76.6293 192.671Z" fill="#830016" fill-opacity="0.3"/>
<path d="M100.299 239.842C102.258 241.95 104.326 243.978 106.46 245.871C108.603 247.776 110.846 249.583 113.139 251.246C113.244 251.321 113.358 251.359 113.473 251.359C113.667 251.359 113.857 251.257 113.971 251.075C114.156 250.78 114.086 250.377 113.812 250.179C111.554 248.537 109.336 246.751 107.227 244.879C105.124 243.012 103.08 241.012 101.151 238.936C99.222 236.86 97.3678 234.661 95.6282 232.397C93.8886 230.128 92.2287 227.746 90.7034 225.311C90.519 225.016 90.1452 224.935 89.871 225.139C89.5969 225.338 89.5221 225.74 89.7115 226.035C91.2617 228.503 92.9415 230.922 94.706 233.223C96.4556 235.508 98.3398 237.74 100.299 239.842Z" fill="#830016" fill-opacity="0.3"/>
<path d="M144.131 265.305C146.957 265.928 149.853 266.405 152.729 266.722C152.749 266.722 152.769 266.727 152.789 266.727C153.093 266.727 153.352 266.48 153.387 266.148C153.422 265.794 153.183 265.477 152.849 265.44C150.008 265.128 147.157 264.656 144.365 264.045C141.609 263.439 138.857 262.672 136.176 261.776C133.524 260.885 130.882 259.845 128.325 258.675C128.021 258.536 127.667 258.692 127.537 259.019C127.408 259.346 127.552 259.727 127.856 259.866C130.453 261.052 133.135 262.108 135.822 263.01C138.543 263.911 141.335 264.689 144.131 265.305Z" fill="#830016" fill-opacity="0.3"/>
<path d="M191.724 250.726C194.017 249.68 196.295 248.494 198.498 247.207C200.677 245.93 202.825 244.525 204.889 243.023C206.937 241.532 208.946 239.912 210.855 238.217C212.759 236.522 214.614 234.709 216.363 232.831C216.597 232.579 216.597 232.172 216.363 231.919C216.129 231.667 215.75 231.667 215.516 231.919C213.796 233.77 211.972 235.556 210.093 237.224C208.213 238.893 206.234 240.486 204.216 241.956C202.182 243.431 200.069 244.82 197.925 246.075C195.762 247.341 193.519 248.505 191.256 249.535C188.973 250.576 186.615 251.504 184.248 252.298C181.86 253.097 179.398 253.783 176.94 254.325C176.616 254.395 176.407 254.738 176.472 255.087C176.532 255.393 176.781 255.602 177.06 255.602C177.1 255.602 177.14 255.596 177.18 255.591C179.677 255.039 182.174 254.347 184.602 253.531C187.009 252.727 189.407 251.783 191.724 250.726Z" fill="#830016" fill-opacity="0.3"/>
<path d="M237.509 190.675C238.027 187.956 238.421 185.177 238.685 182.404C238.949 179.593 239.084 176.729 239.084 173.891C239.084 171.048 238.949 168.184 238.685 165.378C238.421 162.605 238.027 159.821 237.509 157.107C236.995 154.419 236.352 151.732 235.595 149.12C234.847 146.534 233.97 143.954 232.983 141.46C232.006 138.982 230.909 136.53 229.713 134.17C228.526 131.826 227.221 129.509 225.825 127.293C224.439 125.089 222.939 122.927 221.359 120.872C219.784 118.823 218.099 116.828 216.354 114.945C214.605 113.062 212.755 111.249 210.846 109.56C208.937 107.864 206.928 106.245 204.88 104.753C202.816 103.251 200.668 101.846 198.49 100.569C196.291 99.282 194.013 98.0965 191.716 97.0505C189.398 95.9938 187 95.0497 184.598 94.2397C182.17 93.4244 179.673 92.7324 177.176 92.1799C176.852 92.1102 176.533 92.3355 176.468 92.6842C176.403 93.0328 176.612 93.3761 176.936 93.4459C179.394 93.9876 181.851 94.6689 184.244 95.4735C186.611 96.2674 188.969 97.1953 191.252 98.236C193.51 99.2659 195.753 100.43 197.921 101.696C200.065 102.951 202.183 104.335 204.212 105.815C206.231 107.285 208.209 108.878 210.089 110.547C211.968 112.215 213.787 113.996 215.512 115.852C217.232 117.702 218.891 119.665 220.442 121.688C221.997 123.715 223.472 125.84 224.838 128.012C226.209 130.195 227.495 132.47 228.666 134.781C229.842 137.104 230.924 139.518 231.886 141.959C232.853 144.415 233.715 146.953 234.453 149.5C235.196 152.07 235.834 154.72 236.337 157.364C236.846 160.041 237.235 162.777 237.494 165.507C237.753 168.275 237.887 171.091 237.887 173.891C237.887 176.686 237.753 179.507 237.494 182.275C237.235 185.005 236.846 187.746 236.337 190.418C235.834 193.062 235.201 195.707 234.453 198.281C233.715 200.829 232.853 203.367 231.886 205.823C230.924 208.259 229.842 210.678 228.666 213C228.507 213.312 228.616 213.708 228.905 213.875C228.995 213.928 229.095 213.955 229.189 213.955C229.404 213.955 229.608 213.832 229.718 213.617C230.909 211.257 232.011 208.806 232.988 206.328C233.97 203.833 234.847 201.253 235.6 198.668C236.352 196.05 236.995 193.363 237.509 190.675Z" fill="#830016" fill-opacity="0.3"/>
<path d="M153.792 92.2014C156.364 91.9171 158.986 91.7776 161.583 91.7776C161.917 91.7776 162.186 91.4879 162.186 91.1285C162.186 90.7692 161.917 90.4795 161.583 90.4795C158.946 90.4795 156.284 90.6243 153.672 90.9086C153.343 90.9462 153.104 91.2626 153.134 91.6167C153.164 91.9492 153.428 92.196 153.732 92.196C153.752 92.2014 153.772 92.2014 153.792 92.2014Z" fill="#830016" fill-opacity="0.3"/>
<path d="M124.957 101.776C125.052 101.776 125.151 101.749 125.241 101.696C127.404 100.43 129.652 99.2659 131.91 98.236C134.193 97.1954 136.551 96.2674 138.919 95.4735C139.233 95.3662 139.412 95.0068 139.312 94.6635C139.213 94.3256 138.884 94.1325 138.56 94.2398C136.157 95.0444 133.76 95.9938 131.442 97.0506C129.149 98.0965 126.871 99.282 124.668 100.569C124.374 100.741 124.269 101.133 124.428 101.444C124.538 101.658 124.747 101.776 124.957 101.776Z" fill="#830016" fill-opacity="0.3"/>
<path d="M102.723 121.688C104.274 119.666 105.933 117.708 107.653 115.852C109.373 114.001 111.197 112.215 113.076 110.547C113.33 110.321 113.37 109.914 113.156 109.635C112.942 109.361 112.563 109.318 112.309 109.549C110.405 111.244 108.55 113.057 106.801 114.934C105.051 116.817 103.371 118.807 101.796 120.862C100.216 122.922 98.7157 125.078 97.33 127.283C95.9343 129.498 94.6284 131.815 93.4421 134.159C93.2826 134.47 93.3922 134.867 93.6813 135.034C93.771 135.087 93.8707 135.114 93.9654 135.114C94.1798 135.114 94.3842 134.991 94.4938 134.776C95.6602 132.464 96.9462 130.19 98.3219 128.007C99.6927 125.84 101.173 123.715 102.723 121.688Z" fill="#830016" fill-opacity="0.3"/>
<path d="M86.8355 157.359C87.3389 154.714 87.9719 152.07 88.7196 149.495C88.8193 149.152 88.6399 148.792 88.3258 148.685C88.0068 148.578 87.6729 148.771 87.5732 149.109C86.8155 151.721 86.1725 154.408 85.6591 157.096C85.1407 159.815 84.7469 162.594 84.4828 165.367C84.2186 168.178 84.084 171.042 84.084 173.88C84.084 176.723 84.2186 179.587 84.4828 182.393C84.7469 185.166 85.1407 187.95 85.6591 190.664C86.1725 193.352 86.8155 196.039 87.5732 198.651C88.3209 201.237 89.1981 203.817 90.1851 206.311C91.1621 208.79 92.2587 211.241 93.4549 213.601C94.6413 215.945 95.9472 218.262 97.3429 220.478C98.7286 222.682 100.229 224.844 101.809 226.899C103.384 228.948 105.069 230.943 106.814 232.826C108.563 234.709 110.412 236.522 112.321 238.211C114.231 239.907 116.239 241.526 118.288 243.018C118.393 243.093 118.507 243.13 118.622 243.13C118.816 243.13 119.006 243.028 119.12 242.846C119.305 242.551 119.235 242.149 118.961 241.95C116.942 240.48 114.963 238.887 113.084 237.219C111.205 235.551 109.386 233.77 107.661 231.914C105.941 230.063 104.281 228.1 102.731 226.078C101.176 224.05 99.7006 221.926 98.3348 219.754C96.9641 217.571 95.6781 215.296 94.5067 212.984C93.3303 210.662 92.2487 208.248 91.2867 205.807C90.3197 203.35 89.4573 200.813 88.7196 198.265C87.9769 195.696 87.3389 193.046 86.8355 190.401C86.327 187.725 85.9382 184.989 85.679 182.259C85.4199 179.491 85.2853 176.675 85.2853 173.875C85.2853 171.08 85.4199 168.259 85.679 165.491C85.9382 162.771 86.327 160.035 86.8355 157.359Z" fill="#830016" fill-opacity="0.3"/>
<path d="M138.564 253.537C140.991 254.352 143.488 255.044 145.986 255.597C148.518 256.155 151.105 256.579 153.672 256.863C153.692 256.863 153.712 256.868 153.732 256.868C154.036 256.868 154.295 256.621 154.33 256.289C154.365 255.935 154.126 255.618 153.792 255.581C151.259 255.302 148.717 254.883 146.225 254.336C143.768 253.795 141.31 253.113 138.918 252.309C136.55 251.515 134.192 250.587 131.909 249.546C131.605 249.407 131.251 249.562 131.122 249.89C130.992 250.217 131.137 250.598 131.441 250.737C133.764 251.783 136.156 252.727 138.564 253.537Z" fill="#830016" fill-opacity="0.3"/>
<path d="M169.133 246.719C169.098 246.365 168.809 246.108 168.475 246.14C163.924 246.639 159.244 246.639 154.693 246.14C152.455 245.893 150.202 245.523 147.998 245.035C145.825 244.557 143.652 243.951 141.538 243.243C139.445 242.54 137.361 241.72 135.343 240.797C133.339 239.885 131.355 238.855 129.446 237.734C127.547 236.624 125.673 235.395 123.883 234.092C122.104 232.799 120.354 231.389 118.684 229.908C117.024 228.433 115.409 226.85 113.889 225.214C112.364 223.573 110.898 221.84 109.533 220.054C108.162 218.268 106.851 216.385 105.645 214.459C104.428 212.523 103.292 210.506 102.26 208.473C101.218 206.413 100.261 204.278 99.4139 202.127C99.2843 201.8 98.9304 201.645 98.6264 201.784C98.3223 201.924 98.1778 202.304 98.3074 202.632C99.1697 204.82 100.142 206.998 101.203 209.09C102.25 211.166 103.412 213.215 104.648 215.184C105.879 217.142 107.21 219.056 108.605 220.875C109.996 222.693 111.491 224.458 113.042 226.126C114.587 227.789 116.232 229.398 117.922 230.9C119.621 232.408 121.401 233.84 123.21 235.159C125.035 236.49 126.944 237.734 128.873 238.866C130.817 240.003 132.84 241.055 134.874 241.983C136.928 242.921 139.051 243.758 141.184 244.471C143.338 245.196 145.551 245.807 147.764 246.295C150.002 246.789 152.295 247.17 154.578 247.416C156.896 247.668 159.253 247.797 161.591 247.797C163.929 247.797 166.287 247.668 168.605 247.416C168.924 247.39 169.168 247.073 169.133 246.719Z" fill="#830016" fill-opacity="0.3"/>
<path d="M221.971 209.095C223.033 206.998 224.005 204.826 224.867 202.637C225.74 200.427 226.517 198.142 227.18 195.846C227.853 193.523 228.421 191.142 228.875 188.766C228.945 188.417 228.73 188.074 228.406 188.004C228.082 187.934 227.763 188.159 227.698 188.508C227.255 190.841 226.692 193.18 226.034 195.46C225.381 197.713 224.618 199.96 223.761 202.127C222.913 204.278 221.956 206.413 220.914 208.473C219.883 210.511 218.746 212.523 217.53 214.459C216.324 216.385 215.013 218.263 213.642 220.054C212.271 221.84 210.806 223.573 209.286 225.214C207.765 226.85 206.15 228.428 204.49 229.903C202.821 231.383 201.071 232.794 199.291 234.087C197.497 235.39 195.623 236.618 193.729 237.729C193.435 237.9 193.33 238.292 193.489 238.603C193.599 238.818 193.803 238.941 194.018 238.941C194.113 238.941 194.212 238.914 194.302 238.861C196.236 237.729 198.14 236.484 199.964 235.154C201.774 233.835 203.558 232.402 205.253 230.895C206.943 229.393 208.588 227.784 210.133 226.121C211.683 224.453 213.178 222.683 214.569 220.87C215.965 219.051 217.296 217.136 218.527 215.178C219.763 213.22 220.924 211.166 221.971 209.095Z" fill="#830016" fill-opacity="0.3"/>
<path d="M227.703 159.268C228.157 161.639 228.501 164.064 228.725 166.472C228.954 168.924 229.074 171.418 229.074 173.891C229.074 174.25 229.343 174.54 229.677 174.54C230.011 174.54 230.28 174.25 230.28 173.891C230.28 171.381 230.16 168.838 229.926 166.344C229.692 163.892 229.343 161.425 228.884 159.011C228.431 156.635 227.863 154.253 227.19 151.93C227.09 151.592 226.761 151.399 226.437 151.507C226.123 151.614 225.944 151.973 226.043 152.317C226.696 154.591 227.254 156.935 227.703 159.268Z" fill="#830016" fill-opacity="0.3"/>
<path d="M221.971 138.681C220.925 136.605 219.763 134.556 218.527 132.587C217.296 130.629 215.965 128.714 214.569 126.896C213.179 125.078 211.683 123.313 210.133 121.645C209.899 121.392 209.52 121.392 209.286 121.645C209.051 121.897 209.051 122.304 209.286 122.556C210.811 124.198 212.276 125.93 213.642 127.717C215.013 129.503 216.324 131.386 217.53 133.311C218.746 135.248 219.883 137.265 220.915 139.298C221.024 139.512 221.229 139.636 221.443 139.636C221.538 139.636 221.637 139.609 221.727 139.555C222.021 139.384 222.131 138.992 221.971 138.681Z" fill="#830016" fill-opacity="0.3"/>
<path d="M147.291 102.232C147.356 102.581 147.675 102.806 147.999 102.736C150.202 102.248 152.455 101.878 154.693 101.631C159.244 101.133 163.925 101.133 168.476 101.631C170.714 101.878 172.967 102.248 175.17 102.736C177.343 103.214 179.516 103.82 181.63 104.528C183.723 105.231 185.807 106.051 187.826 106.974C189.829 107.886 191.813 108.916 193.722 110.037C195.622 111.147 197.496 112.376 199.285 113.679C199.39 113.754 199.504 113.792 199.619 113.792C199.814 113.792 200.003 113.69 200.118 113.507C200.302 113.212 200.232 112.81 199.958 112.612C198.134 111.281 196.225 110.037 194.296 108.905C192.352 107.768 190.328 106.717 188.294 105.789C186.241 104.85 184.117 104.013 181.984 103.3C179.83 102.575 177.617 101.964 175.404 101.476C173.166 100.982 170.873 100.602 168.59 100.355C163.96 99.8452 159.194 99.8452 154.564 100.355C152.286 100.607 149.993 100.982 147.75 101.476C147.431 101.54 147.221 101.884 147.291 102.232Z" fill="#830016" fill-opacity="0.3"/>
<path d="M117.912 116.865C117.658 117.09 117.618 117.498 117.833 117.777C117.952 117.933 118.122 118.013 118.296 118.013C118.431 118.013 118.565 117.965 118.68 117.863C120.35 116.382 122.099 114.972 123.879 113.679C125.673 112.375 127.547 111.147 129.442 110.037C131.356 108.916 133.339 107.886 135.338 106.974C135.642 106.834 135.787 106.454 135.657 106.126C135.528 105.799 135.174 105.644 134.87 105.783C132.831 106.711 130.812 107.762 128.868 108.9C126.934 110.031 125.03 111.276 123.206 112.606C121.391 113.926 119.612 115.358 117.912 116.865Z" fill="#830016" fill-opacity="0.3"/>
<path d="M98.6171 145.987C98.6919 146.025 98.7716 146.041 98.8514 146.041C99.0856 146.041 99.305 145.89 99.4046 145.644C100.252 143.493 101.209 141.358 102.251 139.298C102.41 138.987 102.301 138.59 102.012 138.424C101.717 138.252 101.354 138.37 101.194 138.681C100.132 140.778 99.1604 142.951 98.2981 145.139C98.1685 145.467 98.313 145.848 98.6171 145.987Z" fill="#830016" fill-opacity="0.3"/>
<path d="M95.469 159.268C95.5338 158.92 95.3245 158.576 95.0005 158.507C94.6765 158.437 94.3574 158.662 94.2926 159.011C93.8341 161.425 93.4802 163.892 93.2509 166.344C93.0166 168.838 92.897 171.375 92.897 173.891C92.897 176.401 93.0166 178.944 93.2509 181.438C93.4852 183.889 93.8341 186.357 94.2926 188.771C94.3525 189.077 94.6017 189.286 94.8808 189.286C94.9207 189.286 94.9606 189.28 95.0005 189.275C95.3245 189.205 95.5338 188.862 95.469 188.513C95.0154 186.142 94.6715 183.718 94.4472 181.309C94.2179 178.858 94.0983 176.364 94.0983 173.891C94.0983 171.423 94.2179 168.929 94.4472 166.478C94.6715 164.064 95.0154 161.639 95.469 159.268Z" fill="#830016" fill-opacity="0.3"/>
<path d="M106.052 199.113C106.809 201.039 107.662 202.943 108.594 204.783C109.516 206.606 110.533 208.409 111.619 210.131C112.696 211.847 113.863 213.526 115.094 215.125C116.315 216.718 117.626 218.268 118.987 219.732C120.347 221.197 121.788 222.607 123.268 223.922C124.749 225.236 126.309 226.496 127.909 227.66C129.509 228.824 131.179 229.919 132.879 230.911C134.588 231.909 136.363 232.831 138.147 233.647C139.952 234.467 141.816 235.208 143.685 235.83C145.579 236.463 147.518 237.005 149.457 237.434C151.421 237.868 153.43 238.201 155.434 238.421C157.462 238.646 159.536 238.759 161.59 238.759C163.643 238.759 165.717 238.646 167.746 238.421C168.075 238.383 168.314 238.067 168.284 237.713C168.249 237.359 167.965 237.101 167.626 237.133C163.648 237.568 159.541 237.568 155.563 237.133C153.599 236.919 151.63 236.592 149.706 236.168C147.807 235.749 145.903 235.218 144.049 234.602C142.22 233.99 140.395 233.266 138.626 232.461C136.876 231.662 135.137 230.761 133.462 229.779C131.797 228.803 130.157 227.73 128.592 226.593C127.027 225.45 125.496 224.217 124.041 222.929C122.585 221.637 121.175 220.258 119.844 218.82C118.508 217.383 117.227 215.865 116.026 214.304C114.825 212.738 113.678 211.091 112.621 209.406C111.56 207.717 110.563 205.952 109.661 204.166C108.748 202.363 107.911 200.497 107.168 198.609C106.421 196.71 105.753 194.746 105.179 192.772C105.08 192.435 104.751 192.241 104.427 192.349C104.113 192.456 103.933 192.815 104.033 193.159C104.606 195.17 105.289 197.176 106.052 199.113Z" fill="#830016" fill-opacity="0.3"/>
<path d="M195.427 226.765C195.242 226.47 194.868 226.389 194.594 226.593C193.024 227.736 191.389 228.808 189.724 229.779C188.05 230.761 186.31 231.662 184.56 232.461C182.791 233.266 180.967 233.99 179.137 234.602C178.823 234.709 178.644 235.068 178.743 235.412C178.823 235.69 179.062 235.868 179.317 235.868C179.376 235.868 179.436 235.857 179.496 235.841C181.365 235.213 183.225 234.478 185.034 233.658C186.818 232.842 188.593 231.925 190.303 230.922C192.002 229.929 193.672 228.835 195.272 227.671C195.536 227.462 195.611 227.06 195.427 226.765Z" fill="#830016" fill-opacity="0.3"/>
<path d="M210.56 209.407C209.503 211.085 208.357 212.732 207.155 214.304C205.959 215.865 204.673 217.383 203.337 218.82C203.103 219.073 203.103 219.48 203.337 219.732C203.457 219.861 203.606 219.92 203.761 219.92C203.916 219.92 204.07 219.856 204.185 219.732C205.545 218.268 206.856 216.718 208.078 215.125C209.304 213.526 210.475 211.842 211.552 210.131C211.736 209.836 211.667 209.433 211.392 209.235C211.118 209.031 210.744 209.112 210.56 209.407Z" fill="#830016" fill-opacity="0.3"/>
<path d="M219.458 186.684C219.393 187.033 219.602 187.376 219.926 187.446C219.966 187.457 220.006 187.457 220.046 187.457C220.325 187.457 220.574 187.247 220.634 186.942C221.038 184.828 221.347 182.661 221.551 180.505C221.761 178.316 221.865 176.09 221.865 173.88C221.865 171.675 221.761 169.444 221.551 167.255C221.347 165.099 221.038 162.937 220.634 160.819C220.235 158.727 219.737 156.635 219.144 154.607C219.044 154.264 218.705 154.076 218.391 154.183C218.072 154.29 217.898 154.65 217.997 154.993C218.575 156.978 219.064 159.027 219.458 161.081C219.852 163.152 220.156 165.276 220.355 167.39C220.559 169.535 220.659 171.718 220.659 173.88C220.659 176.042 220.554 178.23 220.355 180.371C220.156 182.489 219.856 184.614 219.458 186.684Z" fill="#830016" fill-opacity="0.3"/>
<path d="M207.237 132.561C206.982 132.786 206.942 133.194 207.157 133.472C208.358 135.039 209.504 136.686 210.561 138.37C211.623 140.06 212.62 141.824 213.522 143.611C213.632 143.825 213.836 143.949 214.05 143.949C214.145 143.949 214.245 143.922 214.335 143.868C214.629 143.696 214.733 143.305 214.574 142.994C213.652 141.17 212.635 139.368 211.548 137.646C210.471 135.929 209.305 134.25 208.074 132.652C207.87 132.367 207.491 132.33 207.237 132.561Z" fill="#830016" fill-opacity="0.3"/>
<path d="M102.152 167.974C102.172 167.974 102.192 167.98 102.212 167.98C102.516 167.98 102.775 167.733 102.81 167.4C103.009 165.287 103.313 163.168 103.707 161.092C104.101 159.038 104.589 156.989 105.168 155.004C105.741 153.03 106.409 151.067 107.157 149.168C107.899 147.28 108.737 145.413 109.649 143.611C110.551 141.819 111.548 140.054 112.61 138.37C113.666 136.691 114.813 135.044 116.014 133.473C117.21 131.912 118.496 130.394 119.832 128.956C121.163 127.524 122.579 126.14 124.029 124.847C125.48 123.56 127.01 122.326 128.58 121.184C130.15 120.041 131.785 118.968 133.45 117.997C135.125 117.016 136.864 116.115 138.614 115.315C140.384 114.511 142.208 113.786 144.037 113.175C145.891 112.553 147.796 112.027 149.695 111.609C151.619 111.185 153.593 110.858 155.552 110.643C159.529 110.209 163.637 110.209 167.614 110.643C169.578 110.858 171.547 111.185 173.471 111.609C175.37 112.027 177.274 112.558 179.128 113.175C180.958 113.786 182.782 114.511 184.552 115.315C186.301 116.115 188.041 117.016 189.716 117.997C191.381 118.974 193.02 120.046 194.586 121.184C194.86 121.387 195.234 121.307 195.418 121.012C195.602 120.717 195.533 120.315 195.259 120.116C193.658 118.952 191.989 117.858 190.289 116.865C188.579 115.868 186.805 114.945 185.02 114.13C183.216 113.309 181.352 112.569 179.482 111.947C177.588 111.314 175.649 110.772 173.71 110.343C171.746 109.908 169.738 109.576 167.734 109.356C163.676 108.911 159.484 108.911 155.427 109.356C153.423 109.576 151.414 109.908 149.45 110.343C147.511 110.772 145.567 111.308 143.678 111.947C141.809 112.574 139.95 113.309 138.141 114.13C136.356 114.945 134.582 115.862 132.872 116.865C131.172 117.858 129.502 118.952 127.902 120.116C126.302 121.28 124.742 122.535 123.262 123.855C121.781 125.174 120.341 126.58 118.98 128.044C117.619 129.509 116.308 131.059 115.087 132.652C113.861 134.25 112.689 135.935 111.613 137.646C110.531 139.368 109.514 141.17 108.587 142.994C107.66 144.828 106.803 146.738 106.045 148.664C105.282 150.6 104.599 152.606 104.016 154.623C103.428 156.651 102.93 158.743 102.526 160.835C102.122 162.948 101.813 165.115 101.609 167.272C101.584 167.62 101.823 167.937 102.152 167.974Z" fill="#830016" fill-opacity="0.3"/>
<path d="M177.108 227.601C178.728 227.059 180.338 226.421 181.909 225.708C183.459 225 184.994 224.2 186.479 223.337C187.955 222.473 189.4 221.524 190.786 220.515C192.167 219.512 193.523 218.418 194.809 217.275C196.095 216.133 197.341 214.915 198.522 213.644C198.756 213.392 198.756 212.984 198.522 212.732C198.288 212.48 197.909 212.48 197.675 212.732C196.523 213.971 195.302 215.167 194.046 216.283C192.785 217.404 191.464 218.466 190.113 219.448C188.757 220.435 187.342 221.363 185.901 222.205C184.456 223.052 182.95 223.83 181.435 224.522C179.905 225.22 178.325 225.842 176.745 226.373C175.144 226.909 173.5 227.365 171.855 227.73C170.19 228.1 168.485 228.379 166.79 228.567C166.461 228.604 166.222 228.921 166.252 229.275C166.282 229.607 166.546 229.854 166.85 229.854C166.87 229.854 166.89 229.854 166.91 229.849C168.645 229.661 170.389 229.371 172.094 228.996C173.789 228.62 175.473 228.154 177.108 227.601Z" fill="#830016" fill-opacity="0.3"/>
<path d="M211.612 184.946C211.274 186.716 210.85 188.487 210.351 190.208C209.858 191.914 209.28 193.615 208.632 195.256C207.989 196.887 207.266 198.501 206.478 200.057C205.696 201.602 204.834 203.131 203.916 204.59C203.732 204.885 203.802 205.287 204.076 205.485C204.181 205.56 204.295 205.598 204.41 205.598C204.604 205.598 204.794 205.496 204.908 205.314C205.845 203.817 206.728 202.262 207.53 200.674C208.338 199.081 209.075 197.423 209.733 195.76C210.396 194.081 210.989 192.343 211.493 190.595C212.001 188.83 212.435 187.017 212.784 185.209C213.133 183.375 213.402 181.497 213.576 179.631C213.756 177.732 213.846 175.801 213.846 173.886C213.846 171.971 213.756 170.04 213.576 168.141C213.402 166.274 213.133 164.397 212.784 162.562C212.44 160.749 212.006 158.936 211.493 157.176C210.984 155.428 210.391 153.69 209.733 152.011C209.075 150.343 208.338 148.691 207.53 147.097C207.371 146.786 207.007 146.668 206.713 146.84C206.419 147.012 206.314 147.403 206.473 147.714C207.261 149.27 207.984 150.89 208.627 152.515C209.275 154.157 209.853 155.857 210.346 157.563C210.845 159.285 211.269 161.055 211.608 162.825C211.946 164.616 212.211 166.451 212.38 168.275C212.555 170.125 212.644 172.014 212.644 173.886C212.644 175.758 212.555 177.646 212.38 179.496C212.216 181.32 211.951 183.155 211.612 184.946Z" fill="#830016" fill-opacity="0.3"/>
<path d="M198.528 134.132C197.347 132.861 196.101 131.638 194.815 130.501C194.56 130.276 194.182 130.313 193.967 130.587C193.758 130.86 193.793 131.268 194.047 131.499C195.303 132.614 196.524 133.805 197.676 135.05C198.827 136.289 199.939 137.603 200.975 138.955C201.095 139.11 201.265 139.191 201.439 139.191C201.574 139.191 201.708 139.142 201.823 139.04C202.077 138.815 202.117 138.408 201.903 138.129C200.841 136.745 199.704 135.398 198.528 134.132Z" fill="#830016" fill-opacity="0.3"/>
<path d="M181.441 123.254C182.956 123.946 184.457 124.724 185.907 125.571C185.997 125.625 186.097 125.652 186.191 125.652C186.406 125.652 186.61 125.528 186.72 125.314C186.879 125.003 186.769 124.606 186.48 124.439C185 123.57 183.465 122.777 181.909 122.068C180.339 121.355 178.724 120.717 177.109 120.175C176.79 120.068 176.456 120.261 176.357 120.599C176.257 120.942 176.436 121.301 176.75 121.409C178.331 121.934 179.911 122.557 181.441 123.254Z" fill="#830016" fill-opacity="0.3"/>
<path d="M167.455 118.635C167.489 118.281 167.25 117.965 166.916 117.927C163.397 117.541 159.763 117.541 156.244 117.927C154.51 118.115 152.765 118.405 151.06 118.78C149.376 119.15 147.691 119.617 146.056 120.17C144.436 120.711 142.826 121.35 141.256 122.063C140.952 122.202 140.807 122.583 140.937 122.911C141.031 123.157 141.256 123.307 141.49 123.307C141.57 123.307 141.65 123.291 141.724 123.254C143.255 122.557 144.835 121.934 146.415 121.403C148.015 120.867 149.66 120.411 151.305 120.046C152.969 119.676 154.674 119.397 156.369 119.209C159.808 118.834 163.357 118.834 166.797 119.209C167.141 119.252 167.425 118.995 167.455 118.635Z" fill="#830016" fill-opacity="0.3"/>
<path d="M119.25 143.181C120.162 141.728 121.154 140.306 122.19 138.949C123.227 137.597 124.334 136.283 125.49 135.044C125.725 134.792 125.725 134.384 125.49 134.132C125.256 133.88 124.877 133.88 124.643 134.132C123.462 135.404 122.325 136.745 121.268 138.129C120.202 139.518 119.19 140.971 118.258 142.457C118.073 142.752 118.143 143.155 118.417 143.353C118.522 143.428 118.636 143.466 118.751 143.466C118.946 143.466 119.135 143.369 119.25 143.181Z" fill="#830016" fill-opacity="0.3"/>
<path d="M114.214 151.667C113.91 151.528 113.556 151.683 113.427 152.011C112.764 153.69 112.171 155.428 111.667 157.176C111.159 158.941 110.725 160.754 110.376 162.562C110.027 164.396 109.758 166.274 109.584 168.14C109.404 170.039 109.314 171.97 109.314 173.885C109.314 174.245 109.584 174.534 109.918 174.534C110.252 174.534 110.521 174.245 110.521 173.885C110.521 172.013 110.61 170.125 110.785 168.275C110.959 166.451 111.219 164.616 111.558 162.825C111.896 161.055 112.32 159.284 112.819 157.563C113.312 155.857 113.89 154.156 114.538 152.515C114.663 152.188 114.523 151.807 114.214 151.667Z" fill="#830016" fill-opacity="0.3"/>
<path d="M115.63 200.679C116.432 202.261 117.31 203.822 118.252 205.319C119.184 206.805 120.201 208.264 121.263 209.648C122.324 211.032 123.461 212.373 124.637 213.644C125.818 214.915 127.065 216.138 128.351 217.275C129.642 218.423 130.992 219.512 132.373 220.515C133.759 221.524 135.209 222.473 136.68 223.337C138.16 224.206 139.695 225 141.251 225.708C142.821 226.421 144.436 227.059 146.051 227.601C147.691 228.148 149.375 228.62 151.055 228.991C152.76 229.366 154.505 229.656 156.239 229.843C156.259 229.843 156.279 229.849 156.299 229.849C156.603 229.849 156.862 229.602 156.897 229.269C156.932 228.915 156.693 228.599 156.359 228.561C154.664 228.374 152.959 228.095 151.294 227.725C149.65 227.36 148.005 226.904 146.405 226.368C144.824 225.836 143.249 225.214 141.714 224.517C140.199 223.825 138.698 223.047 137.248 222.2C135.807 221.357 134.392 220.429 133.036 219.442C131.685 218.461 130.364 217.393 129.103 216.278C127.847 215.162 126.626 213.971 125.474 212.727C124.323 211.488 123.211 210.173 122.175 208.822C121.133 207.465 120.146 206.043 119.234 204.589C118.317 203.13 117.454 201.602 116.672 200.057C115.884 198.501 115.161 196.881 114.518 195.256C114.389 194.929 114.035 194.773 113.731 194.913C113.427 195.052 113.282 195.433 113.412 195.76C114.085 197.428 114.827 199.08 115.63 200.679Z" fill="#830016" fill-opacity="0.3"/>
<path d="M174.845 219.781C176.226 219.319 177.606 218.772 178.947 218.161C180.273 217.555 181.589 216.873 182.85 216.133C184.106 215.398 185.348 214.588 186.534 213.725C187.715 212.866 188.872 211.933 189.973 210.957C191.075 209.98 192.141 208.934 193.148 207.851C194.16 206.762 195.132 205.614 196.029 204.439C196.937 203.259 197.804 202.015 198.601 200.738C198.786 200.443 198.716 200.041 198.442 199.842C198.168 199.644 197.794 199.719 197.61 200.014C196.832 201.253 195.99 202.465 195.107 203.613C194.23 204.761 193.283 205.877 192.301 206.934C191.324 207.985 190.282 209.004 189.211 209.954C188.139 210.903 187.012 211.81 185.866 212.646C184.714 213.483 183.508 214.277 182.282 214.991C181.056 215.709 179.775 216.374 178.484 216.964C177.183 217.56 175.837 218.091 174.491 218.542C173.13 218.997 171.73 219.389 170.329 219.695C168.913 220.006 167.463 220.247 166.017 220.403C164.557 220.564 163.062 220.644 161.581 220.644C161.247 220.644 160.978 220.934 160.978 221.293C160.978 221.653 161.247 221.942 161.581 221.942C163.101 221.942 164.637 221.857 166.142 221.696C167.627 221.535 169.118 221.288 170.573 220.966C172.009 220.65 173.449 220.253 174.845 219.781Z" fill="#830016" fill-opacity="0.3"/>
<path d="M205.333 164.214C205.039 162.669 204.665 161.119 204.231 159.612C203.798 158.115 203.289 156.629 202.726 155.197C202.596 154.87 202.242 154.714 201.938 154.854C201.634 154.993 201.49 155.374 201.619 155.701C202.168 157.096 202.661 158.539 203.085 159.993C203.509 161.457 203.872 162.964 204.157 164.472C204.446 166 204.67 167.561 204.814 169.111C204.964 170.688 205.039 172.298 205.039 173.885C205.039 175.473 204.964 177.082 204.814 178.66C204.665 180.21 204.446 181.771 204.157 183.299C203.867 184.807 203.509 186.309 203.085 187.778C202.661 189.237 202.173 190.68 201.619 192.075C201.49 192.402 201.634 192.783 201.938 192.923C202.013 192.96 202.093 192.976 202.173 192.976C202.407 192.976 202.626 192.826 202.726 192.585C203.289 191.152 203.798 189.667 204.231 188.17C204.67 186.663 205.039 185.112 205.333 183.568C205.632 181.996 205.861 180.392 206.011 178.799C206.165 177.179 206.24 175.527 206.24 173.891C206.24 172.255 206.16 170.608 206.011 168.983C205.861 167.39 205.632 165.786 205.333 164.214Z" fill="#830016" fill-opacity="0.3"/>
<path d="M182.279 132.77C183.505 133.489 184.706 134.277 185.863 135.114C187.014 135.951 188.141 136.857 189.207 137.807C190.279 138.756 191.316 139.775 192.298 140.827C193.28 141.889 194.227 143.005 195.104 144.153C195.986 145.3 196.829 146.513 197.606 147.752C197.721 147.934 197.91 148.036 198.105 148.036C198.219 148.036 198.339 147.999 198.439 147.924C198.713 147.725 198.788 147.323 198.598 147.028C197.796 145.756 196.933 144.507 196.026 143.327C195.124 142.152 194.152 140.999 193.145 139.91C192.138 138.826 191.071 137.785 189.97 136.804C188.868 135.828 187.712 134.894 186.531 134.036C185.344 133.172 184.108 132.362 182.847 131.627C181.586 130.887 180.27 130.206 178.944 129.6C177.603 128.988 176.223 128.447 174.842 127.98C174.523 127.878 174.189 128.066 174.089 128.404C173.989 128.747 174.169 129.106 174.483 129.214C175.829 129.664 177.17 130.195 178.471 130.785C179.776 131.391 181.053 132.051 182.279 132.77Z" fill="#830016" fill-opacity="0.3"/>
<path d="M161.581 125.829C161.247 125.829 160.978 126.118 160.978 126.478C160.978 126.837 161.247 127.127 161.581 127.127C163.062 127.127 164.557 127.207 166.017 127.368C166.037 127.368 166.057 127.374 166.077 127.374C166.381 127.374 166.64 127.127 166.675 126.794C166.71 126.44 166.471 126.124 166.137 126.086C164.637 125.909 163.106 125.829 161.581 125.829Z" fill="#830016" fill-opacity="0.3"/>
<path d="M136.628 134.046C135.447 134.905 134.291 135.838 133.189 136.814C132.087 137.791 131.021 138.837 130.014 139.92C129.002 141.009 128.03 142.157 127.133 143.337C126.923 143.611 126.958 144.018 127.212 144.249C127.322 144.351 127.462 144.399 127.596 144.399C127.771 144.399 127.94 144.319 128.06 144.163C128.937 143.015 129.884 141.899 130.866 140.843C131.843 139.791 132.885 138.772 133.957 137.823C135.028 136.873 136.155 135.967 137.301 135.13C138.453 134.293 139.659 133.499 140.885 132.786C142.111 132.067 143.392 131.402 144.683 130.812C144.987 130.672 145.132 130.292 145.002 129.964C144.873 129.637 144.519 129.482 144.215 129.621C142.889 130.227 141.573 130.908 140.312 131.649C139.056 132.373 137.815 133.183 136.628 134.046Z" fill="#830016" fill-opacity="0.3"/>
<path d="M117.157 168.983C117.002 170.603 116.928 172.255 116.928 173.891C116.928 175.527 117.007 177.174 117.157 178.799C117.307 180.392 117.536 181.996 117.835 183.568C118.129 185.112 118.503 186.663 118.937 188.17C119.37 189.667 119.879 191.152 120.442 192.585C121.005 194.011 121.638 195.422 122.326 196.785C123.009 198.136 123.762 199.472 124.564 200.749C125.367 202.02 126.229 203.27 127.136 204.45C128.038 205.625 129.01 206.778 130.017 207.867C131.024 208.95 132.091 209.991 133.192 210.973C134.294 211.949 135.45 212.882 136.632 213.741C137.818 214.604 139.054 215.414 140.315 216.149C140.405 216.203 140.505 216.229 140.599 216.229C140.814 216.229 141.018 216.106 141.128 215.892C141.287 215.58 141.178 215.183 140.888 215.017C139.662 214.298 138.461 213.51 137.305 212.673C136.153 211.836 135.027 210.93 133.96 209.98C132.888 209.031 131.851 208.012 130.87 206.96C129.888 205.898 128.941 204.783 128.063 203.635C127.181 202.487 126.339 201.274 125.561 200.035C124.778 198.791 124.046 197.493 123.383 196.179C122.715 194.854 122.097 193.48 121.548 192.091C121 190.696 120.507 189.253 120.083 187.8C119.659 186.335 119.295 184.828 119.011 183.321C118.722 181.792 118.498 180.231 118.353 178.681C118.204 177.104 118.129 175.495 118.129 173.907C118.129 172.319 118.204 170.71 118.353 169.133C118.503 167.583 118.722 166.022 119.011 164.493C119.3 162.986 119.659 161.484 120.083 160.014C120.183 159.671 120.003 159.311 119.689 159.204C119.37 159.097 119.036 159.29 118.937 159.628C118.498 161.135 118.129 162.685 117.835 164.23C117.536 165.786 117.307 167.39 117.157 168.983Z" fill="#830016" fill-opacity="0.3"/>
<path d="M152.594 220.966C152.634 220.977 152.674 220.977 152.714 220.977C152.993 220.977 153.242 220.768 153.302 220.462C153.367 220.113 153.157 219.77 152.833 219.7C151.438 219.394 150.037 219.003 148.671 218.547C148.352 218.44 148.018 218.633 147.919 218.971C147.819 219.314 147.998 219.673 148.312 219.781C149.718 220.253 151.159 220.65 152.594 220.966Z" fill="#830016" fill-opacity="0.3"/>
<path d="M161.583 214.186C162.859 214.186 164.145 214.116 165.406 213.977C166.652 213.837 167.898 213.633 169.12 213.365C170.326 213.097 171.532 212.764 172.709 212.367C173.87 211.976 175.026 211.52 176.148 211.01C176.452 210.871 176.596 210.49 176.467 210.163C176.337 209.836 175.983 209.68 175.679 209.819C174.593 210.313 173.476 210.758 172.35 211.134C171.213 211.515 170.047 211.836 168.88 212.094C167.699 212.357 166.488 212.555 165.287 212.684C164.065 212.818 162.819 212.888 161.588 212.888C161.254 212.888 160.985 213.177 160.985 213.537C160.985 213.896 161.254 214.186 161.583 214.186Z" fill="#830016" fill-opacity="0.3"/>
<path d="M182.507 207.293C183.499 206.574 184.466 205.791 185.393 204.97C186.315 204.155 187.208 203.275 188.055 202.369C188.897 201.457 189.715 200.497 190.473 199.504C191.235 198.512 191.958 197.466 192.631 196.404C193.304 195.336 193.937 194.215 194.51 193.078C195.088 191.93 195.622 190.75 196.09 189.554C196.564 188.347 196.987 187.103 197.351 185.853C197.72 184.587 198.029 183.289 198.273 181.991C198.338 181.642 198.129 181.299 197.805 181.229C197.481 181.159 197.162 181.384 197.097 181.733C196.858 182.983 196.559 184.244 196.205 185.467C195.856 186.679 195.442 187.886 194.984 189.05C194.53 190.203 194.017 191.351 193.453 192.456C192.9 193.556 192.287 194.639 191.634 195.674C190.986 196.704 190.283 197.718 189.545 198.678C188.808 199.638 188.02 200.572 187.203 201.451C186.385 202.331 185.518 203.179 184.626 203.973C183.734 204.766 182.791 205.523 181.834 206.22C181.56 206.419 181.485 206.821 181.675 207.116C181.79 207.298 181.979 207.4 182.173 207.4C182.288 207.406 182.403 207.368 182.507 207.293Z" fill="#830016" fill-opacity="0.3"/>
<path d="M199.031 173.886C199.031 172.518 198.966 171.134 198.837 169.771C198.712 168.425 198.518 167.084 198.268 165.775C198.024 164.482 197.71 163.184 197.346 161.913C196.982 160.663 196.559 159.419 196.085 158.212C195.617 157.021 195.083 155.836 194.505 154.688C193.932 153.55 193.299 152.435 192.626 151.367C191.958 150.3 191.23 149.259 190.467 148.267C189.71 147.274 188.892 146.314 188.05 145.402C187.203 144.491 186.31 143.616 185.388 142.801C184.466 141.98 183.494 141.197 182.502 140.478C182.228 140.274 181.854 140.355 181.67 140.65C181.485 140.945 181.555 141.347 181.829 141.546C182.786 142.243 183.728 142.999 184.621 143.793C185.513 144.582 186.38 145.429 187.198 146.314C188.015 147.194 188.803 148.127 189.54 149.088C190.278 150.048 190.981 151.062 191.629 152.091C192.277 153.127 192.89 154.21 193.448 155.31C194.012 156.42 194.525 157.563 194.979 158.716C195.437 159.88 195.851 161.087 196.2 162.299C196.554 163.528 196.858 164.783 197.092 166.033C197.331 167.299 197.521 168.602 197.64 169.9C197.765 171.22 197.83 172.555 197.83 173.88C197.83 174.24 198.099 174.529 198.433 174.529C198.762 174.535 199.031 174.245 199.031 173.886Z" fill="#830016" fill-opacity="0.3"/>
<path d="M176.149 136.761C175.028 136.251 173.871 135.795 172.71 135.404C171.533 135.012 170.327 134.674 169.121 134.406C168.797 134.336 168.478 134.561 168.413 134.91C168.343 135.259 168.558 135.602 168.882 135.672C170.048 135.929 171.214 136.251 172.351 136.632C173.477 137.007 174.594 137.453 175.681 137.946C175.755 137.984 175.835 138 175.915 138C176.149 138 176.368 137.85 176.468 137.603C176.598 137.276 176.453 136.895 176.149 136.761Z" fill="#830016" fill-opacity="0.3"/>
<path d="M161.582 134.878C161.916 134.878 162.185 134.588 162.185 134.229C162.185 133.869 161.916 133.58 161.582 133.58C160.306 133.58 159.02 133.65 157.759 133.789C156.513 133.928 155.267 134.132 154.046 134.401C152.839 134.669 151.633 135.001 150.457 135.398C149.295 135.79 148.139 136.246 147.017 136.755C145.906 137.26 144.804 137.834 143.743 138.456C142.691 139.073 141.649 139.749 140.657 140.478C139.665 141.197 138.698 141.98 137.771 142.801C136.849 143.616 135.957 144.496 135.109 145.402C134.262 146.314 133.45 147.274 132.692 148.267C131.929 149.259 131.201 150.305 130.534 151.367C129.861 152.435 129.228 153.556 128.654 154.693C128.076 155.835 127.543 157.021 127.074 158.217C126.601 159.424 126.177 160.668 125.813 161.918C125.444 163.184 125.135 164.482 124.891 165.78C124.642 167.089 124.447 168.436 124.323 169.777C124.193 171.139 124.128 172.523 124.128 173.891C124.128 175.259 124.193 176.643 124.323 178.005C124.353 178.338 124.617 178.584 124.921 178.584C124.941 178.584 124.961 178.584 124.981 178.579C125.31 178.542 125.549 178.225 125.519 177.871C125.394 176.551 125.33 175.216 125.33 173.891C125.33 172.566 125.394 171.225 125.519 169.911C125.644 168.607 125.828 167.309 126.067 166.043C126.307 164.793 126.606 163.533 126.96 162.31C127.309 161.098 127.722 159.891 128.181 158.727C128.634 157.573 129.148 156.425 129.711 155.32C130.264 154.221 130.877 153.137 131.53 152.102C132.178 151.072 132.881 150.058 133.619 149.098C134.357 148.138 135.144 147.205 135.962 146.325C136.779 145.445 137.647 144.598 138.539 143.804C139.431 143.01 140.373 142.254 141.33 141.556C142.297 140.854 143.299 140.194 144.321 139.598C145.348 138.998 146.414 138.445 147.491 137.952C148.578 137.458 149.694 137.013 150.821 136.637C151.957 136.257 153.124 135.935 154.29 135.677C155.471 135.414 156.683 135.216 157.884 135.087C159.105 134.948 160.351 134.878 161.582 134.878Z" fill="#830016" fill-opacity="0.3"/>
<path d="M129.188 193.422C129.283 193.422 129.382 193.395 129.472 193.341C129.766 193.169 129.871 192.778 129.711 192.467C129.148 191.356 128.635 190.214 128.181 189.061C128.051 188.733 127.698 188.578 127.393 188.717C127.089 188.857 126.945 189.238 127.074 189.565C127.543 190.756 128.076 191.941 128.655 193.089C128.769 193.298 128.979 193.422 129.188 193.422Z" fill="#830016" fill-opacity="0.3"/>
<path d="M137.775 204.97C138.697 205.791 139.669 206.574 140.661 207.293C141.658 208.017 142.7 208.698 143.747 209.315C144.808 209.937 145.91 210.506 147.022 211.016C147.096 211.053 147.176 211.069 147.256 211.069C147.49 211.069 147.714 210.919 147.809 210.672C147.939 210.345 147.794 209.964 147.49 209.825C146.413 209.337 145.347 208.779 144.32 208.178C143.303 207.583 142.296 206.923 141.329 206.22C140.372 205.523 139.43 204.766 138.538 203.973C137.646 203.184 136.778 202.337 135.961 201.451C135.143 200.572 134.356 199.638 133.618 198.678C133.404 198.399 133.025 198.362 132.771 198.592C132.516 198.818 132.477 199.225 132.691 199.504C133.449 200.497 134.266 201.457 135.108 202.369C135.961 203.281 136.853 204.155 137.775 204.97Z" fill="#830016" fill-opacity="0.3"/>
</svg>
