<svg width="511" height="550" viewBox="0 0 511 550" fill="none" xmlns="http://www.w3.org/2000/svg">
<path d="M509.68 246.065C508.815 236.903 507.51 227.698 505.796 218.697C504.106 209.822 501.983 200.931 499.483 192.276C497.007 183.715 494.114 175.196 490.867 166.947C487.652 158.775 484.028 150.662 480.081 142.853C476.166 135.095 471.843 127.447 467.252 120.121C462.676 112.828 457.716 105.688 452.504 98.9032C447.307 92.1267 441.749 85.5448 435.971 79.3267C430.201 73.1171 424.084 67.1359 417.78 61.5353C411.467 55.9348 404.832 50.5881 398.063 45.6644C391.255 40.7153 384.148 36.0707 376.939 31.8576C369.683 27.6192 362.152 23.7106 354.55 20.2505C354.071 20.0305 353.512 20.2759 353.308 20.7919C353.104 21.308 353.332 21.9087 353.811 22.1286C361.358 25.5634 368.834 29.4381 376.035 33.6512C383.189 37.8304 390.241 42.4411 397.002 47.3564C403.723 52.2463 410.311 57.5422 416.577 63.1089C422.835 68.6671 428.904 74.606 434.635 80.7649C440.366 86.9323 445.892 93.4719 451.041 100.198C456.214 106.94 461.135 114.03 465.679 121.263C470.239 128.53 474.523 136.119 478.415 143.826C482.33 151.584 485.93 159.629 489.122 167.742C492.337 175.932 495.215 184.383 497.675 192.877C500.16 201.464 502.266 210.288 503.941 219.103C505.639 228.037 506.936 237.182 507.793 246.268C508.666 255.498 509.106 264.914 509.106 274.245C509.106 283.577 508.666 292.993 507.793 302.223C506.936 311.309 505.639 320.454 503.941 329.388C502.266 338.203 500.16 347.018 497.675 355.614C495.223 364.107 492.345 372.567 489.122 380.748C485.93 388.861 482.33 396.907 478.415 404.665C474.523 412.372 470.239 419.96 465.679 427.228C461.135 434.461 456.214 441.55 451.041 448.293C445.884 455.019 440.366 461.55 434.635 467.726C428.904 473.893 422.835 479.832 416.577 485.382C410.311 490.948 403.723 496.244 397.002 501.134C390.241 506.049 383.189 510.66 376.035 514.839C375.579 515.11 375.406 515.728 375.658 516.218C375.831 516.557 376.153 516.751 376.491 516.751C376.641 516.751 376.798 516.709 376.939 516.624C384.148 512.411 391.255 507.767 398.063 502.818C404.84 497.894 411.475 492.556 417.78 486.947C424.084 481.346 430.201 475.365 435.971 469.155C441.749 462.937 447.307 456.355 452.504 449.579C457.716 442.786 462.676 435.645 467.252 428.361C471.851 421.043 476.166 413.395 480.081 405.629C484.028 397.812 487.652 389.707 490.867 381.535C494.106 373.287 497.007 364.767 499.483 356.206C501.983 347.551 504.106 338.668 505.796 329.785C507.51 320.784 508.815 311.571 509.68 302.417C510.56 293.12 511.001 283.636 511.001 274.237C511.001 264.846 510.552 255.363 509.68 246.065Z" fill="#830016" fill-opacity="0.3"/>
<path d="M280.84 2.03604C289.291 2.95818 297.79 4.35408 306.083 6.18144C306.146 6.19836 306.209 6.19836 306.272 6.19836C306.712 6.19836 307.105 5.86842 307.2 5.3862C307.302 4.8363 306.972 4.29486 306.461 4.18488C298.104 2.3406 289.543 0.936236 281.029 0.00563518C280.494 -0.0535849 280.046 0.360955 279.991 0.919316C279.944 1.48614 280.321 1.98528 280.84 2.03604Z" fill="#830016" fill-opacity="0.3"/>
<path d="M92.5025 63.3456C92.7148 63.3456 92.927 63.2695 93.1079 63.1088C99.3734 57.5421 105.961 52.2461 112.683 47.3562C119.444 42.441 126.495 37.8303 133.649 33.651C140.85 29.4379 148.327 25.5632 155.874 22.1285C163.491 18.6599 171.345 15.5635 179.238 12.924C187.217 10.2506 195.417 7.98335 203.6 6.18137C211.902 4.35401 220.392 2.95811 228.843 2.03597C229.362 1.97675 229.74 1.47761 229.692 0.919246C229.637 0.360886 229.189 -0.0451946 228.655 0.00556547C220.141 0.936166 211.58 2.34053 203.223 4.18481C194.976 6.00371 186.714 8.28791 178.672 10.9782C170.724 13.6346 162.807 16.7564 155.135 20.2504C147.533 23.7105 140.001 27.619 132.745 31.8575C125.536 36.0706 118.43 40.7151 111.622 45.6642C104.845 50.5879 98.2099 55.9262 91.9051 61.5352C91.5041 61.8905 91.4412 62.5335 91.7793 62.9734C91.9601 63.2187 92.2352 63.3456 92.5025 63.3456Z" fill="#830016" fill-opacity="0.3"/>
<path d="M31.2703 143.826C31.5218 143.335 31.3489 142.709 30.8929 142.447C30.4291 142.176 29.8552 142.362 29.6036 142.853C25.6572 150.67 22.0331 158.775 18.8177 166.947C15.5788 175.195 12.678 183.715 10.2016 192.276C7.70167 200.931 5.57909 209.814 3.88888 218.697C2.17508 227.698 0.870086 236.911 0.00532818 246.065C-0.0497019 246.623 0.327647 247.122 0.854363 247.182C0.885809 247.182 0.917255 247.19 0.948701 247.19C1.42825 247.19 1.83704 246.801 1.89207 246.276C2.74897 237.19 4.04611 228.045 5.74418 219.111C7.41866 210.296 9.52553 201.481 12.0097 192.885C14.4625 184.391 17.3398 175.931 20.563 167.751C23.7547 159.629 27.3553 151.583 31.2703 143.826Z" fill="#830016" fill-opacity="0.3"/>
<path d="M1.89219 302.222C1.83716 301.664 1.3812 301.258 0.854481 301.309C0.335626 301.368 -0.0417231 301.867 0.00544549 302.425C0.870204 311.588 2.1752 320.792 3.889 329.794C3.98333 330.276 4.3764 330.606 4.81664 330.606C4.87954 330.606 4.94243 330.597 5.00532 330.589C5.51631 330.479 5.84649 329.937 5.74429 329.388C4.04622 320.454 2.75695 311.317 1.89219 302.222Z" fill="#830016" fill-opacity="0.3"/>
<path d="M254.842 547.867C246.171 547.867 237.421 547.393 228.844 546.454C220.393 545.532 211.895 544.136 203.601 542.309C195.418 540.507 187.218 538.239 179.239 535.566C171.354 532.927 163.492 529.83 155.874 526.362C148.328 522.927 140.851 519.052 133.65 514.839C126.496 510.66 119.445 506.049 112.684 501.134C105.962 496.244 99.3744 490.948 93.1088 485.381C86.8511 479.823 80.7821 473.884 75.0511 467.725C69.3201 461.558 63.7935 455.018 58.6442 448.293C53.4714 441.55 48.5502 434.461 44.0063 427.227C39.4466 419.96 35.1621 412.372 31.2707 404.664C27.3557 396.907 23.7552 388.861 20.5635 380.748C20.3591 380.232 19.8009 379.987 19.3213 380.207C18.8418 380.427 18.6138 381.027 18.8182 381.543C22.0335 389.716 25.6577 397.829 29.6041 405.637C33.5191 413.395 37.8429 421.043 42.434 428.369C47.0093 435.662 51.9699 442.794 57.182 449.587C62.3784 456.364 67.9365 462.945 73.7146 469.164C79.4849 475.373 85.6011 481.354 91.906 486.955C98.2187 492.555 104.854 497.902 111.622 502.826C118.43 507.775 125.537 512.42 132.746 516.633C140.002 520.871 147.534 524.78 155.136 528.24C162.808 531.734 170.725 534.847 178.673 537.512C186.715 540.202 194.969 542.486 203.224 544.305C211.588 546.15 220.142 547.554 228.656 548.485C237.303 549.432 246.108 549.906 254.842 549.906C255.369 549.906 255.793 549.449 255.793 548.882C255.793 548.324 255.369 547.867 254.842 547.867Z" fill="#830016" fill-opacity="0.3"/>
<path d="M346.346 507.538C339.302 510.753 332.031 513.621 324.735 516.066C317.361 518.536 309.783 520.643 302.204 522.318C294.532 524.01 286.686 525.304 278.864 526.159C278.345 526.218 277.968 526.717 278.015 527.276C278.062 527.8 278.479 528.189 278.958 528.189C278.99 528.189 279.021 528.189 279.052 528.181C286.93 527.318 294.846 526.015 302.582 524.306C310.223 522.623 317.864 520.499 325.301 518.003C332.652 515.542 339.979 512.648 347.085 509.408C347.565 509.188 347.793 508.587 347.588 508.071C347.384 507.564 346.826 507.327 346.346 507.538Z" fill="#830016" fill-opacity="0.3"/>
<path d="M421.15 453.217C415.843 458.927 410.222 464.426 404.428 469.57C398.635 474.722 392.534 479.629 386.308 484.163C385.876 484.477 385.758 485.111 386.056 485.576C386.237 485.864 386.536 486.025 386.842 486.025C387.023 486.025 387.212 485.966 387.369 485.847C393.65 481.279 399.79 476.33 405.631 471.135C411.464 465.949 417.14 460.399 422.486 454.647C422.856 454.249 422.856 453.606 422.486 453.208C422.117 452.811 421.519 452.819 421.15 453.217Z" fill="#830016" fill-opacity="0.3"/>
<path d="M450.168 417.143C450.333 417.262 450.514 417.321 450.695 417.321C451.002 417.321 451.3 417.16 451.481 416.872C455.742 410.087 459.751 403.006 463.375 395.824C467.031 388.599 470.396 381.095 473.375 373.515C473.58 372.999 473.352 372.398 472.872 372.178C472.393 371.958 471.834 372.204 471.63 372.72C468.666 380.232 465.333 387.677 461.709 394.851C458.108 401.974 454.138 408.996 449.909 415.73C449.618 416.196 449.736 416.83 450.168 417.143Z" fill="#830016" fill-opacity="0.3"/>
<path d="M485.362 325.217C485.26 325.767 485.59 326.308 486.101 326.418C486.164 326.435 486.227 326.435 486.29 326.435C486.73 326.435 487.123 326.105 487.217 325.623C488.805 317.29 490.016 308.771 490.818 300.302C491.635 291.698 492.044 282.925 492.044 274.245C492.044 265.557 491.635 256.792 490.818 248.18C490.016 239.712 488.805 231.192 487.217 222.859C485.653 214.645 483.68 206.421 481.36 198.418C479.065 190.508 476.384 182.615 473.373 174.976C470.394 167.395 467.029 159.891 463.373 152.667C459.741 145.484 455.74 138.403 451.479 131.618C447.242 124.875 442.643 118.26 437.816 111.965C432.997 105.688 427.848 99.5885 422.494 93.8272C422.124 93.4296 421.527 93.4296 421.157 93.8272C420.788 94.2248 420.788 94.8678 421.157 95.2654C426.464 100.976 431.582 107.033 436.354 113.26C441.149 119.512 445.709 126.068 449.915 132.76C454.144 139.494 458.114 146.516 461.715 153.639C465.339 160.805 468.68 168.25 471.636 175.771C474.623 183.351 477.288 191.176 479.56 199.027C481.864 206.971 483.813 215.127 485.37 223.274C486.942 231.539 488.145 239.991 488.939 248.392C489.749 256.928 490.157 265.633 490.157 274.245C490.157 282.858 489.749 291.563 488.939 300.099C488.137 308.5 486.934 316.951 485.362 325.217Z" fill="#830016" fill-opacity="0.3"/>
<path d="M184.38 30.4783C183.876 30.6475 183.601 31.2143 183.759 31.7558C183.916 32.2888 184.442 32.5933 184.946 32.4241C192.32 29.9538 199.898 27.8473 207.477 26.1722C215.149 24.4802 222.995 23.1858 230.817 22.3313C246.674 20.597 263.01 20.597 278.866 22.3313C286.68 23.1858 294.534 24.4802 302.207 26.1722C309.785 27.8473 317.364 29.9453 324.738 32.4241C332.033 34.8691 339.305 37.737 346.349 40.9518C353.33 44.1328 360.248 47.7283 366.914 51.6283C373.534 55.503 380.059 59.7753 386.316 64.3268C386.481 64.4452 386.662 64.5045 386.843 64.5045C387.15 64.5045 387.448 64.3437 387.629 64.0561C387.92 63.5908 387.81 62.9563 387.378 62.6433C381.073 58.0579 374.493 53.7518 367.818 49.8433C361.097 45.9094 354.124 42.2885 347.088 39.0821C339.981 35.842 332.654 32.9486 325.304 30.4868C317.867 27.9911 310.225 25.8761 302.584 24.1841C294.856 22.4751 286.94 21.1723 279.055 20.3094C263.073 18.5582 246.603 18.5582 230.621 20.3094C222.743 21.1723 214.827 22.4751 207.091 24.1841C199.458 25.8676 191.817 27.9826 184.38 30.4783Z" fill="#830016" fill-opacity="0.3"/>
<path d="M123.373 64.3271C129.63 59.7756 136.155 55.5033 142.775 51.6286C143.238 51.3579 143.404 50.7403 143.152 50.2496C142.9 49.7589 142.327 49.5728 141.863 49.8435C135.188 53.7521 128.608 58.0582 122.303 62.6435C121.871 62.9566 121.753 63.5911 122.052 64.0564C122.233 64.344 122.531 64.5047 122.838 64.5047C123.019 64.5047 123.208 64.4455 123.373 64.3271Z" fill="#830016" fill-opacity="0.3"/>
<path d="M22.4651 325.623C24.0295 333.838 26.0028 342.061 28.3219 350.064C30.6174 357.974 33.2982 365.867 36.3091 373.507C39.2886 381.087 42.6533 388.591 46.3088 395.816C49.9408 402.998 53.9423 410.079 58.2032 416.864C62.4405 423.607 67.0394 430.222 71.8664 436.517C76.6854 442.794 81.8347 448.894 87.1883 454.655C92.5341 460.408 98.2022 465.958 104.043 471.144C109.884 476.33 116.032 481.279 122.305 485.855C128.61 490.441 135.19 494.747 141.865 498.655C148.586 502.589 155.559 506.21 162.595 509.417C169.702 512.657 177.029 515.55 184.379 518.012C191.816 520.508 199.457 522.623 207.099 524.315C214.827 526.024 222.743 527.326 230.628 528.189C230.66 528.189 230.691 528.198 230.722 528.198C231.202 528.198 231.611 527.809 231.666 527.284C231.721 526.726 231.343 526.227 230.817 526.167C223.002 525.313 215.149 524.019 207.476 522.327C199.898 520.651 192.319 518.553 184.945 516.075C177.65 513.63 170.378 510.762 163.334 507.547C156.353 504.366 149.435 500.77 142.769 496.87C136.149 492.996 129.624 488.723 123.367 484.172C117.14 479.637 111.04 474.731 105.246 469.578C99.4521 464.435 93.8312 458.927 88.5247 453.225C83.2183 447.515 78.1005 441.457 73.3286 435.231C68.5331 428.979 63.9735 422.422 59.7676 415.73C55.5382 408.996 51.5681 401.974 47.9676 394.851C44.3435 387.686 41.0024 380.241 38.0465 372.72C35.0591 365.14 32.3941 357.314 30.1221 349.463C27.8187 341.519 25.8691 333.364 24.3125 325.217C22.7403 316.951 21.5375 308.5 20.7434 300.099C19.9337 291.563 19.5249 282.858 19.5249 274.245C19.5249 265.633 19.9337 256.928 20.7434 248.392C21.5375 239.991 22.7403 231.539 24.3125 223.274C25.8691 215.127 27.8187 206.971 30.1221 199.027C32.3941 191.177 35.0591 183.351 38.0465 175.771C41.0102 168.258 44.3435 160.814 47.9676 153.639C51.5681 146.516 55.5382 139.494 59.7676 132.76C63.9735 126.068 68.5331 119.512 73.3286 113.26C78.1083 107.033 83.2183 100.976 88.5247 95.2654C88.8942 94.8678 88.8942 94.2248 88.5247 93.8272C88.1553 93.4296 87.5578 93.4296 87.1883 93.8272C81.8425 99.58 76.6854 105.688 71.8664 111.965C67.0316 118.268 62.4326 124.875 58.2032 131.618C53.9423 138.403 49.933 145.484 46.3088 152.667C42.6533 159.891 39.2886 167.395 36.3091 174.976C33.2982 182.615 30.6096 190.508 28.3219 198.418C26.0028 206.43 24.0295 214.653 22.4651 222.859C20.8771 231.192 19.6664 239.712 18.8646 248.18C18.047 256.784 17.6382 265.557 17.6382 274.237C17.6382 282.925 18.047 291.69 18.8646 300.302C19.6664 308.779 20.8771 317.298 22.4651 325.623Z" fill="#830016" fill-opacity="0.3"/>
<path d="M393.995 455.94C399.38 451.152 404.616 446.042 409.545 440.729C414.482 435.417 419.238 429.782 423.679 423.996C428.137 418.183 432.382 412.084 436.289 405.857C440.228 399.588 443.923 393.057 447.264 386.433C450.636 379.767 453.742 372.838 456.493 365.85C456.697 365.334 456.47 364.733 455.99 364.513C455.51 364.293 454.952 364.539 454.748 365.055C452.02 371.983 448.938 378.853 445.597 385.46C442.28 392.025 438.624 398.497 434.717 404.715C430.841 410.891 426.628 416.94 422.217 422.693C417.815 428.429 413.098 434.012 408.2 439.283C403.31 444.545 398.122 449.621 392.784 454.367C387.438 459.121 381.817 463.648 376.078 467.818C370.308 472.014 364.294 475.957 358.186 479.527C352.038 483.122 345.655 486.439 339.224 489.374C332.731 492.335 326.025 494.983 319.295 497.234C312.495 499.518 305.499 501.455 298.518 502.995C291.442 504.56 284.202 505.753 276.993 506.54C269.682 507.343 262.229 507.75 254.839 507.75C254.313 507.75 253.888 508.206 253.888 508.773C253.888 509.34 254.313 509.797 254.839 509.797C262.292 509.797 269.808 509.391 277.189 508.579C284.461 507.783 291.765 506.582 298.895 505C305.939 503.443 312.99 501.489 319.853 499.188C326.638 496.912 333.399 494.247 339.955 491.253C346.449 488.292 352.887 484.95 359.082 481.321C365.238 477.717 371.314 473.74 377.132 469.51C382.926 465.297 388.602 460.737 393.995 455.94Z" fill="#830016" fill-opacity="0.3"/>
<path d="M472.597 250.202C472.542 249.644 472.093 249.246 471.559 249.288C471.04 249.348 470.663 249.847 470.71 250.405C471.457 258.281 471.834 266.301 471.834 274.245C471.834 282.189 471.457 290.218 470.71 298.086C469.979 305.835 468.87 313.627 467.416 321.249C467.306 321.799 467.644 322.341 468.155 322.451C468.218 322.467 468.281 322.467 468.343 322.467C468.784 322.467 469.177 322.138 469.271 321.655C470.733 313.965 471.858 306.106 472.597 298.289C473.351 290.345 473.729 282.257 473.729 274.237C473.729 266.234 473.351 258.138 472.597 250.202Z" fill="#830016" fill-opacity="0.3"/>
<path d="M462.964 205.601C463.058 205.601 463.152 205.584 463.247 205.558C463.742 205.389 464.025 204.822 463.868 204.281C461.753 196.98 459.277 189.704 456.494 182.649C453.742 175.661 450.637 168.732 447.264 162.066C443.923 155.45 440.228 148.91 436.29 142.641C432.375 136.415 428.137 130.315 423.68 124.503C423.342 124.063 422.744 124.004 422.344 124.368C421.943 124.723 421.88 125.366 422.218 125.806C426.636 131.567 430.842 137.616 434.717 143.783C438.625 150.002 442.28 156.473 445.598 163.038C448.939 169.654 452.02 176.515 454.748 183.444C457.5 190.44 459.96 197.648 462.052 204.89C462.185 205.322 462.563 205.601 462.964 205.601Z" fill="#830016" fill-opacity="0.3"/>
<path d="M377.144 78.9798C371.326 74.7498 365.257 70.7736 359.094 67.1696C352.891 63.5403 346.453 60.1986 339.967 57.2376C333.41 54.2512 326.65 51.5778 319.865 49.3021C313.002 47.001 305.95 45.0467 298.907 43.4901C291.776 41.9165 284.465 40.7152 277.201 39.9115C262.453 38.2956 247.257 38.2956 232.509 39.9115C225.237 40.7067 217.934 41.9165 210.804 43.4901C203.76 45.0467 196.708 47.001 189.845 49.3021C189.342 49.4713 189.067 50.0381 189.224 50.5795C189.381 51.1125 189.9 51.4171 190.411 51.2479C197.211 48.9637 204.208 47.0263 211.189 45.4866C218.264 43.9215 225.504 42.7287 232.713 41.9419C247.336 40.3429 262.398 40.3429 277.02 41.9419C284.229 42.7287 291.47 43.9215 298.545 45.4866C305.526 47.0263 312.523 48.9637 319.323 51.2479C326.044 53.5067 332.75 56.1462 339.244 59.1072C345.682 62.0429 352.058 65.3507 358.205 68.9547C364.314 72.5248 370.328 76.4672 376.098 80.6633C381.837 84.8426 387.458 89.3687 392.804 94.1147C392.977 94.2755 393.197 94.3516 393.409 94.3516C393.684 94.3516 393.951 94.2247 394.14 93.9794C394.47 93.5479 394.415 92.905 394.014 92.5412C388.606 87.7613 382.93 83.1929 377.144 78.9798Z" fill="#830016" fill-opacity="0.3"/>
<path d="M100.137 107.761C95.1996 113.073 90.4434 118.708 86.0017 124.494C81.5442 130.306 77.2991 136.406 73.3919 142.633C69.4534 148.902 65.7585 155.433 62.4174 162.057C59.0448 168.723 55.9396 175.652 53.188 182.64C50.413 189.696 47.9287 196.971 45.814 204.272C45.6568 204.814 45.9398 205.381 46.4351 205.55C46.5294 205.584 46.6237 205.592 46.7181 205.592C47.119 205.592 47.4964 205.313 47.6221 204.873C49.7212 197.64 52.1739 190.423 54.9254 183.427C57.6533 176.498 60.735 169.629 64.0761 163.021C67.3937 156.456 71.0492 149.984 74.9564 143.766C78.832 137.59 83.0458 131.542 87.456 125.789C91.8584 120.053 96.5753 114.469 101.473 109.199C106.363 103.937 111.551 98.8606 116.889 94.1145C122.235 89.36 127.856 84.8339 133.595 80.6631C139.365 76.467 145.379 72.5246 151.487 68.9545C151.951 68.6837 152.116 68.0662 151.865 67.5755C151.613 67.0848 151.039 66.8987 150.576 67.1694C144.42 70.7734 138.343 74.7496 132.526 78.9796C126.732 83.1927 121.064 87.7611 115.671 92.5494C110.309 97.3378 105.074 102.456 100.137 107.761Z" fill="#830016" fill-opacity="0.3"/>
<path d="M37.0881 250.202C36.3334 258.146 35.9561 266.233 35.9561 274.253C35.9561 274.82 36.3806 275.277 36.9073 275.277C37.434 275.277 37.8585 274.82 37.8585 274.253C37.8585 266.31 38.2359 258.281 38.9827 250.413C39.0377 249.855 38.6604 249.356 38.1337 249.296C37.607 249.246 37.1431 249.635 37.0881 250.202Z" fill="#830016" fill-opacity="0.3"/>
<path d="M45.815 344.218C47.9297 351.519 50.4061 358.795 53.189 365.85C55.9405 372.838 59.0458 379.767 62.4183 386.434C65.7594 393.049 69.4543 399.589 73.3929 405.858C77.3079 412.084 81.5452 418.184 86.0026 423.996C90.4443 429.783 95.2005 435.417 100.138 440.73C105.074 446.043 110.302 451.161 115.687 455.941C121.08 460.738 126.748 465.298 132.542 469.511C138.36 473.741 144.429 477.717 150.592 481.321C156.795 484.95 163.233 488.292 169.719 491.253C176.276 494.239 183.036 496.913 189.821 499.188C196.684 501.49 203.735 503.444 210.779 505.001C210.842 505.017 210.905 505.017 210.968 505.017C211.408 505.017 211.801 504.687 211.896 504.205C212.006 503.655 211.668 503.114 211.157 503.004C204.176 501.464 197.179 499.527 190.379 497.243C183.657 494.984 176.952 492.344 170.458 489.383C164.02 486.448 157.644 483.131 151.496 479.536C145.388 475.966 139.374 472.023 133.604 467.827C127.865 463.648 122.244 459.122 116.898 454.376C111.56 449.63 106.372 444.554 101.482 439.292C96.5841 434.021 91.8673 428.437 87.4649 422.702C83.0467 416.94 78.8409 410.891 74.9652 404.724C71.058 398.506 67.4025 392.034 64.085 385.469C60.7438 378.853 57.6622 371.992 54.9342 365.064C52.1827 358.067 49.7221 350.859 47.631 343.617C47.4737 343.084 46.9549 342.78 46.4439 342.949C45.9408 343.11 45.6656 343.677 45.815 344.218Z" fill="#830016" fill-opacity="0.3"/>
<path d="M397.048 121.221C392.512 116.339 387.701 111.627 382.756 107.236C382.355 106.881 381.757 106.94 381.419 107.372C381.089 107.803 381.144 108.446 381.545 108.81C386.443 113.167 391.207 117.82 395.704 122.659C400.2 127.498 404.532 132.625 408.573 137.895C412.629 143.183 416.497 148.741 420.058 154.409C423.635 160.103 427 166.05 430.05 172.091C433.116 178.165 435.946 184.468 438.454 190.838C440.985 197.259 443.242 203.892 445.168 210.533C447.117 217.259 448.768 224.17 450.089 231.074C451.418 238.062 452.439 245.219 453.116 252.342C453.8 259.559 454.145 266.927 454.145 274.237C454.145 281.546 453.8 288.915 453.116 296.131C452.439 303.263 451.425 310.42 450.089 317.4C448.776 324.303 447.117 331.206 445.168 337.941C443.242 344.582 440.985 351.214 438.454 357.636C435.946 364.006 433.124 370.309 430.05 376.383C427 382.423 423.635 388.371 420.058 394.064C416.497 399.733 412.629 405.291 408.573 410.578C404.532 415.849 400.2 420.976 395.704 425.815C391.207 430.654 386.443 435.315 381.545 439.664C376.632 444.029 371.467 448.191 366.2 452.024C360.901 455.873 355.374 459.494 349.769 462.776C344.125 466.084 338.268 469.121 332.348 471.82C326.389 474.536 320.234 476.964 314.047 479.045C307.797 481.143 301.374 482.92 294.967 484.341C288.466 485.779 281.815 486.871 275.196 487.598C268.482 488.334 261.635 488.706 254.85 488.706C254.323 488.706 253.899 489.163 253.899 489.73C253.899 490.297 254.323 490.754 254.85 490.754C261.697 490.754 268.616 490.373 275.392 489.637C282.074 488.901 288.788 487.801 295.344 486.346C301.814 484.916 308.3 483.123 314.613 480.999C320.855 478.901 327.073 476.448 333.087 473.707C339.054 470.983 344.974 467.912 350.673 464.578C356.333 461.262 361.915 457.607 367.261 453.724C372.583 449.85 377.795 445.653 382.756 441.246C387.701 436.855 392.512 432.143 397.048 427.261C401.592 422.371 405.963 417.202 410.043 411.881C414.139 406.543 418.038 400.934 421.638 395.206C425.255 389.462 428.643 383.455 431.725 377.356C434.822 371.231 437.676 364.86 440.207 358.431C442.762 351.942 445.042 345.259 446.984 338.55C448.949 331.756 450.624 324.785 451.952 317.814C453.296 310.759 454.326 303.534 455.002 296.343C455.694 289.059 456.04 281.614 456.04 274.237C456.04 266.86 455.686 259.423 455.002 252.131C454.318 244.931 453.296 237.706 451.952 230.659C450.624 223.697 448.949 216.717 446.984 209.924C445.042 203.215 442.762 196.523 440.207 190.043C437.676 183.613 434.822 177.251 431.725 171.118C428.643 165.018 425.247 159.011 421.638 153.267C418.046 147.54 414.139 141.931 410.043 136.592C405.955 131.28 401.584 126.102 397.048 121.221Z" fill="#830016" fill-opacity="0.3"/>
<path d="M314.602 67.4825C308.289 65.3675 301.804 63.5656 295.334 62.1358C294.823 62.0258 294.319 62.3811 294.217 62.931C294.115 63.4809 294.445 64.0224 294.956 64.1324C301.363 65.5452 307.786 67.3303 314.036 69.4283C314.13 69.4622 314.225 69.4706 314.319 69.4706C314.72 69.4706 315.097 69.1915 315.223 68.7515C315.38 68.2186 315.105 67.6517 314.602 67.4825Z" fill="#830016" fill-opacity="0.3"/>
<path d="M254.841 57.728C247.994 57.728 241.076 58.1087 234.299 58.8447C227.617 59.5808 220.903 60.6806 214.347 62.1357C207.877 63.5654 201.391 65.359 195.078 67.4824C188.836 69.5805 182.618 72.0339 176.604 74.7749C170.637 77.4991 164.717 80.57 159.018 83.9033C153.358 87.2196 147.776 90.8659 142.43 94.7575C137.108 98.6322 131.896 102.828 126.935 107.236C121.991 111.627 117.179 116.339 112.643 121.22C112.274 121.618 112.274 122.261 112.643 122.659C112.832 122.862 113.068 122.955 113.312 122.955C113.555 122.955 113.799 122.853 113.98 122.659C118.477 117.819 123.241 113.158 128.138 108.81C133.052 104.444 138.217 100.29 143.484 96.4495C148.782 92.6002 154.309 88.9793 159.914 85.6968C165.559 82.3889 171.415 79.3518 177.335 76.6531C183.294 73.9374 189.45 71.5094 195.637 69.4282C201.886 67.3301 208.309 65.5535 214.716 64.1323C221.218 62.6941 227.868 61.6027 234.488 60.8751C241.201 60.1391 248.049 59.7669 254.833 59.7669C255.36 59.7669 255.784 59.31 255.784 58.7432C255.784 58.1764 255.368 57.728 254.841 57.728Z" fill="#830016" fill-opacity="0.3"/>
<path d="M70.7264 189.51C70.2469 189.29 69.6887 189.535 69.4843 190.051C66.9293 196.54 64.6495 203.223 62.7077 209.932C60.7424 216.726 59.0679 223.697 57.7393 230.668C56.395 237.723 55.3652 244.948 54.6891 252.139C53.9973 259.423 53.6514 266.868 53.6514 274.245C53.6514 281.622 54.0051 289.059 54.6891 296.351C55.373 303.551 56.395 310.775 57.7393 317.823C59.0679 324.785 60.7424 331.765 62.7077 338.558C64.6495 345.267 66.9293 351.959 69.4843 358.439C72.0157 364.869 74.8694 371.231 77.9668 377.364C81.0485 383.464 84.4446 389.47 88.053 395.215C91.6457 400.942 95.5528 406.551 99.6486 411.889C99.8373 412.135 100.105 412.262 100.38 412.262C100.592 412.262 100.804 412.186 100.985 412.025C101.386 411.669 101.449 411.027 101.111 410.587C97.0544 405.299 93.1865 399.741 89.6253 394.073C86.0483 388.379 82.6837 382.432 79.6334 376.391C76.5675 370.317 73.7373 364.014 71.2295 357.644C68.6982 351.223 66.4419 344.59 64.5159 337.949C62.5662 331.223 60.9153 324.311 59.5946 317.408C58.266 310.42 57.244 303.263 56.568 296.14C55.884 288.923 55.5381 281.555 55.5381 274.245C55.5381 266.936 55.884 259.567 56.568 252.351C57.244 245.219 58.2582 238.062 59.5946 231.082C60.9075 224.179 62.5662 217.275 64.5159 210.541C66.4419 203.9 68.6982 197.268 71.2295 190.846C71.4339 190.322 71.206 189.73 70.7264 189.51Z" fill="#830016" fill-opacity="0.3"/>
<path d="M159.02 464.595C164.719 467.928 170.631 470.999 176.606 473.723C176.724 473.783 176.85 473.808 176.975 473.808C177.345 473.808 177.691 473.571 177.848 473.182C178.052 472.666 177.825 472.065 177.345 471.845C171.433 469.147 165.569 466.109 159.924 462.802C154.319 459.519 148.784 455.898 143.494 452.049C138.226 448.217 133.061 444.054 128.148 439.689C127.747 439.334 127.15 439.393 126.812 439.824C126.481 440.256 126.537 440.899 126.937 441.262C131.898 445.67 137.11 449.866 142.432 453.741C147.778 457.624 153.36 461.279 159.02 464.595Z" fill="#830016" fill-opacity="0.3"/>
<path d="M236.045 471.38C242.247 472.057 248.576 472.404 254.841 472.404C261.115 472.404 267.436 472.057 273.638 471.38C279.754 470.712 285.894 469.697 291.9 468.368C297.82 467.057 303.755 465.416 309.533 463.478C315.241 461.567 320.933 459.316 326.443 456.804C331.907 454.316 337.316 451.499 342.536 448.445C347.716 445.416 352.826 442.066 357.716 438.505C362.59 434.96 367.362 431.119 371.898 427.084C376.426 423.065 380.829 418.759 384.98 414.284C389.138 409.808 393.14 405.071 396.874 400.206C400.624 395.325 404.193 390.189 407.487 384.944C410.797 379.682 413.902 374.183 416.724 368.608C419.562 362.991 422.172 357.17 424.483 351.29C426.818 345.36 428.902 339.235 430.686 333.093C432.486 326.892 434.011 320.504 435.23 314.117C436.464 307.662 437.4 301.046 438.029 294.464C438.658 287.79 438.98 280.979 438.98 274.237C438.98 267.485 438.658 260.675 438.029 254.009C437.974 253.45 437.518 253.053 436.991 253.095C436.472 253.154 436.095 253.653 436.142 254.212C436.771 260.819 437.085 267.553 437.085 274.237C437.085 280.92 436.771 287.654 436.142 294.261C435.529 300.784 434.593 307.324 433.375 313.711C432.164 320.031 430.655 326.35 428.878 332.492C427.117 338.575 425.049 344.632 422.738 350.504C420.45 356.316 417.864 362.085 415.058 367.644C412.267 373.159 409.193 378.599 405.923 383.819C402.66 389.005 399.13 394.089 395.42 398.92C391.725 403.742 387.763 408.429 383.651 412.854C379.54 417.278 375.184 421.542 370.703 425.518C366.214 429.503 361.49 433.31 356.671 436.821C351.828 440.349 346.773 443.657 341.64 446.652C336.475 449.672 331.121 452.455 325.712 454.917C320.256 457.404 314.628 459.629 308.975 461.524C303.252 463.445 297.38 465.069 291.523 466.363C285.58 467.675 279.503 468.673 273.449 469.341C261.17 470.686 248.513 470.686 236.233 469.341C230.18 468.681 224.103 467.675 218.16 466.363C212.303 465.069 206.431 463.445 200.708 461.524C195.055 459.629 189.426 457.404 183.971 454.917C178.562 452.455 173.208 449.672 168.043 446.652C162.918 443.648 157.863 440.34 153.012 436.821C148.193 433.31 143.468 429.512 138.98 425.518C134.499 421.534 130.143 417.278 126.032 412.854C121.92 408.429 117.958 403.742 114.263 398.92C110.553 394.081 107.023 389.005 103.76 383.819C103.47 383.354 102.88 383.227 102.448 383.548C102.015 383.861 101.897 384.496 102.196 384.961C105.49 390.198 109.059 395.333 112.809 400.223C116.543 405.096 120.545 409.825 124.703 414.3C128.854 418.767 133.256 423.073 137.785 427.1C142.321 431.127 147.093 434.977 151.967 438.521C156.864 442.083 161.966 445.425 167.147 448.462C172.367 451.516 177.776 454.325 183.24 456.82C188.75 459.333 194.442 461.583 200.149 463.495C205.928 465.433 211.863 467.082 217.783 468.385C223.781 469.705 229.929 470.712 236.045 471.38Z" fill="#830016" fill-opacity="0.3"/>
<path d="M396.881 148.267C393.147 143.394 389.145 138.665 384.987 134.19C380.836 129.723 376.433 125.417 371.905 121.39C367.369 117.363 362.597 113.513 357.723 109.969C357.291 109.647 356.701 109.774 356.41 110.239C356.119 110.705 356.229 111.339 356.662 111.652C361.481 115.163 366.206 118.962 370.695 122.955C375.176 126.939 379.531 131.195 383.642 135.619C387.754 140.044 391.716 144.731 395.411 149.553C399.121 154.392 402.651 159.468 405.914 164.654C406.095 164.942 406.393 165.103 406.7 165.103C406.881 165.103 407.069 165.043 407.227 164.925C407.659 164.612 407.777 163.977 407.478 163.512C404.2 158.284 400.631 153.157 396.881 148.267Z" fill="#830016" fill-opacity="0.3"/>
<path d="M308.355 85.68C308.197 86.2215 308.48 86.7883 308.976 86.9575C314.628 88.8525 320.257 91.0775 325.713 93.5647C325.831 93.624 325.956 93.6493 326.082 93.6493C326.452 93.6493 326.797 93.4125 326.955 93.0233C327.159 92.5072 326.931 91.9066 326.452 91.6866C320.941 89.174 315.249 86.9236 309.542 85.0117C309.038 84.834 308.512 85.1386 308.355 85.68Z" fill="#830016" fill-opacity="0.3"/>
<path d="M273.648 77.1102C261.242 75.7481 248.452 75.7481 236.047 77.1102C229.93 77.7785 223.791 78.7937 217.784 80.1219C211.865 81.4332 205.929 83.0745 200.151 85.0118C194.444 86.9238 188.752 89.1741 183.241 91.6868C182.762 91.9067 182.534 92.5074 182.738 93.0234C182.888 93.4126 183.241 93.6495 183.611 93.6495C183.737 93.6495 183.862 93.6241 183.98 93.5649C189.436 91.0776 195.065 88.8527 200.717 86.9576C206.44 85.0372 212.313 83.4129 218.17 82.1185C224.113 80.8072 230.19 79.8089 236.243 79.1406C248.523 77.7954 261.18 77.7954 273.459 79.1406C273.986 79.1913 274.442 78.7937 274.497 78.2269C274.544 77.6685 274.167 77.1694 273.648 77.1102Z" fill="#830016" fill-opacity="0.3"/>
<path d="M137.776 121.39C133.248 125.408 128.846 129.715 124.695 134.19C120.536 138.665 116.535 143.403 112.801 148.267C109.051 153.149 105.482 158.284 102.188 163.529C98.8781 168.791 95.7728 174.29 92.9506 179.865C90.1126 185.483 87.5026 191.303 85.1913 197.183C82.8565 203.114 80.7732 209.239 78.9886 215.381C77.1884 221.582 75.6633 227.969 74.4447 234.356C73.2105 240.811 72.275 247.427 71.6461 254.009C71.0171 260.684 70.6948 267.494 70.6948 274.237C70.6948 280.988 71.0171 287.798 71.6461 294.465C72.2671 301.055 73.2105 307.662 74.4447 314.117C75.6633 320.505 77.1962 326.892 78.9886 333.093C79.1144 333.533 79.4918 333.812 79.8927 333.812C79.987 333.812 80.0814 333.795 80.1757 333.77C80.6789 333.601 80.954 333.034 80.7968 332.492C79.0201 326.351 77.5028 320.031 76.3 313.711C75.0815 307.324 74.1539 300.776 73.5328 294.262C72.9039 287.654 72.5894 280.92 72.5894 274.237C72.5894 267.553 72.9039 260.819 73.5328 254.212C74.146 247.689 75.0815 241.15 76.3 234.762C77.5028 228.443 79.0201 222.123 80.7968 215.981C82.5577 209.898 84.6253 203.841 86.9366 197.97C89.2242 192.158 91.8106 186.388 94.6172 180.83C97.408 175.314 100.482 169.874 103.752 164.654C107.015 159.468 110.544 154.384 114.255 149.553C117.95 144.731 121.912 140.044 126.024 135.62C130.135 131.195 134.49 126.931 138.971 122.955C139.372 122.6 139.435 121.957 139.097 121.517C138.775 121.094 138.177 121.035 137.776 121.39Z" fill="#830016" fill-opacity="0.3"/>
<path d="M304.384 446.652C304.479 446.652 304.573 446.635 304.667 446.609C309.871 444.867 315.052 442.819 320.068 440.535C325.036 438.268 329.973 435.713 334.721 432.921C339.438 430.155 344.092 427.109 348.55 423.869C352.991 420.637 357.331 417.143 361.466 413.472C365.585 409.808 369.595 405.891 373.384 401.814C377.165 397.744 380.813 393.43 384.217 388.988C387.629 384.547 390.876 379.868 393.879 375.088C394.17 374.623 394.06 373.989 393.627 373.676C393.195 373.354 392.605 373.481 392.314 373.946C389.343 378.667 386.127 383.295 382.763 387.685C379.398 392.076 375.79 396.34 372.055 400.367C368.313 404.394 364.351 408.269 360.271 411.889C356.183 415.519 351.891 418.979 347.504 422.168C343.102 425.375 338.495 428.387 333.833 431.119C329.132 433.869 324.258 436.398 319.345 438.64C314.384 440.899 309.266 442.921 304.117 444.647C303.614 444.816 303.339 445.383 303.496 445.924C303.606 446.373 303.975 446.652 304.384 446.652Z" fill="#830016" fill-opacity="0.3"/>
<path d="M417.29 310.166C416.197 315.902 414.821 321.655 413.194 327.255C411.59 332.788 409.711 338.304 407.612 343.642C407.408 344.159 407.636 344.759 408.115 344.979C408.233 345.038 408.359 345.064 408.485 345.064C408.854 345.064 409.2 344.827 409.357 344.438C411.48 339.04 413.382 333.465 415.002 327.865C416.645 322.205 418.036 316.384 419.145 310.581C420.269 304.693 421.126 298.669 421.692 292.679C422.266 286.597 422.557 280.395 422.557 274.254C422.557 268.112 422.266 261.91 421.692 255.828C421.126 249.838 420.269 243.814 419.145 237.926C418.036 232.123 416.645 226.302 415.002 220.642C414.845 220.109 414.318 219.805 413.815 219.974C413.312 220.143 413.037 220.71 413.194 221.252C414.813 226.852 416.189 232.596 417.29 238.341C418.398 244.161 419.247 250.117 419.805 256.039C420.371 262.054 420.662 268.188 420.662 274.262C420.662 280.336 420.371 286.47 419.805 292.485C419.247 298.39 418.398 304.346 417.29 310.166Z" fill="#830016" fill-opacity="0.3"/>
<path d="M271.964 94.69C260.66 93.4548 249.025 93.4548 237.72 94.69C232.146 95.2991 226.549 96.2212 221.085 97.431C215.684 98.6239 210.276 100.121 205.024 101.889C199.82 103.632 194.639 105.68 189.624 107.964C184.655 110.231 179.718 112.786 174.97 115.578C170.253 118.344 165.599 121.39 161.142 124.63C156.7 127.862 152.36 131.356 148.225 135.027C147.824 135.383 147.762 136.026 148.1 136.465C148.43 136.897 149.027 136.956 149.436 136.601C153.524 132.972 157.816 129.511 162.203 126.322C166.605 123.116 171.212 120.104 175.874 117.371C180.575 114.622 185.449 112.092 190.363 109.85C195.323 107.591 200.441 105.57 205.59 103.844C210.787 102.101 216.125 100.62 221.47 99.4445C226.879 98.2516 232.406 97.338 237.917 96.7373C249.095 95.5106 260.597 95.5106 271.776 96.7373C277.287 97.338 282.821 98.2516 288.222 99.4445C293.56 100.62 298.906 102.109 304.102 103.844C309.251 105.57 314.369 107.591 319.33 109.85C324.243 112.092 329.117 114.622 333.818 117.371C338.488 120.104 343.087 123.116 347.489 126.322C351.876 129.52 356.176 132.972 360.256 136.601C364.328 140.222 368.298 144.096 372.04 148.123C375.783 152.15 379.383 156.414 382.748 160.805C386.12 165.196 389.336 169.823 392.299 174.544C395.279 179.29 398.078 184.239 400.617 189.256C400.79 189.594 401.112 189.789 401.45 189.789C401.599 189.789 401.757 189.747 401.898 189.662C402.362 189.391 402.527 188.774 402.276 188.283C399.713 183.207 396.883 178.199 393.864 173.402C390.861 168.622 387.606 163.944 384.202 159.502C380.798 155.069 377.158 150.754 373.369 146.677C369.58 142.599 365.57 138.682 361.451 135.019C357.324 131.347 352.976 127.853 348.535 124.621C344.077 121.381 339.423 118.336 334.706 115.569C329.95 112.786 325.021 110.223 320.053 107.955C315.037 105.671 309.856 103.624 304.652 101.881C299.401 100.121 293.992 98.6154 288.591 97.4226C283.135 96.2297 277.538 95.3076 271.964 94.69Z" fill="#830016" fill-opacity="0.3"/>
<path d="M109.067 189.256C109.318 188.765 109.145 188.139 108.689 187.877C108.226 187.606 107.652 187.792 107.4 188.283C104.814 193.401 102.432 198.714 100.333 204.061C98.2101 209.459 96.3076 215.034 94.6881 220.634C93.0451 226.294 91.6536 232.114 90.5452 237.918C89.421 243.806 88.5641 249.83 87.9981 255.819C87.4242 261.902 87.1333 268.103 87.1333 274.245C87.1333 280.387 87.4242 286.588 87.9981 292.671C88.0452 293.196 88.4619 293.585 88.9414 293.585C88.9729 293.585 89.0043 293.585 89.0358 293.576C89.5546 293.517 89.932 293.018 89.8848 292.46C89.3188 286.445 89.0279 280.311 89.0279 274.237C89.0279 268.163 89.3188 262.029 89.8848 256.014C90.443 250.092 91.292 244.136 92.4005 238.316C93.4932 232.58 94.869 226.827 96.4963 221.226C98.1 215.694 99.9789 210.178 102.078 204.839C104.153 199.569 106.504 194.324 109.067 189.256Z" fill="#830016" fill-opacity="0.3"/>
<path d="M115.811 375.088C118.814 379.868 122.069 384.547 125.473 388.988C128.877 393.421 132.517 397.736 136.306 401.814C140.087 405.891 144.105 409.808 148.224 413.471C152.351 417.143 156.699 420.637 161.14 423.869C165.598 427.109 170.252 430.155 174.969 432.921C179.725 435.704 184.654 438.268 189.622 440.535C189.74 440.594 189.866 440.62 189.992 440.62C190.361 440.62 190.707 440.383 190.864 439.994C191.069 439.477 190.841 438.877 190.361 438.657C185.448 436.415 180.574 433.885 175.873 431.136C171.203 428.403 166.604 425.392 162.202 422.185C157.815 418.987 153.515 415.536 149.435 411.898C145.362 408.277 141.392 404.402 137.65 400.375C133.908 396.348 130.308 392.085 126.943 387.694C123.571 383.303 120.355 378.675 117.391 373.955C114.412 369.209 111.613 364.26 109.074 359.243C108.822 358.752 108.249 358.566 107.785 358.837C107.321 359.107 107.156 359.725 107.407 360.216C109.962 365.283 112.793 370.292 115.811 375.088Z" fill="#830016" fill-opacity="0.3"/>
<path d="M221.086 451.059C226.55 452.269 232.147 453.191 237.721 453.8C243.373 454.418 249.136 454.731 254.843 454.731C255.37 454.731 255.794 454.274 255.794 453.707C255.794 453.14 255.37 452.684 254.843 452.684C249.199 452.684 243.499 452.371 237.91 451.761C232.399 451.161 226.864 450.247 221.464 449.054C220.953 448.944 220.449 449.3 220.347 449.85C220.245 450.408 220.575 450.949 221.086 451.059Z" fill="#830016" fill-opacity="0.3"/>
<path d="M285.232 434.435C285.295 434.435 285.358 434.427 285.421 434.419C290.311 433.336 295.209 431.982 299.973 430.383C304.682 428.801 309.375 426.948 313.927 424.876C318.431 422.82 322.897 420.502 327.205 417.981C331.481 415.477 335.695 412.719 339.728 409.783C343.753 406.856 347.684 403.683 351.426 400.367C355.16 397.051 358.784 393.497 362.219 389.809C362.589 389.411 362.589 388.768 362.219 388.371C361.85 387.973 361.252 387.973 360.883 388.371C357.495 392.017 353.91 395.528 350.223 398.802C346.528 402.084 342.644 405.215 338.667 408.108C334.681 411.01 330.522 413.734 326.293 416.204C322.04 418.691 317.629 420.984 313.18 423.014C308.691 425.062 304.053 426.889 299.399 428.454C294.698 430.028 289.863 431.373 285.036 432.439C284.525 432.549 284.195 433.09 284.297 433.64C284.391 434.097 284.784 434.435 285.232 434.435Z" fill="#830016" fill-opacity="0.3"/>
<path d="M399.924 322.814C401.41 317.687 402.668 312.417 403.674 307.155C404.688 301.816 405.466 296.36 405.977 290.937C406.496 285.438 406.763 279.82 406.763 274.245C406.763 268.67 406.496 263.053 405.977 257.554C405.466 252.131 404.688 246.674 403.674 241.336C402.668 236.074 401.41 230.803 399.924 225.676C398.454 220.609 396.732 215.558 394.806 210.66C392.896 205.804 390.742 200.998 388.399 196.371C386.072 191.777 383.509 187.242 380.781 182.894C380.491 182.429 379.901 182.302 379.469 182.623C379.036 182.936 378.918 183.571 379.217 184.036C381.913 188.334 384.445 192.809 386.74 197.352C389.052 201.921 391.182 206.667 393.069 211.463C394.971 216.294 396.669 221.285 398.124 226.285C399.586 231.344 400.836 236.547 401.826 241.742C402.833 247.012 403.595 252.401 404.106 257.757C404.617 263.188 404.885 268.738 404.885 274.245C404.885 279.753 404.625 285.294 404.106 290.734C403.595 296.089 402.833 301.478 401.826 306.748C400.836 311.943 399.586 317.146 398.124 322.205C396.677 327.213 394.971 332.196 393.069 337.027C391.182 341.815 389.052 346.561 386.74 351.138C384.445 355.681 381.913 360.157 379.217 364.454C378.926 364.919 379.036 365.554 379.469 365.867C379.634 365.985 379.814 366.045 379.995 366.045C380.302 366.045 380.601 365.884 380.781 365.596C383.509 361.248 386.08 356.713 388.399 352.119C390.742 347.492 392.896 342.687 394.806 337.831C396.74 332.932 398.454 327.882 399.924 322.814Z" fill="#830016" fill-opacity="0.3"/>
<path d="M224.648 116.077C229.538 114.994 234.546 114.173 239.53 113.624C249.64 112.515 260.056 112.515 270.166 113.624C275.15 114.173 280.158 114.994 285.047 116.077C289.874 117.143 294.709 118.48 299.41 120.062C304.064 121.618 308.695 123.454 313.191 125.501C317.641 127.532 322.051 129.824 326.304 132.312C330.526 134.782 334.692 137.506 338.678 140.408C342.648 143.301 346.54 146.431 350.235 149.714C353.922 152.988 357.506 156.499 360.895 160.145C361.083 160.348 361.319 160.441 361.563 160.441C361.807 160.441 362.05 160.34 362.231 160.145C362.601 159.747 362.601 159.105 362.231 158.707C358.804 155.018 355.172 151.465 351.437 148.149C347.695 144.824 343.765 141.66 339.74 138.724C335.707 135.789 331.493 133.031 327.216 130.527C322.916 128.006 318.443 125.688 313.938 123.632C309.386 121.559 304.693 119.706 299.984 118.124C295.22 116.525 290.323 115.172 285.433 114.089C280.48 112.998 275.409 112.16 270.362 111.61C260.119 110.485 249.577 110.485 239.341 111.61C234.294 112.16 229.223 112.998 224.271 114.089C223.76 114.199 223.43 114.74 223.532 115.29C223.634 115.84 224.137 116.195 224.648 116.077Z" fill="#830016" fill-opacity="0.3"/>
<path d="M195.762 123.623C191.257 125.679 186.792 127.997 182.484 130.518C178.207 133.022 173.993 135.78 169.961 138.716C165.936 141.643 162.005 144.815 158.263 148.132C154.529 151.448 150.904 155.001 147.469 158.69C147.1 159.088 147.1 159.73 147.469 160.128C147.658 160.331 147.894 160.424 148.137 160.424C148.381 160.424 148.625 160.323 148.805 160.128C152.194 156.482 155.779 152.971 159.466 149.697C163.16 146.414 167.044 143.284 171.022 140.391C175.008 137.489 179.166 134.765 183.396 132.295C187.649 129.807 192.059 127.515 196.509 125.484C196.988 125.264 197.216 124.664 197.012 124.148C196.8 123.649 196.241 123.403 195.762 123.623Z" fill="#830016" fill-opacity="0.3"/>
<path d="M130.473 184.044C130.764 183.579 130.654 182.945 130.221 182.632C129.789 182.319 129.199 182.437 128.908 182.902C126.181 187.251 123.61 191.785 121.291 196.379C118.948 201.007 116.794 205.812 114.884 210.668C114.679 211.184 114.907 211.785 115.387 212.005C115.505 212.064 115.63 212.089 115.756 212.089C116.126 212.089 116.472 211.853 116.629 211.463C118.516 206.675 120.646 201.929 122.957 197.352C125.237 192.818 127.776 188.334 130.473 184.044Z" fill="#830016" fill-opacity="0.3"/>
<path d="M106.008 307.154C107.015 312.417 108.273 317.687 109.758 322.814C111.228 327.881 112.95 332.932 114.876 337.83C115.026 338.22 115.379 338.456 115.749 338.456C115.875 338.456 116 338.431 116.118 338.372C116.598 338.152 116.826 337.551 116.621 337.035C114.719 332.204 113.021 327.213 111.567 322.213C110.104 317.154 108.854 311.951 107.864 306.757C106.858 301.486 106.095 296.097 105.584 290.742C105.073 285.311 104.806 279.761 104.806 274.253C104.806 268.746 105.065 263.205 105.584 257.765C106.095 252.41 106.858 247.021 107.864 241.75C107.966 241.2 107.636 240.659 107.125 240.549C106.614 240.439 106.111 240.794 106.008 241.344C104.994 246.682 104.216 252.139 103.705 257.562C103.186 263.061 102.919 268.678 102.919 274.253C102.919 279.829 103.186 285.446 103.705 290.945C104.216 296.359 104.994 301.816 106.008 307.154Z" fill="#830016" fill-opacity="0.3"/>
<path d="M137.651 378.185C140.733 382.203 144.035 386.112 147.462 389.801C147.651 390.004 147.887 390.097 148.131 390.097C148.374 390.097 148.618 389.995 148.799 389.801C149.168 389.403 149.168 388.76 148.799 388.362C145.411 384.716 142.156 380.858 139.106 376.891C136.048 372.906 133.139 368.727 130.458 364.454C130.167 363.989 129.578 363.862 129.145 364.184C128.713 364.497 128.595 365.131 128.894 365.596C131.614 369.92 134.562 374.15 137.651 378.185Z" fill="#830016" fill-opacity="0.3"/>
<path d="M209.718 430.375C209.813 430.409 209.907 430.417 210.001 430.417C210.402 430.417 210.78 430.138 210.906 429.698C211.063 429.157 210.78 428.59 210.284 428.42C205.631 426.864 201 425.028 196.503 422.981C192.054 420.95 187.644 418.658 183.391 416.17C179.169 413.7 175.002 410.976 171.017 408.074C170.584 407.753 169.995 407.88 169.704 408.345C169.413 408.81 169.523 409.445 169.955 409.758C173.988 412.693 178.202 415.451 182.479 417.955C186.779 420.477 191.252 422.795 195.757 424.85C200.308 426.94 205.009 428.793 209.718 430.375Z" fill="#830016" fill-opacity="0.3"/>
<path d="M254.842 435.696C249.732 435.696 244.583 435.417 239.52 434.858C238.993 434.808 238.537 435.205 238.482 435.772C238.427 436.33 238.805 436.83 239.331 436.889C244.449 437.447 249.669 437.735 254.842 437.735C255.369 437.735 255.793 437.278 255.793 436.711C255.793 436.153 255.369 435.696 254.842 435.696Z" fill="#830016" fill-opacity="0.3"/>
<path d="M268.711 420.671C268.743 420.671 268.774 420.671 268.805 420.662C273.349 420.163 277.909 419.41 282.366 418.429C282.877 418.319 283.208 417.778 283.105 417.228C283.003 416.678 282.5 416.322 281.989 416.432C277.595 417.405 273.09 418.141 268.609 418.632C268.09 418.691 267.713 419.19 267.76 419.749C267.815 420.273 268.232 420.671 268.711 420.671Z" fill="#830016" fill-opacity="0.3"/>
<path d="M340.576 386.197C337.243 389.158 333.752 391.966 330.191 394.564C326.606 397.169 322.864 399.623 319.067 401.839C315.246 404.073 311.276 406.137 307.283 407.956C306.803 408.176 306.575 408.776 306.78 409.293C306.929 409.682 307.283 409.919 307.652 409.919C307.778 409.919 307.904 409.893 308.022 409.834C312.078 407.981 316.095 405.9 319.971 403.633C323.815 401.382 327.612 398.895 331.244 396.256C334.853 393.625 338.398 390.774 341.779 387.779C342.18 387.423 342.243 386.78 341.905 386.34C341.582 385.901 340.977 385.841 340.576 386.197Z" fill="#830016" fill-opacity="0.3"/>
<path d="M359.602 368.185C359.877 368.185 360.144 368.058 360.333 367.813C363.116 364.183 365.765 360.368 368.21 356.476C368.501 356.011 368.391 355.377 367.958 355.064C367.526 354.751 366.937 354.869 366.646 355.334C364.232 359.175 361.622 362.931 358.879 366.51C358.548 366.941 358.603 367.584 359.004 367.948C359.177 368.109 359.39 368.185 359.602 368.185Z" fill="#830016" fill-opacity="0.3"/>
<path d="M383.637 317.357C382.332 321.858 380.807 326.342 379.093 330.682C378.889 331.198 379.117 331.799 379.596 332.019C379.714 332.078 379.84 332.103 379.966 332.103C380.335 332.103 380.689 331.866 380.838 331.477C382.576 327.069 384.124 322.526 385.445 317.958C386.782 313.339 387.922 308.593 388.818 303.864C389.73 299.067 390.429 294.152 390.893 289.262C391.365 284.304 391.601 279.245 391.601 274.237C391.601 273.67 391.176 273.213 390.649 273.213C390.123 273.213 389.698 273.67 389.698 274.237C389.698 279.177 389.462 284.16 388.999 289.059C388.543 293.881 387.851 298.72 386.955 303.458C386.082 308.127 384.958 312.806 383.637 317.357Z" fill="#830016" fill-opacity="0.3"/>
<path d="M201.657 138.657C197.6 140.509 193.583 142.59 189.707 144.858C189.252 145.128 189.079 145.746 189.33 146.237C189.582 146.727 190.156 146.914 190.619 146.643C194.44 144.409 198.41 142.345 202.404 140.526C206.444 138.682 210.611 137.041 214.785 135.636C219.007 134.215 223.354 133.014 227.702 132.058C232.104 131.085 236.601 130.349 241.082 129.858C250.17 128.86 259.533 128.86 268.621 129.858C273.102 130.349 277.598 131.093 282.001 132.058C286.348 133.014 290.688 134.224 294.917 135.636C299.099 137.041 303.266 138.682 307.299 140.526C311.3 142.354 315.262 144.409 319.083 146.643C322.88 148.868 326.622 151.313 330.207 153.918C333.768 156.507 337.267 159.324 340.592 162.277C343.91 165.221 347.133 168.377 350.175 171.651C353.217 174.925 356.142 178.393 358.886 181.963C361.629 185.542 364.247 189.298 366.653 193.139C369.074 196.997 371.354 201.024 373.414 205.11C375.489 209.213 377.407 213.485 379.105 217.791C380.819 222.14 382.344 226.624 383.649 231.116C384.97 235.667 386.086 240.346 386.974 245.016C387.069 245.498 387.462 245.828 387.902 245.828C387.965 245.828 388.028 245.819 388.091 245.811C388.602 245.701 388.932 245.16 388.83 244.61C387.926 239.881 386.794 235.135 385.457 230.515C384.137 225.955 382.588 221.404 380.85 216.996C379.129 212.622 377.187 208.299 375.08 204.137C372.989 199.992 370.678 195.914 368.225 192.005C365.78 188.114 363.131 184.298 360.348 180.669C357.573 177.048 354.593 173.529 351.512 170.212C348.422 166.888 345.16 163.69 341.795 160.703C338.414 157.7 334.877 154.849 331.26 152.226C327.629 149.578 323.831 147.1 319.987 144.849C316.112 142.582 312.086 140.492 308.038 138.648C303.942 136.778 299.713 135.112 295.475 133.691C291.191 132.252 286.781 131.034 282.378 130.061C277.921 129.08 273.353 128.327 268.817 127.828C259.596 126.821 250.107 126.821 240.893 127.828C236.349 128.327 231.79 129.08 227.332 130.061C222.922 131.034 218.52 132.252 214.235 133.691C209.974 135.12 205.753 136.787 201.657 138.657Z" fill="#830016" fill-opacity="0.3"/>
<path d="M141.724 193.435C141.889 193.554 142.07 193.613 142.251 193.613C142.557 193.613 142.856 193.452 143.037 193.165C145.45 189.324 148.06 185.567 150.804 181.989C153.547 178.419 156.472 174.95 159.514 171.676C162.557 168.402 165.78 165.247 169.097 162.302C169.498 161.947 169.561 161.304 169.223 160.864C168.885 160.433 168.288 160.365 167.887 160.729C164.522 163.715 161.26 166.913 158.17 170.229C155.088 173.546 152.117 177.065 149.334 180.686C146.551 184.315 143.902 188.131 141.457 192.022C141.174 192.479 141.292 193.114 141.724 193.435Z" fill="#830016" fill-opacity="0.3"/>
<path d="M120.857 303.872C121.761 308.601 122.893 313.348 124.229 317.967C125.55 322.527 127.099 327.078 128.836 331.486C128.985 331.875 129.339 332.112 129.709 332.112C129.834 332.112 129.96 332.086 130.078 332.027C130.558 331.807 130.786 331.207 130.581 330.691C128.867 326.342 127.342 321.858 126.037 317.366C124.717 312.815 123.6 308.136 122.712 303.466C121.808 298.737 121.124 293.89 120.668 289.076C120.204 284.186 119.968 279.194 119.968 274.254C119.968 269.313 120.204 264.33 120.668 259.432C121.124 254.61 121.816 249.771 122.712 245.041C123.6 240.372 124.725 235.702 126.037 231.142C127.342 226.641 128.867 222.157 130.581 217.817C130.786 217.301 130.558 216.7 130.078 216.48C129.599 216.26 129.04 216.506 128.836 217.022C127.099 221.43 125.55 225.973 124.229 230.541C122.893 235.16 121.753 239.906 120.857 244.635C119.945 249.432 119.245 254.347 118.781 259.237C118.31 264.195 118.074 269.254 118.074 274.262C118.074 279.271 118.31 284.33 118.781 289.287C119.245 294.16 119.945 299.075 120.857 303.872Z" fill="#830016" fill-opacity="0.3"/>
<path d="M158.187 378.269C161.277 381.594 164.539 384.792 167.904 387.779C171.284 390.782 174.822 393.633 178.438 396.255C178.603 396.374 178.784 396.433 178.965 396.433C179.271 396.433 179.57 396.272 179.751 395.985C180.042 395.519 179.932 394.885 179.499 394.572C175.938 391.983 172.44 389.166 169.115 386.213C165.797 383.269 162.574 380.114 159.531 376.84C156.489 373.566 153.565 370.097 150.821 366.527C148.077 362.948 145.459 359.192 143.054 355.351C142.763 354.886 142.173 354.759 141.741 355.081C141.309 355.394 141.191 356.028 141.489 356.493C143.934 360.385 146.584 364.2 149.367 367.83C152.126 371.434 155.098 374.953 158.187 378.269Z" fill="#830016" fill-opacity="0.3"/>
<path d="M227.318 418.429C231.775 419.41 236.342 420.163 240.879 420.662C240.91 420.662 240.941 420.671 240.973 420.671C241.452 420.671 241.861 420.282 241.916 419.757C241.971 419.199 241.594 418.7 241.067 418.64C236.586 418.15 232.089 417.405 227.687 416.441C223.34 415.485 219 414.275 214.771 412.862C210.588 411.458 206.422 409.817 202.389 407.972C201.909 407.752 201.351 407.998 201.147 408.514C200.942 409.03 201.17 409.631 201.65 409.851C205.746 411.72 209.975 413.387 214.213 414.808C218.505 416.229 222.907 417.456 227.318 418.429Z" fill="#830016" fill-opacity="0.3"/>
<path d="M302.38 395.435C305.996 393.785 309.589 391.915 313.064 389.885C316.499 387.871 319.888 385.655 323.142 383.286C326.373 380.934 329.541 378.379 332.552 375.706C335.555 373.033 338.48 370.173 341.239 367.212C341.609 366.814 341.609 366.171 341.239 365.774C340.87 365.376 340.272 365.376 339.903 365.774C337.191 368.693 334.313 371.51 331.35 374.141C328.386 376.772 325.265 379.284 322.081 381.603C318.874 383.929 315.54 386.12 312.16 388.1C308.748 390.096 305.21 391.932 301.641 393.557C298.041 395.198 294.322 396.661 290.588 397.913C286.822 399.174 282.939 400.257 279.063 401.111C278.552 401.221 278.222 401.763 278.324 402.313C278.419 402.795 278.812 403.125 279.252 403.125C279.315 403.125 279.378 403.116 279.441 403.108C283.379 402.236 287.318 401.145 291.146 399.859C294.943 398.59 298.725 397.101 302.38 395.435Z" fill="#830016" fill-opacity="0.3"/>
<path d="M374.589 300.725C375.407 296.436 376.028 292.054 376.444 287.68C376.861 283.247 377.073 278.729 377.073 274.254C377.073 269.77 376.861 265.252 376.444 260.828C376.028 256.454 375.407 252.063 374.589 247.782C373.779 243.544 372.765 239.305 371.57 235.185C370.391 231.108 369.007 227.038 367.451 223.104C365.91 219.196 364.18 215.33 362.294 211.607C360.423 207.91 358.363 204.256 356.162 200.762C353.976 197.285 351.61 193.875 349.118 190.635C346.634 187.403 343.977 184.256 341.225 181.287C338.466 178.317 335.549 175.458 332.538 172.793C329.527 170.119 326.359 167.565 323.128 165.213C319.873 162.844 316.485 160.627 313.05 158.614C309.583 156.583 305.99 154.714 302.366 153.064C298.71 151.397 294.929 149.908 291.14 148.631C287.311 147.345 283.373 146.254 279.434 145.382C278.923 145.272 278.42 145.628 278.318 146.178C278.216 146.728 278.546 147.269 279.057 147.379C282.933 148.233 286.808 149.308 290.582 150.577C294.316 151.829 298.034 153.293 301.635 154.934C305.196 156.558 308.734 158.394 312.153 160.39C315.534 162.37 318.875 164.553 322.075 166.888C325.259 169.206 328.38 171.718 331.343 174.349C334.307 176.981 337.176 179.789 339.897 182.716C342.609 185.635 345.227 188.731 347.671 191.921C350.124 195.119 352.451 198.469 354.605 201.895C356.767 205.338 358.795 208.926 360.643 212.572C362.498 216.235 364.204 220.042 365.721 223.891C367.246 227.766 368.606 231.768 369.77 235.786C370.941 239.838 371.948 244.018 372.742 248.188C373.543 252.41 374.157 256.725 374.565 261.031C374.974 265.396 375.186 269.838 375.186 274.254C375.186 278.661 374.974 283.111 374.565 287.477C374.157 291.783 373.543 296.106 372.742 300.319C371.948 304.49 370.949 308.661 369.77 312.721C368.606 316.74 367.246 320.741 365.721 324.616C364.204 328.457 362.498 332.272 360.643 335.936C360.391 336.426 360.564 337.052 361.02 337.315C361.162 337.399 361.319 337.441 361.468 337.441C361.806 337.441 362.129 337.247 362.302 336.908C364.18 333.186 365.918 329.32 367.459 325.411C369.007 321.477 370.391 317.408 371.578 313.33C372.765 309.202 373.779 304.963 374.589 300.725Z" fill="#830016" fill-opacity="0.3"/>
<path d="M242.554 145.416C246.611 144.968 250.746 144.748 254.842 144.748C255.369 144.748 255.793 144.291 255.793 143.724C255.793 143.157 255.369 142.701 254.842 142.701C250.683 142.701 246.485 142.929 242.366 143.377C241.847 143.437 241.47 143.936 241.517 144.494C241.564 145.019 241.981 145.408 242.46 145.408C242.492 145.416 242.523 145.416 242.554 145.416Z" fill="#830016" fill-opacity="0.3"/>
<path d="M197.077 160.517C197.226 160.517 197.383 160.475 197.525 160.391C200.937 158.394 204.482 156.558 208.043 154.934C211.644 153.293 215.362 151.829 219.097 150.577C219.592 150.408 219.875 149.841 219.718 149.3C219.56 148.767 219.042 148.462 218.531 148.631C214.741 149.9 210.96 151.398 207.304 153.064C203.688 154.714 200.095 156.584 196.621 158.614C196.157 158.885 195.992 159.502 196.243 159.993C196.416 160.331 196.746 160.517 197.077 160.517Z" fill="#830016" fill-opacity="0.3"/>
<path d="M162.011 191.921C164.456 188.732 167.074 185.644 169.786 182.717C172.498 179.798 175.376 176.981 178.339 174.35C178.74 173.994 178.803 173.351 178.465 172.911C178.127 172.48 177.53 172.412 177.129 172.776C174.126 175.449 171.201 178.309 168.442 181.27C165.682 184.239 163.033 187.378 160.549 190.618C158.057 193.867 155.691 197.268 153.505 200.745C151.304 204.239 149.244 207.893 147.373 211.591C147.122 212.081 147.294 212.707 147.75 212.969C147.892 213.054 148.049 213.096 148.199 213.096C148.537 213.096 148.859 212.902 149.032 212.563C150.871 208.917 152.9 205.33 155.069 201.887C157.231 198.469 159.566 195.119 162.011 191.921Z" fill="#830016" fill-opacity="0.3"/>
<path d="M136.953 248.18C137.747 244.009 138.746 239.838 139.925 235.777C140.082 235.236 139.799 234.669 139.304 234.5C138.801 234.331 138.274 234.635 138.117 235.168C136.922 239.288 135.908 243.527 135.098 247.765C134.28 252.054 133.659 256.437 133.243 260.811C132.826 265.244 132.614 269.761 132.614 274.237C132.614 278.72 132.826 283.238 133.243 287.663C133.659 292.036 134.28 296.427 135.098 300.708C135.908 304.946 136.922 309.185 138.117 313.305C139.296 317.383 140.68 321.452 142.236 325.386C143.777 329.294 145.507 333.161 147.393 336.883C149.264 340.58 151.324 344.235 153.525 347.729C155.711 351.206 158.077 354.615 160.569 357.855C163.053 361.087 165.71 364.234 168.462 367.204C171.221 370.173 174.138 373.033 177.149 375.697C180.16 378.371 183.328 380.926 186.559 383.278C186.724 383.396 186.905 383.455 187.086 383.455C187.392 383.455 187.691 383.295 187.872 383.007C188.163 382.542 188.053 381.907 187.62 381.594C184.436 379.276 181.315 376.763 178.352 374.132C175.388 371.501 172.518 368.693 169.798 365.765C167.086 362.847 164.468 359.75 162.023 356.561C159.571 353.363 157.244 350.013 155.09 346.587C152.928 343.143 150.899 339.556 149.052 335.91C147.197 332.247 145.491 328.44 143.974 324.591C142.448 320.716 141.088 316.714 139.925 312.696C138.754 308.643 137.747 304.464 136.953 300.293C136.151 296.072 135.538 291.757 135.129 287.451C134.721 283.086 134.508 278.644 134.508 274.228C134.508 269.82 134.721 265.37 135.129 261.005C135.538 256.716 136.151 252.401 136.953 248.18Z" fill="#830016" fill-opacity="0.3"/>
<path d="M218.537 399.868C222.366 401.154 226.304 402.246 230.243 403.117C234.237 403.997 238.317 404.665 242.365 405.114C242.397 405.114 242.428 405.122 242.46 405.122C242.939 405.122 243.348 404.733 243.403 404.208C243.458 403.65 243.081 403.151 242.554 403.092C238.56 402.652 234.551 401.992 230.62 401.129C226.745 400.275 222.869 399.2 219.095 397.931C215.361 396.679 211.643 395.215 208.042 393.574C207.563 393.354 207.005 393.6 206.8 394.116C206.596 394.632 206.824 395.232 207.303 395.452C210.967 397.102 214.74 398.591 218.537 399.868Z" fill="#830016" fill-opacity="0.3"/>
<path d="M266.749 389.115C266.694 388.557 266.238 388.151 265.712 388.202C258.534 388.988 251.152 388.988 243.975 388.202C240.445 387.812 236.892 387.229 233.417 386.459C229.989 385.706 226.562 384.75 223.228 383.633C219.927 382.525 216.641 381.23 213.457 379.775C210.296 378.337 207.168 376.713 204.157 374.945C201.161 373.193 198.206 371.256 195.383 369.2C192.577 367.161 189.817 364.937 187.184 362.602C184.566 360.275 182.019 357.779 179.621 355.199C177.215 352.61 174.904 349.878 172.75 347.061C170.588 344.243 168.521 341.274 166.618 338.237C164.7 335.183 162.908 332.002 161.28 328.795C159.637 325.547 158.128 322.18 156.791 318.787C156.587 318.271 156.029 318.026 155.549 318.246C155.07 318.466 154.842 319.066 155.046 319.582C156.406 323.034 157.939 326.469 159.614 329.768C161.265 333.042 163.096 336.274 165.046 339.379C166.988 342.467 169.087 345.487 171.288 348.355C173.481 351.223 175.84 354.006 178.285 356.637C180.722 359.26 183.316 361.798 185.981 364.167C188.662 366.544 191.468 368.803 194.322 370.884C197.199 372.982 200.21 374.945 203.253 376.73C206.319 378.523 209.51 380.181 212.718 381.645C215.957 383.126 219.306 384.445 222.67 385.57C226.066 386.713 229.557 387.677 233.047 388.447C236.577 389.225 240.193 389.826 243.794 390.215C247.45 390.613 251.168 390.816 254.855 390.816C258.542 390.816 262.261 390.613 265.916 390.215C266.419 390.173 266.804 389.674 266.749 389.115Z" fill="#830016" fill-opacity="0.3"/>
<path d="M350.084 329.777C351.758 326.469 353.291 323.043 354.652 319.591C356.027 316.105 357.254 312.501 358.299 308.881C359.361 305.217 360.257 301.461 360.972 297.713C361.082 297.163 360.744 296.622 360.233 296.512C359.722 296.402 359.219 296.757 359.117 297.307C358.417 300.987 357.529 304.676 356.491 308.271C355.461 311.825 354.258 315.369 352.906 318.787C351.57 322.18 350.06 325.547 348.417 328.795C346.79 332.01 344.998 335.183 343.079 338.237C341.177 341.274 339.109 344.235 336.948 347.061C334.786 349.878 332.474 352.61 330.077 355.199C327.679 357.779 325.132 360.267 322.514 362.593C319.88 364.928 317.121 367.153 314.314 369.192C311.484 371.248 308.528 373.185 305.541 374.936C305.077 375.207 304.912 375.825 305.164 376.315C305.337 376.654 305.659 376.848 305.997 376.848C306.146 376.848 306.304 376.806 306.445 376.721C309.495 374.936 312.498 372.974 315.376 370.875C318.229 368.794 321.044 366.535 323.717 364.158C326.382 361.789 328.976 359.251 331.413 356.629C333.858 353.998 336.216 351.206 338.41 348.346C340.611 345.479 342.71 342.458 344.652 339.37C346.601 336.282 348.433 333.042 350.084 329.777Z" fill="#830016" fill-opacity="0.3"/>
<path d="M359.124 251.192C359.84 254.931 360.382 258.755 360.736 262.554C361.097 266.42 361.286 270.354 361.286 274.254C361.286 274.821 361.711 275.277 362.237 275.277C362.764 275.277 363.189 274.821 363.189 274.254C363.189 270.294 363 266.284 362.63 262.35C362.261 258.484 361.711 254.593 360.987 250.786C360.272 247.038 359.376 243.282 358.315 239.618C358.157 239.085 357.638 238.781 357.127 238.95C356.632 239.119 356.349 239.686 356.506 240.228C357.536 243.815 358.417 247.512 359.124 251.192Z" fill="#830016" fill-opacity="0.3"/>
<path d="M350.084 218.722C348.433 215.448 346.602 212.216 344.652 209.111C342.71 206.023 340.611 203.003 338.41 200.135C336.217 197.267 333.858 194.484 331.413 191.853C331.044 191.455 330.446 191.455 330.077 191.853C329.707 192.251 329.707 192.894 330.077 193.291C332.483 195.88 334.794 198.612 336.948 201.43C339.11 204.247 341.177 207.216 343.08 210.253C344.998 213.308 346.79 216.488 348.418 219.695C348.591 220.033 348.913 220.228 349.251 220.228C349.4 220.228 349.558 220.185 349.699 220.101C350.163 219.83 350.336 219.213 350.084 218.722Z" fill="#830016" fill-opacity="0.3"/>
<path d="M232.302 161.236C232.404 161.786 232.907 162.142 233.418 162.032C236.893 161.262 240.446 160.678 243.976 160.289C251.154 159.502 258.536 159.502 265.713 160.289C269.243 160.678 272.796 161.262 276.271 162.032C279.699 162.785 283.126 163.741 286.459 164.857C289.761 165.966 293.047 167.26 296.231 168.715C299.391 170.153 302.52 171.778 305.531 173.546C308.526 175.297 311.482 177.234 314.305 179.29C314.47 179.409 314.651 179.468 314.831 179.468C315.138 179.468 315.437 179.307 315.617 179.019C315.908 178.554 315.798 177.92 315.366 177.607C312.489 175.508 309.478 173.546 306.435 171.761C303.369 169.967 300.178 168.309 296.97 166.845C293.731 165.365 290.382 164.045 287.018 162.92C283.621 161.778 280.131 160.813 276.64 160.044C273.111 159.265 269.494 158.665 265.894 158.275C258.591 157.472 251.075 157.472 243.772 158.275C240.179 158.673 236.563 159.265 233.025 160.044C232.522 160.145 232.192 160.687 232.302 161.236Z" fill="#830016" fill-opacity="0.3"/>
<path d="M185.967 184.315C185.566 184.67 185.503 185.313 185.841 185.753C186.029 185.999 186.297 186.126 186.572 186.126C186.784 186.126 186.996 186.049 187.177 185.889C189.811 183.554 192.57 181.329 195.377 179.29C198.207 177.234 201.163 175.297 204.15 173.545C207.169 171.777 210.298 170.153 213.45 168.715C213.93 168.495 214.158 167.894 213.953 167.378C213.749 166.862 213.191 166.617 212.711 166.837C209.496 168.3 206.312 169.958 203.246 171.752C200.196 173.537 197.193 175.5 194.315 177.598C191.454 179.679 188.647 181.938 185.967 184.315Z" fill="#830016" fill-opacity="0.3"/>
<path d="M155.535 230.245C155.653 230.304 155.778 230.329 155.904 230.329C156.274 230.329 156.62 230.092 156.777 229.703C158.113 226.311 159.623 222.944 161.266 219.695C161.517 219.204 161.344 218.578 160.888 218.316C160.425 218.045 159.851 218.232 159.599 218.722C157.925 222.03 156.392 225.456 155.032 228.908C154.827 229.424 155.055 230.025 155.535 230.245Z" fill="#830016" fill-opacity="0.3"/>
<path d="M150.57 251.192C150.672 250.642 150.342 250.1 149.831 249.99C149.32 249.88 148.817 250.236 148.714 250.786C147.991 254.593 147.433 258.484 147.071 262.35C146.702 266.284 146.513 270.286 146.513 274.254C146.513 278.213 146.702 282.223 147.071 286.157C147.441 290.023 147.991 293.915 148.714 297.722C148.809 298.204 149.202 298.534 149.642 298.534C149.705 298.534 149.768 298.525 149.831 298.517C150.342 298.407 150.672 297.865 150.57 297.316C149.854 293.576 149.312 289.752 148.958 285.954C148.596 282.088 148.408 278.154 148.408 274.254C148.408 270.362 148.596 266.428 148.958 262.562C149.312 258.755 149.854 254.931 150.57 251.192Z" fill="#830016" fill-opacity="0.3"/>
<path d="M167.261 314.033C168.456 317.07 169.8 320.073 171.27 322.975C172.724 325.851 174.328 328.694 176.042 331.409C177.74 334.117 179.579 336.765 181.521 339.286C183.447 341.798 185.515 344.243 187.661 346.553C189.807 348.862 192.079 351.087 194.414 353.16C196.749 355.233 199.209 357.221 201.733 359.057C204.257 360.893 206.89 362.618 209.571 364.184C212.267 365.757 215.066 367.212 217.88 368.498C220.726 369.793 223.666 370.96 226.614 371.941C229.602 372.94 232.66 373.794 235.718 374.471C238.815 375.156 241.984 375.681 245.144 376.028C248.343 376.383 251.614 376.561 254.853 376.561C258.092 376.561 261.362 376.383 264.562 376.028C265.08 375.968 265.458 375.469 265.411 374.911C265.356 374.352 264.908 373.946 264.373 373.997C258.1 374.682 251.622 374.682 245.348 373.997C242.251 373.659 239.146 373.143 236.111 372.474C233.116 371.814 230.113 370.977 227.188 370.004C224.303 369.04 221.426 367.897 218.635 366.628C215.876 365.368 213.132 363.947 210.491 362.398C207.865 360.859 205.279 359.167 202.81 357.373C200.342 355.571 197.928 353.625 195.633 351.595C193.337 349.556 191.112 347.382 189.013 345.115C186.906 342.847 184.886 340.453 182.991 337.991C181.097 335.521 179.289 332.924 177.622 330.267C175.947 327.602 174.375 324.819 172.952 322.002C171.514 319.159 170.193 316.215 169.022 313.237C167.842 310.243 166.789 307.146 165.885 304.033C165.728 303.5 165.209 303.195 164.698 303.365C164.203 303.534 163.919 304.101 164.077 304.642C164.981 307.815 166.058 310.979 167.261 314.033Z" fill="#830016" fill-opacity="0.3"/>
<path d="M308.219 357.644C307.928 357.179 307.339 357.052 306.906 357.373C304.43 359.175 301.851 360.867 299.226 362.399C296.584 363.947 293.84 365.368 291.081 366.629C288.29 367.898 285.413 369.04 282.528 370.004C282.033 370.173 281.75 370.74 281.907 371.282C282.033 371.722 282.41 372.001 282.811 372.001C282.905 372.001 283 371.984 283.094 371.958C286.042 370.969 288.974 369.81 291.828 368.515C294.642 367.229 297.441 365.783 300.137 364.201C302.818 362.635 305.452 360.91 307.975 359.074C308.392 358.744 308.51 358.109 308.219 357.644Z" fill="#830016" fill-opacity="0.3"/>
<path d="M332.087 330.268C330.42 332.915 328.612 335.513 326.717 337.992C324.831 340.453 322.802 342.848 320.696 345.115C320.326 345.512 320.326 346.155 320.696 346.553C320.884 346.756 321.12 346.849 321.364 346.849C321.608 346.849 321.851 346.748 322.032 346.553C324.178 344.243 326.246 341.799 328.172 339.286C330.106 336.765 331.953 334.108 333.651 331.41C333.942 330.944 333.832 330.31 333.4 329.997C332.967 329.675 332.378 329.802 332.087 330.268Z" fill="#830016" fill-opacity="0.3"/>
<path d="M346.12 294.431C346.018 294.98 346.348 295.522 346.859 295.632C346.922 295.649 346.985 295.649 347.048 295.649C347.488 295.649 347.881 295.319 347.975 294.837C348.612 291.503 349.1 288.086 349.422 284.685C349.752 281.233 349.917 277.722 349.917 274.237C349.917 270.759 349.752 267.24 349.422 263.788C349.1 260.387 348.612 256.978 347.975 253.636C347.346 250.337 346.56 247.038 345.625 243.84C345.468 243.298 344.933 243.002 344.438 243.171C343.935 243.341 343.659 243.907 343.817 244.449C344.729 247.579 345.499 250.811 346.12 254.051C346.741 257.317 347.221 260.667 347.535 264C347.857 267.384 348.015 270.827 348.015 274.237C348.015 277.646 347.85 281.098 347.535 284.473C347.221 287.815 346.749 291.165 346.12 294.431Z" fill="#830016" fill-opacity="0.3"/>
<path d="M326.845 209.069C326.444 209.424 326.381 210.067 326.719 210.507C328.614 212.978 330.422 215.575 332.089 218.231C333.763 220.896 335.335 223.68 336.758 226.497C336.931 226.835 337.254 227.03 337.592 227.03C337.741 227.03 337.898 226.987 338.04 226.903C338.504 226.632 338.669 226.015 338.417 225.524C336.963 222.647 335.359 219.805 333.645 217.089C331.947 214.382 330.107 211.734 328.166 209.213C327.843 208.765 327.246 208.705 326.845 209.069Z" fill="#830016" fill-opacity="0.3"/>
<path d="M161.11 264.922C161.142 264.922 161.173 264.931 161.205 264.931C161.684 264.931 162.093 264.542 162.148 264.017C162.462 260.684 162.942 257.342 163.563 254.068C164.184 250.828 164.954 247.596 165.866 244.466C166.77 241.353 167.824 238.256 169.003 235.262C170.174 232.284 171.495 229.34 172.934 226.497C174.357 223.671 175.929 220.888 177.603 218.232C179.27 215.584 181.078 212.986 182.973 210.508C184.86 208.046 186.888 205.652 188.995 203.384C191.094 201.126 193.326 198.943 195.614 196.904C197.902 194.874 200.315 192.928 202.792 191.126C205.268 189.324 207.846 187.632 210.472 186.101C213.114 184.552 215.857 183.131 218.617 181.871C221.407 180.602 224.285 179.459 227.17 178.495C230.094 177.514 233.097 176.685 236.093 176.025C239.127 175.356 242.24 174.84 245.33 174.502C251.603 173.817 258.081 173.817 264.354 174.502C267.452 174.84 270.557 175.356 273.592 176.025C276.587 176.685 279.59 177.522 282.514 178.495C285.399 179.459 288.277 180.602 291.068 181.871C293.827 183.131 296.571 184.552 299.212 186.101C301.838 187.64 304.424 189.332 306.893 191.126C307.325 191.447 307.915 191.32 308.206 190.855C308.496 190.39 308.386 189.755 307.954 189.442C305.43 187.606 302.797 185.881 300.116 184.316C297.42 182.742 294.621 181.287 291.807 180.001C288.961 178.707 286.021 177.539 283.073 176.558C280.085 175.559 277.027 174.705 273.969 174.028C270.872 173.343 267.703 172.818 264.543 172.471C258.144 171.769 251.532 171.769 245.133 172.471C241.973 172.818 238.805 173.343 235.707 174.028C232.649 174.705 229.583 175.551 226.604 176.558C223.656 177.547 220.723 178.707 217.87 180.001C215.055 181.287 212.257 182.733 209.56 184.316C206.879 185.881 204.246 187.606 201.722 189.442C199.199 191.278 196.738 193.258 194.403 195.339C192.069 197.42 189.797 199.637 187.65 201.946C185.504 204.256 183.437 206.701 181.511 209.213C179.577 211.734 177.729 214.391 176.031 217.09C174.325 219.805 172.722 222.648 171.259 225.524C169.797 228.418 168.445 231.429 167.25 234.466C166.047 237.52 164.97 240.685 164.05 243.865C163.123 247.063 162.337 250.363 161.7 253.662C161.063 256.995 160.576 260.413 160.253 263.814C160.214 264.364 160.591 264.863 161.11 264.922Z" fill="#830016" fill-opacity="0.3"/>
<path d="M279.328 358.963C281.883 358.109 284.423 357.102 286.899 355.977C289.344 354.86 291.765 353.6 294.108 352.238C296.435 350.876 298.715 349.378 300.9 347.788C303.078 346.206 305.216 344.48 307.244 342.678C309.273 340.876 311.238 338.955 313.101 336.95C313.471 336.553 313.471 335.91 313.101 335.512C312.732 335.115 312.134 335.115 311.765 335.512C309.949 337.466 308.023 339.353 306.042 341.113C304.053 342.881 301.969 344.556 299.839 346.104C297.701 347.661 295.468 349.124 293.196 350.453C290.916 351.789 288.542 353.016 286.152 354.107C283.739 355.207 281.247 356.188 278.754 357.026C276.231 357.872 273.637 358.591 271.042 359.166C268.417 359.75 265.728 360.19 263.055 360.486C262.536 360.545 262.159 361.045 262.206 361.603C262.253 362.127 262.67 362.517 263.15 362.517C263.181 362.517 263.212 362.517 263.244 362.508C265.98 362.212 268.731 361.755 271.42 361.163C274.093 360.571 276.75 359.835 279.328 358.963Z" fill="#830016" fill-opacity="0.3"/>
<path d="M333.747 291.69C333.212 294.482 332.544 297.273 331.758 299.989C330.979 302.679 330.067 305.361 329.045 307.95C328.031 310.522 326.891 313.068 325.649 315.522C324.415 317.958 323.055 320.369 321.609 322.67C321.318 323.136 321.428 323.77 321.86 324.083C322.025 324.202 322.206 324.261 322.387 324.261C322.693 324.261 322.992 324.1 323.173 323.812C324.651 321.452 326.042 318.999 327.308 316.495C328.582 313.982 329.745 311.368 330.783 308.745C331.828 306.097 332.764 303.356 333.558 300.598C334.36 297.815 335.044 294.955 335.594 292.104C336.144 289.211 336.569 286.25 336.844 283.306C337.127 280.311 337.269 277.265 337.269 274.245C337.269 271.225 337.127 268.179 336.844 265.185C336.569 262.241 336.144 259.28 335.594 256.386C335.052 253.527 334.368 250.667 333.558 247.892C332.756 245.134 331.821 242.393 330.783 239.745C329.745 237.114 328.582 234.509 327.308 231.996C327.057 231.505 326.483 231.319 326.019 231.59C325.555 231.861 325.39 232.478 325.641 232.969C326.884 235.422 328.023 237.977 329.038 240.541C330.06 243.129 330.971 245.811 331.75 248.501C332.536 251.217 333.204 254.009 333.739 256.801C334.273 259.626 334.69 262.52 334.957 265.396C335.232 268.315 335.374 271.293 335.374 274.245C335.374 277.198 335.232 280.176 334.957 283.094C334.698 285.971 334.281 288.864 333.747 291.69Z" fill="#830016" fill-opacity="0.3"/>
<path d="M313.11 211.548C311.247 209.543 309.282 207.614 307.254 205.821C306.853 205.465 306.255 205.525 305.917 205.956C305.587 206.387 305.642 207.03 306.043 207.394C308.024 209.154 309.95 211.032 311.766 212.995C313.582 214.949 315.335 217.022 316.97 219.154C317.159 219.399 317.426 219.526 317.701 219.526C317.914 219.526 318.126 219.45 318.307 219.289C318.708 218.934 318.771 218.291 318.433 217.851C316.758 215.668 314.966 213.545 313.11 211.548Z" fill="#830016" fill-opacity="0.3"/>
<path d="M286.161 194.391C288.551 195.482 290.917 196.709 293.205 198.046C293.347 198.13 293.504 198.173 293.653 198.173C293.991 198.173 294.314 197.978 294.487 197.64C294.738 197.149 294.565 196.523 294.109 196.261C291.774 194.89 289.353 193.638 286.9 192.521C284.424 191.396 281.877 190.39 279.33 189.535C278.827 189.366 278.3 189.67 278.143 190.203C277.985 190.745 278.268 191.312 278.764 191.481C281.256 192.31 283.748 193.291 286.161 194.391Z" fill="#830016" fill-opacity="0.3"/>
<path d="M264.102 187.107C264.158 186.549 263.78 186.049 263.253 185.99C257.703 185.381 251.972 185.381 246.422 185.99C243.686 186.286 240.935 186.743 238.246 187.335C235.589 187.919 232.932 188.655 230.353 189.526C227.798 190.381 225.259 191.388 222.783 192.513C222.303 192.733 222.075 193.333 222.28 193.85C222.429 194.239 222.783 194.476 223.152 194.476C223.278 194.476 223.404 194.45 223.522 194.391C225.935 193.291 228.427 192.31 230.919 191.472C233.443 190.626 236.037 189.907 238.631 189.332C241.257 188.748 243.946 188.308 246.619 188.012C252.043 187.42 257.64 187.42 263.065 188.012C263.607 188.08 264.055 187.674 264.102 187.107Z" fill="#830016" fill-opacity="0.3"/>
<path d="M188.076 225.82C189.514 223.527 191.079 221.285 192.714 219.145C194.349 217.013 196.094 214.94 197.918 212.986C198.288 212.589 198.288 211.946 197.918 211.548C197.549 211.15 196.951 211.15 196.582 211.548C194.719 213.553 192.926 215.668 191.26 217.851C189.577 220.042 187.981 222.334 186.511 224.678C186.22 225.143 186.331 225.778 186.763 226.091C186.928 226.209 187.109 226.268 187.29 226.268C187.596 226.268 187.895 226.116 188.076 225.82Z" fill="#830016" fill-opacity="0.3"/>
<path d="M180.134 239.204C179.654 238.984 179.096 239.229 178.892 239.745C177.846 242.393 176.911 245.134 176.117 247.892C175.315 250.675 174.631 253.535 174.081 256.386C173.53 259.279 173.106 262.24 172.831 265.184C172.548 268.179 172.406 271.225 172.406 274.245C172.406 274.812 172.831 275.269 173.357 275.269C173.884 275.269 174.309 274.812 174.309 274.245C174.309 271.292 174.45 268.315 174.725 265.396C175.001 262.519 175.409 259.626 175.944 256.8C176.478 254.009 177.147 251.217 177.933 248.501C178.711 245.811 179.623 243.129 180.645 240.54C180.842 240.024 180.621 239.424 180.134 239.204Z" fill="#830016" fill-opacity="0.3"/>
<path d="M182.367 316.503C183.633 318.998 185.016 321.46 186.502 323.821C187.972 326.164 189.576 328.465 191.25 330.648C192.925 332.831 194.717 334.946 196.572 336.951C198.436 338.956 200.401 340.884 202.429 342.678C204.465 344.488 206.596 346.206 208.773 347.788C210.959 349.378 213.247 350.876 215.566 352.238C217.901 353.608 220.322 354.86 222.775 355.977C225.251 357.102 227.798 358.109 230.345 358.963C232.932 359.826 235.589 360.571 238.238 361.155C240.927 361.747 243.678 362.204 246.414 362.5C246.445 362.5 246.477 362.508 246.508 362.508C246.988 362.508 247.397 362.119 247.452 361.595C247.507 361.036 247.129 360.537 246.603 360.478C243.93 360.182 241.241 359.742 238.615 359.158C236.021 358.583 233.427 357.864 230.903 357.018C228.411 356.18 225.927 355.199 223.506 354.099C221.116 353.008 218.75 351.781 216.462 350.444C214.19 349.116 211.957 347.652 209.819 346.096C207.689 344.548 205.605 342.864 203.616 341.104C201.635 339.345 199.709 337.467 197.893 335.504C196.077 333.55 194.324 331.477 192.689 329.345C191.046 327.205 189.489 324.963 188.051 322.67C186.604 320.369 185.244 317.958 184.01 315.521C182.768 313.068 181.628 310.513 180.614 307.95C180.409 307.434 179.851 307.188 179.372 307.408C178.892 307.628 178.664 308.229 178.869 308.745C179.93 311.376 181.101 313.982 182.367 316.503Z" fill="#830016" fill-opacity="0.3"/>
<path d="M275.759 346.629C277.936 345.902 280.114 345.039 282.229 344.074C284.32 343.118 286.395 342.044 288.384 340.876C290.365 339.717 292.323 338.44 294.194 337.078C296.057 335.724 297.881 334.252 299.618 332.712C301.356 331.173 303.038 329.523 304.626 327.814C306.222 326.097 307.755 324.286 309.17 322.433C310.601 320.572 311.968 318.61 313.226 316.596C313.517 316.131 313.407 315.496 312.975 315.183C312.542 314.87 311.953 314.989 311.662 315.454C310.435 317.408 309.107 319.32 307.715 321.131C306.332 322.941 304.838 324.701 303.289 326.367C301.749 328.026 300.106 329.633 298.415 331.13C296.725 332.628 294.948 334.058 293.14 335.377C291.324 336.697 289.422 337.949 287.488 339.074C285.554 340.208 283.534 341.257 281.498 342.188C279.446 343.127 277.323 343.964 275.201 344.675C273.054 345.394 270.845 346.011 268.636 346.494C266.404 346.984 264.116 347.365 261.836 347.61C259.533 347.864 257.174 347.991 254.839 347.991C254.313 347.991 253.888 348.448 253.888 349.015C253.888 349.582 254.313 350.038 254.839 350.038C257.237 350.038 259.658 349.903 262.033 349.649C264.375 349.396 266.726 349.006 269.021 348.499C271.286 348 273.557 347.374 275.759 346.629Z" fill="#830016" fill-opacity="0.3"/>
<path d="M323.842 258.992C323.379 256.555 322.789 254.11 322.105 251.733C321.421 249.373 320.619 247.029 319.731 244.77C319.527 244.254 318.968 244.009 318.489 244.229C318.009 244.449 317.781 245.05 317.986 245.566C318.85 247.765 319.629 250.041 320.297 252.334C320.965 254.643 321.539 257.021 321.987 259.398C322.443 261.809 322.797 264.271 323.025 266.716C323.261 269.203 323.379 271.741 323.379 274.245C323.379 276.749 323.261 279.287 323.025 281.775C322.789 284.219 322.443 286.681 321.987 289.092C321.531 291.47 320.965 293.838 320.297 296.157C319.629 298.458 318.858 300.733 317.986 302.933C317.781 303.449 318.009 304.05 318.489 304.27C318.607 304.329 318.733 304.354 318.858 304.354C319.228 304.354 319.574 304.117 319.731 303.737C320.619 301.478 321.421 299.134 322.105 296.774C322.797 294.397 323.379 291.952 323.842 289.515C324.314 287.037 324.676 284.507 324.912 281.994C325.155 279.44 325.273 276.834 325.273 274.254C325.273 271.673 325.147 269.076 324.912 266.513C324.676 264 324.314 261.47 323.842 258.992Z" fill="#830016" fill-opacity="0.3"/>
<path d="M287.483 209.399C289.417 210.533 291.311 211.777 293.135 213.096C294.951 214.416 296.728 215.846 298.41 217.343C300.1 218.841 301.736 220.448 303.284 222.106C304.833 223.781 306.327 225.541 307.71 227.352C309.102 229.162 310.43 231.074 311.657 233.028C311.838 233.316 312.136 233.477 312.443 233.477C312.624 233.477 312.812 233.417 312.97 233.299C313.402 232.986 313.52 232.351 313.221 231.886C311.955 229.881 310.595 227.91 309.165 226.049C307.742 224.196 306.209 222.377 304.621 220.66C303.033 218.951 301.35 217.31 299.613 215.761C297.876 214.222 296.052 212.75 294.189 211.396C292.318 210.034 290.368 208.756 288.379 207.597C286.39 206.43 284.315 205.356 282.223 204.4C280.109 203.435 277.931 202.581 275.754 201.845C275.25 201.684 274.724 201.98 274.566 202.513C274.409 203.054 274.692 203.621 275.188 203.79C277.31 204.501 279.425 205.339 281.477 206.269C283.536 207.225 285.549 208.266 287.483 209.399Z" fill="#830016" fill-opacity="0.3"/>
<path d="M254.839 198.452C254.313 198.452 253.888 198.909 253.888 199.476C253.888 200.042 254.313 200.499 254.839 200.499C257.174 200.499 259.533 200.626 261.836 200.88C261.868 200.88 261.899 200.888 261.93 200.888C262.41 200.888 262.819 200.499 262.874 199.975C262.929 199.416 262.551 198.917 262.025 198.858C259.658 198.579 257.245 198.452 254.839 198.452Z" fill="#830016" fill-opacity="0.3"/>
<path d="M215.484 211.413C213.621 212.766 211.797 214.238 210.06 215.778C208.323 217.318 206.64 218.967 205.052 220.676C203.456 222.394 201.923 224.204 200.508 226.065C200.178 226.497 200.233 227.14 200.634 227.504C200.807 227.664 201.027 227.74 201.24 227.74C201.515 227.74 201.782 227.613 201.971 227.368C203.354 225.558 204.848 223.798 206.397 222.131C207.937 220.473 209.581 218.866 211.271 217.368C212.961 215.871 214.738 214.441 216.546 213.121C218.362 211.802 220.264 210.55 222.198 209.424C224.132 208.291 226.152 207.242 228.189 206.311C228.668 206.091 228.896 205.491 228.692 204.975C228.487 204.458 227.929 204.213 227.45 204.433C225.358 205.389 223.283 206.463 221.294 207.631C219.313 208.773 217.355 210.051 215.484 211.413Z" fill="#830016" fill-opacity="0.3"/>
<path d="M184.775 266.512C184.531 269.067 184.414 271.673 184.414 274.253C184.414 276.834 184.539 279.431 184.775 281.994C185.011 284.507 185.373 287.036 185.844 289.515C186.308 291.952 186.898 294.397 187.582 296.774C188.266 299.134 189.068 301.478 189.956 303.737C190.844 305.987 191.843 308.212 192.927 310.361C194.005 312.493 195.192 314.599 196.457 316.613C197.723 318.618 199.083 320.589 200.514 322.45C201.937 324.303 203.47 326.122 205.058 327.839C206.646 329.548 208.328 331.189 210.065 332.737C211.803 334.277 213.627 335.749 215.49 337.103C217.361 338.465 219.31 339.742 221.299 340.901C221.441 340.986 221.598 341.028 221.748 341.028C222.086 341.028 222.408 340.834 222.581 340.495C222.832 340.005 222.659 339.379 222.204 339.116C220.27 337.983 218.375 336.739 216.551 335.419C214.735 334.1 212.958 332.67 211.276 331.172C209.586 329.675 207.951 328.068 206.402 326.409C204.853 324.734 203.36 322.975 201.976 321.164C200.585 319.354 199.256 317.442 198.03 315.487C196.795 313.525 195.64 311.477 194.594 309.405C193.541 307.315 192.566 305.149 191.701 302.958C190.836 300.759 190.058 298.483 189.39 296.19C188.722 293.881 188.148 291.503 187.7 289.126C187.244 286.715 186.89 284.253 186.662 281.808C186.426 279.321 186.308 276.783 186.308 274.279C186.308 271.775 186.426 269.237 186.662 266.749C186.898 264.304 187.244 261.843 187.7 259.431C188.156 257.054 188.722 254.685 189.39 252.367C189.547 251.826 189.264 251.259 188.769 251.09C188.266 250.921 187.739 251.225 187.582 251.758C186.89 254.136 186.308 256.58 185.844 259.017C185.373 261.47 185.011 264 184.775 266.512Z" fill="#830016" fill-opacity="0.3"/>
<path d="M240.666 348.499C240.728 348.516 240.791 348.516 240.854 348.516C241.294 348.516 241.688 348.186 241.782 347.703C241.884 347.154 241.554 346.612 241.043 346.502C238.842 346.02 236.633 345.402 234.479 344.683C233.976 344.514 233.449 344.819 233.292 345.352C233.134 345.893 233.417 346.46 233.913 346.629C236.13 347.374 238.401 348 240.666 348.499Z" fill="#830016" fill-opacity="0.3"/>
<path d="M254.842 337.805C256.855 337.805 258.883 337.695 260.872 337.475C262.837 337.255 264.803 336.934 266.729 336.511C268.631 336.088 270.534 335.563 272.389 334.937C274.221 334.32 276.045 333.601 277.813 332.797C278.293 332.577 278.521 331.976 278.317 331.46C278.112 330.944 277.554 330.699 277.074 330.919C275.361 331.697 273.6 332.399 271.823 332.991C270.031 333.592 268.191 334.1 266.351 334.506C264.488 334.92 262.578 335.233 260.683 335.436C258.757 335.648 256.792 335.758 254.85 335.758C254.323 335.758 253.899 336.215 253.899 336.782C253.899 337.348 254.323 337.805 254.842 337.805Z" fill="#830016" fill-opacity="0.3"/>
<path d="M287.843 326.934C289.408 325.8 290.933 324.565 292.395 323.271C293.849 321.985 295.257 320.597 296.593 319.168C297.922 317.73 299.211 316.215 300.406 314.65C301.609 313.085 302.749 311.435 303.81 309.76C304.871 308.077 305.87 306.308 306.774 304.515C307.686 302.705 308.527 300.843 309.266 298.957C310.013 297.053 310.681 295.091 311.255 293.119C311.836 291.123 312.324 289.075 312.709 287.028C312.811 286.478 312.481 285.937 311.97 285.827C311.459 285.717 310.956 286.072 310.854 286.622C310.476 288.593 310.005 290.581 309.447 292.51C308.896 294.422 308.244 296.326 307.52 298.161C306.805 299.98 305.995 301.791 305.107 303.534C304.234 305.268 303.267 306.977 302.238 308.61C301.216 310.234 300.107 311.833 298.944 313.347C297.78 314.862 296.538 316.334 295.249 317.721C293.959 319.108 292.592 320.445 291.184 321.697C289.777 322.949 288.291 324.142 286.782 325.242C286.35 325.555 286.232 326.189 286.53 326.655C286.711 326.942 287.01 327.103 287.317 327.103C287.497 327.112 287.678 327.052 287.843 326.934Z" fill="#830016" fill-opacity="0.3"/>
<path d="M313.903 274.245C313.903 272.088 313.801 269.905 313.597 267.757C313.4 265.633 313.094 263.518 312.701 261.454C312.315 259.415 311.82 257.368 311.246 255.363C310.672 253.391 310.004 251.429 309.257 249.525C308.518 247.647 307.677 245.777 306.765 243.967C305.861 242.174 304.863 240.414 303.802 238.73C302.748 237.047 301.6 235.405 300.398 233.84C299.203 232.275 297.913 230.761 296.585 229.323C295.248 227.885 293.841 226.506 292.387 225.22C290.932 223.925 289.399 222.69 287.835 221.556C287.403 221.235 286.813 221.362 286.522 221.827C286.231 222.293 286.341 222.927 286.774 223.24C288.283 224.34 289.769 225.533 291.176 226.785C292.583 228.028 293.951 229.365 295.24 230.761C296.53 232.148 297.772 233.62 298.935 235.135C300.099 236.649 301.207 238.248 302.229 239.872C303.251 241.505 304.218 243.214 305.099 244.948C305.987 246.7 306.797 248.502 307.512 250.321C308.235 252.156 308.888 254.06 309.438 255.972C309.996 257.909 310.476 259.889 310.845 261.86C311.223 263.856 311.521 265.912 311.71 267.96C311.907 270.041 312.009 272.147 312.009 274.237C312.009 274.804 312.433 275.261 312.96 275.261C313.479 275.269 313.903 274.812 313.903 274.245Z" fill="#830016" fill-opacity="0.3"/>
<path d="M277.816 215.693C276.047 214.89 274.223 214.171 272.391 213.553C270.536 212.935 268.633 212.402 266.731 211.979C266.22 211.869 265.717 212.225 265.615 212.775C265.505 213.325 265.843 213.866 266.354 213.976C268.193 214.382 270.033 214.89 271.825 215.49C273.602 216.083 275.363 216.785 277.077 217.563C277.194 217.622 277.32 217.648 277.446 217.648C277.816 217.648 278.161 217.411 278.319 217.022C278.523 216.506 278.295 215.905 277.816 215.693Z" fill="#830016" fill-opacity="0.3"/>
<path d="M254.841 212.724C255.368 212.724 255.793 212.267 255.793 211.7C255.793 211.134 255.368 210.677 254.841 210.677C252.829 210.677 250.801 210.787 248.812 211.007C246.846 211.227 244.881 211.548 242.955 211.971C241.052 212.394 239.15 212.919 237.295 213.545C235.463 214.162 233.639 214.881 231.87 215.685C230.117 216.48 228.38 217.385 226.705 218.367C225.046 219.34 223.403 220.406 221.839 221.556C220.275 222.69 218.749 223.925 217.287 225.219C215.833 226.505 214.426 227.893 213.089 229.323C211.753 230.761 210.471 232.275 209.276 233.84C208.074 235.405 206.926 237.055 205.872 238.73C204.811 240.414 203.813 242.182 202.909 243.975C201.997 245.777 201.156 247.647 200.417 249.534C199.67 251.437 199.002 253.4 198.428 255.371C197.846 257.367 197.359 259.415 196.973 261.462C196.58 263.526 196.274 265.65 196.077 267.765C195.873 269.914 195.771 272.096 195.771 274.254C195.771 276.411 195.873 278.594 196.077 280.742C196.124 281.267 196.541 281.656 197.02 281.656C197.052 281.656 197.083 281.656 197.115 281.648C197.634 281.588 198.011 281.089 197.964 280.531C197.767 278.45 197.665 276.343 197.665 274.254C197.665 272.164 197.767 270.049 197.964 267.976C198.16 265.921 198.451 263.873 198.829 261.877C199.206 259.905 199.678 257.917 200.236 255.988C200.786 254.077 201.439 252.173 202.162 250.337C202.877 248.518 203.687 246.708 204.575 244.965C205.448 243.231 206.415 241.522 207.445 239.889C208.467 238.265 209.575 236.666 210.739 235.151C211.902 233.637 213.144 232.165 214.434 230.778C215.723 229.39 217.091 228.054 218.498 226.801C219.905 225.549 221.391 224.357 222.9 223.257C224.425 222.148 226.006 221.108 227.617 220.169C229.237 219.221 230.919 218.35 232.617 217.572C234.331 216.793 236.092 216.091 237.869 215.499C239.661 214.898 241.5 214.391 243.34 213.985C245.203 213.57 247.114 213.257 249.008 213.054C250.934 212.834 252.9 212.724 254.841 212.724Z" fill="#830016" fill-opacity="0.3"/>
<path d="M203.75 305.057C203.899 305.057 204.057 305.014 204.198 304.93C204.662 304.659 204.827 304.041 204.576 303.551C203.687 301.8 202.877 299.998 202.162 298.179C201.958 297.663 201.4 297.417 200.92 297.637C200.44 297.857 200.212 298.458 200.417 298.974C201.156 300.852 201.997 302.722 202.909 304.532C203.09 304.862 203.42 305.057 203.75 305.057Z" fill="#830016" fill-opacity="0.3"/>
<path d="M217.294 323.271C218.748 324.565 220.281 325.8 221.845 326.934C223.418 328.076 225.061 329.151 226.712 330.123C228.386 331.105 230.123 332.002 231.877 332.805C231.994 332.864 232.12 332.89 232.246 332.89C232.615 332.89 232.969 332.653 233.119 332.264C233.323 331.748 233.095 331.147 232.615 330.927C230.917 330.157 229.235 329.277 227.616 328.33C226.012 327.391 224.424 326.35 222.899 325.242C221.389 324.142 219.904 322.949 218.496 321.697C217.089 320.454 215.721 319.117 214.432 317.721C213.143 316.334 211.901 314.862 210.737 313.347C210.399 312.907 209.802 312.848 209.401 313.212C209 313.567 208.937 314.21 209.275 314.65C210.47 316.215 211.759 317.73 213.088 319.168C214.432 320.606 215.839 321.985 217.294 323.271Z" fill="#830016" fill-opacity="0.3"/>
</svg>
