<svg width="28" height="28" viewBox="0 0 28 28" fill="none" xmlns="http://www.w3.org/2000/svg">
<path d="M14.0002 25.6666C20.4435 25.6666 25.6668 20.4433 25.6668 14C25.6668 7.55666 20.4435 2.33331 14.0002 2.33331C7.55684 2.33331 2.3335 7.55666 2.3335 14C2.3335 20.4433 7.55684 25.6666 14.0002 25.6666Z" stroke="white" stroke-width="2.33333" stroke-linecap="round" stroke-linejoin="round"/>
<path d="M14 21C17.866 21 21 17.866 21 14C21 10.134 17.866 7 14 7C10.134 7 7 10.134 7 14C7 17.866 10.134 21 14 21Z" stroke="white" stroke-width="2.33333" stroke-linecap="round" stroke-linejoin="round"/>
<path d="M13.9998 16.3334C15.2885 16.3334 16.3332 15.2887 16.3332 14C16.3332 12.7114 15.2885 11.6667 13.9998 11.6667C12.7112 11.6667 11.6665 12.7114 11.6665 14C11.6665 15.2887 12.7112 16.3334 13.9998 16.3334Z" stroke="white" stroke-width="2.33333" stroke-linecap="round" stroke-linejoin="round"/>
</svg>
