<svg width="28" height="28" viewBox="0 0 28 28" fill="none" xmlns="http://www.w3.org/2000/svg">
<path d="M2.40544 14.406C2.30821 14.1441 2.30821 13.8559 2.40544 13.594C3.35243 11.2978 4.95988 9.33454 7.02401 7.95304C9.08814 6.57154 11.516 5.83405 13.9998 5.83405C16.4836 5.83405 18.9114 6.57154 20.9755 7.95304C23.0397 9.33454 24.6471 11.2978 25.5941 13.594C25.6913 13.8559 25.6913 14.1441 25.5941 14.406C24.6471 16.7022 23.0397 18.6654 20.9755 20.0469C18.9114 21.4284 16.4836 22.1659 13.9998 22.1659C11.516 22.1659 9.08814 21.4284 7.02401 20.0469C4.95988 18.6654 3.35243 16.7022 2.40544 14.406Z" stroke="white" stroke-width="2.33333" stroke-linecap="round" stroke-linejoin="round"/>
<path d="M14 17.5C15.933 17.5 17.5 15.933 17.5 14C17.5 12.067 15.933 10.5 14 10.5C12.067 10.5 10.5 12.067 10.5 14C10.5 15.933 12.067 17.5 14 17.5Z" stroke="white" stroke-width="2.33333" stroke-linecap="round" stroke-linejoin="round"/>
</svg>
