<svg width="59" height="41" viewBox="0 0 59 41" fill="none" xmlns="http://www.w3.org/2000/svg">
<g clip-path="url(#clip0_78_1190)">
<path d="M57.697 6.39486C57.3586 5.15884 56.6984 4.032 55.7823 3.12654C54.8662 2.22109 53.7261 1.56862 52.4755 1.2341C47.897 0 29.4701 0 29.4701 0C29.4701 0 11.0423 0.0373555 6.46377 1.27146C5.21313 1.60599 4.07299 2.2585 3.15688 3.16399C2.24076 4.06949 1.58065 5.19638 1.24227 6.43244C-0.142616 14.4725 -0.679839 26.7238 1.2803 34.4423C1.61871 35.6783 2.27884 36.8051 3.19495 37.7106C4.11106 38.6161 5.25119 39.2685 6.5018 39.603C11.0803 40.8371 29.5077 40.8371 29.5077 40.8371C29.5077 40.8371 47.9348 40.8371 52.513 39.603C53.7637 39.2686 54.9039 38.6161 55.82 37.7106C56.7362 36.8052 57.3963 35.6783 57.7348 34.4423C59.1955 26.3908 59.6456 14.147 57.697 6.39486Z" fill="#FF0000"/>
<path d="M23.605 29.1692L38.8915 20.4184L23.605 11.6677V29.1692Z" fill="white"/>
</g>
<defs>
<clipPath id="clip0_78_1190">
<rect width="59" height="41" fill="white"/>
</clipPath>
</defs>
</svg>
