<svg width="44" height="44" viewBox="0 0 44 44" fill="none" xmlns="http://www.w3.org/2000/svg">
<g clip-path="url(#clip0_78_1185)">
<path d="M33.6875 0H10.3125C4.61706 0 0 4.61706 0 10.3125V33.6875C0 39.3829 4.61706 44 10.3125 44H33.6875C39.3829 44 44 39.3829 44 33.6875V10.3125C44 4.61706 39.3829 0 33.6875 0Z" fill="white"/>
<path d="M33.6875 0H10.3125C4.61706 0 0 4.61706 0 10.3125V33.6875C0 39.3829 4.61706 44 10.3125 44H33.6875C39.3829 44 44 39.3829 44 33.6875V10.3125C44 4.61706 39.3829 0 33.6875 0Z" fill="#0A66C2"/>
<path d="M31.7479 37.4146H36.7787C36.961 37.4146 37.1358 37.3422 37.2647 37.2133C37.3937 37.0844 37.4661 36.9096 37.4662 36.7273L37.4688 26.0982C37.4688 20.5427 36.2716 16.2724 29.7794 16.2724C27.3115 16.1807 24.9841 17.4529 23.7282 19.5772C23.7221 19.5876 23.7127 19.5956 23.7016 19.6001C23.6905 19.6046 23.6782 19.6054 23.6666 19.6022C23.655 19.5991 23.6447 19.5922 23.6374 19.5827C23.6301 19.5732 23.626 19.5616 23.6259 19.5496V17.4728C23.6259 17.2905 23.5535 17.1156 23.4246 16.9867C23.2956 16.8577 23.1208 16.7853 22.9384 16.7853H18.1643C17.9819 16.7853 17.8071 16.8577 17.6781 16.9867C17.5492 17.1156 17.4768 17.2905 17.4768 17.4728V36.7262C17.4768 36.9086 17.5492 37.0835 17.6781 37.2124C17.8071 37.3413 17.9819 37.4137 18.1643 37.4137H23.1947C23.377 37.4137 23.5519 37.3413 23.6808 37.2124C23.8098 37.0835 23.8822 36.9086 23.8822 36.7262V27.209C23.8822 24.518 24.3927 21.9118 27.7289 21.9118C31.0178 21.9118 31.0604 24.9911 31.0604 27.3833V36.7271C31.0604 36.9094 31.1328 37.0843 31.2618 37.2132C31.3907 37.3422 31.5656 37.4146 31.7479 37.4146ZM6.53125 10.2486C6.53125 12.2877 8.20995 13.9655 10.2492 13.9655C12.288 13.9654 13.9657 12.2865 13.9657 10.2477C13.9654 8.20892 12.2875 6.53125 10.2486 6.53125C8.20909 6.53125 6.53125 8.20944 6.53125 10.2486ZM7.72733 37.4146H12.7645C12.9468 37.4146 13.1217 37.3422 13.2506 37.2132C13.3795 37.0843 13.452 36.9094 13.452 36.7271V17.4728C13.452 17.2905 13.3795 17.1156 13.2506 16.9867C13.1217 16.8577 12.9468 16.7853 12.7645 16.7853H7.72733C7.54499 16.7853 7.37012 16.8577 7.24119 16.9867C7.11226 17.1156 7.03983 17.2905 7.03983 17.4728V36.7271C7.03983 36.9094 7.11226 37.0843 7.24119 37.2132C7.37012 37.3422 7.54499 37.4146 7.72733 37.4146Z" fill="white"/>
</g>
<defs>
<clipPath id="clip0_78_1185">
<rect width="44" height="44" fill="white"/>
</clipPath>
</defs>
</svg>
