<svg width="495" height="285" viewBox="0 0 495 285" fill="none" xmlns="http://www.w3.org/2000/svg">
<path d="M480.153 87.5732C488.875 35.6536 451.842 -13.1832 397.438 -21.507C343.034 -29.8307 291.86 5.51065 283.138 57.4302C274.416 109.35 311.449 158.187 365.853 166.51C420.257 174.834 471.431 139.493 480.153 87.5732Z" stroke="#830016" stroke-miterlimit="10" stroke-dasharray="5 5"/>
<path d="M374.319 70.0869C386.08 0.0727983 336.142 -65.7842 262.777 -77.0088C189.412 -88.2335 120.404 -40.5753 108.642 29.4388C96.8801 99.4529 146.819 165.31 220.184 176.535C293.548 187.759 362.557 140.101 374.319 70.0869Z" stroke="#830016" stroke-miterlimit="10" stroke-dasharray="5 5"/>
<path d="M35.3853 94.4787L0.345215 127.918" stroke="#830016" stroke-miterlimit="10"/>
<path d="M35.3853 127.918L0.345215 94.4787" stroke="#830016" stroke-miterlimit="10"/>
<path d="M445.072 270.531C464.444 262.981 473.734 241.873 465.822 223.386C457.911 204.899 435.793 196.032 416.421 203.583C397.049 211.133 387.759 232.241 395.67 250.728C403.582 269.215 425.7 278.081 445.072 270.531Z" stroke="#830016" stroke-miterlimit="10" stroke-dasharray="5 5"/>
<path d="M352.607 201.044L338.083 241.765" stroke="#830016" stroke-miterlimit="10"/>
<path d="M366.68 228.858L324.01 213.951" stroke="#830016" stroke-miterlimit="10"/>
</svg>
