<svg width="256" height="234" viewBox="0 0 256 234" fill="none" xmlns="http://www.w3.org/2000/svg">
<path d="M113.249 25.2896C115.596 15.8028 109.441 6.2962 99.4999 4.05608C89.559 1.81597 79.5975 7.69062 77.2502 17.1775C74.9029 26.6643 81.0587 36.1709 90.9995 38.411C100.94 40.6511 110.902 34.7765 113.249 25.2896Z" stroke="#830016" stroke-miterlimit="10" stroke-dasharray="5 5"/>
<path d="M188.8 18.3474L156.285 32.3133" stroke="#830016" stroke-miterlimit="10"/>
<path d="M179.409 40.8456L165.676 9.81506" stroke="#830016" stroke-miterlimit="10"/>
<path d="M72.338 211.685C112.289 223.881 155.036 202.86 167.815 164.733C180.595 126.607 158.568 85.8123 118.617 73.6165C78.6655 61.4206 35.9189 82.4416 23.1393 120.568C10.3598 158.695 32.3868 199.489 72.338 211.685Z" stroke="#830016" stroke-miterlimit="10" stroke-dasharray="5 5"/>
<path d="M255.033 114.611L210 157.642" stroke="#830016" stroke-miterlimit="10"/>
<path d="M253.77 158.688L211.263 113.565" stroke="#830016" stroke-miterlimit="10"/>
<path d="M245.576 39.1276L241.437 59.1811" stroke="#830016" stroke-miterlimit="10"/>
<path d="M254.013 51.3066L233 47.0021" stroke="#830016" stroke-miterlimit="10"/>
</svg>
