<svg width="235" height="235" viewBox="0 0 235 235" fill="none" xmlns="http://www.w3.org/2000/svg">
<g clip-path="url(#clip0_196_78)">
<path d="M117.5 235C117.214 235 116.979 234.769 116.979 234.479V0.520615C116.979 0.235 117.211 0 117.5 0C117.789 0 118.021 0.231385 118.021 0.520615V234.479C118.021 234.769 117.786 235 117.5 235Z" fill="#830016" fill-opacity="0.3"/>
<path d="M234.479 118.021H0.520615C0.231385 118.021 0 117.786 0 117.5C0 117.214 0.231385 116.979 0.520615 116.979H234.479C234.765 116.979 235 117.211 235 117.5C235 117.789 234.769 118.021 234.479 118.021Z" fill="#830016" fill-opacity="0.3"/>
<path d="M97.1851 233.221C97.1562 233.221 97.1237 233.218 97.0947 233.214C96.8127 233.163 96.6247 232.896 96.6717 232.61L137.301 2.20538C137.352 1.92338 137.627 1.72453 137.905 1.78238C138.187 1.83299 138.375 2.10053 138.328 2.38615L97.6985 232.795C97.6515 233.044 97.4346 233.221 97.1851 233.221Z" fill="#830016" fill-opacity="0.3"/>
<path d="M77.4887 227.946C77.4309 227.946 77.3694 227.936 77.3115 227.914C77.0404 227.816 76.903 227.516 77.0006 227.249L157.02 7.39708C157.118 7.12955 157.414 6.98855 157.685 7.08616C157.956 7.18378 158.094 7.48385 157.996 7.75139L77.9768 227.603C77.9009 227.816 77.702 227.946 77.4887 227.946Z" fill="#830016" fill-opacity="0.3"/>
<path d="M59.0101 219.327C58.9233 219.327 58.833 219.306 58.7498 219.259C58.5003 219.114 58.4172 218.796 58.5582 218.55L175.541 15.933C175.686 15.6836 176.004 15.6004 176.25 15.7414C176.499 15.886 176.582 16.2042 176.441 16.45L59.4584 219.067C59.3644 219.233 59.1873 219.327 59.0101 219.327Z" fill="#830016" fill-opacity="0.3"/>
<path d="M42.3071 207.632C42.1878 207.632 42.0721 207.592 41.9745 207.509C41.754 207.324 41.7251 206.995 41.9094 206.775L192.295 27.5529C192.479 27.3323 192.808 27.3034 193.029 27.4878C193.249 27.6722 193.278 28.0012 193.094 28.2217L42.7048 207.447C42.6 207.57 42.4554 207.632 42.3071 207.632Z" fill="#830016" fill-opacity="0.3"/>
<path d="M27.8887 193.213C27.7404 193.213 27.5922 193.152 27.491 193.029C27.3066 192.808 27.3355 192.483 27.5561 192.295L206.782 41.9095C207.002 41.7251 207.327 41.7504 207.515 41.9746C207.7 42.1951 207.671 42.5205 207.45 42.7085L28.2213 193.09C28.1237 193.174 28.0044 193.213 27.8887 193.213Z" fill="#830016" fill-opacity="0.3"/>
<path d="M16.1897 176.51C16.0126 176.51 15.8354 176.416 15.7414 176.25C15.5968 176.001 15.6836 175.682 15.933 175.541L218.55 58.562C218.799 58.4174 219.118 58.5041 219.259 58.7536C219.403 59.0031 219.316 59.3212 219.067 59.4622L16.45 176.442C16.3705 176.489 16.2801 176.51 16.1897 176.51Z" fill="#830016" fill-opacity="0.3"/>
<path d="M7.57415 158.029C7.36084 158.029 7.162 157.898 7.08607 157.685C6.98846 157.414 7.12584 157.117 7.39699 157.02L227.249 77.0005C227.52 76.9029 227.816 77.0403 227.914 77.3114C228.011 77.5826 227.874 77.879 227.603 77.9767L7.7513 158C7.69346 158.021 7.632 158.029 7.57415 158.029Z" fill="#830016" fill-opacity="0.3"/>
<path d="M2.29583 138.332C2.04998 138.332 1.82945 138.155 1.78606 137.902C1.73545 137.62 1.92345 137.348 2.20906 137.298L232.61 96.6753C232.885 96.6175 233.163 96.8127 233.214 97.0983C233.265 97.3803 233.077 97.6515 232.791 97.7021L2.38621 138.325C2.35729 138.332 2.32475 138.332 2.29583 138.332Z" fill="#830016" fill-opacity="0.3"/>
<path d="M232.704 138.332C232.675 138.332 232.642 138.328 232.614 138.325L2.2051 97.6986C1.9231 97.6479 1.7351 97.3804 1.7821 97.0948C1.83272 96.8128 2.10387 96.6176 2.38587 96.6718L232.791 137.298C233.073 137.348 233.261 137.616 233.214 137.902C233.17 138.155 232.95 138.332 232.704 138.332Z" fill="#830016" fill-opacity="0.3"/>
<path d="M227.426 158.029C227.368 158.029 227.306 158.018 227.249 157.996L7.39699 77.9803C7.12584 77.8827 6.98846 77.5826 7.08607 77.3151C7.18369 77.0475 7.48015 76.9065 7.7513 77.0041L227.603 157.023C227.874 157.121 228.011 157.421 227.914 157.689C227.834 157.898 227.635 158.029 227.426 158.029Z" fill="#830016" fill-opacity="0.3"/>
<path d="M218.807 176.51C218.72 176.51 218.629 176.489 218.546 176.442L15.9329 59.4587C15.6834 59.314 15.6003 58.9959 15.7413 58.75C15.8859 58.5006 16.2041 58.4174 16.4499 58.5584L219.067 175.538C219.316 175.682 219.4 176.001 219.259 176.246C219.161 176.416 218.987 176.51 218.807 176.51Z" fill="#830016" fill-opacity="0.3"/>
<path d="M207.111 193.213C206.991 193.213 206.876 193.174 206.778 193.09L27.5526 42.7049C27.3321 42.5205 27.3032 42.1915 27.4876 41.971C27.6719 41.7504 28.0009 41.7215 28.2215 41.9059L207.447 192.291C207.667 192.476 207.696 192.805 207.512 193.025C207.407 193.152 207.259 193.213 207.111 193.213Z" fill="#830016" fill-opacity="0.3"/>
<path d="M192.693 207.632C192.545 207.632 192.396 207.57 192.295 207.447L41.906 28.2217C41.7216 28.0012 41.7506 27.6758 41.9711 27.4878C42.1916 27.3034 42.517 27.3287 42.705 27.5528L193.094 206.775C193.279 206.995 193.25 207.321 193.029 207.509C192.931 207.592 192.812 207.632 192.693 207.632Z" fill="#830016" fill-opacity="0.3"/>
<path d="M175.99 219.327C175.812 219.327 175.635 219.233 175.541 219.067L58.5583 16.4536C58.4137 16.2042 58.5005 15.886 58.7499 15.745C58.9994 15.6004 59.3176 15.6836 59.4586 15.9366L176.438 218.55C176.583 218.8 176.496 219.118 176.246 219.259C176.167 219.306 176.08 219.327 175.99 219.327Z" fill="#830016" fill-opacity="0.3"/>
<path d="M157.508 227.946C157.295 227.946 157.096 227.816 157.02 227.603L77.0006 7.75141C76.903 7.48026 77.0404 7.18379 77.3115 7.08618C77.5827 6.98495 77.8792 7.12595 77.9768 7.3971L157.996 227.249C158.094 227.52 157.956 227.816 157.685 227.914C157.627 227.936 157.569 227.946 157.508 227.946Z" fill="#830016" fill-opacity="0.3"/>
<path d="M137.811 233.221C137.565 233.221 137.345 233.044 137.301 232.791L96.6752 2.38616C96.6246 2.10416 96.8126 1.83301 97.0982 1.78239C97.3766 1.72454 97.6514 1.91978 97.702 2.20539L138.324 232.614C138.375 232.896 138.187 233.167 137.901 233.218C137.873 233.221 137.844 233.221 137.811 233.221Z" fill="#830016" fill-opacity="0.3"/>
</g>
<rect x="0.5" y="0.5" width="234" height="234" rx="117" stroke="#DAB3BA"/>
<defs>
<clipPath id="clip0_196_78">
<rect width="235" height="235" rx="117.5" fill="white"/>
</clipPath>
</defs>
</svg>
