<svg width="436" height="436" viewBox="0 0 436 436" fill="none" xmlns="http://www.w3.org/2000/svg">
<path d="M434.873 195.096C434.135 187.831 433.022 180.534 431.56 173.397C430.118 166.36 428.307 159.311 426.173 152.449C424.061 145.661 421.592 138.906 418.822 132.366C416.079 125.887 412.986 119.454 409.619 113.263C406.279 107.112 402.59 101.048 398.672 95.2394C394.768 89.4574 390.536 83.7962 386.089 78.4167C381.655 73.0438 376.913 67.8253 371.983 62.8952C367.059 57.9718 361.841 53.2295 356.461 48.7891C351.075 44.3486 345.414 40.1094 339.639 36.2056C333.83 32.2816 327.766 28.5991 321.615 25.2587C315.424 21.8982 308.998 18.7993 302.512 16.0559C302.103 15.8815 301.627 16.076 301.452 16.4851C301.278 16.8943 301.472 17.3706 301.881 17.545C308.321 20.2682 314.7 23.3403 320.844 26.6807C326.948 29.9943 332.965 33.65 338.733 37.5471C344.468 41.4241 350.089 45.6231 355.435 50.0367C360.774 54.4436 365.953 59.1523 370.842 64.0355C375.732 68.9254 380.448 74.1104 384.841 79.4429C389.255 84.7889 393.454 90.4099 397.331 96.1449C401.221 101.907 404.877 107.923 408.197 114.034C411.537 120.185 414.61 126.564 417.333 132.997C420.076 139.49 422.531 146.19 424.631 152.925C426.75 159.733 428.548 166.729 429.977 173.719C431.426 180.802 432.532 188.053 433.263 195.257C434.008 202.575 434.384 210.04 434.384 217.439C434.384 224.837 434.008 232.303 433.263 239.621C432.532 246.825 431.426 254.076 429.977 261.159C428.548 268.149 426.75 275.138 424.631 281.953C422.538 288.687 420.083 295.395 417.333 301.881C414.61 308.314 411.537 314.693 408.197 320.844C404.877 326.954 401.221 332.971 397.331 338.733C393.454 344.468 389.255 350.089 384.841 355.435C380.441 360.767 375.732 365.946 370.842 370.842C365.953 375.732 360.774 380.441 355.435 384.841C350.089 389.255 344.468 393.454 338.733 397.331C332.965 401.228 326.948 404.883 320.844 408.197C320.455 408.412 320.307 408.901 320.522 409.29C320.67 409.559 320.945 409.713 321.233 409.713C321.36 409.713 321.495 409.679 321.615 409.612C327.766 406.272 333.83 402.589 339.639 398.666C345.421 394.762 351.082 390.529 356.461 386.082C361.841 381.642 367.059 376.899 371.983 371.976C376.913 367.046 381.655 361.827 386.089 356.454C390.536 351.068 394.768 345.407 398.672 339.632C402.596 333.83 406.279 327.766 409.619 321.608C412.986 315.41 416.079 308.985 418.822 302.505C421.586 295.965 424.061 289.21 426.173 282.422C428.307 275.56 430.118 268.517 431.56 261.474C433.022 254.338 434.135 247.033 434.873 239.775C435.625 232.404 436 224.884 436 217.432C436 209.987 435.618 202.467 434.873 195.096Z" fill="#830016" fill-opacity="0.3"/>
<path d="M239.621 1.6143C246.832 2.34543 254.082 3.45219 261.159 4.90104C261.213 4.91445 261.266 4.91445 261.32 4.91445C261.696 4.91445 262.031 4.65285 262.112 4.27052C262.199 3.83452 261.917 3.40523 261.481 3.31804C254.351 1.85577 247.046 0.742307 239.782 0.00446793C239.326 -0.0424855 238.943 0.286188 238.896 0.728892C238.856 1.1783 239.178 1.57405 239.621 1.6143Z" fill="#830016" fill-opacity="0.3"/>
<path d="M78.926 50.2244C79.1071 50.2244 79.2882 50.164 79.4425 50.0366C84.7885 45.6229 90.4095 41.424 96.1445 37.547C101.913 33.6498 107.93 29.9942 114.034 26.6806C120.178 23.3402 126.557 20.2681 132.996 17.5448C139.496 14.7947 146.197 12.3397 152.931 10.2469C159.739 8.12731 166.735 6.32966 173.718 4.90094C180.801 3.45209 188.045 2.34533 195.256 1.6142C195.699 1.56725 196.021 1.1715 195.981 0.728797C195.934 0.286093 195.551 -0.0358728 195.095 0.00437298C187.831 0.742212 180.526 1.85568 173.396 3.31794C166.36 4.76008 159.31 6.57114 152.448 8.70416C145.667 10.8104 138.912 13.2855 132.366 16.0557C125.879 18.7991 119.453 21.8981 113.262 25.2586C107.111 28.599 101.048 32.2815 95.2389 36.2054C89.457 40.1093 83.7958 44.3418 78.4163 48.7889C78.0742 49.0707 78.0205 49.5804 78.3089 49.9292C78.4632 50.1238 78.698 50.2244 78.926 50.2244Z" fill="#830016" fill-opacity="0.3"/>
<path d="M26.6807 114.034C26.8954 113.645 26.7478 113.149 26.3587 112.941C25.963 112.726 25.4733 112.874 25.2587 113.263C21.8915 119.461 18.7993 125.886 16.0559 132.366C13.2923 138.906 10.8172 145.661 8.70432 152.449C6.5713 159.311 4.76024 166.354 3.31811 173.397C1.85585 180.533 0.742383 187.838 0.00454616 195.096C-0.0424071 195.538 0.279558 195.934 0.728968 195.981C0.755799 195.981 0.782629 195.988 0.809459 195.988C1.21862 195.988 1.56742 195.679 1.61437 195.263C2.3455 188.059 3.45226 180.808 4.9011 173.725C6.32982 166.736 8.12746 159.747 10.2471 152.932C12.3398 146.197 14.7948 139.489 17.5449 133.003C20.2682 126.564 23.3403 120.185 26.6807 114.034Z" fill="#830016" fill-opacity="0.3"/>
<path d="M1.61469 239.621C1.56773 239.178 1.17869 238.856 0.729283 238.897C0.286581 238.944 -0.0353844 239.339 0.00486125 239.782C0.742698 247.046 1.85616 254.344 3.31842 261.481C3.39891 261.864 3.73429 262.125 4.10992 262.125C4.16358 262.125 4.21724 262.118 4.2709 262.112C4.7069 262.024 4.98861 261.595 4.90142 261.159C3.45257 254.076 2.35252 246.832 1.61469 239.621Z" fill="#830016" fill-opacity="0.3"/>
<path d="M217.439 434.383C210.041 434.383 202.575 434.008 195.257 433.263C188.046 432.532 180.795 431.425 173.719 429.977C166.736 428.548 159.74 426.75 152.932 424.631C146.204 422.538 139.497 420.083 132.997 417.333C126.558 414.609 120.179 411.537 114.035 408.197C107.931 404.883 101.914 401.228 96.1453 397.331C90.4103 393.454 84.7893 389.255 79.4434 384.841C74.1041 380.434 68.9258 375.725 64.036 370.842C59.1461 365.952 54.4307 360.767 50.0372 355.435C45.6236 350.089 41.4246 344.468 37.5476 338.733C33.6572 332.971 30.0016 326.954 26.6813 320.843C23.3409 314.693 20.2688 308.314 17.5456 301.881C17.3712 301.472 16.8949 301.277 16.4858 301.452C16.0766 301.626 15.8821 302.102 16.0565 302.512C18.7999 308.991 21.8921 315.424 25.2593 321.615C28.5997 327.766 32.2889 333.829 36.2061 339.638C40.11 345.42 44.3425 351.075 48.7896 356.461C53.2233 361.834 57.9656 367.052 62.8957 371.982C67.8191 376.906 73.0376 381.648 78.4171 386.089C83.8033 390.529 89.4645 394.768 95.2398 398.672C101.049 402.596 107.112 406.279 113.263 409.619C119.454 412.979 125.88 416.078 132.366 418.822C138.913 421.592 145.668 424.06 152.449 426.173C159.311 428.306 166.354 430.117 173.397 431.56C180.534 433.022 187.832 434.135 195.096 434.873C202.474 435.624 209.987 436 217.439 436C217.888 436 218.251 435.638 218.251 435.188C218.251 434.746 217.888 434.383 217.439 434.383Z" fill="#830016" fill-opacity="0.3"/>
<path d="M295.513 402.408C289.503 404.957 283.298 407.231 277.074 409.17C270.782 411.128 264.316 412.799 257.85 414.127C251.303 415.468 244.609 416.495 237.935 417.172C237.492 417.219 237.17 417.615 237.21 418.057C237.251 418.473 237.606 418.782 238.015 418.782C238.042 418.782 238.069 418.782 238.096 418.775C244.817 418.091 251.571 417.058 258.172 415.703C264.692 414.368 271.211 412.685 277.557 410.706C283.828 408.754 290.08 406.46 296.143 403.891C296.553 403.716 296.747 403.24 296.573 402.831C296.398 402.429 295.922 402.241 295.513 402.408Z" fill="#830016" fill-opacity="0.3"/>
<path d="M359.337 359.339C354.809 363.866 350.013 368.226 345.069 372.305C340.126 376.389 334.921 380.28 329.608 383.875C329.24 384.123 329.139 384.626 329.394 384.995C329.548 385.223 329.803 385.351 330.065 385.351C330.219 385.351 330.38 385.304 330.514 385.21C335.873 381.588 341.112 377.664 346.096 373.545C351.073 369.434 355.916 365.033 360.477 360.472C360.792 360.157 360.792 359.647 360.477 359.332C360.162 359.017 359.652 359.023 359.337 359.339Z" fill="#830016" fill-opacity="0.3"/>
<path d="M384.097 330.737C384.238 330.831 384.392 330.878 384.546 330.878C384.808 330.878 385.063 330.751 385.217 330.523C388.853 325.143 392.273 319.529 395.366 313.834C398.485 308.106 401.356 302.156 403.898 296.146C404.072 295.737 403.878 295.261 403.469 295.086C403.059 294.912 402.583 295.106 402.409 295.516C399.88 301.472 397.036 307.375 393.944 313.063C390.872 318.711 387.484 324.278 383.876 329.617C383.627 329.986 383.728 330.489 384.097 330.737Z" fill="#830016" fill-opacity="0.3"/>
<path d="M414.125 257.852C414.038 258.288 414.32 258.718 414.756 258.805C414.81 258.818 414.863 258.818 414.917 258.818C415.293 258.818 415.628 258.557 415.708 258.174C417.063 251.567 418.096 244.813 418.781 238.098C419.478 231.277 419.827 224.321 419.827 217.439C419.827 210.55 419.478 203.601 418.781 196.773C418.096 190.058 417.063 183.304 415.708 176.697C414.374 170.184 412.69 163.664 410.711 157.318C408.753 151.047 406.465 144.789 403.896 138.732C401.354 132.722 398.483 126.772 395.364 121.044C392.265 115.349 388.851 109.735 385.216 104.355C381.6 99.0091 377.676 93.7637 373.558 88.7732C369.446 83.7962 365.053 78.96 360.485 74.3921C360.169 74.0768 359.66 74.0768 359.344 74.3921C359.029 74.7073 359.029 75.2171 359.344 75.5324C363.872 80.06 368.239 84.8627 372.31 89.7995C376.402 94.7564 380.292 99.9548 383.881 105.261C387.489 110.6 390.877 116.167 393.949 121.815C397.041 127.496 399.892 133.399 402.414 139.362C404.963 145.372 407.237 151.577 409.175 157.801C411.141 164.1 412.804 170.566 414.132 177.025C415.474 183.579 416.5 190.28 417.177 196.94C417.868 203.708 418.217 210.611 418.217 217.439C418.217 224.267 417.868 231.169 417.177 237.937C416.493 244.598 415.467 251.299 414.125 257.852Z" fill="#830016" fill-opacity="0.3"/>
<path d="M157.318 24.1652C156.889 24.2994 156.654 24.7488 156.788 25.1781C156.922 25.6006 157.372 25.8421 157.801 25.708C164.093 23.7493 170.559 22.0791 177.025 20.751C183.571 19.4095 190.266 18.3832 196.94 17.7058C210.469 16.3307 224.407 16.3307 237.937 17.7058C244.604 18.3832 251.305 19.4095 257.851 20.751C264.318 22.0791 270.784 23.7426 277.075 25.708C283.3 27.6465 289.505 29.9203 295.515 32.4692C301.471 34.9913 307.374 37.8421 313.062 40.9343C318.71 44.0064 324.277 47.3937 329.616 51.0024C329.757 51.0963 329.911 51.1433 330.066 51.1433C330.327 51.1433 330.582 51.0158 330.736 50.7878C330.985 50.4189 330.891 49.9158 330.522 49.6676C325.142 46.0321 319.528 42.6179 313.833 39.519C308.098 36.3999 302.149 33.529 296.145 30.9869C290.082 28.4178 283.83 26.1238 277.558 24.1719C271.213 22.1932 264.693 20.5163 258.173 19.1747C251.58 17.8198 244.825 16.7868 238.098 16.1026C224.461 14.7142 210.409 14.7142 196.772 16.1026C190.051 16.7868 183.296 17.8198 176.696 19.1747C170.183 20.5095 163.663 22.1865 157.318 24.1652Z" fill="#830016" fill-opacity="0.3"/>
<path d="M105.265 51.0025C110.605 47.3938 116.172 44.0065 121.82 40.9344C122.215 40.7198 122.356 40.2301 122.142 39.8411C121.927 39.452 121.437 39.3044 121.042 39.5191C115.347 42.618 109.733 46.0322 104.353 49.6677C103.984 49.9159 103.884 50.419 104.138 50.7879C104.293 51.016 104.548 51.1434 104.809 51.1434C104.963 51.1434 105.124 51.0964 105.265 51.0025Z" fill="#830016" fill-opacity="0.3"/>
<path d="M19.168 258.174C20.5028 264.687 22.1865 271.207 24.1652 277.553C26.1238 283.824 28.4111 290.082 30.9801 296.139C33.5223 302.149 36.3932 308.099 39.5122 313.827C42.6111 319.522 46.0253 325.137 49.6608 330.516C53.2762 335.862 57.2002 341.107 61.3186 346.098C65.4304 351.075 69.8239 355.911 74.3918 360.479C78.9529 365.04 83.7891 369.44 88.7729 373.552C93.7566 377.664 99.002 381.588 104.355 385.217C109.734 388.852 115.348 392.266 121.043 395.365C126.778 398.484 132.728 401.355 138.731 403.897C144.795 406.466 151.046 408.76 157.318 410.712C163.663 412.691 170.183 414.368 176.703 415.71C183.297 417.065 190.051 418.098 196.779 418.782C196.806 418.782 196.832 418.788 196.859 418.788C197.268 418.788 197.617 418.48 197.664 418.064C197.711 417.621 197.389 417.226 196.94 417.179C190.272 416.501 183.572 415.475 177.025 414.133C170.559 412.805 164.093 411.142 157.801 409.176C151.576 407.238 145.372 404.964 139.362 402.415C133.405 399.893 127.503 397.042 121.815 393.95C116.167 390.878 110.599 387.491 105.26 383.882C99.9478 380.287 94.7427 376.396 89.7991 372.311C84.8556 368.233 80.0597 363.866 75.5321 359.345C71.0044 354.818 66.6378 350.015 62.5663 345.078C58.4746 340.121 54.5842 334.923 50.9956 329.617C47.3869 324.278 43.9996 318.711 40.9275 313.063C37.8353 307.381 34.9846 301.479 32.4625 295.516C29.9136 289.506 27.6397 283.301 25.7012 277.076C23.7359 270.778 22.0724 264.312 20.7443 257.852C19.4028 251.299 18.3765 244.598 17.6991 237.937C17.0082 231.169 16.6594 224.267 16.6594 217.439C16.6594 210.611 17.0082 203.708 17.6991 196.94C18.3765 190.28 19.4028 183.579 20.7443 177.025C22.0724 170.566 23.7359 164.1 25.7012 157.801C27.6397 151.577 29.9136 145.372 32.4625 139.362C34.9913 133.406 37.8353 127.503 40.9275 121.815C43.9996 116.167 47.3869 110.6 50.9956 105.261C54.5842 99.9548 58.4746 94.7564 62.5663 89.7995C66.6445 84.8627 71.0044 80.06 75.5321 75.5324C75.8473 75.2171 75.8473 74.7073 75.5321 74.3921C75.2168 74.0768 74.707 74.0768 74.3918 74.3921C69.8306 78.9533 65.4304 83.7962 61.3186 88.7732C57.1935 93.7704 53.2695 99.0091 49.6608 104.355C46.0253 109.735 42.6044 115.349 39.5122 121.044C36.3932 126.772 33.5223 132.722 30.9801 138.732C28.4111 144.789 26.1171 151.047 24.1652 157.318C22.1865 163.671 20.5028 170.19 19.168 176.697C17.8131 183.304 16.7801 190.058 16.0959 196.773C15.3984 203.594 15.0496 210.55 15.0496 217.432C15.0496 224.321 15.3984 231.27 16.0959 238.098C16.7801 244.819 17.8131 251.574 19.168 258.174Z" fill="#830016" fill-opacity="0.3"/>
<path d="M336.168 361.498C340.762 357.702 345.23 353.65 349.435 349.438C353.648 345.226 357.706 340.758 361.496 336.17C365.299 331.562 368.921 326.726 372.255 321.789C375.615 316.819 378.768 311.641 381.619 306.388C384.496 301.103 387.146 295.609 389.493 290.069C389.668 289.66 389.473 289.183 389.064 289.009C388.655 288.835 388.179 289.029 388.004 289.438C385.677 294.932 383.047 300.378 380.197 305.617C377.366 310.822 374.247 315.954 370.913 320.884C367.606 325.78 364.011 330.576 360.248 335.137C356.492 339.685 352.467 344.112 348.288 348.291C344.116 352.463 339.689 356.488 335.135 360.251C330.574 364.02 325.778 367.609 320.881 370.916C315.958 374.243 310.826 377.369 305.615 380.199C300.369 383.05 294.923 385.679 289.436 388.007C283.895 390.355 278.174 392.454 272.432 394.238C266.63 396.049 260.66 397.585 254.704 398.806C248.667 400.047 242.489 400.993 236.338 401.617C230.1 402.254 223.742 402.576 217.436 402.576C216.987 402.576 216.625 402.938 216.625 403.387C216.625 403.837 216.987 404.199 217.436 404.199C223.795 404.199 230.208 403.877 236.506 403.233C242.711 402.603 248.942 401.65 255.026 400.396C261.036 399.162 267.053 397.612 272.908 395.788C278.697 393.983 284.466 391.87 290.06 389.496C295.6 387.148 301.094 384.499 306.379 381.621C311.631 378.764 316.816 375.611 321.78 372.257C326.723 368.917 331.566 365.302 336.168 361.498Z" fill="#830016" fill-opacity="0.3"/>
<path d="M403.233 198.376C403.186 197.933 402.804 197.618 402.348 197.652C401.905 197.699 401.583 198.094 401.623 198.537C402.26 204.782 402.582 211.141 402.582 217.439C402.582 223.738 402.26 230.103 401.623 236.341C400.999 242.485 400.054 248.663 398.813 254.707C398.719 255.143 399.007 255.572 399.443 255.659C399.497 255.673 399.551 255.673 399.604 255.673C399.98 255.673 400.315 255.411 400.396 255.029C401.643 248.931 402.602 242.7 403.233 236.502C403.877 230.204 404.199 223.791 404.199 217.432C404.199 211.087 403.877 204.668 403.233 198.376Z" fill="#830016" fill-opacity="0.3"/>
<path d="M395.014 163.013C395.094 163.013 395.175 163 395.255 162.98C395.678 162.845 395.919 162.396 395.785 161.967C393.981 156.178 391.868 150.41 389.493 144.815C387.146 139.275 384.496 133.781 381.619 128.496C378.768 123.25 375.615 118.065 372.255 113.095C368.914 108.158 365.299 103.322 361.496 98.7138C361.207 98.365 360.698 98.3181 360.355 98.6065C360.013 98.8882 359.96 99.398 360.248 99.7468C364.018 104.315 367.606 109.111 370.913 114.001C374.247 118.931 377.366 124.062 380.197 129.267C383.047 134.512 385.677 139.952 388.004 145.446C390.352 150.993 392.451 156.708 394.236 162.45C394.35 162.792 394.672 163.013 395.014 163.013Z" fill="#830016" fill-opacity="0.3"/>
<path d="M321.79 62.6202C316.826 59.2663 311.648 56.1138 306.389 53.2563C301.097 50.3787 295.603 47.7292 290.07 45.3816C284.476 43.0138 278.707 40.8942 272.918 39.0898C267.063 37.2653 261.046 35.7159 255.036 34.4817C248.952 33.234 242.714 32.2816 236.516 31.6443C223.933 30.3632 210.967 30.3632 198.383 31.6443C192.179 32.2749 185.947 33.234 179.864 34.4817C173.854 35.7159 167.837 37.2653 161.981 39.0898C161.552 39.224 161.317 39.6734 161.451 40.1027C161.585 40.5252 162.028 40.7667 162.464 40.6326C168.266 38.8215 174.236 37.2855 180.192 36.0647C186.229 34.8238 192.407 33.878 198.558 33.2542C211.034 31.9864 223.886 31.9864 236.362 33.2542C242.513 33.878 248.69 34.8238 254.727 36.0647C260.684 37.2855 266.653 38.8215 272.455 40.6326C278.191 42.4235 283.912 44.5163 289.453 46.8639C294.946 49.1915 300.386 51.8142 305.631 54.6716C310.843 57.5022 315.974 60.628 320.898 63.955C325.794 67.2685 330.59 70.8571 335.152 74.6201C335.299 74.7475 335.487 74.8079 335.668 74.8079C335.903 74.8079 336.131 74.7073 336.292 74.5128C336.574 74.1707 336.527 73.6609 336.185 73.3725C331.57 69.5827 326.727 65.9606 321.79 62.6202Z" fill="#830016" fill-opacity="0.3"/>
<path d="M85.4394 85.4393C81.2271 89.6517 77.1689 94.119 73.3792 98.707C69.5759 103.315 65.9538 108.151 62.6201 113.088C59.2596 118.059 56.1071 123.237 53.2563 128.489C50.3788 133.774 47.7293 139.268 45.3816 144.809C43.0138 150.403 40.8942 156.171 39.0899 161.96C38.9557 162.389 39.1972 162.839 39.6198 162.973C39.7003 163 39.7807 163.006 39.8612 163.006C40.2033 163.006 40.5253 162.785 40.6326 162.436C42.4235 156.701 44.5163 150.98 46.864 145.432C49.1915 139.939 51.8209 134.492 54.6716 129.254C57.5022 124.048 60.6213 118.917 63.955 113.987C67.2618 109.09 70.8571 104.294 74.6201 99.7333C78.3763 95.1855 82.4009 90.7585 86.5797 86.5796C90.7519 82.4075 95.1789 78.3829 99.7333 74.6199C104.295 70.8502 109.09 67.2617 113.987 63.9548C118.91 60.6278 124.042 57.5021 129.254 54.6715C129.649 54.4568 129.79 53.9672 129.575 53.5781C129.361 53.1891 128.871 53.0415 128.475 53.2561C123.223 56.1136 118.038 59.2662 113.075 62.62C108.131 65.9604 103.295 69.5825 98.6937 73.379C94.1191 77.1755 89.6518 81.2337 85.4394 85.4393Z" fill="#830016" fill-opacity="0.3"/>
<path d="M31.6446 198.376C31.0007 204.674 30.6787 211.087 30.6787 217.445C30.6787 217.895 31.0409 218.257 31.4903 218.257C31.9397 218.257 32.302 217.895 32.302 217.445C32.302 211.147 32.6239 204.781 33.2611 198.543C33.3081 198.101 32.9861 197.705 32.5367 197.658C32.0873 197.618 31.6916 197.926 31.6446 198.376Z" fill="#830016" fill-opacity="0.3"/>
<path d="M39.0905 272.918C40.8949 278.706 43.0078 284.475 45.3823 290.069C47.7299 295.61 50.3794 301.103 53.257 306.389C56.1077 311.634 59.2603 316.819 62.6208 321.79C65.9612 326.726 69.5766 331.563 73.3798 336.171C77.1696 340.759 81.2277 345.226 85.4401 349.438C89.6525 353.651 94.113 357.709 98.7077 361.499C103.309 365.302 108.145 368.917 113.089 372.258C118.052 375.612 123.231 378.764 128.49 381.622C133.782 384.499 139.275 387.149 144.809 389.496C150.403 391.864 156.172 393.984 161.96 395.788C167.816 397.613 173.833 399.162 179.843 400.396C179.897 400.41 179.95 400.41 180.004 400.41C180.38 400.41 180.715 400.148 180.795 399.766C180.889 399.33 180.601 398.9 180.165 398.813C174.209 397.592 168.239 396.056 162.437 394.245C156.702 392.454 150.98 390.362 145.44 388.014C139.946 385.686 134.506 383.057 129.261 380.206C124.049 377.376 118.918 374.25 113.994 370.923C109.098 367.609 104.302 364.021 99.7407 360.258C95.1863 356.495 90.7592 352.47 86.5871 348.298C82.4083 344.119 78.3837 339.692 74.6274 335.144C70.8578 330.577 67.2692 325.781 63.9623 320.891C60.6286 315.961 57.5096 310.829 54.679 305.624C51.8283 300.379 49.1989 294.939 46.8713 289.445C44.5237 283.898 42.4242 278.183 40.64 272.442C40.5058 272.019 40.0631 271.777 39.6271 271.912C39.1978 272.039 38.9631 272.488 39.0905 272.918Z" fill="#830016" fill-opacity="0.3"/>
<path d="M338.772 96.1114C334.902 92.2411 330.797 88.5049 326.578 85.0237C326.236 84.742 325.726 84.7889 325.437 85.131C325.156 85.4731 325.203 85.9829 325.545 86.2713C329.724 89.7257 333.788 93.4149 337.625 97.2517C341.462 101.088 345.158 105.153 348.606 109.332C352.067 113.524 355.367 117.931 358.405 122.425C361.457 126.94 364.328 131.655 366.931 136.444C369.547 141.26 371.961 146.258 374.101 151.308C376.261 156.4 378.186 161.658 379.829 166.924C381.493 172.256 382.902 177.736 384.028 183.21C385.162 188.75 386.034 194.425 386.611 200.073C387.194 205.794 387.49 211.637 387.49 217.432C387.49 223.228 387.194 229.07 386.611 234.792C386.034 240.446 385.169 246.121 384.028 251.654C382.908 257.128 381.493 262.601 379.829 267.941C378.186 273.206 376.261 278.465 374.101 283.556C371.961 288.607 369.553 293.604 366.931 298.42C364.328 303.209 361.457 307.925 358.405 312.439C355.367 316.933 352.067 321.34 348.606 325.532C345.158 329.711 341.462 333.776 337.625 337.613C333.788 341.449 329.724 345.145 325.545 348.593C321.352 352.054 316.946 355.354 312.451 358.393C307.931 361.445 303.215 364.316 298.433 366.918C293.617 369.541 288.619 371.949 283.569 374.089C278.484 376.242 273.232 378.167 267.953 379.817C262.621 381.481 257.141 382.889 251.674 384.016C246.127 385.156 240.452 386.022 234.804 386.598C229.076 387.182 223.234 387.477 217.445 387.477C216.996 387.477 216.633 387.839 216.633 388.289C216.633 388.738 216.996 389.1 217.445 389.1C223.287 389.1 229.19 388.799 234.972 388.215C240.673 387.631 246.402 386.759 251.996 385.606C257.516 384.472 263.05 383.05 268.436 381.367C273.762 379.703 279.068 377.758 284.199 375.585C289.29 373.425 294.341 370.99 299.204 368.347C304.033 365.718 308.796 362.82 313.357 359.741C317.898 356.669 322.345 353.342 326.578 349.847C330.797 346.366 334.902 342.63 338.772 338.76C342.649 334.883 346.379 330.784 349.86 326.565C353.355 322.333 356.681 317.886 359.754 313.345C362.839 308.79 365.73 304.028 368.359 299.191C371.002 294.335 373.437 289.284 375.597 284.186C377.777 279.042 379.722 273.743 381.379 268.424C383.056 263.037 384.485 257.51 385.618 251.983C386.765 246.389 387.644 240.661 388.221 234.959C388.811 229.184 389.106 223.281 389.106 217.432C389.106 211.583 388.804 205.687 388.221 199.905C387.637 194.197 386.765 188.469 385.618 182.881C384.485 177.361 383.056 171.827 381.379 166.441C379.722 161.122 377.777 155.816 375.597 150.678C373.437 145.58 371.002 140.536 368.359 135.673C365.73 130.837 362.832 126.074 359.754 121.52C356.688 116.979 353.355 112.532 349.86 108.299C346.372 104.087 342.642 99.9817 338.772 96.1114Z" fill="#830016" fill-opacity="0.3"/>
<path d="M268.428 53.5044C263.042 51.8275 257.508 50.3988 251.988 49.2652C251.552 49.178 251.122 49.4597 251.035 49.8957C250.948 50.3317 251.23 50.761 251.666 50.8482C257.132 51.9684 262.612 53.3837 267.945 55.0472C268.025 55.074 268.106 55.0807 268.186 55.0807C268.529 55.0807 268.851 54.8594 268.958 54.5106C269.092 54.088 268.857 53.6386 268.428 53.5044Z" fill="#830016" fill-opacity="0.3"/>
<path d="M217.438 45.7705C211.596 45.7705 205.693 46.0724 199.911 46.6559C194.209 47.2395 188.481 48.1115 182.887 49.2652C177.367 50.3988 171.833 51.8208 166.447 53.5044C161.121 55.1679 155.815 57.1131 150.684 59.2864C145.593 61.4462 140.542 63.8811 135.679 66.5239C130.849 69.1533 126.087 72.0443 121.526 75.1298C116.985 78.2019 112.538 81.5289 108.305 85.0235C104.086 88.5048 99.981 92.2409 96.1107 96.1112C95.7955 96.4265 95.7955 96.9363 96.1107 97.2515C96.2717 97.4125 96.4729 97.4863 96.6809 97.4863C96.8888 97.4863 97.0967 97.4058 97.251 97.2515C101.088 93.4148 105.153 89.7189 109.331 86.2712C113.524 82.81 117.931 79.5166 122.425 76.4713C126.946 73.4193 131.661 70.5485 136.444 67.9459C141.26 65.3232 146.257 62.9152 151.308 60.7755C156.392 58.6223 161.644 56.6972 166.923 55.0472C172.255 53.3837 177.736 51.9751 183.202 50.8482C188.749 49.7079 194.424 48.8426 200.072 48.2657C205.8 47.6822 211.643 47.387 217.431 47.387C217.881 47.387 218.243 47.0248 218.243 46.5754C218.243 46.126 217.887 45.7705 217.438 45.7705Z" fill="#830016" fill-opacity="0.3"/>
<path d="M60.3458 150.255C59.9366 150.081 59.4604 150.275 59.286 150.684C57.106 155.829 55.1608 161.128 53.504 166.447C51.8271 171.834 50.3984 177.361 49.2648 182.888C48.1178 188.482 47.2391 194.21 46.6623 199.912C46.072 205.687 45.7769 211.59 45.7769 217.439C45.7769 223.288 46.0787 229.184 46.6623 234.966C47.2458 240.674 48.1178 246.402 49.2648 251.99C50.3984 257.51 51.8271 263.044 53.504 268.43C55.1608 273.749 57.106 279.055 59.286 284.193C61.4458 289.291 63.8807 294.335 66.5235 299.198C69.1529 304.034 72.0506 308.797 75.1294 313.351C78.1947 317.892 81.5284 322.339 85.0231 326.572C85.1841 326.766 85.4121 326.867 85.6469 326.867C85.828 326.867 86.0091 326.807 86.1634 326.679C86.5055 326.397 86.5591 325.888 86.2707 325.539C82.8096 321.347 79.5094 316.94 76.4709 312.446C73.4189 307.931 70.5481 303.216 67.9455 298.427C65.3295 293.611 62.9148 288.613 60.7751 283.563C58.6152 278.471 56.6901 273.213 55.0468 267.947C53.3833 262.615 51.9747 257.135 50.8478 251.661C49.7142 246.121 48.8422 240.446 48.2654 234.798C47.6818 229.077 47.3867 223.234 47.3867 217.439C47.3867 211.643 47.6818 205.801 48.2654 200.079C48.8422 194.425 49.7075 188.75 50.8478 183.216C51.968 177.743 53.3833 172.27 55.0468 166.93C56.6901 161.665 58.6152 156.406 60.7751 151.315C60.9495 150.899 60.7549 150.43 60.3458 150.255Z" fill="#830016" fill-opacity="0.3"/>
<path d="M135.68 368.36C140.543 371.003 145.587 373.438 150.685 375.598C150.786 375.645 150.893 375.665 151 375.665C151.316 375.665 151.611 375.477 151.745 375.169C151.919 374.759 151.725 374.283 151.316 374.109C146.272 371.969 141.268 369.561 136.452 366.938C131.669 364.336 126.947 361.465 122.433 358.413C117.939 355.374 113.532 352.074 109.34 348.613C108.997 348.331 108.488 348.378 108.199 348.72C107.917 349.063 107.964 349.572 108.307 349.861C112.539 353.355 116.986 356.682 121.527 359.755C126.088 362.833 130.851 365.731 135.68 368.36Z" fill="#830016" fill-opacity="0.3"/>
<path d="M201.4 373.74C206.693 374.276 212.092 374.551 217.438 374.551C222.791 374.551 228.184 374.276 233.476 373.74C238.695 373.21 243.933 372.405 249.058 371.352C254.109 370.312 259.173 369.011 264.103 367.475C268.973 365.959 273.829 364.175 278.531 362.183C283.193 360.211 287.808 357.977 292.262 355.555C296.682 353.154 301.042 350.498 305.214 347.674C309.373 344.863 313.444 341.818 317.314 338.619C321.178 335.433 324.934 332.018 328.476 328.47C332.024 324.922 335.438 321.165 338.625 317.309C341.824 313.438 344.869 309.367 347.68 305.208C350.504 301.036 353.153 296.676 355.561 292.256C357.983 287.802 360.21 283.187 362.182 278.525C364.174 273.823 365.951 268.967 367.474 264.097C369.01 259.18 370.311 254.116 371.351 249.052C372.404 243.934 373.202 238.688 373.739 233.47C374.276 228.178 374.551 222.778 374.551 217.432C374.551 212.079 374.276 206.68 373.739 201.394C373.692 200.951 373.303 200.636 372.853 200.67C372.411 200.717 372.089 201.112 372.129 201.555C372.666 206.794 372.934 212.133 372.934 217.432C372.934 222.731 372.666 228.07 372.129 233.309C371.606 238.481 370.808 243.666 369.768 248.73C368.735 253.74 367.447 258.751 365.931 263.621C364.429 268.444 362.665 273.246 360.693 277.901C358.741 282.509 356.534 287.084 354.139 291.491C351.758 295.864 349.135 300.177 346.345 304.316C343.561 308.428 340.55 312.459 337.384 316.289C334.231 320.112 330.85 323.828 327.342 327.336C323.834 330.845 320.118 334.225 316.295 337.378C312.465 340.537 308.434 343.556 304.322 346.339C300.19 349.136 295.877 351.759 291.497 354.133C287.09 356.528 282.522 358.735 277.907 360.687C273.252 362.659 268.45 364.423 263.627 365.925C258.744 367.448 253.733 368.736 248.736 369.762C243.665 370.802 238.48 371.593 233.315 372.123C222.838 373.19 212.039 373.19 201.561 372.123C196.396 371.6 191.211 370.802 186.14 369.762C181.143 368.736 176.133 367.448 171.25 365.925C166.427 364.423 161.624 362.659 156.969 360.687C152.354 358.735 147.786 356.528 143.379 354.133C139.006 351.752 134.693 349.13 130.555 346.339C126.443 343.556 122.411 340.544 118.581 337.378C114.758 334.218 111.042 330.845 107.534 327.336C104.026 323.828 100.645 320.112 97.4927 316.289C94.3267 312.452 91.315 308.428 88.5314 304.316C88.2832 303.947 87.7801 303.846 87.4112 304.101C87.0423 304.349 86.9417 304.853 87.1965 305.221C90.007 309.373 93.0523 313.445 96.2518 317.322C99.4379 321.186 102.852 324.935 106.4 328.483C109.942 332.025 113.698 335.439 117.562 338.632C121.432 341.825 125.504 344.877 129.662 347.687C133.841 350.511 138.194 353.161 142.615 355.569C147.069 357.99 151.684 360.217 156.345 362.196C161.047 364.188 165.904 365.972 170.773 367.488C175.703 369.024 180.768 370.332 185.819 371.365C190.936 372.412 196.182 373.21 201.4 373.74Z" fill="#830016" fill-opacity="0.3"/>
<path d="M338.63 117.556C335.444 113.692 332.03 109.942 328.482 106.394C324.94 102.853 321.184 99.4383 317.32 96.2455C313.45 93.0527 309.378 90.0007 305.22 87.1902C304.851 86.9353 304.348 87.0359 304.099 87.4048C303.851 87.7738 303.945 88.2768 304.314 88.525C308.426 91.3087 312.457 94.3204 316.287 97.4864C320.11 100.646 323.826 104.02 327.335 107.528C330.843 111.036 334.223 114.752 337.376 118.575C340.542 122.412 343.554 126.437 346.337 130.548C346.491 130.776 346.746 130.904 347.008 130.904C347.162 130.904 347.323 130.857 347.457 130.763C347.826 130.515 347.927 130.012 347.672 129.643C344.875 125.497 341.83 121.433 338.63 117.556Z" fill="#830016" fill-opacity="0.3"/>
<path d="M263.096 67.9324C262.962 68.3617 263.204 68.8111 263.626 68.9453C268.449 70.4478 273.252 72.2119 277.907 74.1839C278.007 74.2309 278.115 74.251 278.222 74.251C278.537 74.251 278.833 74.0632 278.967 73.7547C279.141 73.3455 278.947 72.8693 278.537 72.6949C273.835 70.7027 268.979 68.9185 264.109 67.4025C263.68 67.2617 263.231 67.5031 263.096 67.9324Z" fill="#830016" fill-opacity="0.3"/>
<path d="M233.484 61.1378C222.899 60.0579 211.986 60.0579 201.401 61.1378C196.183 61.6677 190.944 62.4726 185.82 63.5257C180.769 64.5654 175.705 65.8667 170.774 67.4028C165.905 68.9187 161.048 70.7029 156.346 72.6951C155.937 72.8695 155.743 73.3457 155.917 73.7549C156.045 74.0634 156.346 74.2512 156.662 74.2512C156.769 74.2512 156.876 74.2311 156.977 74.1842C161.632 72.2121 166.435 70.448 171.257 68.9455C176.141 67.4229 181.151 66.135 186.148 65.1087C191.219 64.0691 196.404 63.2776 201.569 62.7477C212.046 61.6811 222.846 61.6811 233.323 62.7477C233.772 62.7879 234.161 62.4726 234.208 62.0232C234.249 61.5805 233.927 61.1848 233.484 61.1378Z" fill="#830016" fill-opacity="0.3"/>
<path d="M117.555 96.2456C113.692 99.4317 109.936 102.846 106.394 106.394C102.846 109.943 99.4314 113.699 96.2453 117.556C93.0458 121.426 90.0005 125.498 87.19 129.656C84.3661 133.828 81.7166 138.188 79.3086 142.609C76.8871 147.063 74.6602 151.677 72.6882 156.339C70.696 161.041 68.9185 165.898 67.3959 170.767C65.8598 175.684 64.5585 180.748 63.5189 185.813C62.4658 190.93 61.6676 196.176 61.131 201.394C60.5943 206.687 60.3193 212.086 60.3193 217.432C60.3193 222.785 60.5943 228.185 61.131 233.47C61.6609 238.695 62.4658 243.934 63.5189 249.052C64.5585 254.116 65.8665 259.181 67.3959 264.097C67.5032 264.446 67.8252 264.667 68.1672 264.667C68.2477 264.667 68.3282 264.654 68.4087 264.634C68.838 264.5 69.0728 264.05 68.9386 263.621C67.4227 258.751 66.1281 253.741 65.1019 248.73C64.0622 243.666 63.2707 238.474 62.7408 233.309C62.2042 228.071 61.9359 222.731 61.9359 217.432C61.9359 212.133 62.2042 206.794 62.7408 201.555C63.264 196.384 64.0622 191.199 65.1019 186.134C66.1281 181.124 67.4227 176.113 68.9386 171.244C70.4411 166.421 72.2052 161.618 74.1773 156.963C76.1292 152.355 78.336 147.78 80.7306 143.373C83.1118 139 85.7345 134.687 88.5248 130.548C91.3085 126.437 94.3202 122.405 97.4862 118.575C100.639 114.752 104.019 111.036 107.527 107.528C111.036 104.02 114.752 100.639 118.575 97.4865C118.917 97.2048 118.971 96.695 118.682 96.3462C118.407 96.0108 117.897 95.9638 117.555 96.2456Z" fill="#830016" fill-opacity="0.3"/>
<path d="M259.709 354.134C259.789 354.134 259.87 354.12 259.95 354.1C264.391 352.718 268.811 351.095 273.091 349.284C277.33 347.486 281.542 345.461 285.594 343.247C289.618 341.054 293.589 338.639 297.392 336.07C301.182 333.508 304.885 330.737 308.413 327.826C311.928 324.922 315.349 321.816 318.582 318.583C321.808 315.357 324.92 311.936 327.825 308.414C330.736 304.893 333.506 301.184 336.068 297.394C336.317 297.025 336.223 296.522 335.854 296.274C335.485 296.019 334.982 296.119 334.734 296.488C332.198 300.231 329.455 303.9 326.584 307.381C323.713 310.863 320.634 314.243 317.448 317.436C314.255 320.629 310.875 323.701 307.393 326.572C303.905 329.449 300.243 332.193 296.5 334.722C292.744 337.264 288.813 339.652 284.836 341.818C280.825 343.998 276.666 346.004 272.474 347.781C268.241 349.572 263.874 351.176 259.481 352.544C259.052 352.678 258.817 353.127 258.951 353.557C259.045 353.912 259.36 354.134 259.709 354.134Z" fill="#830016" fill-opacity="0.3"/>
<path d="M356.044 245.919C355.111 250.467 353.938 255.028 352.549 259.469C351.181 263.855 349.578 268.229 347.787 272.461C347.612 272.871 347.807 273.347 348.216 273.521C348.317 273.568 348.424 273.588 348.531 273.588C348.846 273.588 349.142 273.4 349.276 273.092C351.087 268.812 352.71 264.392 354.092 259.952C355.494 255.464 356.681 250.849 357.627 246.248C358.586 241.579 359.317 236.804 359.8 232.055C360.29 227.232 360.538 222.315 360.538 217.445C360.538 212.576 360.29 207.659 359.8 202.836C359.317 198.087 358.586 193.311 357.627 188.643C356.681 184.041 355.494 179.427 354.092 174.939C353.958 174.517 353.508 174.275 353.079 174.409C352.65 174.543 352.415 174.993 352.549 175.422C353.931 179.863 355.105 184.417 356.044 188.972C356.99 193.586 357.714 198.309 358.19 203.004C358.673 207.773 358.921 212.636 358.921 217.452C358.921 222.268 358.673 227.131 358.19 231.9C357.714 236.582 356.99 241.304 356.044 245.919Z" fill="#830016" fill-opacity="0.3"/>
<path d="M232.048 75.0762C222.402 74.0968 212.475 74.0968 202.829 75.0762C198.074 75.5591 193.298 76.2902 188.636 77.2494C184.028 78.1952 179.413 79.3825 174.932 80.7844C170.492 82.1661 166.072 83.7894 161.792 85.6004C157.553 87.3981 153.341 89.4238 149.289 91.6373C145.265 93.8307 141.294 96.2454 137.491 98.8144C133.701 101.377 129.998 104.147 126.47 107.058C126.128 107.34 126.074 107.85 126.363 108.198C126.644 108.541 127.154 108.587 127.503 108.306C130.991 105.428 134.653 102.685 138.396 100.156C142.152 97.6138 146.083 95.2259 150.061 93.0593C154.072 90.8793 158.23 88.8737 162.423 87.0962C166.655 85.3053 171.022 83.7022 175.415 82.3338C179.849 80.952 184.404 79.7782 188.965 78.8458C193.58 77.9001 198.295 77.1756 202.997 76.6994C212.535 75.7268 222.349 75.7268 231.887 76.6994C236.589 77.1756 241.311 77.9001 245.919 78.8458C250.474 79.7782 255.035 80.9587 259.468 82.3338C263.862 83.7022 268.229 85.3053 272.461 87.0962C276.653 88.8737 280.812 90.8793 284.823 93.0593C288.808 95.2259 292.731 97.6138 296.488 100.156C300.231 102.691 303.9 105.428 307.381 108.306C310.855 111.177 314.243 114.249 317.436 117.442C320.628 120.634 323.701 124.015 326.571 127.496C329.449 130.978 332.192 134.647 334.721 138.389C337.263 142.152 339.651 146.076 341.818 150.054C341.965 150.322 342.24 150.477 342.529 150.477C342.656 150.477 342.79 150.443 342.911 150.376C343.307 150.161 343.448 149.672 343.233 149.283C341.046 145.258 338.632 141.287 336.056 137.484C333.494 133.694 330.717 129.985 327.812 126.463C324.908 122.948 321.802 119.528 318.569 116.295C315.336 113.061 311.915 109.956 308.4 107.051C304.879 104.14 301.17 101.37 297.38 98.8077C293.577 96.2387 289.606 93.824 285.581 91.6306C281.523 89.4238 277.317 87.3914 273.078 85.5937C268.799 83.7827 264.378 82.1594 259.938 80.7776C255.457 79.3825 250.842 78.1885 246.234 77.2427C241.579 76.297 236.803 75.5658 232.048 75.0762Z" fill="#830016" fill-opacity="0.3"/>
<path d="M93.059 150.054C93.2736 149.665 93.126 149.169 92.737 148.961C92.3412 148.746 91.8516 148.894 91.6369 149.283C89.4301 153.341 87.3977 157.553 85.6068 161.793C83.7957 166.072 82.1725 170.492 80.7907 174.933C79.3888 179.42 78.2016 184.035 77.2558 188.636C76.2966 193.305 75.5655 198.081 75.0826 202.83C74.5929 207.653 74.3447 212.569 74.3447 217.439C74.3447 222.309 74.5929 227.225 75.0826 232.048C75.1228 232.464 75.4783 232.773 75.8875 232.773C75.9143 232.773 75.9411 232.773 75.968 232.766C76.4107 232.719 76.7326 232.323 76.6924 231.881C76.2094 227.111 75.9613 222.248 75.9613 217.432C75.9613 212.616 76.2094 207.753 76.6924 202.984C77.1686 198.289 77.893 193.567 78.8388 188.952C79.7712 184.404 80.945 179.843 82.3335 175.402C83.7018 171.016 85.305 166.642 87.0959 162.41C88.8667 158.231 90.8723 154.072 93.059 150.054Z" fill="#830016" fill-opacity="0.3"/>
<path d="M98.8136 297.394C101.376 301.183 104.153 304.893 107.057 308.414C109.962 311.929 113.067 315.35 116.3 318.583C119.527 321.816 122.954 324.922 126.469 327.826C129.991 330.737 133.7 333.507 137.49 336.07C141.293 338.639 145.264 341.054 149.288 343.247C153.346 345.454 157.552 347.486 161.791 349.284C161.892 349.331 161.999 349.351 162.107 349.351C162.422 349.351 162.717 349.163 162.851 348.854C163.026 348.445 162.831 347.969 162.422 347.795C158.23 346.017 154.071 344.012 150.06 341.832C146.075 339.665 142.151 337.277 138.395 334.735C134.652 332.199 130.983 329.463 127.502 326.578C124.027 323.708 120.64 320.635 117.447 317.443C114.254 314.25 111.182 310.869 108.312 307.388C105.434 303.907 102.691 300.238 100.162 296.495C97.6196 292.732 95.2317 288.808 93.0651 284.83C92.8505 284.441 92.3608 284.294 91.9651 284.508C91.5694 284.723 91.4285 285.213 91.6431 285.602C93.8231 289.619 96.2378 293.59 98.8136 297.394Z" fill="#830016" fill-opacity="0.3"/>
<path d="M188.637 357.628C193.299 358.587 198.075 359.319 202.831 359.802C207.653 360.291 212.57 360.539 217.44 360.539C217.889 360.539 218.251 360.177 218.251 359.728C218.251 359.278 217.889 358.916 217.44 358.916C212.624 358.916 207.761 358.668 202.992 358.185C198.29 357.709 193.567 356.984 188.959 356.039C188.523 355.951 188.094 356.233 188.007 356.669C187.92 357.112 188.201 357.541 188.637 357.628Z" fill="#830016" fill-opacity="0.3"/>
<path d="M243.369 344.448C243.423 344.448 243.476 344.441 243.53 344.434C247.702 343.576 251.881 342.503 255.946 341.235C259.964 339.981 263.968 338.512 267.852 336.868C271.695 335.238 275.505 333.4 279.181 331.401C282.83 329.416 286.425 327.229 289.866 324.902C293.3 322.581 296.654 320.066 299.847 317.436C303.033 314.807 306.125 311.99 309.057 309.065C309.372 308.75 309.372 308.24 309.057 307.925C308.741 307.61 308.232 307.61 307.916 307.925C305.025 310.816 301.967 313.599 298.821 316.195C295.668 318.798 292.355 321.28 288.961 323.574C285.56 325.874 282.011 328.034 278.403 329.993C274.774 331.965 271.011 333.783 267.215 335.393C263.384 337.016 259.427 338.465 255.456 339.706C251.445 340.953 247.32 342.02 243.201 342.865C242.765 342.952 242.484 343.381 242.571 343.817C242.651 344.18 242.987 344.448 243.369 344.448Z" fill="#830016" fill-opacity="0.3"/>
<path d="M341.227 255.947C342.495 251.883 343.568 247.704 344.426 243.532C345.292 239.299 345.956 234.973 346.392 230.673C346.834 226.313 347.063 221.859 347.063 217.439C347.063 213.019 346.834 208.565 346.392 204.205C345.956 199.905 345.292 195.579 344.426 191.346C343.568 187.174 342.495 182.995 341.227 178.93C339.973 174.913 338.504 170.908 336.86 167.024C335.23 163.174 333.392 159.364 331.394 155.695C329.408 152.053 327.221 148.458 324.894 145.01C324.646 144.641 324.143 144.54 323.774 144.795C323.405 145.043 323.304 145.547 323.559 145.915C325.86 149.323 328.02 152.871 329.978 156.473C331.95 160.095 333.768 163.858 335.378 167.662C337.001 171.492 338.45 175.449 339.691 179.413C340.939 183.425 342.005 187.55 342.85 191.668C343.709 195.847 344.359 200.12 344.795 204.366C345.231 208.672 345.459 213.072 345.459 217.439C345.459 221.806 345.238 226.199 344.795 230.512C344.359 234.758 343.709 239.031 342.85 243.21C342.005 247.328 340.939 251.453 339.691 255.464C338.457 259.435 337.001 263.386 335.378 267.216C333.768 271.013 331.95 274.776 329.978 278.404C328.02 282.006 325.86 285.555 323.559 288.962C323.311 289.331 323.405 289.834 323.774 290.082C323.915 290.176 324.069 290.223 324.223 290.223C324.485 290.223 324.74 290.096 324.894 289.868C327.221 286.42 329.415 282.825 331.394 279.183C333.392 275.514 335.23 271.704 336.86 267.853C338.51 263.97 339.973 259.965 341.227 255.947Z" fill="#830016" fill-opacity="0.3"/>
<path d="M191.676 92.0331C195.848 91.1745 200.121 90.5239 204.373 90.0879C212.999 89.2092 221.887 89.2092 230.513 90.0879C234.766 90.5239 239.038 91.1745 243.21 92.0331C247.329 92.8783 251.454 93.9381 255.465 95.1924C259.436 96.4266 263.387 97.8821 267.224 99.5054C271.02 101.115 274.783 102.933 278.412 104.905C282.014 106.864 285.569 109.024 288.97 111.324C292.357 113.618 295.677 116.1 298.83 118.703C301.976 121.298 305.034 124.082 307.925 126.973C308.086 127.134 308.288 127.208 308.496 127.208C308.704 127.208 308.911 127.127 309.066 126.973C309.381 126.658 309.381 126.148 309.066 125.833C306.141 122.908 303.042 120.091 299.856 117.462C296.663 114.826 293.31 112.317 289.875 109.989C286.434 107.662 282.839 105.475 279.19 103.49C275.521 101.491 271.704 99.653 267.861 98.023C263.977 96.3796 259.973 94.9107 255.955 93.6563C251.89 92.3886 247.711 91.3154 243.539 90.4568C239.313 89.5915 234.987 88.9275 230.681 88.4915C221.941 87.5994 212.946 87.5994 204.212 88.4915C199.906 88.9275 195.58 89.5915 191.354 90.4568C190.918 90.544 190.636 90.9733 190.723 91.4093C190.811 91.8453 191.24 92.127 191.676 92.0331Z" fill="#830016" fill-opacity="0.3"/>
<path d="M167.03 98.0163C163.186 99.6462 159.376 101.484 155.701 103.483C152.052 105.468 148.456 107.655 145.015 109.983C141.581 112.304 138.227 114.819 135.034 117.448C131.848 120.078 128.756 122.895 125.825 125.819C125.51 126.135 125.51 126.644 125.825 126.96C125.986 127.121 126.187 127.194 126.395 127.194C126.603 127.194 126.811 127.114 126.965 126.96C129.856 124.069 132.915 121.285 136.061 118.689C139.213 116.087 142.527 113.605 145.921 111.311C149.322 109.01 152.87 106.85 156.479 104.892C160.107 102.92 163.87 101.102 167.667 99.492C168.076 99.3176 168.271 98.8413 168.096 98.4322C167.915 98.0364 167.439 97.8419 167.03 98.0163Z" fill="#830016" fill-opacity="0.3"/>
<path d="M111.324 145.922C111.572 145.553 111.478 145.05 111.109 144.802C110.74 144.554 110.237 144.648 109.989 145.017C107.661 148.464 105.468 152.06 103.489 155.702C101.49 159.371 99.6525 163.181 98.0225 167.031C97.8481 167.44 98.0427 167.916 98.4518 168.091C98.5524 168.138 98.6598 168.158 98.7671 168.158C99.0823 168.158 99.3775 167.97 99.5116 167.661C101.121 163.865 102.939 160.102 104.911 156.473C106.856 152.878 109.023 149.323 111.324 145.922Z" fill="#830016" fill-opacity="0.3"/>
<path d="M90.4493 243.531C91.3079 247.703 92.3811 251.882 93.6488 255.947C94.9032 259.965 96.3721 263.969 98.0155 267.853C98.1429 268.162 98.4448 268.349 98.76 268.349C98.8674 268.349 98.9747 268.329 99.0753 268.282C99.4845 268.108 99.679 267.632 99.5046 267.223C97.8813 263.393 96.4325 259.435 95.1916 255.471C93.944 251.46 92.8775 247.334 92.0323 243.216C91.1737 239.037 90.5231 234.764 90.0871 230.518C89.6511 226.212 89.4231 221.812 89.4231 217.445C89.4231 213.079 89.6444 208.685 90.0871 204.372C90.5231 200.126 91.1737 195.853 92.0323 191.675C92.1195 191.239 91.8378 190.809 91.4018 190.722C90.9658 190.635 90.5365 190.917 90.4493 191.353C89.584 195.585 88.92 199.912 88.484 204.211C88.0413 208.571 87.8132 213.025 87.8132 217.445C87.8132 221.866 88.0413 226.32 88.484 230.679C88.92 234.972 89.584 239.299 90.4493 243.531Z" fill="#830016" fill-opacity="0.3"/>
<path d="M117.448 299.849C120.077 303.035 122.895 306.134 125.819 309.058C125.98 309.219 126.181 309.293 126.389 309.293C126.597 309.293 126.805 309.213 126.96 309.058C127.275 308.743 127.275 308.233 126.96 307.918C124.069 305.027 121.292 301.968 118.689 298.823C116.08 295.663 113.598 292.35 111.311 288.962C111.062 288.593 110.559 288.493 110.19 288.748C109.822 288.996 109.721 289.499 109.976 289.868C112.297 293.295 114.812 296.649 117.448 299.849Z" fill="#830016" fill-opacity="0.3"/>
<path d="M178.938 341.228C179.019 341.255 179.099 341.262 179.18 341.262C179.522 341.262 179.844 341.04 179.951 340.692C180.085 340.262 179.844 339.813 179.421 339.679C175.45 338.445 171.5 336.989 167.663 335.366C163.866 333.756 160.103 331.938 156.475 329.966C152.873 328.007 149.318 325.848 145.917 323.547C145.548 323.292 145.045 323.393 144.797 323.762C144.548 324.13 144.642 324.634 145.011 324.882C148.452 327.209 152.048 329.396 155.696 331.381C159.366 333.38 163.182 335.218 167.026 336.848C170.909 338.505 174.921 339.974 178.938 341.228Z" fill="#830016" fill-opacity="0.3"/>
<path d="M217.439 345.447C213.079 345.447 208.685 345.226 204.366 344.783C203.916 344.743 203.527 345.058 203.48 345.508C203.433 345.95 203.755 346.346 204.205 346.393C208.571 346.836 213.025 347.064 217.439 347.064C217.888 347.064 218.25 346.702 218.25 346.252C218.25 345.809 217.888 345.447 217.439 345.447Z" fill="#830016" fill-opacity="0.3"/>
<path d="M229.272 333.534C229.299 333.534 229.326 333.534 229.353 333.528C233.23 333.132 237.12 332.535 240.923 331.757C241.359 331.67 241.641 331.24 241.554 330.804C241.467 330.368 241.037 330.087 240.601 330.174C236.852 330.945 233.008 331.529 229.185 331.918C228.742 331.965 228.42 332.36 228.461 332.803C228.508 333.219 228.863 333.534 229.272 333.534Z" fill="#830016" fill-opacity="0.3"/>
<path d="M290.589 306.201C287.745 308.549 284.767 310.775 281.729 312.835C278.67 314.901 275.477 316.846 272.237 318.603C268.978 320.374 265.59 322.011 262.183 323.453C261.774 323.627 261.579 324.104 261.753 324.513C261.881 324.821 262.183 325.009 262.498 325.009C262.605 325.009 262.713 324.989 262.813 324.942C266.274 323.473 269.702 321.823 273.009 320.025C276.289 318.241 279.529 316.269 282.628 314.176C285.706 312.09 288.731 309.83 291.616 307.455C291.958 307.173 292.012 306.664 291.723 306.315C291.448 305.966 290.932 305.919 290.589 306.201Z" fill="#830016" fill-opacity="0.3"/>
<path d="M306.823 291.92C307.057 291.92 307.285 291.82 307.446 291.625C309.821 288.748 312.081 285.723 314.167 282.637C314.416 282.268 314.322 281.765 313.953 281.517C313.584 281.269 313.081 281.363 312.833 281.731C310.773 284.777 308.547 287.755 306.206 290.592C305.924 290.934 305.971 291.444 306.313 291.733C306.46 291.86 306.642 291.92 306.823 291.92Z" fill="#830016" fill-opacity="0.3"/>
<path d="M327.33 251.621C326.217 255.189 324.916 258.744 323.453 262.185C323.279 262.595 323.474 263.071 323.883 263.245C323.983 263.292 324.091 263.312 324.198 263.312C324.513 263.312 324.815 263.124 324.943 262.816C326.425 259.321 327.746 255.719 328.873 252.097C330.013 248.435 330.986 244.672 331.751 240.922C332.529 237.119 333.126 233.222 333.522 229.345C333.924 225.414 334.125 221.403 334.125 217.432C334.125 216.983 333.763 216.62 333.314 216.62C332.864 216.62 332.502 216.983 332.502 217.432C332.502 221.349 332.301 225.3 331.905 229.184C331.516 233.007 330.926 236.844 330.161 240.6C329.417 244.303 328.457 248.012 327.33 251.621Z" fill="#830016" fill-opacity="0.3"/>
<path d="M172.06 109.936C168.599 111.405 165.171 113.055 161.864 114.852C161.475 115.067 161.328 115.557 161.542 115.946C161.757 116.335 162.247 116.482 162.642 116.268C165.902 114.497 169.29 112.86 172.697 111.418C176.145 109.956 179.7 108.654 183.262 107.541C186.864 106.414 190.573 105.462 194.282 104.704C198.039 103.932 201.875 103.349 205.699 102.96C213.453 102.168 221.441 102.168 229.195 102.96C233.019 103.349 236.855 103.939 240.612 104.704C244.321 105.462 248.024 106.421 251.632 107.541C255.201 108.654 258.756 109.956 262.197 111.418C265.611 112.867 268.992 114.497 272.251 116.268C275.491 118.032 278.684 119.97 281.743 122.036C284.781 124.089 287.766 126.322 290.603 128.663C293.434 130.998 296.184 133.5 298.78 136.095C301.376 138.691 303.871 141.441 306.212 144.272C308.553 147.109 310.787 150.087 312.839 153.133C314.905 156.191 316.85 159.384 318.608 162.624C320.379 165.877 322.015 169.265 323.464 172.679C324.926 176.126 326.228 179.682 327.341 183.243C328.468 186.852 329.42 190.561 330.178 194.264C330.259 194.646 330.594 194.908 330.97 194.908C331.024 194.908 331.077 194.901 331.131 194.894C331.567 194.807 331.849 194.378 331.761 193.942C330.99 190.192 330.024 186.429 328.884 182.767C327.757 179.152 326.436 175.543 324.953 172.048C323.484 168.58 321.827 165.153 320.03 161.853C318.246 158.566 316.274 155.333 314.181 152.234C312.095 149.148 309.834 146.123 307.46 143.246C305.092 140.375 302.55 137.584 299.92 134.955C297.284 132.319 294.501 129.784 291.63 127.416C288.745 125.035 285.727 122.774 282.642 120.695C279.543 118.595 276.303 116.63 273.023 114.846C269.716 113.048 266.282 111.391 262.827 109.929C259.333 108.447 255.724 107.125 252.109 105.998C248.453 104.858 244.69 103.892 240.934 103.121C237.13 102.343 233.233 101.746 229.363 101.35C221.495 100.552 213.399 100.552 205.538 101.35C201.661 101.746 197.77 102.343 193.967 103.121C190.204 103.892 186.448 104.858 182.792 105.998C179.157 107.132 175.555 108.453 172.06 109.936Z" fill="#830016" fill-opacity="0.3"/>
<path d="M120.924 153.368C121.064 153.462 121.219 153.509 121.373 153.509C121.635 153.509 121.889 153.381 122.044 153.153C124.103 150.108 126.33 147.13 128.671 144.292C131.012 141.462 133.507 138.712 136.103 136.116C138.699 133.52 141.449 131.018 144.279 128.684C144.622 128.402 144.675 127.892 144.387 127.543C144.098 127.201 143.589 127.148 143.246 127.436C140.376 129.804 137.592 132.339 134.956 134.969C132.326 137.598 129.791 140.388 127.417 143.259C125.042 146.137 122.782 149.162 120.695 152.248C120.454 152.61 120.555 153.113 120.924 153.368Z" fill="#830016" fill-opacity="0.3"/>
<path d="M103.119 240.929C103.89 244.679 104.856 248.442 105.996 252.104C107.123 255.719 108.444 259.328 109.927 262.823C110.054 263.131 110.356 263.319 110.671 263.319C110.779 263.319 110.886 263.299 110.987 263.252C111.396 263.078 111.59 262.601 111.416 262.192C109.954 258.745 108.652 255.19 107.539 251.628C106.412 248.019 105.46 244.31 104.702 240.607C103.93 236.858 103.347 233.014 102.958 229.197C102.562 225.32 102.361 221.363 102.361 217.446C102.361 213.528 102.562 209.578 102.958 205.694C103.347 201.871 103.937 198.034 104.702 194.284C105.46 190.582 106.419 186.879 107.539 183.264C108.652 179.695 109.954 176.14 111.416 172.699C111.59 172.29 111.396 171.814 110.987 171.639C110.577 171.465 110.101 171.659 109.927 172.069C108.444 175.563 107.123 179.165 105.996 182.787C104.856 186.45 103.883 190.213 103.119 193.962C102.341 197.766 101.744 201.663 101.348 205.54C100.945 209.47 100.744 213.482 100.744 217.452C100.744 221.423 100.945 225.435 101.348 229.365C101.744 233.229 102.341 237.126 103.119 240.929Z" fill="#830016" fill-opacity="0.3"/>
<path d="M134.97 299.916C137.606 302.552 140.389 305.087 143.26 307.455C146.145 309.836 149.163 312.097 152.248 314.176C152.389 314.27 152.544 314.317 152.698 314.317C152.959 314.317 153.214 314.19 153.369 313.962C153.617 313.593 153.523 313.09 153.154 312.841C150.115 310.789 147.131 308.555 144.293 306.214C141.463 303.88 138.712 301.378 136.117 298.782C133.521 296.186 131.026 293.436 128.685 290.606C126.344 287.768 124.11 284.79 122.057 281.745C121.809 281.376 121.306 281.275 120.937 281.53C120.568 281.778 120.468 282.281 120.723 282.65C122.809 285.736 125.069 288.761 127.444 291.639C129.798 294.496 132.334 297.286 134.97 299.916Z" fill="#830016" fill-opacity="0.3"/>
<path d="M193.954 331.757C197.757 332.535 201.654 333.132 205.524 333.528C205.551 333.528 205.578 333.534 205.605 333.534C206.014 333.534 206.363 333.226 206.41 332.81C206.457 332.367 206.135 331.972 205.685 331.925C201.862 331.536 198.025 330.945 194.269 330.181C190.56 329.423 186.857 328.463 183.248 327.343C179.68 326.23 176.125 324.929 172.684 323.466C172.275 323.292 171.798 323.486 171.624 323.896C171.45 324.305 171.644 324.781 172.053 324.955C175.548 326.438 179.157 327.759 182.772 328.886C186.435 330.013 190.191 330.985 193.954 331.757Z" fill="#830016" fill-opacity="0.3"/>
<path d="M257.999 313.525C261.085 312.217 264.15 310.735 267.115 309.125C270.046 307.529 272.937 305.771 275.714 303.893C278.471 302.029 281.174 300.003 283.743 297.883C286.305 295.764 288.801 293.496 291.155 291.149C291.47 290.834 291.47 290.324 291.155 290.009C290.84 289.693 290.33 289.693 290.015 290.009C287.701 292.323 285.246 294.556 282.717 296.642C280.188 298.728 277.525 300.721 274.809 302.558C272.072 304.403 269.228 306.14 266.344 307.71C263.433 309.293 260.414 310.749 257.369 312.036C254.297 313.338 251.124 314.498 247.938 315.491C244.725 316.49 241.411 317.349 238.105 318.026C237.669 318.113 237.387 318.543 237.474 318.979C237.555 319.361 237.89 319.623 238.266 319.623C238.319 319.623 238.373 319.616 238.427 319.609C241.787 318.918 245.148 318.053 248.414 317.034C251.654 316.027 254.88 314.847 257.999 313.525Z" fill="#830016" fill-opacity="0.3"/>
<path d="M319.61 238.434C320.308 235.033 320.838 231.558 321.193 228.091C321.549 224.576 321.73 220.994 321.73 217.446C321.73 213.891 321.549 210.309 321.193 206.801C320.838 203.333 320.308 199.851 319.61 196.457C318.919 193.097 318.054 189.736 317.034 186.47C316.028 183.237 314.848 180.01 313.52 176.891C312.205 173.792 310.729 170.727 309.119 167.776C307.523 164.844 305.766 161.947 303.887 159.176C302.023 156.42 300.004 153.716 297.877 151.147C295.758 148.585 293.491 146.09 291.143 143.735C288.789 141.381 286.3 139.114 283.731 137.001C281.162 134.881 278.459 132.856 275.702 130.991C272.925 129.113 270.034 127.355 267.103 125.759C264.145 124.149 261.079 122.667 257.987 121.359C254.868 120.037 251.642 118.857 248.409 117.844C245.142 116.824 241.782 115.959 238.421 115.268C237.985 115.181 237.556 115.463 237.469 115.899C237.382 116.335 237.663 116.764 238.099 116.851C241.406 117.529 244.713 118.381 247.933 119.387C251.119 120.379 254.291 121.54 257.363 122.841C260.402 124.129 263.42 125.585 266.338 127.168C269.223 128.737 272.073 130.468 274.803 132.319C277.52 134.157 280.183 136.149 282.712 138.235C285.24 140.321 287.689 142.548 290.009 144.869C292.324 147.183 294.557 149.638 296.643 152.167C298.736 154.702 300.721 157.359 302.559 160.075C304.404 162.805 306.134 165.649 307.711 168.54C309.294 171.445 310.749 174.463 312.044 177.515C313.345 180.587 314.506 183.76 315.498 186.946C316.498 190.159 317.356 193.472 318.034 196.779C318.718 200.126 319.241 203.547 319.59 206.962C319.939 210.423 320.12 213.944 320.12 217.446C320.12 220.94 319.939 224.468 319.59 227.93C319.241 231.344 318.718 234.771 318.034 238.112C317.356 241.419 316.504 244.725 315.498 247.945C314.506 251.131 313.345 254.304 312.044 257.376C310.749 260.421 309.294 263.446 307.711 266.351C307.496 266.74 307.644 267.236 308.033 267.444C308.153 267.511 308.288 267.545 308.415 267.545C308.704 267.545 308.979 267.391 309.126 267.122C310.729 264.171 312.212 261.105 313.526 258.007C314.848 254.888 316.028 251.661 317.041 248.428C318.054 245.155 318.919 241.794 319.61 238.434Z" fill="#830016" fill-opacity="0.3"/>
<path d="M206.954 115.295C210.415 114.94 213.944 114.765 217.438 114.765C217.888 114.765 218.25 114.403 218.25 113.954C218.25 113.504 217.888 113.142 217.438 113.142C213.89 113.142 210.308 113.323 206.793 113.679C206.351 113.726 206.029 114.121 206.069 114.564C206.109 114.98 206.465 115.289 206.874 115.289C206.901 115.295 206.927 115.295 206.954 115.295Z" fill="#830016" fill-opacity="0.3"/>
<path d="M168.152 127.268C168.279 127.268 168.413 127.235 168.534 127.168C171.445 125.585 174.47 124.129 177.509 122.841C180.581 121.54 183.754 120.38 186.94 119.387C187.362 119.253 187.604 118.803 187.47 118.374C187.336 117.951 186.893 117.71 186.457 117.844C183.224 118.85 179.997 120.038 176.878 121.359C173.793 122.667 170.727 124.149 167.763 125.759C167.367 125.974 167.226 126.463 167.441 126.852C167.588 127.121 167.87 127.268 168.152 127.268Z" fill="#830016" fill-opacity="0.3"/>
<path d="M138.232 152.167C140.318 149.638 142.552 147.19 144.866 144.869C147.18 142.555 149.635 140.321 152.164 138.235C152.506 137.954 152.56 137.444 152.271 137.095C151.983 136.753 151.473 136.699 151.131 136.988C148.569 139.107 146.073 141.374 143.719 143.722C141.365 146.076 139.104 148.565 136.985 151.134C134.858 153.71 132.839 156.406 130.975 159.163C129.096 161.933 127.339 164.831 125.743 167.762C125.528 168.151 125.676 168.648 126.065 168.856C126.185 168.923 126.319 168.956 126.447 168.956C126.735 168.956 127.01 168.802 127.158 168.534C128.727 165.643 130.458 162.799 132.309 160.069C134.154 157.359 136.146 154.702 138.232 152.167Z" fill="#830016" fill-opacity="0.3"/>
<path d="M116.853 196.773C117.53 193.466 118.382 190.159 119.388 186.939C119.523 186.51 119.281 186.06 118.859 185.926C118.429 185.792 117.98 186.034 117.846 186.456C116.826 189.723 115.961 193.083 115.27 196.444C114.572 199.845 114.043 203.319 113.687 206.787C113.331 210.302 113.15 213.884 113.15 217.432C113.15 220.987 113.331 224.569 113.687 228.077C114.043 231.545 114.572 235.026 115.27 238.42C115.961 241.781 116.826 245.141 117.846 248.408C118.852 251.641 120.032 254.867 121.361 257.986C122.675 261.085 124.151 264.151 125.761 267.102C127.357 270.033 129.115 272.931 130.993 275.701C132.857 278.458 134.876 281.161 137.003 283.73C139.122 286.292 141.389 288.788 143.737 291.142C146.091 293.496 148.58 295.764 151.149 297.877C153.718 299.996 156.421 302.022 159.178 303.887C159.319 303.981 159.473 304.027 159.627 304.027C159.889 304.027 160.144 303.9 160.298 303.672C160.546 303.303 160.452 302.8 160.084 302.552C157.367 300.714 154.704 298.722 152.175 296.636C149.646 294.55 147.198 292.323 144.877 290.002C142.563 287.688 140.33 285.233 138.244 282.704C136.151 280.168 134.165 277.512 132.327 274.796C130.483 272.066 128.752 269.222 127.176 266.331C125.593 263.426 124.137 260.408 122.843 257.356C121.542 254.284 120.381 251.111 119.388 247.925C118.389 244.712 117.53 241.398 116.853 238.092C116.169 234.744 115.646 231.323 115.297 227.909C114.948 224.448 114.767 220.927 114.767 217.425C114.767 213.931 114.948 210.402 115.297 206.941C115.646 203.541 116.169 200.12 116.853 196.773Z" fill="#830016" fill-opacity="0.3"/>
<path d="M186.463 317.041C189.729 318.06 193.09 318.926 196.45 319.616C199.858 320.314 203.339 320.844 206.794 321.199C206.82 321.199 206.847 321.206 206.874 321.206C207.283 321.206 207.632 320.898 207.679 320.482C207.726 320.039 207.404 319.643 206.955 319.596C203.547 319.248 200.126 318.724 196.772 318.04C193.466 317.363 190.159 316.511 186.939 315.505C183.753 314.512 180.58 313.352 177.508 312.05C177.099 311.876 176.623 312.07 176.448 312.48C176.274 312.889 176.468 313.365 176.878 313.539C180.003 314.847 183.223 316.028 186.463 317.041Z" fill="#830016" fill-opacity="0.3"/>
<path d="M227.599 308.515C227.552 308.073 227.163 307.751 226.713 307.791C220.589 308.415 214.291 308.415 208.167 307.791C205.155 307.482 202.123 307.019 199.159 306.409C196.234 305.812 193.309 305.054 190.465 304.169C187.648 303.29 184.844 302.264 182.128 301.11C179.431 299.97 176.762 298.682 174.193 297.28C171.637 295.892 169.115 294.355 166.707 292.726C164.312 291.109 161.958 289.345 159.711 287.494C157.477 285.649 155.304 283.67 153.258 281.624C151.206 279.572 149.234 277.405 147.396 275.172C145.551 272.938 143.787 270.584 142.164 268.176C140.527 265.754 138.998 263.232 137.609 260.69C136.208 258.114 134.92 255.445 133.779 252.755C133.605 252.346 133.129 252.151 132.72 252.326C132.31 252.5 132.116 252.976 132.29 253.385C133.451 256.122 134.759 258.845 136.187 261.461C137.596 264.057 139.159 266.619 140.822 269.081C142.479 271.529 144.27 273.924 146.148 276.198C148.02 278.472 150.032 280.679 152.118 282.765C154.197 284.844 156.411 286.856 158.685 288.735C160.972 290.619 163.367 292.41 165.802 294.06C168.257 295.724 170.826 297.28 173.421 298.695C176.037 300.117 178.761 301.432 181.497 302.592C184.261 303.766 187.118 304.813 189.989 305.705C192.887 306.61 195.865 307.375 198.843 307.985C201.855 308.602 204.94 309.079 208.013 309.387C211.132 309.703 214.304 309.864 217.45 309.864C220.596 309.864 223.769 309.703 226.888 309.387C227.317 309.354 227.646 308.958 227.599 308.515Z" fill="#830016" fill-opacity="0.3"/>
<path d="M298.702 261.468C300.131 258.845 301.439 256.128 302.599 253.392C303.773 250.628 304.819 247.771 305.712 244.9C306.617 241.995 307.382 239.017 307.992 236.046C308.086 235.61 307.798 235.181 307.362 235.093C306.926 235.006 306.496 235.288 306.409 235.724C305.812 238.642 305.054 241.566 304.169 244.417C303.29 247.234 302.264 250.045 301.11 252.755C299.97 255.444 298.682 258.114 297.28 260.69C295.892 263.239 294.362 265.754 292.726 268.175C291.102 270.583 289.338 272.931 287.494 275.171C285.649 277.405 283.677 279.572 281.631 281.624C279.585 283.67 277.412 285.642 275.178 287.487C272.931 289.338 270.577 291.102 268.182 292.719C265.768 294.349 263.246 295.885 260.697 297.273C260.301 297.488 260.16 297.977 260.375 298.366C260.522 298.635 260.797 298.789 261.086 298.789C261.213 298.789 261.347 298.755 261.468 298.688C264.071 297.273 266.633 295.717 269.088 294.053C271.523 292.403 273.924 290.612 276.205 288.728C278.479 286.849 280.692 284.837 282.772 282.758C284.858 280.672 286.87 278.458 288.741 276.191C290.619 273.917 292.41 271.522 294.067 269.074C295.731 266.626 297.293 264.057 298.702 261.468Z" fill="#830016" fill-opacity="0.3"/>
<path d="M306.415 199.161C307.025 202.126 307.488 205.157 307.79 208.169C308.098 211.235 308.259 214.354 308.259 217.446C308.259 217.895 308.622 218.257 309.071 218.257C309.52 218.257 309.883 217.895 309.883 217.446C309.883 214.307 309.722 211.127 309.406 208.008C309.091 204.943 308.622 201.857 308.004 198.839C307.394 195.867 306.629 192.889 305.724 189.985C305.59 189.562 305.147 189.321 304.711 189.455C304.288 189.589 304.047 190.038 304.181 190.468C305.06 193.312 305.811 196.243 306.415 199.161Z" fill="#830016" fill-opacity="0.3"/>
<path d="M298.702 173.416C297.293 170.821 295.73 168.258 294.067 165.797C292.41 163.348 290.619 160.954 288.741 158.68C286.87 156.406 284.857 154.199 282.771 152.113C282.456 151.798 281.946 151.798 281.631 152.113C281.316 152.428 281.316 152.938 281.631 153.253C283.684 155.306 285.656 157.472 287.493 159.706C289.338 161.94 291.102 164.294 292.725 166.702C294.362 169.124 295.891 171.646 297.28 174.188C297.427 174.456 297.702 174.61 297.991 174.61C298.118 174.61 298.252 174.577 298.373 174.51C298.769 174.295 298.916 173.805 298.702 173.416Z" fill="#830016" fill-opacity="0.3"/>
<path d="M198.207 127.838C198.294 128.274 198.723 128.556 199.159 128.469C202.124 127.859 205.156 127.396 208.167 127.087C214.291 126.463 220.59 126.463 226.714 127.087C229.726 127.396 232.757 127.859 235.722 128.469C238.647 129.066 241.571 129.824 244.415 130.709C247.232 131.588 250.036 132.614 252.753 133.768C255.449 134.908 258.119 136.196 260.688 137.598C263.244 138.986 265.766 140.523 268.174 142.152C268.314 142.246 268.469 142.293 268.623 142.293C268.885 142.293 269.14 142.166 269.294 141.938C269.542 141.569 269.448 141.066 269.079 140.818C266.624 139.154 264.055 137.598 261.459 136.183C258.843 134.761 256.12 133.446 253.383 132.286C250.62 131.112 247.762 130.065 244.892 129.173C241.994 128.268 239.016 127.503 236.037 126.893C233.026 126.276 229.94 125.799 226.868 125.491C220.637 124.854 214.224 124.854 207.993 125.491C204.928 125.806 201.842 126.276 198.824 126.893C198.394 126.973 198.113 127.402 198.207 127.838Z" fill="#830016" fill-opacity="0.3"/>
<path d="M158.672 146.137C158.33 146.418 158.276 146.928 158.565 147.277C158.726 147.471 158.954 147.572 159.188 147.572C159.369 147.572 159.551 147.512 159.705 147.384C161.952 145.533 164.306 143.769 166.701 142.152C169.116 140.522 171.638 138.986 174.187 137.598C176.762 136.196 179.432 134.908 182.122 133.768C182.531 133.593 182.725 133.117 182.551 132.708C182.377 132.299 181.9 132.104 181.491 132.279C178.748 133.439 176.031 134.754 173.415 136.176C170.813 137.591 168.25 139.147 165.795 140.811C163.354 142.461 160.959 144.252 158.672 146.137Z" fill="#830016" fill-opacity="0.3"/>
<path d="M132.707 182.553C132.808 182.599 132.915 182.62 133.022 182.62C133.337 182.62 133.633 182.432 133.767 182.123C134.907 179.433 136.195 176.764 137.597 174.188C137.811 173.799 137.664 173.303 137.275 173.095C136.879 172.88 136.389 173.028 136.175 173.417C134.746 176.039 133.438 178.756 132.278 181.493C132.103 181.902 132.298 182.378 132.707 182.553Z" fill="#830016" fill-opacity="0.3"/>
<path d="M128.47 199.161C128.558 198.725 128.276 198.295 127.84 198.208C127.404 198.121 126.975 198.403 126.887 198.839C126.27 201.857 125.794 204.943 125.486 208.008C125.17 211.127 125.009 214.3 125.009 217.446C125.009 220.585 125.17 223.764 125.486 226.883C125.801 229.949 126.27 233.034 126.887 236.053C126.968 236.435 127.303 236.696 127.679 236.696C127.733 236.696 127.786 236.69 127.84 236.683C128.276 236.596 128.558 236.167 128.47 235.731C127.86 232.766 127.397 229.734 127.095 226.722C126.787 223.657 126.626 220.538 126.626 217.446C126.626 214.36 126.787 211.241 127.095 208.176C127.397 205.157 127.86 202.125 128.47 199.161Z" fill="#830016" fill-opacity="0.3"/>
<path d="M142.711 248.985C143.731 251.393 144.878 253.774 146.132 256.075C147.373 258.355 148.741 260.609 150.204 262.762C151.652 264.909 153.222 267.008 154.879 269.007C156.522 270.999 158.286 272.938 160.117 274.769C161.949 276.6 163.887 278.364 165.879 280.007C167.871 281.651 169.971 283.227 172.124 284.683C174.277 286.138 176.524 287.507 178.812 288.748C181.112 289.995 183.5 291.149 185.902 292.168C188.33 293.195 190.838 294.12 193.354 294.898C195.903 295.69 198.512 296.367 201.121 296.904C203.764 297.447 206.467 297.863 209.164 298.138C211.894 298.42 214.684 298.561 217.447 298.561C220.211 298.561 223.001 298.42 225.731 298.138C226.174 298.091 226.496 297.695 226.456 297.253C226.409 296.81 226.026 296.488 225.57 296.528C220.218 297.072 214.691 297.072 209.338 296.528C206.695 296.26 204.046 295.851 201.456 295.321C198.901 294.798 196.339 294.134 193.843 293.362C191.382 292.598 188.927 291.692 186.545 290.686C184.191 289.687 181.85 288.56 179.596 287.332C177.356 286.111 175.149 284.77 173.043 283.348C170.937 281.919 168.878 280.376 166.919 278.767C164.96 277.15 163.062 275.426 161.271 273.629C159.474 271.831 157.75 269.933 156.133 267.981C154.517 266.022 152.974 263.963 151.552 261.857C150.123 259.744 148.782 257.537 147.568 255.303C146.34 253.05 145.213 250.715 144.214 248.354C143.208 245.98 142.309 243.525 141.537 241.056C141.403 240.634 140.961 240.392 140.525 240.526C140.102 240.661 139.86 241.11 139.995 241.539C140.766 244.055 141.685 246.563 142.711 248.985Z" fill="#830016" fill-opacity="0.3"/>
<path d="M262.981 283.563C262.733 283.194 262.23 283.093 261.861 283.348C259.748 284.777 257.548 286.118 255.308 287.332C253.054 288.56 250.713 289.687 248.359 290.686C245.978 291.692 243.523 292.598 241.061 293.363C240.638 293.497 240.397 293.946 240.531 294.375C240.638 294.724 240.96 294.946 241.302 294.946C241.383 294.946 241.463 294.932 241.544 294.912C244.059 294.127 246.561 293.208 248.996 292.182C251.397 291.162 253.785 290.015 256.086 288.761C258.373 287.52 260.62 286.152 262.773 284.696C263.129 284.435 263.23 283.932 262.981 283.563Z" fill="#830016" fill-opacity="0.3"/>
<path d="M283.346 261.857C281.924 263.956 280.381 266.015 278.764 267.981C277.155 269.933 275.424 271.831 273.626 273.629C273.311 273.944 273.311 274.454 273.626 274.769C273.787 274.93 273.989 275.004 274.196 275.004C274.404 275.004 274.612 274.923 274.767 274.769C276.598 272.938 278.362 270.999 280.005 269.007C281.655 267.008 283.232 264.902 284.68 262.762C284.929 262.393 284.835 261.89 284.466 261.642C284.097 261.387 283.594 261.488 283.346 261.857Z" fill="#830016" fill-opacity="0.3"/>
<path d="M295.319 233.443C295.232 233.879 295.514 234.308 295.95 234.396C296.004 234.409 296.057 234.409 296.111 234.409C296.487 234.409 296.822 234.147 296.902 233.765C297.446 231.122 297.862 228.412 298.137 225.716C298.418 222.979 298.559 220.196 298.559 217.432C298.559 214.675 298.418 211.885 298.137 209.148C297.862 206.452 297.446 203.748 296.902 201.099C296.366 198.483 295.695 195.867 294.897 193.332C294.763 192.902 294.307 192.667 293.884 192.802C293.455 192.936 293.22 193.385 293.354 193.814C294.132 196.296 294.79 198.859 295.319 201.428C295.849 204.017 296.259 206.673 296.527 209.316C296.802 211.999 296.936 214.729 296.936 217.432C296.936 220.135 296.795 222.872 296.527 225.548C296.259 228.198 295.856 230.854 295.319 233.443Z" fill="#830016" fill-opacity="0.3"/>
<path d="M278.874 165.763C278.532 166.045 278.478 166.555 278.767 166.903C280.383 168.862 281.926 170.921 283.348 173.028C284.777 175.14 286.118 177.347 287.332 179.581C287.48 179.849 287.755 180.003 288.043 180.003C288.171 180.003 288.305 179.97 288.426 179.903C288.821 179.688 288.962 179.199 288.748 178.81C287.507 176.529 286.138 174.275 284.676 172.122C283.227 169.976 281.658 167.876 280.001 165.877C279.726 165.522 279.216 165.475 278.874 165.763Z" fill="#830016" fill-opacity="0.3"/>
<path d="M137.464 210.047C137.49 210.047 137.517 210.054 137.544 210.054C137.953 210.054 138.302 209.745 138.349 209.329C138.617 206.687 139.026 204.037 139.556 201.441C140.086 198.872 140.744 196.31 141.522 193.828C142.293 191.36 143.192 188.905 144.198 186.53C145.197 184.169 146.324 181.835 147.552 179.581C148.766 177.341 150.107 175.134 151.536 173.028C152.958 170.928 154.501 168.869 156.117 166.904C157.727 164.952 159.458 163.053 161.255 161.256C163.046 159.465 164.951 157.734 166.903 156.118C168.855 154.508 170.914 152.965 173.027 151.536C175.14 150.108 177.34 148.766 179.581 147.552C181.834 146.325 184.175 145.198 186.53 144.198C188.911 143.192 191.366 142.287 193.828 141.522C196.323 140.744 198.885 140.087 201.441 139.563C204.03 139.033 206.686 138.624 209.322 138.356C214.675 137.813 220.202 137.813 225.555 138.356C228.197 138.624 230.847 139.033 233.436 139.563C235.992 140.087 238.554 140.751 241.049 141.522C243.511 142.287 245.966 143.192 248.347 144.198C250.701 145.198 253.042 146.325 255.296 147.552C257.536 148.773 259.743 150.114 261.849 151.536C262.218 151.791 262.721 151.691 262.97 151.322C263.218 150.953 263.124 150.45 262.755 150.202C260.602 148.746 258.355 147.378 256.067 146.137C253.767 144.889 251.379 143.736 248.978 142.716C246.549 141.69 244.041 140.764 241.525 139.986C238.976 139.194 236.367 138.517 233.758 137.98C231.115 137.437 228.412 137.021 225.716 136.746C220.256 136.189 214.614 136.189 209.154 136.746C206.458 137.021 203.755 137.437 201.112 137.98C198.503 138.517 195.887 139.188 193.345 139.986C190.829 140.771 188.327 141.69 185.892 142.716C183.491 143.736 181.103 144.883 178.803 146.137C176.515 147.378 174.268 148.746 172.115 150.202C169.962 151.657 167.862 153.227 165.87 154.877C163.878 156.527 161.94 158.284 160.108 160.116C158.277 161.947 156.513 163.885 154.87 165.877C153.22 167.876 151.643 169.982 150.195 172.122C148.739 174.275 147.371 176.529 146.123 178.81C144.875 181.104 143.722 183.492 142.702 185.9C141.676 188.321 140.757 190.83 139.972 193.352C139.181 195.887 138.51 198.503 137.967 201.119C137.423 203.762 137.007 206.472 136.732 209.168C136.699 209.604 137.021 210 137.464 210.047Z" fill="#830016" fill-opacity="0.3"/>
<path d="M238.331 284.609C240.511 283.931 242.677 283.133 244.79 282.241C246.876 281.356 248.942 280.356 250.941 279.276C252.927 278.196 254.872 277.009 256.737 275.748C258.595 274.494 260.419 273.125 262.15 271.697C263.88 270.268 265.557 268.745 267.147 267.156C267.462 266.84 267.462 266.331 267.147 266.015C266.831 265.7 266.322 265.7 266.006 266.015C264.457 267.565 262.814 269.061 261.123 270.456C259.426 271.858 257.649 273.186 255.831 274.413C254.007 275.647 252.102 276.808 250.163 277.861C248.218 278.921 246.192 279.893 244.153 280.759C242.094 281.631 239.967 282.409 237.841 283.073C235.688 283.744 233.475 284.314 231.261 284.77C229.021 285.233 226.727 285.581 224.446 285.816C224.003 285.863 223.681 286.259 223.722 286.702C223.762 287.117 224.117 287.426 224.527 287.426C224.553 287.426 224.58 287.426 224.607 287.419C226.941 287.185 229.289 286.822 231.583 286.353C233.864 285.883 236.131 285.3 238.331 284.609Z" fill="#830016" fill-opacity="0.3"/>
<path d="M284.762 231.27C284.306 233.484 283.736 235.697 283.065 237.85C282.401 239.983 281.623 242.11 280.751 244.162C279.886 246.201 278.913 248.22 277.853 250.165C276.8 252.097 275.64 254.009 274.406 255.833C274.157 256.202 274.251 256.705 274.62 256.954C274.761 257.047 274.915 257.094 275.07 257.094C275.331 257.094 275.586 256.967 275.74 256.739C277.001 254.867 278.189 252.922 279.269 250.937C280.355 248.945 281.348 246.872 282.233 244.793C283.125 242.693 283.924 240.52 284.601 238.333C285.285 236.126 285.869 233.859 286.338 231.599C286.808 229.305 287.17 226.957 287.405 224.623C287.646 222.248 287.767 219.834 287.767 217.439C287.767 215.044 287.646 212.63 287.405 210.255C287.17 207.921 286.808 205.573 286.338 203.279C285.876 201.012 285.292 198.745 284.601 196.545C283.917 194.358 283.119 192.185 282.233 190.085C281.348 187.999 280.355 185.933 279.269 183.941C279.054 183.552 278.564 183.404 278.168 183.619C277.773 183.834 277.632 184.323 277.847 184.712C278.906 186.658 279.879 188.683 280.744 190.716C281.616 192.768 282.394 194.895 283.058 197.028C283.729 199.181 284.299 201.394 284.755 203.608C285.211 205.848 285.567 208.142 285.795 210.423C286.03 212.737 286.151 215.098 286.151 217.439C286.151 219.78 286.03 222.141 285.795 224.455C285.574 226.736 285.218 229.03 284.762 231.27Z" fill="#830016" fill-opacity="0.3"/>
<path d="M267.155 167.729C265.565 166.139 263.888 164.61 262.158 163.187C261.816 162.906 261.306 162.953 261.017 163.295C260.736 163.637 260.783 164.147 261.125 164.435C262.815 165.83 264.458 167.319 266.008 168.876C267.557 170.425 269.053 172.068 270.448 173.759C270.609 173.953 270.837 174.054 271.072 174.054C271.253 174.054 271.434 173.993 271.589 173.866C271.931 173.584 271.984 173.075 271.696 172.726C270.267 170.995 268.738 169.312 267.155 167.729Z" fill="#830016" fill-opacity="0.3"/>
<path d="M244.161 154.126C246.2 154.991 248.219 155.963 250.171 157.023C250.292 157.09 250.426 157.124 250.554 157.124C250.842 157.124 251.117 156.97 251.265 156.701C251.479 156.312 251.332 155.816 250.943 155.608C248.951 154.521 246.885 153.529 244.792 152.643C242.679 151.751 240.506 150.953 238.332 150.275C237.903 150.141 237.454 150.383 237.32 150.805C237.185 151.235 237.427 151.684 237.85 151.818C239.976 152.476 242.102 153.254 244.161 154.126Z" fill="#830016" fill-opacity="0.3"/>
<path d="M225.34 148.35C225.387 147.907 225.065 147.512 224.616 147.465C219.88 146.982 214.99 146.982 210.255 147.465C207.921 147.7 205.573 148.062 203.279 148.531C201.012 148.994 198.745 149.578 196.545 150.269C194.365 150.946 192.198 151.744 190.085 152.636C189.676 152.811 189.481 153.287 189.656 153.696C189.783 154.005 190.085 154.192 190.4 154.192C190.508 154.192 190.615 154.172 190.716 154.125C192.775 153.253 194.901 152.475 197.028 151.811C199.181 151.141 201.394 150.57 203.608 150.114C205.848 149.651 208.142 149.303 210.423 149.068C215.051 148.598 219.827 148.598 224.455 149.068C224.918 149.122 225.3 148.8 225.34 148.35Z" fill="#830016" fill-opacity="0.3"/>
<path d="M160.472 179.044C161.699 177.227 163.034 175.449 164.429 173.752C165.824 172.062 167.313 170.418 168.869 168.869C169.185 168.554 169.185 168.044 168.869 167.729C168.554 167.413 168.044 167.413 167.729 167.729C166.139 169.318 164.61 170.995 163.188 172.726C161.753 174.463 160.391 176.281 159.137 178.139C158.889 178.508 158.982 179.011 159.351 179.259C159.492 179.353 159.646 179.4 159.801 179.4C160.062 179.4 160.317 179.279 160.472 179.044Z" fill="#830016" fill-opacity="0.3"/>
<path d="M153.696 189.656C153.286 189.481 152.81 189.676 152.636 190.085C151.744 192.185 150.946 194.358 150.268 196.545C149.584 198.751 149 201.019 148.531 203.279C148.061 205.573 147.699 207.921 147.464 210.255C147.223 212.629 147.102 215.044 147.102 217.439C147.102 217.888 147.464 218.25 147.914 218.25C148.363 218.25 148.725 217.888 148.725 217.439C148.725 215.098 148.846 212.737 149.081 210.423C149.316 208.142 149.664 205.848 150.12 203.608C150.577 201.394 151.147 199.181 151.817 197.028C152.482 194.895 153.26 192.768 154.132 190.716C154.299 190.306 154.112 189.83 153.696 189.656Z" fill="#830016" fill-opacity="0.3"/>
<path d="M155.601 250.943C156.681 252.922 157.862 254.874 159.129 256.745C160.384 258.603 161.752 260.428 163.181 262.158C164.609 263.889 166.139 265.566 167.722 267.156C169.312 268.745 170.988 270.275 172.719 271.697C174.456 273.132 176.274 274.494 178.132 275.748C179.997 277.009 181.949 278.196 183.927 279.276C185.92 280.363 187.986 281.356 190.078 282.241C192.191 283.133 194.364 283.931 196.538 284.609C198.745 285.293 201.012 285.883 203.272 286.346C205.566 286.816 207.914 287.178 210.248 287.413C210.275 287.413 210.302 287.419 210.329 287.419C210.738 287.419 211.087 287.111 211.133 286.695C211.18 286.252 210.858 285.856 210.409 285.809C208.128 285.575 205.834 285.226 203.594 284.763C201.381 284.307 199.167 283.737 197.014 283.066C194.888 282.402 192.768 281.624 190.702 280.752C188.663 279.887 186.644 278.914 184.692 277.854C182.754 276.801 180.849 275.641 179.024 274.406C177.206 273.179 175.429 271.844 173.732 270.449C172.042 269.054 170.398 267.565 168.849 266.009C167.299 264.459 165.803 262.816 164.408 261.125C163.006 259.428 161.678 257.651 160.451 255.833C159.217 254.009 158.056 252.097 157.003 250.165C155.943 248.22 154.971 246.194 154.105 244.162C153.931 243.753 153.455 243.558 153.046 243.732C152.636 243.907 152.442 244.383 152.616 244.792C153.522 246.878 154.521 248.944 155.601 250.943Z" fill="#830016" fill-opacity="0.3"/>
<path d="M235.285 274.829C237.143 274.253 239.001 273.568 240.806 272.804C242.59 272.046 244.361 271.194 246.058 270.268C247.748 269.349 249.418 268.336 251.015 267.257C252.604 266.183 254.161 265.016 255.643 263.795C257.125 262.575 258.561 261.267 259.916 259.912C261.277 258.55 262.585 257.115 263.793 255.646C265.013 254.17 266.181 252.614 267.254 251.017C267.502 250.648 267.408 250.145 267.039 249.897C266.67 249.649 266.167 249.743 265.919 250.112C264.873 251.661 263.739 253.177 262.552 254.613C261.371 256.048 260.097 257.443 258.775 258.765C257.461 260.079 256.059 261.354 254.617 262.541C253.175 263.728 251.659 264.862 250.116 265.908C248.566 266.955 246.943 267.947 245.293 268.84C243.643 269.738 241.919 270.57 240.182 271.308C238.431 272.053 236.62 272.717 234.809 273.28C232.978 273.85 231.093 274.34 229.208 274.722C227.303 275.111 225.351 275.413 223.406 275.608C221.441 275.809 219.429 275.909 217.436 275.909C216.987 275.909 216.625 276.272 216.625 276.721C216.625 277.17 216.987 277.533 217.436 277.533C219.482 277.533 221.548 277.425 223.574 277.224C225.573 277.023 227.578 276.714 229.537 276.312C231.469 275.916 233.407 275.42 235.285 274.829Z" fill="#830016" fill-opacity="0.3"/>
<path d="M276.313 205.345C275.917 203.413 275.414 201.475 274.83 199.59C274.247 197.718 273.563 195.86 272.805 194.069C272.63 193.66 272.154 193.466 271.745 193.64C271.336 193.814 271.141 194.291 271.316 194.7C272.053 196.444 272.717 198.248 273.288 200.066C273.858 201.897 274.347 203.782 274.73 205.667C275.119 207.579 275.421 209.53 275.615 211.469C275.816 213.441 275.917 215.453 275.917 217.439C275.917 219.424 275.816 221.436 275.615 223.409C275.414 225.347 275.119 227.299 274.73 229.211C274.341 231.095 273.858 232.974 273.288 234.811C272.717 236.636 272.06 238.44 271.316 240.184C271.141 240.593 271.336 241.07 271.745 241.244C271.845 241.291 271.953 241.311 272.06 241.311C272.375 241.311 272.67 241.123 272.805 240.822C273.563 239.031 274.247 237.173 274.83 235.301C275.421 233.416 275.917 231.478 276.313 229.546C276.715 227.581 277.024 225.575 277.225 223.583C277.433 221.557 277.533 219.491 277.533 217.445C277.533 215.4 277.426 213.34 277.225 211.308C277.024 209.316 276.715 207.31 276.313 205.345Z" fill="#830016" fill-opacity="0.3"/>
<path d="M245.288 166.025C246.939 166.924 248.555 167.91 250.111 168.956C251.661 170.003 253.177 171.136 254.612 172.324C256.054 173.511 257.449 174.785 258.771 176.1C260.092 177.428 261.367 178.823 262.547 180.259C263.734 181.694 264.868 183.21 265.914 184.759C266.069 184.988 266.323 185.115 266.585 185.115C266.739 185.115 266.9 185.068 267.035 184.974C267.403 184.726 267.504 184.223 267.249 183.854C266.169 182.264 265.009 180.701 263.788 179.226C262.574 177.757 261.266 176.315 259.911 174.953C258.556 173.598 257.121 172.297 255.638 171.069C254.156 169.848 252.6 168.681 251.01 167.608C249.414 166.528 247.75 165.515 246.053 164.596C244.356 163.671 242.585 162.819 240.801 162.061C238.997 161.296 237.139 160.619 235.281 160.035C234.851 159.908 234.402 160.142 234.268 160.565C234.134 160.994 234.375 161.444 234.798 161.578C236.609 162.141 238.413 162.805 240.164 163.543C241.921 164.301 243.638 165.126 245.288 166.025Z" fill="#830016" fill-opacity="0.3"/>
<path d="M217.436 157.345C216.987 157.345 216.625 157.707 216.625 158.157C216.625 158.606 216.987 158.968 217.436 158.968C219.429 158.968 221.441 159.069 223.406 159.27C223.433 159.27 223.46 159.277 223.487 159.277C223.896 159.277 224.245 158.968 224.292 158.553C224.339 158.11 224.017 157.714 223.567 157.667C221.548 157.446 219.489 157.345 217.436 157.345Z" fill="#830016" fill-opacity="0.3"/>
<path d="M183.858 167.621C182.268 168.694 180.712 169.861 179.229 171.082C177.747 172.303 176.312 173.611 174.957 174.966C173.595 176.328 172.287 177.763 171.08 179.239C170.798 179.581 170.845 180.091 171.187 180.379C171.334 180.506 171.522 180.567 171.703 180.567C171.938 180.567 172.166 180.466 172.327 180.272C173.508 178.836 174.782 177.441 176.104 176.12C177.418 174.805 178.82 173.531 180.262 172.343C181.704 171.156 183.22 170.022 184.763 168.976C186.313 167.93 187.936 166.937 189.586 166.045C191.236 165.146 192.96 164.314 194.697 163.576C195.106 163.402 195.301 162.926 195.126 162.517C194.952 162.107 194.476 161.913 194.067 162.087C192.282 162.845 190.512 163.697 188.814 164.623C187.124 165.528 185.454 166.541 183.858 167.621Z" fill="#830016" fill-opacity="0.3"/>
<path d="M157.655 211.308C157.447 213.334 157.346 215.4 157.346 217.445C157.346 219.491 157.454 221.551 157.655 223.583C157.856 225.575 158.165 227.581 158.567 229.546C158.963 231.478 159.466 233.416 160.05 235.301C160.633 237.173 161.317 239.031 162.075 240.822C162.833 242.606 163.685 244.37 164.611 246.074C165.53 247.764 166.543 249.434 167.622 251.031C168.702 252.62 169.863 254.183 171.084 255.659C172.298 257.128 173.606 258.57 174.961 259.932C176.316 261.287 177.751 262.588 179.233 263.815C180.716 265.036 182.272 266.203 183.862 267.276C185.458 268.356 187.122 269.369 188.819 270.288C188.939 270.355 189.073 270.389 189.201 270.389C189.489 270.389 189.764 270.234 189.912 269.966C190.127 269.577 189.979 269.081 189.59 268.873C187.94 267.974 186.323 266.988 184.767 265.942C183.218 264.895 181.702 263.762 180.266 262.574C178.824 261.387 177.429 260.113 176.108 258.798C174.786 257.47 173.512 256.075 172.331 254.639C171.144 253.204 170.01 251.688 168.964 250.138C167.911 248.582 166.925 246.959 166.033 245.316C165.134 243.659 164.302 241.942 163.564 240.204C162.827 238.46 162.162 236.656 161.592 234.838C161.022 233.007 160.533 231.122 160.15 229.237C159.761 227.326 159.459 225.374 159.265 223.435C159.064 221.463 158.963 219.451 158.963 217.466C158.963 215.48 159.064 213.468 159.265 211.496C159.466 209.557 159.761 207.605 160.15 205.694C160.539 203.809 161.022 201.931 161.592 200.093C161.726 199.664 161.485 199.214 161.062 199.08C160.633 198.946 160.184 199.187 160.05 199.61C159.459 201.495 158.963 203.433 158.567 205.365C158.165 207.31 157.856 209.316 157.655 211.308Z" fill="#830016" fill-opacity="0.3"/>
<path d="M205.343 276.312C205.397 276.325 205.451 276.325 205.504 276.325C205.88 276.325 206.215 276.063 206.296 275.681C206.383 275.245 206.101 274.816 205.665 274.729C203.787 274.346 201.902 273.857 200.064 273.287C199.635 273.152 199.186 273.394 199.052 273.816C198.917 274.246 199.159 274.695 199.581 274.829C201.473 275.42 203.411 275.916 205.343 276.312Z" fill="#830016" fill-opacity="0.3"/>
<path d="M217.438 267.833C219.155 267.833 220.886 267.746 222.583 267.572C224.26 267.397 225.937 267.142 227.58 266.807C229.203 266.472 230.827 266.056 232.41 265.559C233.972 265.07 235.529 264.5 237.038 263.862C237.447 263.688 237.642 263.212 237.467 262.803C237.293 262.393 236.817 262.199 236.407 262.373C234.945 262.99 233.443 263.547 231.927 264.017C230.397 264.493 228.828 264.895 227.258 265.217C225.668 265.546 224.039 265.794 222.422 265.955C220.779 266.123 219.102 266.21 217.445 266.21C216.996 266.21 216.633 266.572 216.633 267.022C216.633 267.471 216.996 267.833 217.438 267.833Z" fill="#830016" fill-opacity="0.3"/>
<path d="M245.596 259.214C246.931 258.315 248.232 257.336 249.48 256.309C250.721 255.29 251.921 254.19 253.062 253.056C254.195 251.916 255.295 250.715 256.315 249.474C257.341 248.234 258.314 246.926 259.219 245.597C260.125 244.263 260.977 242.861 261.748 241.439C262.526 240.003 263.244 238.528 263.874 237.032C264.511 235.523 265.082 233.966 265.571 232.404C266.068 230.821 266.484 229.197 266.812 227.574C266.899 227.138 266.618 226.709 266.182 226.622C265.746 226.534 265.316 226.816 265.229 227.252C264.907 228.815 264.505 230.391 264.029 231.921C263.559 233.436 263.002 234.946 262.385 236.401C261.775 237.843 261.084 239.279 260.326 240.661C259.581 242.036 258.756 243.391 257.878 244.685C257.006 245.973 256.06 247.241 255.067 248.441C254.074 249.642 253.015 250.809 251.915 251.909C250.815 253.009 249.647 254.069 248.447 255.062C247.246 256.055 245.978 257 244.69 257.872C244.322 258.121 244.221 258.624 244.476 258.993C244.63 259.221 244.885 259.348 245.147 259.348C245.301 259.355 245.455 259.308 245.596 259.214Z" fill="#830016" fill-opacity="0.3"/>
<path d="M267.831 217.439C267.831 215.729 267.744 213.998 267.57 212.294C267.402 210.611 267.14 208.934 266.805 207.297C266.476 205.681 266.054 204.057 265.564 202.468C265.075 200.905 264.504 199.349 263.867 197.839C263.237 196.35 262.519 194.868 261.741 193.432C260.969 192.01 260.118 190.615 259.212 189.28C258.313 187.946 257.334 186.644 256.308 185.403C255.288 184.163 254.188 182.962 253.054 181.822C251.914 180.681 250.714 179.588 249.473 178.568C248.232 177.542 246.924 176.563 245.589 175.664C245.22 175.409 244.717 175.51 244.469 175.879C244.221 176.248 244.314 176.751 244.683 176.999C245.971 177.871 247.239 178.817 248.44 179.809C249.64 180.795 250.807 181.855 251.907 182.962C253.008 184.062 254.067 185.229 255.06 186.43C256.053 187.63 256.999 188.898 257.871 190.186C258.743 191.481 259.568 192.835 260.319 194.211C261.077 195.599 261.768 197.028 262.378 198.47C262.995 199.925 263.552 201.435 264.021 202.951C264.498 204.487 264.907 206.056 265.222 207.619C265.544 209.202 265.799 210.832 265.96 212.455C266.128 214.105 266.215 215.776 266.215 217.432C266.215 217.882 266.577 218.244 267.026 218.244C267.469 218.251 267.831 217.888 267.831 217.439Z" fill="#830016" fill-opacity="0.3"/>
<path d="M237.041 171.015C235.531 170.378 233.975 169.808 232.412 169.318C230.829 168.829 229.206 168.406 227.583 168.071C227.147 167.983 226.718 168.265 226.63 168.701C226.536 169.137 226.825 169.566 227.261 169.654C228.83 169.976 230.4 170.378 231.929 170.854C233.445 171.324 234.948 171.881 236.41 172.498C236.511 172.545 236.618 172.565 236.725 172.565C237.041 172.565 237.336 172.377 237.47 172.068C237.644 171.659 237.45 171.183 237.041 171.015Z" fill="#830016" fill-opacity="0.3"/>
<path d="M217.438 168.661C217.887 168.661 218.25 168.299 218.25 167.849C218.25 167.4 217.887 167.038 217.438 167.038C215.721 167.038 213.99 167.125 212.293 167.299C210.616 167.474 208.94 167.729 207.296 168.064C205.673 168.399 204.05 168.815 202.467 169.312C200.904 169.801 199.348 170.371 197.838 171.009C196.343 171.639 194.86 172.357 193.432 173.135C192.016 173.906 190.614 174.751 189.28 175.664C187.945 176.563 186.643 177.542 185.396 178.568C184.155 179.588 182.954 180.688 181.814 181.821C180.674 182.962 179.58 184.162 178.561 185.403C177.535 186.644 176.555 187.952 175.656 189.28C174.751 190.615 173.899 192.017 173.128 193.439C172.35 194.868 171.632 196.35 171.001 197.846C170.364 199.355 169.794 200.911 169.304 202.474C168.808 204.057 168.392 205.68 168.063 207.304C167.728 208.94 167.466 210.624 167.299 212.301C167.124 214.005 167.037 215.735 167.037 217.446C167.037 219.156 167.124 220.887 167.299 222.59C167.339 223.006 167.694 223.315 168.104 223.315C168.13 223.315 168.157 223.315 168.184 223.308C168.627 223.261 168.949 222.865 168.909 222.423C168.741 220.772 168.654 219.102 168.654 217.446C168.654 215.789 168.741 214.112 168.909 212.468C169.076 210.839 169.324 209.215 169.646 207.632C169.968 206.069 170.371 204.493 170.847 202.964C171.317 201.448 171.873 199.939 172.49 198.483C173.101 197.041 173.792 195.605 174.55 194.224C175.294 192.849 176.119 191.494 176.998 190.199C177.87 188.911 178.816 187.644 179.808 186.443C180.801 185.242 181.861 184.075 182.961 182.975C184.061 181.875 185.228 180.815 186.429 179.822C187.629 178.83 188.897 177.884 190.185 177.012C191.486 176.133 192.835 175.308 194.21 174.564C195.591 173.812 197.027 173.122 198.476 172.504C199.938 171.887 201.44 171.331 202.956 170.861C204.486 170.385 206.055 169.982 207.625 169.66C209.215 169.332 210.844 169.084 212.461 168.923C214.104 168.748 215.781 168.661 217.438 168.661Z" fill="#830016" fill-opacity="0.3"/>
<path d="M173.845 241.868C173.973 241.868 174.107 241.835 174.228 241.768C174.623 241.553 174.764 241.063 174.55 240.674C173.792 239.286 173.101 237.857 172.49 236.415C172.316 236.006 171.84 235.811 171.431 235.986C171.021 236.16 170.827 236.636 171.001 237.045C171.632 238.534 172.35 240.017 173.128 241.452C173.282 241.714 173.564 241.868 173.845 241.868Z" fill="#830016" fill-opacity="0.3"/>
<path d="M185.401 256.31C186.642 257.336 187.95 258.315 189.285 259.214C190.626 260.119 192.028 260.971 193.437 261.743C194.865 262.521 196.348 263.232 197.844 263.869C197.944 263.916 198.052 263.936 198.159 263.936C198.474 263.936 198.776 263.748 198.903 263.44C199.078 263.031 198.883 262.554 198.474 262.38C197.025 261.77 195.59 261.072 194.208 260.321C192.84 259.576 191.485 258.751 190.183 257.872C188.896 257 187.628 256.055 186.427 255.062C185.227 254.076 184.059 253.016 182.959 251.909C181.859 250.809 180.8 249.642 179.807 248.442C179.518 248.093 179.009 248.046 178.666 248.334C178.324 248.616 178.271 249.126 178.559 249.474C179.579 250.715 180.679 251.916 181.812 253.056C182.959 254.197 184.16 255.29 185.401 256.31Z" fill="#830016" fill-opacity="0.3"/>
</svg>
