<svg width="322" height="322" viewBox="0 0 322 322" fill="none" xmlns="http://www.w3.org/2000/svg">
<path d="M321.168 144.085C320.623 138.72 319.801 133.33 318.721 128.059C317.656 122.863 316.318 117.656 314.743 112.588C313.182 107.575 311.359 102.587 309.314 97.7567C307.287 92.9713 305.004 88.2206 302.517 83.6483C300.05 79.1056 297.325 74.6274 294.432 70.3374C291.549 66.0672 288.423 61.8862 285.139 57.9133C281.865 53.9453 278.362 50.0912 274.721 46.4502C271.085 42.8141 267.231 39.3118 263.258 36.0324C259.28 32.753 255.099 29.6222 250.834 26.739C246.544 23.8411 242.066 21.1214 237.523 18.6545C232.951 16.1726 228.205 13.8839 223.415 11.8578C223.113 11.729 222.761 11.8727 222.632 12.1749C222.503 12.4771 222.647 12.8288 222.949 12.9576C227.705 14.9688 232.416 17.2377 236.954 19.7047C241.462 22.1518 245.905 24.8517 250.165 27.7298C254.401 30.5931 258.552 33.6942 262.5 36.9538C266.444 40.2084 270.268 43.686 273.879 47.2923C277.49 50.9037 280.973 54.733 284.218 58.6712C287.477 62.6194 290.578 66.7707 293.442 71.0062C296.315 75.2615 299.015 79.705 301.467 84.2179C303.934 88.7606 306.203 93.4716 308.214 98.2223C310.24 103.018 312.053 107.966 313.604 112.94C315.169 117.968 316.497 123.135 317.552 128.297C318.622 133.528 319.439 138.883 319.979 144.203C320.529 149.608 320.806 155.122 320.806 160.586C320.806 166.05 320.529 171.563 319.979 176.968C319.439 182.288 318.622 187.643 317.552 192.875C316.497 198.036 315.169 203.198 313.604 208.231C312.058 213.205 310.245 218.159 308.214 222.949C306.203 227.7 303.934 232.411 301.467 236.953C299.015 241.466 296.315 245.91 293.442 250.165C290.578 254.401 287.477 258.552 284.218 262.5C280.968 266.438 277.49 270.263 273.879 273.879C270.268 277.49 266.444 280.968 262.5 284.218C258.552 287.477 254.401 290.578 250.165 293.442C245.905 296.32 241.462 299.02 236.954 301.467C236.666 301.625 236.557 301.987 236.716 302.274C236.825 302.472 237.028 302.586 237.241 302.586C237.335 302.586 237.434 302.561 237.523 302.512C242.066 300.045 246.544 297.325 250.834 294.427C255.104 291.544 259.285 288.418 263.258 285.134C267.231 281.855 271.085 278.352 274.721 274.716C278.362 271.075 281.865 267.221 285.139 263.253C288.423 259.275 291.549 255.094 294.432 250.829C297.33 246.544 300.05 242.066 302.517 237.518C305.004 232.941 307.287 228.195 309.314 223.41C311.355 218.58 313.182 213.591 314.743 208.578C316.318 203.51 317.656 198.309 318.721 193.107C319.801 187.837 320.623 182.442 321.168 177.082C321.723 171.638 322 166.084 322 160.581C322 155.082 321.718 149.529 321.168 144.085Z" fill="#830016" fill-opacity="0.3"/>
<path d="M176.968 1.19221C182.293 1.73217 187.648 2.54955 192.874 3.61957C192.914 3.62948 192.954 3.62948 192.993 3.62948C193.271 3.62948 193.518 3.43628 193.578 3.15391C193.642 2.83192 193.434 2.51487 193.112 2.45048C187.846 1.37055 182.452 0.548217 177.087 0.00329971C176.75 -0.0313769 176.467 0.211359 176.433 0.53831C176.403 0.870214 176.641 1.16249 176.968 1.19221Z" fill="#830016" fill-opacity="0.3"/>
<path d="M58.2894 37.0923C58.4231 37.0923 58.5569 37.0477 58.6708 36.9536C62.619 33.694 66.7703 30.5929 71.0057 27.7296C75.266 24.8515 79.7095 22.1517 84.2175 19.7045C88.7552 17.2375 93.4662 14.9687 98.2218 12.9574C103.022 10.9264 107.971 9.11327 112.944 7.56769C117.973 6.00229 123.139 4.67467 128.296 3.61951C133.527 2.54949 138.878 1.73212 144.203 1.19215C144.53 1.15748 144.768 0.865202 144.738 0.538251C144.703 0.2113 144.421 -0.026482 144.084 0.00324078C138.719 0.548158 133.324 1.37049 128.058 2.45042C122.862 3.51548 117.656 4.85301 112.588 6.42832C107.58 7.98381 102.591 9.81176 97.7562 11.8577C92.9659 13.8838 88.2201 16.1724 83.6478 18.6543C79.1052 21.1213 74.627 23.8409 70.337 26.7389C66.0668 29.622 61.8858 32.7478 57.9129 36.0322C57.6602 36.2403 57.6206 36.6168 57.8336 36.8744C57.9476 37.018 58.1209 37.0923 58.2894 37.0923Z" fill="#830016" fill-opacity="0.3"/>
<path d="M19.7046 84.2178C19.8631 83.9305 19.7541 83.5639 19.4668 83.4104C19.1745 83.2518 18.8129 83.3608 18.6544 83.6482C16.1676 88.2255 13.8839 92.9712 11.8578 97.7566C9.81681 102.587 7.98886 107.575 6.42842 112.588C4.85311 117.656 3.51559 122.857 2.45053 128.059C1.3706 133.33 0.548274 138.724 0.00335748 144.084C-0.031319 144.411 0.206463 144.704 0.538366 144.738C0.558181 144.738 0.577997 144.743 0.597812 144.743C0.899993 144.743 1.15759 144.515 1.19227 144.208C1.73223 138.888 2.5496 133.533 3.61962 128.302C4.67478 123.14 6.00239 117.978 7.56779 112.945C9.11337 107.971 10.9265 103.017 12.9575 98.2272C14.9687 93.4715 17.2376 88.7605 19.7046 84.2178Z" fill="#830016" fill-opacity="0.3"/>
<path d="M1.19239 176.968C1.15772 176.641 0.870397 176.403 0.538494 176.433C0.211544 176.467 -0.0262378 176.76 0.00348492 177.087C0.548401 182.452 1.37073 187.841 2.45065 193.112C2.5101 193.395 2.75779 193.588 3.0352 193.588C3.07483 193.588 3.11446 193.583 3.15409 193.578C3.47609 193.514 3.68415 193.196 3.61975 192.874C2.54973 187.643 1.73731 182.293 1.19239 176.968Z" fill="#830016" fill-opacity="0.3"/>
<path d="M160.586 320.806C155.122 320.806 149.608 320.529 144.204 319.979C138.878 319.439 133.523 318.621 128.297 317.551C123.14 316.496 117.973 315.169 112.945 313.603C107.977 312.058 103.023 310.245 98.2226 308.214C93.467 306.202 88.7559 303.933 84.2183 301.466C79.7103 299.019 75.2668 296.319 71.0065 293.441C66.771 290.578 62.6198 287.477 58.6716 284.217C54.7284 280.963 50.9041 277.485 47.2927 273.879C43.6814 270.267 40.1989 266.438 36.9542 262.5C33.6946 258.552 30.5935 254.4 27.7303 250.165C24.8571 245.91 22.1572 241.466 19.7051 236.953C17.2381 232.411 14.9693 227.699 12.9581 222.949C12.8293 222.647 12.4776 222.503 12.1754 222.632C11.8732 222.761 11.7295 223.112 11.8583 223.414C13.8844 228.2 16.1681 232.951 18.6549 237.523C21.1219 242.066 23.8465 246.544 26.7395 250.834C29.6226 255.104 32.7484 259.28 36.0328 263.258C39.3073 267.226 42.8096 271.08 46.4506 274.721C50.0867 278.357 53.9407 281.859 57.9137 285.139C61.8916 288.418 66.0725 291.549 70.3378 294.432C74.6277 297.33 79.106 300.05 83.6486 302.517C88.2209 304.999 92.9666 307.287 97.757 309.313C102.592 311.359 107.58 313.182 112.589 314.743C117.656 316.318 122.858 317.656 128.059 318.721C133.33 319.8 138.72 320.623 144.085 321.168C149.534 321.723 155.082 322 160.586 322C160.918 322 161.185 321.732 161.185 321.401C161.185 321.074 160.918 320.806 160.586 320.806Z" fill="#830016" fill-opacity="0.3"/>
<path d="M218.246 297.192C213.807 299.074 209.225 300.753 204.628 302.185C199.981 303.631 195.206 304.865 190.43 305.846C185.595 306.837 180.652 307.595 175.723 308.095C175.396 308.13 175.158 308.422 175.188 308.749C175.217 309.056 175.48 309.284 175.782 309.284C175.802 309.284 175.822 309.284 175.841 309.279C180.805 308.774 185.794 308.011 190.668 307.01C195.483 306.024 200.298 304.781 204.985 303.319C209.616 301.878 214.233 300.184 218.712 298.286C219.014 298.158 219.157 297.806 219.029 297.504C218.9 297.206 218.548 297.068 218.246 297.192Z" fill="#830016" fill-opacity="0.3"/>
<path d="M265.382 265.383C262.038 268.727 258.496 271.947 254.845 274.959C251.194 277.976 247.35 280.849 243.427 283.504C243.154 283.687 243.08 284.059 243.268 284.331C243.382 284.5 243.57 284.594 243.763 284.594C243.877 284.594 243.996 284.559 244.095 284.49C248.053 281.815 251.922 278.917 255.603 275.875C259.279 272.839 262.855 269.589 266.224 266.22C266.457 265.988 266.457 265.611 266.224 265.378C265.991 265.145 265.615 265.15 265.382 265.383Z" fill="#830016" fill-opacity="0.3"/>
<path d="M283.668 244.26C283.772 244.329 283.886 244.364 284 244.364C284.193 244.364 284.381 244.27 284.495 244.102C287.18 240.129 289.707 235.982 291.99 231.777C294.294 227.546 296.414 223.152 298.292 218.713C298.42 218.411 298.277 218.06 297.974 217.931C297.672 217.802 297.321 217.946 297.192 218.248C295.324 222.647 293.224 227.006 290.94 231.207C288.671 235.378 286.17 239.49 283.504 243.433C283.321 243.705 283.396 244.077 283.668 244.26Z" fill="#830016" fill-opacity="0.3"/>
<path d="M305.845 190.432C305.781 190.754 305.989 191.071 306.311 191.136C306.35 191.146 306.39 191.146 306.43 191.146C306.707 191.146 306.955 190.952 307.014 190.67C308.015 185.791 308.778 180.802 309.283 175.843C309.798 170.805 310.056 165.668 310.056 160.586C310.056 155.498 309.798 150.366 309.283 145.323C308.778 140.364 308.015 135.376 307.014 130.496C306.028 125.686 304.785 120.871 303.324 116.185C301.877 111.553 300.188 106.931 298.291 102.458C296.413 98.0192 294.293 93.6252 291.989 89.3946C289.701 85.1889 287.179 81.0425 284.494 77.0696C281.824 73.1214 278.926 69.2475 275.885 65.5619C272.848 61.8862 269.603 58.3145 266.23 54.941C265.997 54.7082 265.62 54.7082 265.388 54.941C265.155 55.1738 265.155 55.5503 265.388 55.7831C268.731 59.1269 271.956 62.6739 274.963 66.3198C277.985 69.9807 280.858 73.8199 283.508 77.7384C286.174 81.6816 288.675 85.7932 290.944 89.9643C293.228 94.1602 295.333 98.5195 297.196 102.923C299.078 107.362 300.758 111.944 302.189 116.541C303.641 121.193 304.869 125.969 305.85 130.739C306.841 135.579 307.599 140.528 308.099 145.447C308.609 150.445 308.867 155.543 308.867 160.586C308.867 165.629 308.609 170.726 308.099 175.724C307.594 180.644 306.836 185.592 305.845 190.432Z" fill="#830016" fill-opacity="0.3"/>
<path d="M116.184 17.8467C115.867 17.9458 115.694 18.2777 115.793 18.5947C115.892 18.9068 116.224 19.0852 116.541 18.9861C121.188 17.5396 125.963 16.3061 130.739 15.3252C135.573 14.3345 140.517 13.5765 145.446 13.0762C155.438 12.0607 165.732 12.0607 175.724 13.0762C180.648 13.5765 185.597 14.3345 190.432 15.3252C195.207 16.3061 199.983 17.5346 204.629 18.9861C209.226 20.4177 213.809 22.0971 218.247 23.9795C222.646 25.8421 227.005 27.9475 231.206 30.2312C235.377 32.5 239.489 35.0017 243.432 37.6669C243.536 37.7362 243.65 37.7709 243.764 37.7709C243.957 37.7709 244.146 37.6768 244.259 37.5083C244.443 37.2359 244.373 36.8643 244.101 36.681C240.128 33.9961 235.982 31.4746 231.776 29.186C227.54 26.8824 223.146 24.7622 218.713 22.8847C214.235 20.9874 209.618 19.2932 204.986 17.8517C200.3 16.3903 195.485 15.1518 190.669 14.1611C185.8 13.1604 180.811 12.3975 175.843 11.8922C165.772 10.8668 155.394 10.8668 145.322 11.8922C140.359 12.3975 135.37 13.1604 130.496 14.1611C125.686 15.1469 120.871 16.3853 116.184 17.8467Z" fill="#830016" fill-opacity="0.3"/>
<path d="M77.7418 37.667C81.685 35.0019 85.7967 32.5002 89.9678 30.2314C90.26 30.0729 90.3641 29.7112 90.2055 29.4239C90.047 29.1366 89.6854 29.0276 89.3931 29.1861C85.1874 31.4748 81.041 33.9963 77.0681 36.6812C76.7956 36.8645 76.7213 37.236 76.9096 37.5085C77.0235 37.6769 77.2118 37.7711 77.405 37.7711C77.5189 37.7711 77.6378 37.7364 77.7418 37.667Z" fill="#830016" fill-opacity="0.3"/>
<path d="M14.1564 190.67C15.1422 195.48 16.3856 200.295 17.8469 204.982C19.2934 209.613 20.9827 214.235 22.88 218.709C24.7575 223.147 26.8777 227.541 29.1812 231.772C31.4698 235.977 33.9913 240.124 36.6763 244.097C39.3464 248.045 42.2443 251.919 45.286 255.604C48.3226 259.28 51.5673 262.852 54.9409 266.225C58.3095 269.594 61.8811 272.844 65.5618 275.88C69.2424 278.917 73.1163 281.815 77.0694 284.495C81.0424 287.18 85.1887 289.701 89.3944 291.99C93.6299 294.294 98.0239 296.414 102.458 298.291C106.936 300.189 111.553 301.883 116.185 303.324C120.871 304.786 125.686 306.024 130.501 307.015C135.371 308.016 140.359 308.778 145.328 309.284C145.347 309.284 145.367 309.289 145.387 309.289C145.689 309.289 145.947 309.061 145.982 308.754C146.016 308.427 145.778 308.134 145.447 308.1C140.522 307.599 135.574 306.842 130.739 305.851C125.963 304.87 121.188 303.641 116.541 302.19C111.944 300.758 107.362 299.079 102.923 297.196C98.5243 295.334 94.1649 293.229 89.9641 290.945C85.7931 288.676 81.6814 286.174 77.7382 283.509C73.8148 280.854 69.9707 277.981 66.3197 274.964C62.6688 271.952 59.1268 268.727 55.783 265.388C52.4392 262.044 49.2143 258.497 46.2074 254.851C43.1855 251.191 40.3123 247.351 37.6621 243.433C34.9969 239.49 32.4953 235.378 30.2264 231.207C27.9428 227.011 25.8374 222.652 23.9748 218.248C22.0923 213.809 20.413 209.227 18.9814 204.63C17.5299 199.978 16.3014 195.203 15.3205 190.432C14.3298 185.592 13.5718 180.644 13.0715 175.724C12.5613 170.726 12.3037 165.629 12.3037 160.586C12.3037 155.543 12.5613 150.445 13.0715 145.447C13.5718 140.528 14.3298 135.579 15.3205 130.739C16.3014 125.969 17.5299 121.193 18.9814 116.541C20.413 111.944 22.0923 107.362 23.9748 102.923C25.8423 98.5245 27.9428 94.1651 30.2264 89.9643C32.4953 85.7932 34.9969 81.6816 37.6621 77.7384C40.3123 73.8199 43.1855 69.9807 46.2074 66.3198C49.2193 62.6739 52.4392 59.1269 55.783 55.7831C56.0158 55.5503 56.0158 55.1738 55.783 54.941C55.5502 54.7082 55.1737 54.7082 54.9409 54.941C51.5723 58.3096 48.3226 61.8862 45.286 65.5619C42.2394 69.2525 39.3414 73.1214 36.6763 77.0696C33.9913 81.0425 31.4649 85.1889 29.1812 89.3946C26.8777 93.6252 24.7575 98.0192 22.88 102.458C20.9827 106.931 19.2885 111.553 17.8469 116.185C16.3856 120.876 15.1422 125.691 14.1564 130.496C13.1557 135.376 12.3928 140.364 11.8875 145.323C11.3723 150.361 11.1147 155.498 11.1147 160.581C11.1147 165.668 11.3723 170.8 11.8875 175.843C12.3928 180.807 13.1557 185.796 14.1564 190.67Z" fill="#830016" fill-opacity="0.3"/>
<path d="M248.271 266.978C251.664 264.174 254.963 261.182 258.069 258.071C261.18 254.96 264.177 251.661 266.976 248.273C269.785 244.869 272.46 241.298 274.922 237.652C277.404 233.981 279.732 230.157 281.838 226.278C283.963 222.374 285.919 218.317 287.653 214.225C287.782 213.923 287.638 213.571 287.336 213.442C287.034 213.314 286.682 213.457 286.554 213.759C284.835 217.817 282.893 221.839 280.787 225.708C278.697 229.552 276.393 233.342 273.931 236.983C271.489 240.599 268.834 244.141 266.055 247.51C263.281 250.868 260.308 254.138 257.222 257.224C254.141 260.305 250.871 263.278 247.508 266.057C244.139 268.841 240.597 271.491 236.981 273.933C233.345 276.39 229.555 278.699 225.706 280.789C221.832 282.895 217.81 284.837 213.758 286.556C209.666 288.289 205.44 289.84 201.2 291.158C196.915 292.495 192.506 293.63 188.107 294.531C183.649 295.448 179.086 296.146 174.544 296.607C169.937 297.077 165.24 297.315 160.584 297.315C160.252 297.315 159.984 297.583 159.984 297.915C159.984 298.246 160.252 298.514 160.584 298.514C165.28 298.514 170.016 298.276 174.667 297.801C179.25 297.335 183.852 296.632 188.345 295.705C192.783 294.794 197.227 293.649 201.552 292.302C205.827 290.969 210.087 289.409 214.218 287.655C218.31 285.921 222.367 283.965 226.271 281.84C230.15 279.729 233.979 277.401 237.645 274.924C241.296 272.457 244.872 269.787 248.271 266.978Z" fill="#830016" fill-opacity="0.3"/>
<path d="M297.801 146.507C297.766 146.18 297.484 145.947 297.147 145.972C296.82 146.007 296.582 146.299 296.612 146.626C297.082 151.238 297.32 155.934 297.32 160.586C297.32 165.237 297.082 169.938 296.612 174.546C296.151 179.083 295.453 183.646 294.536 188.109C294.467 188.431 294.68 188.748 295.002 188.812C295.041 188.822 295.081 188.822 295.121 188.822C295.398 188.822 295.646 188.629 295.705 188.347C296.627 183.844 297.335 179.242 297.801 174.664C298.276 170.013 298.514 165.277 298.514 160.581C298.514 155.894 298.276 151.154 297.801 146.507Z" fill="#830016" fill-opacity="0.3"/>
<path d="M291.73 120.39C291.79 120.39 291.849 120.381 291.909 120.366C292.221 120.267 292.399 119.935 292.3 119.618C290.967 115.343 289.407 111.082 287.653 106.951C285.919 102.859 283.963 98.8018 281.838 94.8982C279.732 91.0244 277.404 87.1951 274.922 83.5243C272.455 79.8783 269.785 76.3066 266.976 72.9034C266.763 72.6458 266.387 72.6111 266.134 72.8241C265.881 73.0322 265.842 73.4087 266.055 73.6663C268.839 77.0398 271.489 80.5818 273.931 84.1931C276.393 87.8341 278.697 91.6238 280.787 95.4679C282.893 99.3418 284.835 103.359 286.554 107.416C288.287 111.513 289.838 115.734 291.156 119.974C291.24 120.227 291.478 120.39 291.73 120.39Z" fill="#830016" fill-opacity="0.3"/>
<path d="M237.652 46.247C233.986 43.7701 230.162 41.4418 226.278 39.3315C222.37 37.2064 218.313 35.2496 214.226 33.5158C210.094 31.7671 205.834 30.2017 201.559 28.8691C197.234 27.5217 192.791 26.3774 188.352 25.4659C183.859 24.5444 179.252 23.841 174.675 23.3704C165.381 22.4242 155.806 22.4242 146.512 23.3704C141.93 23.8361 137.328 24.5444 132.835 25.4659C128.396 26.3774 123.953 27.5217 119.628 28.8691C119.311 28.9682 119.138 29.3001 119.237 29.6171C119.336 29.9292 119.663 30.1076 119.985 30.0085C124.27 28.671 128.679 27.5365 133.078 26.635C137.536 25.7185 142.099 25.02 146.641 24.5593C155.855 23.623 165.347 23.623 174.561 24.5593C179.103 25.02 183.666 25.7185 188.124 26.635C192.523 27.5365 196.932 28.671 201.217 30.0085C205.452 31.3312 209.678 32.8767 213.77 34.6106C217.827 36.3295 221.845 38.2665 225.718 40.3768C229.568 42.4673 233.357 44.7758 236.993 47.2328C240.61 49.68 244.151 52.3303 247.52 55.1094C247.629 55.2035 247.768 55.2481 247.901 55.2481C248.075 55.2481 248.243 55.1738 248.362 55.0301C248.57 54.7775 248.536 54.401 248.283 54.188C244.875 51.3891 241.298 48.714 237.652 46.247Z" fill="#830016" fill-opacity="0.3"/>
<path d="M63.0999 63.0997C59.9889 66.2107 56.9918 69.5099 54.193 72.8983C51.3842 76.3016 48.7091 79.8733 46.2471 83.5193C43.7652 87.19 41.437 91.0144 39.3316 94.8932C37.2064 98.7968 35.2497 102.854 33.5159 106.946C31.7672 111.077 30.2018 115.337 28.8692 119.613C28.7701 119.93 28.9485 120.262 29.2606 120.361C29.32 120.38 29.3795 120.385 29.4389 120.385C29.6915 120.385 29.9293 120.222 30.0086 119.964C31.3312 115.729 32.8768 111.503 34.6107 107.406C36.3296 103.349 38.2715 99.3268 40.3769 95.4579C42.4674 91.6138 44.7709 87.8241 47.2329 84.1831C49.6751 80.5668 52.3303 77.0248 55.1094 73.6562C57.8835 70.2976 60.8558 67.0281 63.942 63.9419C67.0233 60.8606 70.2928 57.8883 73.6564 55.1092C77.0249 52.3252 80.5669 49.6749 84.1832 47.2327C87.8192 44.7756 91.6089 42.4671 95.458 40.3766C95.7503 40.2181 95.8543 39.8565 95.6958 39.5692C95.5372 39.2819 95.1756 39.1729 94.8833 39.3314C91.0045 41.4417 87.1753 43.77 83.5095 46.2469C79.8585 48.7139 76.2868 51.3889 72.8885 54.1928C69.5101 56.9966 66.2108 59.9937 63.0999 63.0997Z" fill="#830016" fill-opacity="0.3"/>
<path d="M23.3706 146.507C22.895 151.158 22.6572 155.894 22.6572 160.59C22.6572 160.922 22.9247 161.19 23.2566 161.19C23.5885 161.19 23.856 160.922 23.856 160.59C23.856 155.939 24.0938 151.238 24.5644 146.631C24.5991 146.304 24.3613 146.011 24.0294 145.977C23.6975 145.947 23.4052 146.175 23.3706 146.507Z" fill="#830016" fill-opacity="0.3"/>
<path d="M28.8698 201.559C30.2024 205.834 31.7628 210.094 33.5164 214.225C35.2503 218.317 37.207 222.374 39.3322 226.278C41.4375 230.152 43.7658 233.981 46.2477 237.652C48.7147 241.298 51.3847 244.87 54.1935 248.273C56.9924 251.661 59.9895 254.961 63.1005 258.072C66.2114 261.182 69.5057 264.18 72.899 266.978C76.2973 269.787 79.869 272.457 83.52 274.924C87.1858 277.401 91.0101 279.729 94.8938 281.84C98.8024 283.965 102.86 285.922 106.946 287.656C111.078 289.404 115.338 290.97 119.613 292.302C123.938 293.65 128.381 294.794 132.82 295.705C132.86 295.715 132.899 295.715 132.939 295.715C133.216 295.715 133.464 295.522 133.523 295.24C133.593 294.918 133.38 294.601 133.058 294.536C128.659 293.635 124.25 292.5 119.965 291.163C115.729 289.84 111.504 288.295 107.412 286.561C103.355 284.842 99.3374 282.9 95.4635 280.795C91.6144 278.704 87.8248 276.396 84.1887 273.939C80.5725 271.491 77.0305 268.841 73.6619 266.062C70.2983 263.283 67.0288 260.311 63.9475 257.229C60.8613 254.143 57.8891 250.874 55.1149 247.515C52.3309 244.141 49.6806 240.599 47.2384 236.988C44.7764 233.347 42.4729 229.557 40.3824 225.713C38.277 221.839 36.3352 217.822 34.6162 213.765C32.8824 209.668 31.3318 205.447 30.0141 201.207C29.915 200.895 29.5881 200.716 29.2661 200.816C28.9491 200.91 28.7757 201.242 28.8698 201.559Z" fill="#830016" fill-opacity="0.3"/>
<path d="M250.194 70.9814C247.336 68.123 244.304 65.3638 241.188 62.7928C240.936 62.5847 240.559 62.6194 240.346 62.872C240.138 63.1247 240.173 63.5011 240.425 63.7142C243.512 66.2654 246.514 68.9899 249.347 71.8235C252.181 74.6571 254.91 77.6591 257.456 80.7453C260.013 83.8414 262.45 87.0961 264.694 90.4151C266.948 93.749 269.068 97.2315 270.99 100.769C272.922 104.325 274.705 108.016 276.286 111.746C277.881 115.506 279.303 119.39 280.516 123.279C281.745 127.217 282.785 131.264 283.617 135.306C284.455 139.398 285.099 143.589 285.525 147.76C285.956 151.986 286.174 156.301 286.174 160.581C286.174 164.861 285.956 169.176 285.525 173.401C285.099 177.577 284.46 181.768 283.617 185.855C282.79 189.897 281.745 193.94 280.516 197.883C279.303 201.772 277.881 205.655 276.286 209.415C274.705 213.145 272.927 216.836 270.99 220.393C269.068 223.93 266.948 227.412 264.694 230.746C262.45 234.065 260.013 237.32 257.456 240.416C254.91 243.502 252.181 246.504 249.347 249.338C246.514 252.171 243.512 254.901 240.425 257.447C237.329 260.003 234.075 262.441 230.756 264.685C227.417 266.939 223.934 269.059 220.402 270.981C216.845 272.918 213.155 274.696 209.425 276.277C205.67 277.867 201.791 279.289 197.892 280.507C193.954 281.736 189.907 282.776 185.869 283.608C181.773 284.45 177.582 285.089 173.411 285.515C169.18 285.946 164.865 286.164 160.59 286.164C160.258 286.164 159.991 286.432 159.991 286.764C159.991 287.096 160.258 287.363 160.59 287.363C164.905 287.363 169.264 287.14 173.534 286.709C177.745 286.278 181.976 285.634 186.107 284.782C190.184 283.945 194.271 282.895 198.249 281.651C202.182 280.423 206.101 278.986 209.89 277.381C213.65 275.786 217.38 273.988 220.972 272.036C224.539 270.094 228.056 267.954 231.424 265.68C234.778 263.412 238.062 260.955 241.188 258.374C244.304 255.803 247.336 253.043 250.194 250.185C253.057 247.322 255.812 244.295 258.383 241.179C260.964 238.053 263.421 234.769 265.69 231.415C267.968 228.051 270.103 224.534 272.045 220.963C273.997 217.376 275.795 213.646 277.39 209.881C279 206.081 280.437 202.168 281.661 198.239C282.899 194.262 283.954 190.18 284.791 186.098C285.639 181.966 286.287 177.736 286.713 173.525C287.149 169.26 287.367 164.9 287.367 160.581C287.367 156.261 287.144 151.907 286.713 147.636C286.283 143.421 285.639 139.19 284.791 135.064C283.954 130.987 282.899 126.9 281.661 122.922C280.437 118.994 279 115.075 277.39 111.281C275.795 107.516 273.997 103.79 272.045 100.199C270.103 96.6272 267.963 93.11 265.69 89.7464C263.426 86.3926 260.964 83.1083 258.383 79.9824C255.807 76.8714 253.053 73.8397 250.194 70.9814Z" fill="#830016" fill-opacity="0.3"/>
<path d="M198.243 39.5148C194.265 38.2764 190.178 37.2212 186.101 36.384C185.779 36.3196 185.462 36.5277 185.397 36.8497C185.333 37.1717 185.541 37.4887 185.863 37.5531C189.9 38.3804 193.948 39.4256 197.886 40.6542C197.945 40.674 198.005 40.6789 198.064 40.6789C198.317 40.6789 198.555 40.5155 198.634 40.2579C198.733 39.9458 198.56 39.6139 198.243 39.5148Z" fill="#830016" fill-opacity="0.3"/>
<path d="M160.585 33.803C156.27 33.803 151.911 34.0259 147.641 34.4569C143.43 34.8879 139.199 35.5319 135.068 36.3839C130.991 37.2211 126.904 38.2713 122.926 39.5147C118.993 40.7432 115.074 42.1798 111.285 43.7849C107.525 45.38 103.795 47.1782 100.203 49.13C96.6364 51.0719 93.1192 53.207 89.7507 55.4857C86.397 57.7546 83.1126 60.2117 79.9868 62.7926C76.8708 65.3636 73.8391 68.1229 70.9808 70.9812C70.7479 71.2141 70.7479 71.5905 70.9808 71.8234C71.0997 71.9423 71.2483 71.9968 71.4018 71.9968C71.5554 71.9968 71.709 71.9373 71.8229 71.8234C74.6565 68.9898 77.6585 66.2603 80.7447 63.714C83.8408 61.1578 87.0954 58.7255 90.4145 56.4765C93.7533 54.2225 97.2358 52.1023 100.768 50.1802C104.325 48.2433 108.015 46.4649 111.745 44.8846C115.5 43.2945 119.379 41.8727 123.278 40.6541C127.216 39.4255 131.263 38.3852 135.301 37.553C139.397 36.7109 143.588 36.0718 147.759 35.6458C151.99 35.2148 156.305 34.9968 160.58 34.9968C160.912 34.9968 161.179 34.7293 161.179 34.3974C161.179 34.0655 160.917 33.803 160.585 33.803Z" fill="#830016" fill-opacity="0.3"/>
<path d="M44.5672 110.968C44.2651 110.84 43.9133 110.983 43.7845 111.285C42.1746 115.085 40.738 118.998 39.5144 122.927C38.2759 126.905 37.2208 130.987 36.3836 135.069C35.5365 139.2 34.8875 143.431 34.4615 147.641C34.0256 151.906 33.8076 156.266 33.8076 160.586C33.8076 164.905 34.0305 169.26 34.4615 173.53C34.8925 177.746 35.5365 181.976 36.3836 186.103C37.2208 190.18 38.2759 194.266 39.5144 198.244C40.738 202.173 42.1746 206.091 43.7845 209.886C45.3797 213.651 47.1779 217.376 49.1297 220.967C51.0716 224.539 53.2116 228.056 55.4854 231.42C57.7493 234.774 60.2113 238.058 62.7922 241.184C62.9111 241.327 63.0795 241.402 63.2529 241.402C63.3867 241.402 63.5204 241.357 63.6344 241.263C63.887 241.055 63.9266 240.679 63.7136 240.421C61.1575 237.325 58.7202 234.07 56.4761 230.751C54.2222 227.417 52.1019 223.935 50.1799 220.398C48.2479 216.841 46.4645 213.15 44.8843 209.42C43.2892 205.66 41.8674 201.776 40.6537 197.888C39.4252 193.949 38.3849 189.902 37.5527 185.86C36.7155 181.768 36.0715 177.577 35.6455 173.406C35.2145 169.18 34.9965 164.866 34.9965 160.586C34.9965 156.305 35.2145 151.991 35.6455 147.765C36.0715 143.589 36.7105 139.398 37.5527 135.311C38.38 131.269 39.4252 127.227 40.6537 123.283C41.8674 119.395 43.2892 115.511 44.8843 111.751C45.0131 111.444 44.8694 111.097 44.5672 110.968Z" fill="#830016" fill-opacity="0.3"/>
<path d="M100.204 272.046C103.796 273.998 107.521 275.796 111.286 277.391C111.36 277.426 111.44 277.441 111.519 277.441C111.752 277.441 111.97 277.302 112.069 277.074C112.197 276.772 112.054 276.42 111.752 276.291C108.026 274.711 104.331 272.933 100.774 270.996C97.242 269.074 93.7545 266.953 90.4206 264.699C87.1016 262.455 83.847 260.018 80.7509 257.462C80.4982 257.254 80.1217 257.289 79.9087 257.541C79.7007 257.794 79.7353 258.17 79.988 258.383C83.1138 260.964 86.3982 263.421 89.7519 265.69C93.1205 267.964 96.6376 270.104 100.204 272.046Z" fill="#830016" fill-opacity="0.3"/>
<path d="M148.741 276.019C152.649 276.415 156.637 276.618 160.585 276.618C164.538 276.618 168.521 276.415 172.43 276.019C176.284 275.628 180.152 275.033 183.937 274.255C187.667 273.487 191.407 272.526 195.048 271.392C198.645 270.272 202.231 268.955 205.704 267.483C209.147 266.027 212.555 264.377 215.844 262.589C219.109 260.816 222.329 258.854 225.41 256.768C228.482 254.693 231.489 252.444 234.347 250.081C237.2 247.728 239.974 245.206 242.59 242.586C245.211 239.965 247.732 237.191 250.085 234.343C252.448 231.484 254.697 228.477 256.773 225.406C258.858 222.325 260.815 219.105 262.593 215.84C264.382 212.551 266.026 209.143 267.483 205.7C268.954 202.227 270.267 198.641 271.391 195.044C272.526 191.413 273.487 187.673 274.255 183.933C275.032 180.153 275.622 176.279 276.018 172.425C276.414 168.517 276.618 164.529 276.618 160.581C276.618 156.627 276.414 152.64 276.018 148.736C275.983 148.409 275.696 148.176 275.364 148.201C275.037 148.236 274.799 148.528 274.829 148.855C275.226 152.724 275.424 156.667 275.424 160.581C275.424 164.494 275.226 168.437 274.829 172.306C274.443 176.126 273.853 179.955 273.085 183.695C272.323 187.395 271.371 191.096 270.252 194.692C269.142 198.254 267.839 201.801 266.383 205.239C264.941 208.642 263.312 212.021 261.543 215.275C259.785 218.505 257.848 221.691 255.787 224.747C253.731 227.784 251.507 230.761 249.169 233.59C246.84 236.413 244.344 239.158 241.753 241.749C239.162 244.339 236.418 246.836 233.594 249.164C230.765 251.498 227.788 253.727 224.751 255.783C221.7 257.848 218.515 259.785 215.28 261.539C212.025 263.307 208.652 264.937 205.243 266.379C201.805 267.835 198.259 269.138 194.697 270.248C191.09 271.372 187.39 272.323 183.699 273.081C179.954 273.849 176.125 274.434 172.311 274.825C164.573 275.613 156.597 275.613 148.859 274.825C145.045 274.439 141.216 273.849 137.471 273.081C133.78 272.323 130.08 271.372 126.473 270.248C122.911 269.138 119.365 267.835 115.927 266.379C112.518 264.937 109.145 263.307 105.89 261.539C102.66 259.78 99.4751 257.843 96.4186 255.783C93.382 253.727 90.4047 251.503 87.5761 249.164C84.7525 246.831 82.0081 244.339 79.4172 241.749C76.8264 239.158 74.3297 236.413 72.0014 233.59C69.6632 230.756 67.439 227.784 65.3832 224.747C65.1999 224.475 64.8284 224.4 64.5559 224.589C64.2834 224.772 64.2091 225.143 64.3974 225.416C66.473 228.482 68.722 231.489 71.085 234.352C73.438 237.206 75.9595 239.975 78.5801 242.596C81.1957 245.211 83.9698 247.733 86.8232 250.091C89.6815 252.449 92.6884 254.703 95.7598 256.778C98.846 258.864 102.061 260.821 105.326 262.599C108.615 264.387 112.023 266.032 115.466 267.493C118.939 268.965 122.525 270.282 126.122 271.402C129.763 272.536 133.503 273.502 137.233 274.265C141.013 275.038 144.886 275.628 148.741 276.019Z" fill="#830016" fill-opacity="0.3"/>
<path d="M250.089 86.8186C247.736 83.9652 245.215 81.196 242.594 78.5755C239.979 75.9599 237.204 73.4384 234.351 71.0804C231.493 68.7224 228.486 66.4684 225.414 64.3927C225.142 64.2045 224.77 64.2788 224.587 64.5513C224.404 64.8237 224.473 65.1953 224.746 65.3785C227.782 67.4344 230.76 69.6586 233.588 71.9968C236.412 74.3301 239.156 76.8218 241.747 79.4127C244.338 82.0035 246.835 84.7479 249.163 87.5716C251.501 90.4051 253.725 93.3774 255.781 96.4141C255.895 96.5825 256.083 96.6766 256.276 96.6766C256.39 96.6766 256.509 96.642 256.608 96.5726C256.881 96.3893 256.955 96.0178 256.767 95.7453C254.701 92.6839 252.452 89.6819 250.089 86.8186Z" fill="#830016" fill-opacity="0.3"/>
<path d="M194.305 50.1703C194.206 50.4874 194.385 50.8193 194.697 50.9184C198.258 52.028 201.805 53.3308 205.243 54.7873C205.318 54.8219 205.397 54.8368 205.476 54.8368C205.709 54.8368 205.927 54.6981 206.026 54.4702C206.155 54.168 206.011 53.8163 205.709 53.6875C202.236 52.2162 198.65 50.8985 195.053 49.779C194.736 49.675 194.404 49.8533 194.305 50.1703Z" fill="#830016" fill-opacity="0.3"/>
<path d="M172.435 45.1522C164.618 44.3547 156.559 44.3547 148.741 45.1522C144.887 45.5436 141.018 46.1381 137.234 46.9158C133.504 47.6836 129.763 48.6447 126.122 49.7791C122.526 50.8987 118.939 52.2164 115.467 53.6876C115.165 53.8164 115.021 54.1682 115.15 54.4703C115.244 54.6982 115.467 54.8369 115.7 54.8369C115.779 54.8369 115.858 54.8221 115.933 54.7874C119.37 53.331 122.917 52.0281 126.479 50.9185C130.085 49.794 133.786 48.8428 137.477 48.0849C141.222 47.3171 145.051 46.7325 148.865 46.3412C156.603 45.5535 164.579 45.5535 172.316 46.3412C172.648 46.3709 172.936 46.1381 172.97 45.8061C173 45.4792 172.762 45.1869 172.435 45.1522Z" fill="#830016" fill-opacity="0.3"/>
<path d="M86.8185 71.0804C83.9651 73.4335 81.191 75.9549 78.5754 78.5755C75.9548 81.1961 73.4334 83.9702 71.0803 86.8186C68.7174 89.677 66.4683 92.6839 64.3927 95.7553C62.3072 98.8365 60.3504 102.056 58.572 105.321C56.7837 108.61 55.139 112.019 53.6826 115.461C52.2114 118.934 50.8986 122.521 49.7741 126.117C48.6397 129.748 47.6786 133.488 46.9108 137.228C46.1331 141.008 45.5436 144.882 45.1473 148.736C44.751 152.645 44.5479 156.632 44.5479 160.581C44.5479 164.534 44.751 168.522 45.1473 172.425C45.5386 176.284 46.1331 180.153 46.9108 183.933C47.6786 187.673 48.6446 191.413 49.7741 195.044C49.8534 195.302 50.0911 195.465 50.3438 195.465C50.4032 195.465 50.4627 195.455 50.5221 195.441C50.8392 195.341 51.0125 195.01 50.9135 194.693C49.7939 191.096 48.8378 187.396 48.0799 183.695C47.3121 179.955 46.7275 176.121 46.3362 172.306C45.9399 168.437 45.7417 164.494 45.7417 160.581C45.7417 156.667 45.9399 152.724 46.3362 148.855C46.7226 145.036 47.3121 141.206 48.0799 137.466C48.8378 133.766 49.7939 130.065 50.9135 126.469C52.0231 122.907 53.326 119.36 54.7824 115.922C56.2239 112.519 57.8537 109.14 59.6222 105.886C61.3808 102.656 63.3177 99.4706 65.3785 96.4141C67.4343 93.3774 69.6586 90.4002 71.9968 87.5716C74.3251 84.7479 76.8218 82.0035 79.4126 79.4127C82.0034 76.8219 84.7478 74.3251 87.5715 71.9969C87.8241 71.7888 87.8637 71.4123 87.6507 71.1547C87.4476 70.907 87.0711 70.8723 86.8185 71.0804Z" fill="#830016" fill-opacity="0.3"/>
<path d="M191.803 261.539C191.863 261.539 191.922 261.529 191.982 261.514C195.261 260.494 198.526 259.295 201.686 257.957C204.817 256.63 207.928 255.134 210.92 253.499C213.892 251.879 216.825 250.096 219.634 248.198C222.433 246.306 225.167 244.26 227.773 242.11C230.369 239.965 232.895 237.672 235.283 235.284C237.666 232.901 239.964 230.375 242.109 227.774C244.259 225.173 246.305 222.434 248.197 219.635C248.381 219.362 248.311 218.991 248.039 218.808C247.766 218.619 247.395 218.694 247.212 218.966C245.339 221.73 243.313 224.44 241.193 227.011C239.072 229.582 236.799 232.079 234.446 234.437C232.088 236.795 229.591 239.064 227.02 241.184C224.444 243.309 221.739 245.335 218.975 247.203C216.201 249.08 213.298 250.844 210.36 252.444C207.398 254.054 204.327 255.535 201.231 256.848C198.105 258.17 194.88 259.354 191.635 260.365C191.318 260.464 191.145 260.796 191.244 261.113C191.313 261.376 191.546 261.539 191.803 261.539Z" fill="#830016" fill-opacity="0.3"/>
<path d="M262.95 181.619C262.261 184.978 261.394 188.347 260.369 191.626C259.358 194.866 258.174 198.096 256.851 201.221C256.723 201.524 256.866 201.875 257.169 202.004C257.243 202.039 257.322 202.054 257.401 202.054C257.634 202.054 257.852 201.915 257.951 201.687C259.289 198.527 260.488 195.262 261.508 191.983C262.543 188.669 263.42 185.26 264.119 181.862C264.827 178.414 265.367 174.887 265.724 171.38C266.085 167.818 266.269 164.187 266.269 160.59C266.269 156.994 266.085 153.363 265.724 149.801C265.367 146.294 264.827 142.767 264.119 139.319C263.42 135.92 262.543 132.512 261.508 129.198C261.409 128.886 261.077 128.708 260.76 128.807C260.443 128.906 260.27 129.238 260.369 129.555C261.389 132.834 262.256 136.198 262.95 139.562C263.648 142.97 264.183 146.457 264.535 149.925C264.891 153.447 265.075 157.039 265.075 160.595C265.075 164.152 264.891 167.744 264.535 171.266C264.183 174.724 263.648 178.211 262.95 181.619Z" fill="#830016" fill-opacity="0.3"/>
<path d="M171.375 55.4462C164.251 54.723 156.92 54.723 149.796 55.4462C146.284 55.8029 142.757 56.3429 139.314 57.0513C135.911 57.7498 132.502 58.6266 129.193 59.6619C125.914 60.6824 122.649 61.8812 119.489 63.2188C116.358 64.5464 113.247 66.0424 110.255 67.6772C107.283 69.2971 104.35 71.0804 101.541 72.9777C98.7423 74.8701 96.0078 76.916 93.4021 79.066C93.1495 79.274 93.1099 79.6505 93.3229 79.9081C93.5309 80.1607 93.9074 80.1954 94.165 79.9874C96.741 77.8622 99.4458 75.8361 102.21 73.9685C104.984 72.091 107.887 70.3275 110.825 68.7274C113.787 67.1174 116.858 65.6362 119.954 64.3235C123.08 63.0008 126.305 61.8168 129.55 60.8063C132.824 59.7858 136.188 58.9189 139.557 58.2303C142.965 57.5318 146.447 56.9968 149.92 56.6451C156.964 55.9268 164.212 55.9268 171.256 56.6451C174.728 56.9968 178.216 57.5318 181.619 58.2303C184.983 58.9189 188.351 59.7907 191.626 60.8063C194.871 61.8168 198.095 63.0008 201.221 64.3235C204.317 65.6362 207.389 67.1174 210.351 68.7274C213.294 70.3275 216.192 72.091 218.966 73.9685C221.73 75.841 224.44 77.8622 227.011 79.9874C229.577 82.1076 232.078 84.3764 234.436 86.7344C236.794 89.0924 239.063 91.5892 241.183 94.1602C243.309 96.7312 245.335 99.4409 247.202 102.205C249.08 104.984 250.843 107.882 252.443 110.82C252.552 111.018 252.755 111.132 252.969 111.132C253.063 111.132 253.162 111.107 253.251 111.058C253.543 110.899 253.647 110.537 253.489 110.25C251.874 107.278 250.09 104.345 248.188 101.536C246.296 98.7375 244.245 95.998 242.1 93.3973C239.955 90.8015 237.661 88.2751 235.274 85.8873C232.886 83.4996 230.359 81.206 227.764 79.061C225.163 76.9111 222.423 74.8651 219.625 72.9728C216.816 71.0755 213.883 69.2921 210.911 67.6722C207.914 66.0424 204.808 64.5414 201.677 63.2138C198.517 61.8763 195.252 60.6775 191.973 59.657C188.663 58.6266 185.255 57.7448 181.852 57.0463C178.414 56.3478 174.887 55.8079 171.375 55.4462Z" fill="#830016" fill-opacity="0.3"/>
<path d="M68.7268 110.82C68.8853 110.532 68.7764 110.166 68.489 110.012C68.1968 109.854 67.8351 109.963 67.6766 110.25C66.0468 113.247 64.5458 116.358 63.2232 119.489C61.8856 122.649 60.6868 125.914 59.6663 129.193C58.631 132.507 57.7542 135.916 57.0557 139.314C56.3473 142.762 55.8073 146.289 55.4507 149.796C55.0891 153.358 54.9058 156.989 54.9058 160.586C54.9058 164.182 55.0891 167.813 55.4507 171.375C55.4804 171.682 55.7429 171.91 56.0451 171.91C56.0649 171.91 56.0848 171.91 56.1046 171.905C56.4315 171.87 56.6693 171.578 56.6396 171.251C56.2829 167.729 56.0996 164.137 56.0996 160.581C56.0996 157.024 56.2829 153.432 56.6396 149.91C56.9913 146.443 57.5263 142.955 58.2248 139.547C58.9134 136.188 59.7803 132.82 60.8057 129.54C61.8163 126.3 63.0002 123.07 64.3229 119.945C65.6307 116.858 67.1119 113.787 68.7268 110.82Z" fill="#830016" fill-opacity="0.3"/>
<path d="M72.977 219.635C74.8693 222.434 76.9202 225.173 79.0652 227.774C81.2102 230.37 83.5038 232.896 85.8915 235.284C88.2743 237.672 90.8057 239.965 93.4014 242.11C96.0022 244.26 98.7416 246.306 101.541 248.198C104.349 250.096 107.282 251.879 110.254 253.499C113.251 255.129 116.357 256.63 119.488 257.957C119.562 257.992 119.642 258.007 119.721 258.007C119.954 258.007 120.172 257.868 120.271 257.64C120.4 257.338 120.256 256.986 119.954 256.858C116.858 255.545 113.786 254.064 110.824 252.454C107.881 250.854 104.983 249.09 102.209 247.213C99.4451 245.34 96.7353 243.319 94.1643 241.189C91.5983 239.068 89.0966 236.8 86.7386 234.442C84.3806 232.084 82.1118 229.587 79.9915 227.016C77.8664 224.445 75.8403 221.735 73.9727 218.971C72.0952 216.192 70.3317 213.294 68.7316 210.356C68.5731 210.069 68.2115 209.96 67.9192 210.118C67.6269 210.277 67.5229 210.639 67.6814 210.926C69.2914 213.893 71.0747 216.826 72.977 219.635Z" fill="#830016" fill-opacity="0.3"/>
<path d="M139.315 264.12C142.758 264.828 146.285 265.368 149.797 265.725C153.359 266.087 156.99 266.27 160.586 266.27C160.918 266.27 161.186 266.002 161.186 265.67C161.186 265.339 160.918 265.071 160.586 265.071C157.029 265.071 153.438 264.888 149.916 264.531C146.443 264.179 142.956 263.644 139.553 262.946C139.231 262.881 138.913 263.09 138.849 263.412C138.785 263.739 138.993 264.056 139.315 264.12Z" fill="#830016" fill-opacity="0.3"/>
<path d="M179.735 254.386C179.775 254.386 179.815 254.381 179.854 254.376C182.936 253.742 186.022 252.949 189.024 252.013C191.991 251.086 194.949 250.002 197.817 248.788C200.655 247.584 203.469 246.227 206.184 244.751C208.879 243.284 211.534 241.669 214.075 239.95C216.611 238.236 219.088 236.379 221.446 234.437C223.799 232.495 226.083 230.414 228.248 228.254C228.481 228.022 228.481 227.645 228.248 227.412C228.015 227.179 227.639 227.179 227.406 227.412C225.271 229.547 223.012 231.603 220.688 233.52C218.36 235.442 215.913 237.275 213.406 238.97C210.895 240.669 208.274 242.264 205.609 243.71C202.929 245.167 200.15 246.509 197.346 247.698C194.518 248.897 191.595 249.967 188.662 250.883C185.7 251.805 182.653 252.592 179.612 253.217C179.29 253.281 179.082 253.598 179.146 253.92C179.205 254.188 179.453 254.386 179.735 254.386Z" fill="#830016" fill-opacity="0.3"/>
<path d="M252.007 189.025C252.943 186.023 253.736 182.937 254.37 179.856C255.009 176.73 255.5 173.535 255.822 170.359C256.149 167.139 256.317 163.85 256.317 160.586C256.317 157.321 256.149 154.032 255.822 150.812C255.5 147.636 255.009 144.441 254.37 141.315C253.736 138.234 252.943 135.148 252.007 132.146C251.081 129.179 249.996 126.221 248.782 123.353C247.578 120.509 246.221 117.696 244.745 114.986C243.279 112.296 241.664 109.641 239.945 107.094C239.761 106.822 239.39 106.748 239.117 106.936C238.845 107.119 238.771 107.491 238.959 107.763C240.658 110.28 242.253 112.9 243.7 115.561C245.156 118.236 246.499 121.015 247.687 123.823C248.886 126.652 249.956 129.575 250.873 132.502C251.794 135.465 252.582 138.511 253.206 141.553C253.84 144.639 254.321 147.795 254.643 150.931C254.965 154.111 255.133 157.361 255.133 160.586C255.133 163.81 254.97 167.055 254.643 170.241C254.321 173.376 253.84 176.532 253.206 179.618C252.582 182.66 251.794 185.706 250.873 188.669C249.961 191.601 248.886 194.519 247.687 197.348C246.499 200.152 245.156 202.931 243.7 205.611C242.253 208.271 240.658 210.891 238.959 213.408C238.776 213.68 238.845 214.052 239.117 214.235C239.221 214.305 239.335 214.339 239.449 214.339C239.643 214.339 239.831 214.245 239.945 214.077C241.664 211.53 243.284 208.875 244.745 206.185C246.221 203.476 247.578 200.662 248.782 197.818C250.001 194.95 251.081 191.993 252.007 189.025Z" fill="#830016" fill-opacity="0.3"/>
<path d="M141.559 67.9695C144.64 67.3354 147.796 66.8549 150.936 66.5329C157.307 65.8839 163.871 65.8839 170.241 66.5329C173.382 66.8549 176.538 67.3354 179.619 67.9695C182.66 68.5937 185.707 69.3764 188.669 70.3027C191.602 71.2142 194.52 72.2892 197.353 73.488C200.157 74.6769 202.936 76.0194 205.616 77.4758C208.276 78.9223 210.902 80.5175 213.414 82.2166C215.915 83.9108 218.367 85.7437 220.696 87.6658C223.019 89.5829 225.278 91.6387 227.413 93.7738C227.532 93.8927 227.68 93.9472 227.834 93.9472C227.988 93.9472 228.141 93.8878 228.255 93.7738C228.488 93.541 228.488 93.1645 228.255 92.9317C226.095 90.7718 223.807 88.6912 221.454 86.7493C219.096 84.8025 216.619 82.9498 214.082 81.2308C211.541 79.5118 208.886 77.8969 206.191 76.4306C203.481 74.9543 200.662 73.597 197.824 72.3932C194.956 71.1796 191.998 70.0947 189.031 69.1683C186.029 68.232 182.943 67.4394 179.862 66.8053C176.741 66.1663 173.545 65.6759 170.365 65.3539C163.91 64.695 157.267 64.695 150.818 65.3539C147.637 65.6759 144.442 66.1663 141.321 66.8053C140.999 66.8697 140.791 67.1868 140.855 67.5088C140.92 67.8308 141.237 68.0388 141.559 67.9695Z" fill="#830016" fill-opacity="0.3"/>
<path d="M123.357 72.3881C120.518 73.5919 117.704 74.9493 114.99 76.4255C112.295 77.8918 109.64 79.5068 107.098 81.2257C104.562 82.9397 102.085 84.7974 99.7271 86.7393C97.3741 88.6812 95.0904 90.7618 92.9256 92.9216C92.6928 93.1545 92.6928 93.531 92.9256 93.7638C93.0445 93.8827 93.1931 93.9372 93.3467 93.9372C93.5002 93.9372 93.6538 93.8777 93.7677 93.7638C95.9028 91.6287 98.1617 89.5729 100.485 87.6558C102.813 85.7337 105.261 83.9008 107.767 82.2066C110.279 80.5074 112.899 78.9123 115.564 77.4658C118.244 76.0094 121.023 74.6669 123.827 73.478C124.129 73.3492 124.273 72.9975 124.144 72.6953C124.011 72.403 123.659 72.2593 123.357 72.3881Z" fill="#830016" fill-opacity="0.3"/>
<path d="M82.2159 107.768C82.3992 107.496 82.3298 107.124 82.0573 106.941C81.7849 106.758 81.4133 106.827 81.2301 107.099C79.5111 109.646 77.8912 112.301 76.4298 114.991C74.9536 117.7 73.5963 120.514 72.3925 123.358C72.2637 123.66 72.4074 124.012 72.7096 124.14C72.7839 124.175 72.8631 124.19 72.9424 124.19C73.1752 124.19 73.3932 124.051 73.4922 123.823C74.6812 121.02 76.0236 118.24 77.48 115.56C78.9166 112.905 80.5167 110.28 82.2159 107.768Z" fill="#830016" fill-opacity="0.3"/>
<path d="M66.7999 179.856C67.4339 182.937 68.2266 186.023 69.1628 189.025C70.0892 191.993 71.1741 194.95 72.3877 197.818C72.4819 198.046 72.7048 198.185 72.9376 198.185C73.0169 198.185 73.0961 198.17 73.1704 198.135C73.4726 198.006 73.6163 197.655 73.4875 197.353C72.2887 194.524 71.2186 191.601 70.3022 188.673C69.3808 185.711 68.5931 182.665 67.969 179.623C67.3349 176.537 66.8544 173.381 66.5324 170.245C66.2104 167.065 66.0419 163.815 66.0419 160.59C66.0419 157.365 66.2054 154.121 66.5324 150.935C66.8544 147.8 67.3349 144.644 67.969 141.558C68.0334 141.236 67.8253 140.919 67.5033 140.854C67.1813 140.79 66.8643 140.998 66.7999 141.32C66.1608 144.446 65.6704 147.641 65.3484 150.817C65.0215 154.037 64.853 157.326 64.853 160.59C64.853 163.855 65.0215 167.144 65.3484 170.364C65.6704 173.535 66.1608 176.73 66.7999 179.856Z" fill="#830016" fill-opacity="0.3"/>
<path d="M86.7391 221.448C88.681 223.801 90.7616 226.09 92.9215 228.25C93.0404 228.368 93.189 228.423 93.3425 228.423C93.4961 228.423 93.6497 228.363 93.7636 228.25C93.9964 228.017 93.9964 227.64 93.7636 227.407C91.6285 225.272 89.5777 223.013 87.6556 220.69C85.7286 218.357 83.8957 215.91 82.2064 213.408C82.0231 213.135 81.6516 213.061 81.3791 213.249C81.1067 213.433 81.0324 213.804 81.2206 214.077C82.9346 216.608 84.7923 219.085 86.7391 221.448Z" fill="#830016" fill-opacity="0.3"/>
<path d="M132.151 252.008C132.211 252.028 132.27 252.033 132.33 252.033C132.582 252.033 132.82 251.869 132.899 251.612C132.999 251.295 132.82 250.963 132.508 250.864C129.576 249.952 126.658 248.877 123.824 247.678C121.02 246.489 118.241 245.147 115.561 243.691C112.901 242.244 110.276 240.649 107.764 238.95C107.492 238.761 107.12 238.836 106.937 239.108C106.753 239.381 106.823 239.752 107.095 239.936C109.637 241.655 112.292 243.269 114.987 244.736C117.696 246.212 120.515 247.569 123.354 248.773C126.222 249.997 129.184 251.082 132.151 252.008Z" fill="#830016" fill-opacity="0.3"/>
<path d="M160.586 255.124C157.366 255.124 154.121 254.96 150.931 254.633C150.599 254.604 150.311 254.837 150.277 255.168C150.242 255.495 150.48 255.788 150.812 255.822C154.037 256.149 157.326 256.318 160.586 256.318C160.918 256.318 161.185 256.05 161.185 255.718C161.185 255.391 160.918 255.124 160.586 255.124Z" fill="#830016" fill-opacity="0.3"/>
<path d="M169.325 246.326C169.345 246.326 169.365 246.326 169.385 246.321C172.248 246.029 175.121 245.588 177.93 245.013C178.252 244.949 178.46 244.632 178.395 244.31C178.331 243.988 178.014 243.78 177.692 243.844C174.923 244.414 172.084 244.845 169.261 245.132C168.934 245.167 168.696 245.459 168.726 245.786C168.76 246.093 169.023 246.326 169.325 246.326Z" fill="#830016" fill-opacity="0.3"/>
<path d="M214.61 226.139C212.509 227.873 210.31 229.518 208.066 231.039C205.807 232.564 203.449 234.001 201.056 235.299C198.649 236.607 196.147 237.815 193.63 238.88C193.328 239.009 193.185 239.361 193.313 239.663C193.408 239.891 193.63 240.03 193.863 240.03C193.943 240.03 194.022 240.015 194.096 239.98C196.652 238.895 199.184 237.677 201.626 236.349C204.048 235.031 206.441 233.575 208.73 232.029C211.003 230.489 213.238 228.819 215.368 227.066C215.62 226.858 215.66 226.481 215.447 226.223C215.244 225.966 214.862 225.931 214.61 226.139Z" fill="#830016" fill-opacity="0.3"/>
<path d="M226.598 215.593C226.772 215.593 226.94 215.518 227.059 215.375C228.813 213.249 230.482 211.015 232.023 208.737C232.206 208.464 232.137 208.093 231.864 207.909C231.592 207.726 231.22 207.795 231.037 208.068C229.516 210.317 227.871 212.516 226.143 214.612C225.935 214.864 225.969 215.241 226.222 215.454C226.331 215.548 226.465 215.593 226.598 215.593Z" fill="#830016" fill-opacity="0.3"/>
<path d="M241.744 185.83C240.922 188.466 239.961 191.091 238.881 193.632C238.752 193.935 238.896 194.286 239.198 194.415C239.272 194.45 239.351 194.465 239.431 194.465C239.663 194.465 239.886 194.326 239.981 194.098C241.075 191.517 242.051 188.857 242.883 186.182C243.726 183.477 244.444 180.698 245.009 177.929C245.583 175.12 246.024 172.242 246.316 169.379C246.614 166.476 246.762 163.513 246.762 160.581C246.762 160.249 246.495 159.981 246.163 159.981C245.831 159.981 245.563 160.249 245.563 160.581C245.563 163.474 245.415 166.391 245.123 169.26C244.835 172.083 244.399 174.917 243.835 177.691C243.285 180.426 242.576 183.165 241.744 185.83Z" fill="#830016" fill-opacity="0.3"/>
<path d="M127.071 81.1911C124.515 82.276 121.984 83.4946 119.542 84.8222C119.254 84.9807 119.145 85.3424 119.304 85.6297C119.462 85.917 119.824 86.026 120.116 85.8675C122.524 84.5597 125.026 83.3509 127.542 82.2859C130.088 81.2059 132.714 80.2449 135.344 79.4226C138.004 78.5903 140.744 77.8869 143.483 77.3271C146.257 76.7574 149.091 76.3264 151.915 76.0391C157.641 75.4546 163.541 75.4546 169.268 76.0391C172.091 76.3264 174.925 76.7624 177.699 77.3271C180.439 77.8869 183.173 78.5953 185.838 79.4226C188.474 80.2449 191.099 81.2059 193.64 82.2859C196.162 83.3559 198.659 84.5597 201.066 85.8675C203.459 87.1703 205.817 88.6019 208.076 90.1277C210.32 91.6436 212.524 93.2932 214.62 95.0221C216.71 96.746 218.741 98.5938 220.658 100.511C222.575 102.428 224.418 104.459 226.147 106.55C227.876 108.645 229.526 110.844 231.041 113.094C232.567 115.352 234.004 117.71 235.302 120.103C236.61 122.506 237.818 125.007 238.888 127.529C239.968 130.075 240.929 132.701 241.752 135.331C242.584 137.996 243.287 140.736 243.847 143.47C243.906 143.753 244.154 143.946 244.432 143.946C244.471 143.946 244.511 143.941 244.55 143.936C244.872 143.871 245.081 143.554 245.016 143.232C244.446 140.463 243.733 137.684 242.891 134.979C242.059 132.309 241.083 129.644 239.988 127.063C238.903 124.502 237.68 121.971 236.352 119.533C235.034 117.106 233.578 114.718 232.032 112.43C230.492 110.151 228.822 107.917 227.069 105.792C225.32 103.671 223.442 101.611 221.5 99.6687C219.554 97.7219 217.498 95.8494 215.378 94.1007C213.247 92.3421 211.018 90.6726 208.74 89.137C206.451 87.5864 204.058 86.135 201.636 84.8173C199.194 83.4896 196.657 82.266 194.106 81.1861C191.525 80.0913 188.86 79.1154 186.19 78.2832C183.49 77.441 180.711 76.7277 177.937 76.158C175.128 75.5834 172.25 75.1425 169.392 74.8502C163.581 74.2607 157.602 74.2607 151.796 74.8502C148.933 75.1425 146.059 75.5834 143.251 76.158C140.471 76.7277 137.697 77.441 134.998 78.2832C132.313 79.1204 129.652 80.0963 127.071 81.1911Z" fill="#830016" fill-opacity="0.3"/>
<path d="M89.3059 113.267C89.4099 113.336 89.5239 113.371 89.6378 113.371C89.831 113.371 90.0193 113.277 90.1332 113.108C91.654 110.859 93.2987 108.66 95.0275 106.565C96.7564 104.474 98.5992 102.443 100.516 100.526C102.433 98.6087 104.464 96.7609 106.555 95.037C106.808 94.829 106.847 94.4525 106.634 94.1949C106.421 93.9422 106.045 93.9026 105.792 94.1156C103.672 95.8643 101.616 97.7368 99.6692 99.6787C97.7273 101.621 95.8548 103.681 94.1012 105.802C92.3475 107.927 90.6781 110.161 89.1375 112.44C88.9591 112.707 89.0335 113.079 89.3059 113.267Z" fill="#830016" fill-opacity="0.3"/>
<path d="M76.1565 177.934C76.7262 180.703 77.4395 183.482 78.2816 186.187C79.1139 188.857 80.0898 191.522 81.1846 194.103C81.2787 194.331 81.5016 194.47 81.7344 194.47C81.8137 194.47 81.893 194.455 81.9673 194.42C82.2694 194.291 82.4131 193.94 82.2843 193.637C81.2044 191.091 80.2433 188.466 79.421 185.835C78.5888 183.17 77.8853 180.431 77.3256 177.696C76.7559 174.927 76.3249 172.088 76.0376 169.27C75.7453 166.406 75.5967 163.484 75.5967 160.591C75.5967 157.698 75.7453 154.78 76.0376 151.912C76.3249 149.088 76.7608 146.254 77.3256 143.485C77.8853 140.751 78.5937 138.016 79.421 135.346C80.2433 132.711 81.2044 130.085 82.2843 127.544C82.4131 127.242 82.2694 126.89 81.9673 126.761C81.6651 126.632 81.3134 126.776 81.1846 127.078C80.0898 129.659 79.1139 132.319 78.2816 134.994C77.4395 137.699 76.7212 140.478 76.1565 143.247C75.5818 146.056 75.1409 148.934 74.8487 151.798C74.5514 154.701 74.4028 157.663 74.4028 160.596C74.4028 163.528 74.5514 166.491 74.8487 169.394C75.1409 172.247 75.5818 175.125 76.1565 177.934Z" fill="#830016" fill-opacity="0.3"/>
<path d="M99.6795 221.497C101.626 223.444 103.682 225.317 105.802 227.066C107.932 228.824 110.162 230.494 112.44 232.029C112.544 232.099 112.658 232.133 112.772 232.133C112.966 232.133 113.154 232.039 113.268 231.871C113.451 231.598 113.382 231.227 113.109 231.043C110.865 229.528 108.661 227.878 106.565 226.149C104.475 224.425 102.444 222.577 100.527 220.66C98.6095 218.743 96.7666 216.712 95.0378 214.622C93.3089 212.526 91.6593 210.327 90.1434 208.078C89.9601 207.805 89.5886 207.731 89.3161 207.919C89.0437 208.102 88.9694 208.474 89.1576 208.746C90.6983 211.025 92.3677 213.259 94.1213 215.384C95.8601 217.495 97.7326 219.556 99.6795 221.497Z" fill="#830016" fill-opacity="0.3"/>
<path d="M143.241 245.013C146.05 245.588 148.928 246.029 151.786 246.321C151.806 246.321 151.826 246.326 151.846 246.326C152.148 246.326 152.406 246.098 152.44 245.791C152.475 245.464 152.237 245.172 151.905 245.137C149.082 244.85 146.248 244.414 143.474 243.849C140.734 243.289 138 242.581 135.335 241.753C132.699 240.931 130.074 239.97 127.533 238.89C127.23 238.761 126.879 238.905 126.75 239.207C126.621 239.509 126.765 239.861 127.067 239.99C129.648 241.085 132.313 242.061 134.983 242.893C137.688 243.725 140.462 244.443 143.241 245.013Z" fill="#830016" fill-opacity="0.3"/>
<path d="M190.541 231.549C192.82 230.583 195.083 229.488 197.273 228.299C199.438 227.12 201.573 225.822 203.624 224.435C205.66 223.058 207.656 221.562 209.554 219.996C211.446 218.431 213.289 216.757 215.027 215.023C215.26 214.79 215.26 214.413 215.027 214.181C214.795 213.948 214.418 213.948 214.185 214.181C212.476 215.89 210.663 217.539 208.796 219.08C206.928 220.621 204.961 222.092 202.955 223.449C200.934 224.811 198.834 226.094 196.703 227.254C194.553 228.423 192.324 229.498 190.075 230.449C187.806 231.41 185.463 232.267 183.11 233C180.737 233.738 178.29 234.372 175.848 234.873C175.526 234.937 175.318 235.254 175.382 235.576C175.442 235.858 175.689 236.052 175.967 236.052C176.006 236.052 176.046 236.047 176.086 236.042C178.568 235.531 181.049 234.892 183.462 234.139C185.855 233.396 188.237 232.525 190.541 231.549Z" fill="#830016" fill-opacity="0.3"/>
<path d="M236.042 176.091C236.558 173.579 236.949 171.013 237.212 168.452C237.474 165.856 237.608 163.211 237.608 160.591C237.608 157.965 237.474 155.32 237.212 152.729C236.949 150.168 236.558 147.597 236.042 145.09C235.532 142.608 234.893 140.126 234.14 137.714C233.397 135.326 232.525 132.943 231.544 130.64C230.573 128.351 229.484 126.087 228.295 123.908C227.116 121.743 225.818 119.603 224.431 117.557C223.054 115.521 221.563 113.525 219.992 111.627C218.427 109.735 216.752 107.892 215.019 106.153C213.28 104.414 211.442 102.74 209.545 101.18C207.647 99.6143 205.651 98.1182 203.615 96.7411C201.564 95.354 199.429 94.0561 197.264 92.8771C195.08 91.6882 192.816 90.5934 190.532 89.6274C188.229 88.6515 185.846 87.7796 183.458 87.0316C181.046 86.2786 178.564 85.6396 176.082 85.1294C175.76 85.065 175.443 85.273 175.378 85.595C175.314 85.917 175.522 86.2341 175.844 86.2985C178.286 86.7988 180.728 87.4279 183.106 88.171C185.459 88.9042 187.802 89.7612 190.071 90.7222C192.315 91.6733 194.545 92.7483 196.699 93.9174C198.83 95.0766 200.935 96.3547 202.951 97.7219C204.957 99.0793 206.924 100.551 208.792 102.091C210.659 103.632 212.467 105.276 214.181 106.99C215.89 108.7 217.54 110.513 219.081 112.38C220.626 114.253 222.093 116.214 223.45 118.221C224.812 120.237 226.09 122.337 227.254 124.472C228.424 126.617 229.498 128.847 230.455 131.101C231.416 133.369 232.273 135.713 233.006 138.066C233.744 140.439 234.378 142.886 234.878 145.328C235.384 147.8 235.77 150.326 236.028 152.848C236.285 155.404 236.419 158.005 236.419 160.591C236.419 163.171 236.285 165.777 236.028 168.333C235.77 170.855 235.384 173.386 234.878 175.853C234.378 178.295 233.749 180.738 233.006 183.115C232.273 185.469 231.416 187.812 230.455 190.081C229.498 192.33 228.424 194.564 227.254 196.709C227.096 196.996 227.205 197.363 227.492 197.516C227.581 197.566 227.68 197.59 227.775 197.59C227.988 197.59 228.191 197.477 228.3 197.278C229.484 195.099 230.578 192.835 231.549 190.546C232.525 188.243 233.397 185.86 234.145 183.472C234.893 181.055 235.532 178.573 236.042 176.091Z" fill="#830016" fill-opacity="0.3"/>
<path d="M152.842 85.1493C155.399 84.8867 158.004 84.7579 160.585 84.7579C160.917 84.7579 161.185 84.4904 161.185 84.1585C161.185 83.8266 160.917 83.5591 160.585 83.5591C157.965 83.5591 155.319 83.6928 152.724 83.9554C152.397 83.9901 152.159 84.2823 152.189 84.6093C152.218 84.9164 152.481 85.1443 152.783 85.1443C152.803 85.1492 152.823 85.1493 152.842 85.1493Z" fill="#830016" fill-opacity="0.3"/>
<path d="M124.185 93.9918C124.28 93.9918 124.379 93.967 124.468 93.9175C126.618 92.7484 128.852 91.6734 131.096 90.7223C133.365 89.7612 135.708 88.9042 138.061 88.1711C138.373 88.072 138.551 87.7401 138.452 87.423C138.353 87.111 138.026 86.9326 137.704 87.0317C135.317 87.7748 132.934 88.6516 130.63 89.6275C128.352 90.5935 126.088 91.6883 123.898 92.8772C123.606 93.0357 123.502 93.3973 123.66 93.6846C123.769 93.8828 123.977 93.9918 124.185 93.9918Z" fill="#830016" fill-opacity="0.3"/>
<path d="M102.089 112.38C103.63 110.513 105.279 108.705 106.988 106.991C108.697 105.281 110.51 103.632 112.378 102.091C112.631 101.883 112.67 101.507 112.457 101.249C112.244 100.996 111.868 100.957 111.615 101.17C109.723 102.735 107.88 104.41 106.141 106.143C104.402 107.882 102.733 109.72 101.167 111.617C99.5971 113.52 98.1061 115.511 96.7289 117.547C95.3418 119.593 94.044 121.733 92.865 123.898C92.7064 124.185 92.8154 124.552 93.1027 124.705C93.1919 124.755 93.291 124.78 93.3851 124.78C93.5981 124.78 93.8012 124.666 93.9102 124.468C95.0694 122.332 96.3475 120.232 97.7147 118.216C99.077 116.214 100.548 114.253 102.089 112.38Z" fill="#830016" fill-opacity="0.3"/>
<path d="M86.2994 145.323C86.7998 142.881 87.4289 140.438 88.172 138.061C88.271 137.744 88.0927 137.412 87.7806 137.313C87.4636 137.213 87.1317 137.392 87.0326 137.704C86.2796 140.116 85.6406 142.598 85.1303 145.08C84.6151 147.592 84.2238 150.158 83.9612 152.719C83.6987 155.315 83.5649 157.96 83.5649 160.581C83.5649 163.206 83.6987 165.851 83.9612 168.442C84.2238 171.003 84.6151 173.574 85.1303 176.081C85.6406 178.563 86.2796 181.045 87.0326 183.457C87.7757 185.845 88.6475 188.228 89.6284 190.531C90.5993 192.82 91.6891 195.084 92.8781 197.263C94.0571 199.428 95.355 201.568 96.742 203.614C98.1192 205.65 99.6103 207.647 101.181 209.544C102.746 211.436 104.42 213.279 106.154 215.018C107.893 216.757 109.731 218.431 111.628 219.991C113.525 221.557 115.522 223.053 117.558 224.43C117.662 224.499 117.776 224.534 117.89 224.534C118.083 224.534 118.271 224.44 118.385 224.272C118.568 223.999 118.499 223.628 118.227 223.444C116.22 222.087 114.254 220.616 112.386 219.075C110.518 217.534 108.71 215.89 106.996 214.176C105.287 212.467 103.638 210.654 102.097 208.786C100.551 206.913 99.0852 204.952 97.7278 202.945C96.3655 200.929 95.0874 198.829 93.9233 196.694C92.7542 194.549 91.6792 192.32 90.7232 190.066C89.7621 187.797 88.9051 185.454 88.172 183.101C87.4338 180.728 86.7998 178.28 86.2994 175.838C85.7941 173.366 85.4078 170.84 85.1502 168.318C84.8926 165.762 84.7588 163.161 84.7588 160.576C84.7588 157.995 84.8926 155.389 85.1502 152.833C85.4078 150.321 85.7941 147.795 86.2994 145.323Z" fill="#830016" fill-opacity="0.3"/>
<path d="M137.708 234.145C140.121 234.898 142.603 235.537 145.085 236.047C147.601 236.562 150.172 236.954 152.723 237.216C152.743 237.216 152.763 237.221 152.783 237.221C153.085 237.221 153.343 236.993 153.377 236.686C153.412 236.359 153.174 236.067 152.842 236.032C150.326 235.775 147.799 235.388 145.322 234.883C142.88 234.383 140.438 233.753 138.06 233.01C135.707 232.277 133.364 231.42 131.095 230.459C130.793 230.33 130.441 230.474 130.312 230.776C130.184 231.078 130.327 231.43 130.629 231.559C132.938 232.525 135.316 233.397 137.708 234.145Z" fill="#830016" fill-opacity="0.3"/>
<path d="M168.089 227.848C168.054 227.521 167.767 227.284 167.435 227.313C162.912 227.774 158.261 227.774 153.738 227.313C151.514 227.085 149.274 226.744 147.085 226.293C144.925 225.852 142.765 225.292 140.665 224.638C138.584 223.989 136.514 223.231 134.507 222.379C132.516 221.537 130.544 220.586 128.647 219.551C126.76 218.525 124.897 217.391 123.118 216.187C121.35 214.993 119.611 213.69 117.952 212.323C116.302 210.961 114.697 209.499 113.186 207.989C111.67 206.473 110.214 204.873 108.857 203.223C107.494 201.573 106.191 199.835 104.993 198.056C103.784 196.268 102.654 194.405 101.629 192.528C100.594 190.626 99.6425 188.654 98.8004 186.667C98.6716 186.365 98.3198 186.222 98.0177 186.35C97.7155 186.479 97.5718 186.831 97.7006 187.133C98.5576 189.154 99.5236 191.165 100.579 193.097C101.619 195.015 102.773 196.907 104.002 198.725C105.225 200.533 106.548 202.302 107.935 203.981C109.317 205.66 110.803 207.29 112.344 208.831C113.88 210.366 115.514 211.853 117.194 213.24C118.883 214.632 120.651 215.954 122.45 217.173C124.263 218.401 126.16 219.551 128.077 220.596C130.009 221.646 132.02 222.617 134.042 223.474C136.083 224.341 138.193 225.114 140.313 225.773C142.453 226.441 144.653 227.006 146.852 227.457C149.076 227.913 151.355 228.264 153.624 228.492C155.927 228.725 158.271 228.844 160.594 228.844C162.917 228.844 165.26 228.725 167.564 228.492C167.881 228.468 168.124 228.175 168.089 227.848Z" fill="#830016" fill-opacity="0.3"/>
<path d="M220.601 193.102C221.656 191.165 222.622 189.159 223.479 187.138C224.346 185.097 225.119 182.987 225.778 180.866C226.447 178.721 227.011 176.522 227.462 174.327C227.531 174.005 227.318 173.688 226.996 173.624C226.674 173.56 226.357 173.768 226.293 174.09C225.852 176.245 225.292 178.404 224.638 180.51C223.989 182.59 223.232 184.666 222.379 186.667C221.537 188.654 220.586 190.625 219.551 192.528C218.525 194.41 217.396 196.268 216.187 198.056C214.988 199.835 213.686 201.568 212.323 203.223C210.961 204.873 209.505 206.473 207.994 207.988C206.483 209.499 204.878 210.956 203.228 212.318C201.569 213.685 199.83 214.988 198.061 216.182C196.278 217.386 194.415 218.52 192.533 219.546C192.241 219.704 192.137 220.066 192.295 220.353C192.404 220.551 192.607 220.665 192.82 220.665C192.914 220.665 193.013 220.64 193.103 220.591C195.025 219.546 196.917 218.396 198.73 217.168C200.528 215.949 202.302 214.627 203.986 213.235C205.665 211.847 207.3 210.361 208.836 208.826C210.376 207.285 211.863 205.65 213.245 203.976C214.632 202.297 215.954 200.528 217.178 198.72C218.407 196.912 219.561 195.014 220.601 193.102Z" fill="#830016" fill-opacity="0.3"/>
<path d="M226.297 147.087C226.748 149.276 227.09 151.515 227.313 153.74C227.541 156.003 227.659 158.307 227.659 160.591C227.659 160.923 227.927 161.19 228.259 161.19C228.591 161.19 228.858 160.923 228.858 160.591C228.858 158.272 228.739 155.924 228.507 153.621C228.274 151.357 227.927 149.078 227.471 146.849C227.02 144.654 226.456 142.455 225.787 140.31C225.688 139.998 225.361 139.819 225.039 139.918C224.727 140.017 224.548 140.349 224.648 140.666C225.296 142.767 225.851 144.932 226.297 147.087Z" fill="#830016" fill-opacity="0.3"/>
<path d="M220.601 128.074C219.561 126.157 218.406 124.264 217.178 122.446C215.954 120.638 214.632 118.869 213.244 117.19C211.862 115.511 210.376 113.881 208.836 112.34C208.603 112.108 208.226 112.108 207.993 112.34C207.761 112.573 207.761 112.95 207.993 113.183C209.509 114.698 210.966 116.298 212.323 117.948C213.685 119.598 214.988 121.336 216.187 123.115C217.396 124.903 218.525 126.766 219.551 128.643C219.66 128.841 219.863 128.955 220.076 128.955C220.17 128.955 220.269 128.931 220.358 128.881C220.65 128.723 220.759 128.361 220.601 128.074Z" fill="#830016" fill-opacity="0.3"/>
<path d="M146.382 94.4127C146.446 94.7347 146.763 94.9428 147.085 94.8784C149.275 94.4276 151.514 94.0858 153.738 93.8579C158.261 93.3972 162.913 93.3972 167.436 93.8579C169.66 94.0858 171.899 94.4276 174.089 94.8784C176.248 95.3193 178.408 95.879 180.509 96.5329C182.589 97.1819 184.66 97.9398 186.666 98.7919C188.658 99.634 190.629 100.585 192.527 101.62C194.414 102.646 196.277 103.78 198.055 104.984C198.159 105.053 198.273 105.088 198.387 105.088C198.58 105.088 198.768 104.994 198.882 104.826C199.066 104.553 198.996 104.182 198.724 103.998C196.911 102.77 195.013 101.62 193.096 100.575C191.164 99.525 189.153 98.5541 187.132 97.6971C185.091 96.8302 182.981 96.0574 180.86 95.3985C178.72 94.7298 176.521 94.165 174.321 93.7142C172.097 93.2585 169.818 92.9068 167.55 92.6789C162.947 92.2083 158.212 92.2083 153.61 92.6789C151.346 92.9117 149.067 93.2585 146.838 93.7142C146.521 93.7737 146.313 94.0907 146.382 94.4127Z" fill="#830016" fill-opacity="0.3"/>
<path d="M117.184 107.927C116.932 108.135 116.892 108.511 117.105 108.769C117.224 108.912 117.392 108.987 117.566 108.987C117.7 108.987 117.833 108.942 117.947 108.848C119.607 107.481 121.346 106.178 123.114 104.984C124.897 103.78 126.76 102.646 128.642 101.62C130.545 100.585 132.516 99.634 134.503 98.7918C134.805 98.663 134.949 98.3113 134.82 98.0091C134.691 97.7069 134.339 97.5633 134.037 97.6921C132.011 98.5491 130.005 99.52 128.073 100.57C126.151 101.615 124.258 102.765 122.445 103.993C120.642 105.212 118.874 106.535 117.184 107.927Z" fill="#830016" fill-opacity="0.3"/>
<path d="M98.0084 134.821C98.0827 134.856 98.1619 134.87 98.2412 134.87C98.474 134.87 98.692 134.732 98.7911 134.504C99.6332 132.517 100.584 130.546 101.62 128.643C101.778 128.356 101.669 127.99 101.382 127.836C101.09 127.678 100.728 127.786 100.569 128.074C99.5143 130.011 98.5483 132.017 97.6913 134.038C97.5625 134.34 97.7062 134.692 98.0084 134.821Z" fill="#830016" fill-opacity="0.3"/>
<path d="M94.8794 147.086C94.9438 146.764 94.7357 146.447 94.4137 146.383C94.0917 146.319 93.7747 146.527 93.7103 146.849C93.2546 149.078 92.9028 151.357 92.675 153.621C92.4421 155.924 92.3232 158.267 92.3232 160.591C92.3232 162.909 92.4421 165.257 92.675 167.561C92.9078 169.824 93.2546 172.103 93.7103 174.332C93.7697 174.615 94.0174 174.808 94.2948 174.808C94.3345 174.808 94.3741 174.803 94.4137 174.798C94.7357 174.734 94.9438 174.417 94.8794 174.095C94.4286 171.905 94.0868 169.666 93.8639 167.442C93.636 165.178 93.5171 162.874 93.5171 160.591C93.5171 158.312 93.636 156.008 93.8639 153.744C94.0868 151.515 94.4286 149.276 94.8794 147.086Z" fill="#830016" fill-opacity="0.3"/>
<path d="M105.397 183.883C106.15 185.662 106.997 187.42 107.923 189.119C108.84 190.804 109.85 192.468 110.93 194.058C112 195.644 113.16 197.194 114.383 198.67C115.597 200.142 116.9 201.573 118.252 202.926C119.604 204.278 121.036 205.581 122.507 206.795C123.979 208.008 125.529 209.172 127.119 210.247C128.709 211.322 130.369 212.333 132.058 213.249C133.757 214.171 135.521 215.023 137.294 215.776C139.088 216.534 140.94 217.217 142.798 217.792C144.681 218.377 146.608 218.877 148.535 219.273C150.486 219.674 152.483 219.982 154.474 220.185C156.49 220.393 158.551 220.497 160.592 220.497C162.633 220.497 164.694 220.393 166.71 220.185C167.037 220.15 167.275 219.858 167.245 219.531C167.21 219.204 166.928 218.966 166.591 218.996C162.638 219.397 158.556 219.397 154.603 218.996C152.651 218.798 150.694 218.495 148.782 218.104C146.895 217.718 145.003 217.227 143.16 216.658C141.342 216.093 139.529 215.424 137.77 214.681C136.031 213.943 134.302 213.111 132.638 212.204C130.983 211.303 129.353 210.312 127.798 209.262C126.243 208.206 124.722 207.067 123.275 205.878C121.829 204.684 120.427 203.411 119.104 202.084C117.776 200.756 116.503 199.354 115.31 197.912C114.116 196.466 112.976 194.945 111.926 193.39C110.871 191.829 109.88 190.199 108.984 188.55C108.077 186.885 107.245 185.161 106.507 183.418C105.764 181.664 105.1 179.851 104.53 178.028C104.431 177.716 104.104 177.537 103.782 177.637C103.47 177.736 103.292 178.068 103.391 178.385C103.96 180.242 104.639 182.095 105.397 183.883Z" fill="#830016" fill-opacity="0.3"/>
<path d="M194.221 209.42C194.037 209.148 193.666 209.073 193.393 209.262C191.833 210.317 190.208 211.308 188.553 212.204C186.889 213.111 185.16 213.943 183.421 214.681C181.663 215.424 179.85 216.093 178.032 216.658C177.719 216.757 177.541 217.089 177.64 217.406C177.719 217.663 177.957 217.827 178.21 217.827C178.269 217.827 178.329 217.817 178.388 217.802C180.246 217.222 182.094 216.544 183.892 215.786C185.665 215.033 187.429 214.186 189.128 213.259C190.817 212.343 192.477 211.332 194.067 210.257C194.33 210.064 194.404 209.693 194.221 209.42Z" fill="#830016" fill-opacity="0.3"/>
<path d="M209.26 193.39C208.21 194.94 207.07 196.461 205.876 197.912C204.688 199.354 203.409 200.756 202.082 202.084C201.849 202.316 201.849 202.693 202.082 202.926C202.201 203.045 202.349 203.099 202.503 203.099C202.656 203.099 202.81 203.04 202.924 202.926C204.276 201.573 205.579 200.142 206.793 198.67C208.012 197.194 209.176 195.639 210.246 194.058C210.429 193.786 210.36 193.414 210.087 193.231C209.815 193.043 209.443 193.117 209.26 193.39Z" fill="#830016" fill-opacity="0.3"/>
<path d="M218.103 172.405C218.038 172.727 218.247 173.044 218.568 173.109C218.608 173.119 218.648 173.119 218.687 173.119C218.965 173.119 219.212 172.925 219.272 172.643C219.673 170.691 219.98 168.69 220.183 166.698C220.391 164.677 220.496 162.621 220.496 160.58C220.496 158.544 220.391 156.484 220.183 154.463C219.98 152.471 219.673 150.475 219.272 148.518C218.876 146.586 218.38 144.654 217.791 142.782C217.692 142.464 217.355 142.291 217.043 142.39C216.726 142.489 216.552 142.821 216.651 143.138C217.226 144.971 217.711 146.863 218.103 148.761C218.494 150.673 218.796 152.635 218.995 154.586C219.198 156.568 219.297 158.584 219.297 160.58C219.297 162.577 219.193 164.598 218.995 166.575C218.796 168.531 218.499 170.493 218.103 172.405Z" fill="#830016" fill-opacity="0.3"/>
<path d="M205.957 122.421C205.705 122.629 205.665 123.006 205.878 123.264C207.072 124.71 208.211 126.231 209.262 127.786C210.317 129.347 211.307 130.977 212.204 132.626C212.313 132.824 212.516 132.938 212.729 132.938C212.823 132.938 212.922 132.914 213.012 132.864C213.304 132.705 213.408 132.344 213.249 132.057C212.333 130.372 211.322 128.708 210.242 127.118C209.172 125.532 208.013 123.982 206.79 122.506C206.586 122.243 206.21 122.208 205.957 122.421Z" fill="#830016" fill-opacity="0.3"/>
<path d="M101.521 155.127C101.541 155.127 101.561 155.132 101.581 155.132C101.883 155.132 102.14 154.904 102.175 154.597C102.373 152.645 102.675 150.688 103.067 148.771C103.458 146.874 103.944 144.981 104.518 143.148C105.088 141.325 105.752 139.512 106.495 137.759C107.233 136.015 108.065 134.291 108.972 132.626C109.868 130.972 110.859 129.342 111.914 127.787C112.964 126.236 114.104 124.715 115.298 123.264C116.487 121.822 117.765 120.42 119.092 119.093C120.415 117.77 121.822 116.492 123.263 115.298C124.705 114.109 126.226 112.97 127.786 111.915C129.347 110.859 130.971 109.869 132.626 108.972C134.291 108.066 136.019 107.233 137.758 106.495C139.517 105.752 141.33 105.083 143.148 104.519C144.991 103.944 146.883 103.458 148.77 103.072C150.683 102.681 152.644 102.379 154.591 102.18C158.544 101.779 162.626 101.779 166.579 102.18C168.531 102.379 170.488 102.681 172.4 103.072C174.287 103.458 176.18 103.949 178.023 104.519C179.841 105.083 181.654 105.752 183.412 106.495C185.151 107.233 186.88 108.066 188.544 108.972C190.199 109.874 191.829 110.864 193.384 111.915C193.657 112.103 194.028 112.029 194.211 111.756C194.395 111.484 194.325 111.112 194.053 110.929C192.463 109.854 190.803 108.843 189.114 107.927C187.415 107.005 185.651 106.153 183.878 105.4C182.085 104.642 180.232 103.959 178.374 103.384C176.492 102.8 174.565 102.299 172.638 101.903C170.686 101.502 168.69 101.195 166.698 100.991C162.666 100.58 158.5 100.58 154.467 100.991C152.476 101.195 150.479 101.502 148.528 101.903C146.601 102.299 144.669 102.795 142.791 103.384C140.934 103.964 139.086 104.642 137.288 105.4C135.514 106.153 133.751 107 132.051 107.927C130.362 108.843 128.703 109.854 127.112 110.929C125.522 112.004 123.972 113.163 122.501 114.382C121.029 115.6 119.598 116.898 118.245 118.251C116.893 119.603 115.59 121.035 114.376 122.506C113.158 123.982 111.994 125.538 110.924 127.118C109.849 128.708 108.838 130.372 107.917 132.057C106.995 133.751 106.143 135.514 105.39 137.293C104.632 139.081 103.954 140.934 103.374 142.797C102.789 144.669 102.294 146.601 101.893 148.533C101.492 150.485 101.184 152.486 100.981 154.478C100.956 154.8 101.194 155.092 101.521 155.127Z" fill="#830016" fill-opacity="0.3"/>
<path d="M176.015 210.193C177.625 209.692 179.225 209.103 180.785 208.444C182.326 207.79 183.852 207.052 185.328 206.254C186.794 205.457 188.231 204.58 189.608 203.649C190.98 202.722 192.328 201.712 193.606 200.657C194.884 199.601 196.122 198.477 197.296 197.303C197.529 197.07 197.529 196.694 197.296 196.461C197.064 196.228 196.687 196.228 196.454 196.461C195.31 197.605 194.096 198.71 192.848 199.74C191.595 200.776 190.282 201.756 188.939 202.663C187.592 203.574 186.185 204.431 184.753 205.209C183.317 205.992 181.821 206.71 180.315 207.349C178.794 207.993 177.224 208.568 175.653 209.058C174.063 209.554 172.428 209.975 170.794 210.312C169.139 210.653 167.445 210.911 165.761 211.084C165.434 211.119 165.196 211.411 165.226 211.738C165.255 212.045 165.518 212.273 165.82 212.273C165.84 212.273 165.86 212.273 165.88 212.268C167.603 212.095 169.337 211.827 171.031 211.481C172.716 211.134 174.39 210.703 176.015 210.193Z" fill="#830016" fill-opacity="0.3"/>
<path d="M210.306 170.8C209.969 172.435 209.548 174.07 209.053 175.66C208.562 177.235 207.988 178.806 207.344 180.322C206.705 181.828 205.986 183.319 205.204 184.755C204.426 186.182 203.569 187.594 202.657 188.941C202.474 189.214 202.543 189.585 202.816 189.768C202.92 189.838 203.034 189.873 203.148 189.873C203.341 189.873 203.529 189.778 203.643 189.61C204.575 188.228 205.451 186.791 206.249 185.325C207.051 183.854 207.785 182.323 208.438 180.787C209.097 179.237 209.687 177.632 210.187 176.017C210.692 174.387 211.123 172.713 211.47 171.043C211.817 169.349 212.084 167.615 212.258 165.891C212.436 164.138 212.525 162.354 212.525 160.586C212.525 158.817 212.436 157.034 212.258 155.28C212.084 153.556 211.817 151.822 211.47 150.128C211.128 148.454 210.697 146.779 210.187 145.155C209.682 143.54 209.092 141.935 208.438 140.384C207.785 138.843 207.051 137.318 206.249 135.846C206.09 135.559 205.729 135.45 205.436 135.609C205.144 135.767 205.04 136.129 205.199 136.416C205.981 137.853 206.7 139.349 207.339 140.85C207.983 142.366 208.557 143.936 209.048 145.511C209.543 147.101 209.964 148.736 210.301 150.371C210.638 152.026 210.901 153.72 211.069 155.404C211.242 157.113 211.331 158.857 211.331 160.586C211.331 162.315 211.242 164.058 211.069 165.767C210.905 167.452 210.643 169.146 210.306 170.8Z" fill="#830016" fill-opacity="0.3"/>
<path d="M197.302 123.873C196.128 122.699 194.89 121.569 193.612 120.519C193.359 120.311 192.983 120.346 192.77 120.598C192.561 120.851 192.596 121.228 192.849 121.441C194.097 122.471 195.311 123.571 196.455 124.72C197.599 125.864 198.704 127.078 199.735 128.326C199.853 128.47 200.022 128.544 200.195 128.544C200.329 128.544 200.463 128.5 200.577 128.406C200.829 128.198 200.869 127.821 200.656 127.563C199.601 126.285 198.471 125.042 197.302 123.873Z" fill="#830016" fill-opacity="0.3"/>
<path d="M180.321 113.827C181.827 114.466 183.318 115.184 184.76 115.967C184.849 116.016 184.948 116.041 185.042 116.041C185.255 116.041 185.458 115.927 185.567 115.729C185.726 115.442 185.617 115.075 185.329 114.921C183.858 114.119 182.332 113.386 180.787 112.732C179.226 112.073 177.621 111.484 176.016 110.983C175.699 110.884 175.367 111.062 175.268 111.375C175.169 111.692 175.347 112.024 175.659 112.123C177.23 112.608 178.8 113.183 180.321 113.827Z" fill="#830016" fill-opacity="0.3"/>
<path d="M166.421 109.561C166.456 109.234 166.218 108.942 165.886 108.908C162.389 108.551 158.777 108.551 155.28 108.908C153.556 109.081 151.822 109.348 150.128 109.695C148.454 110.037 146.779 110.468 145.154 110.978C143.544 111.479 141.944 112.068 140.384 112.727C140.082 112.856 139.938 113.207 140.067 113.51C140.161 113.737 140.384 113.876 140.617 113.876C140.696 113.876 140.775 113.861 140.85 113.827C142.37 113.183 143.941 112.608 145.511 112.118C147.101 111.622 148.736 111.201 150.371 110.864C152.025 110.522 153.719 110.265 155.404 110.091C158.822 109.745 162.349 109.745 165.767 110.091C166.109 110.131 166.391 109.893 166.421 109.561Z" fill="#830016" fill-opacity="0.3"/>
<path d="M118.513 132.23C119.42 130.887 120.406 129.575 121.436 128.321C122.466 127.073 123.566 125.859 124.715 124.715C124.948 124.482 124.948 124.106 124.715 123.873C124.483 123.64 124.106 123.64 123.873 123.873C122.699 125.047 121.57 126.285 120.52 127.563C119.459 128.846 118.454 130.189 117.528 131.561C117.344 131.834 117.414 132.205 117.686 132.388C117.79 132.458 117.904 132.492 118.018 132.492C118.211 132.492 118.399 132.403 118.513 132.23Z" fill="#830016" fill-opacity="0.3"/>
<path d="M113.509 140.067C113.207 139.938 112.855 140.082 112.727 140.384C112.068 141.934 111.478 143.539 110.978 145.154C110.473 146.784 110.042 148.459 109.695 150.128C109.348 151.822 109.081 153.556 108.907 155.28C108.729 157.034 108.64 158.817 108.64 160.585C108.64 160.917 108.907 161.185 109.239 161.185C109.571 161.185 109.838 160.917 109.838 160.585C109.838 158.857 109.928 157.113 110.101 155.404C110.274 153.719 110.532 152.025 110.869 150.371C111.206 148.736 111.627 147.101 112.122 145.511C112.613 143.936 113.187 142.365 113.831 140.85C113.955 140.547 113.816 140.196 113.509 140.067Z" fill="#830016" fill-opacity="0.3"/>
<path d="M114.916 185.33C115.714 186.791 116.586 188.233 117.522 189.615C118.448 190.987 119.459 192.334 120.514 193.612C121.569 194.89 122.699 196.129 123.868 197.303C125.042 198.477 126.28 199.606 127.558 200.657C128.841 201.717 130.184 202.722 131.556 203.649C132.933 204.58 134.375 205.457 135.836 206.255C137.307 207.057 138.833 207.79 140.379 208.444C141.939 209.103 143.544 209.692 145.149 210.193C146.779 210.698 148.453 211.134 150.123 211.476C151.817 211.823 153.551 212.09 155.275 212.263C155.295 212.263 155.314 212.268 155.334 212.268C155.636 212.268 155.894 212.041 155.929 211.733C155.963 211.406 155.726 211.114 155.394 211.079C153.709 210.906 152.015 210.649 150.361 210.307C148.726 209.97 147.091 209.549 145.501 209.053C143.931 208.563 142.365 207.988 140.839 207.344C139.333 206.705 137.842 205.987 136.401 205.204C134.969 204.427 133.562 203.57 132.215 202.658C130.872 201.751 129.56 200.766 128.306 199.735C127.058 198.705 125.844 197.605 124.7 196.456C123.556 195.312 122.451 194.098 121.421 192.85C120.385 191.596 119.404 190.283 118.498 188.941C117.586 187.594 116.729 186.182 115.952 184.755C115.169 183.318 114.451 181.822 113.812 180.321C113.683 180.019 113.331 179.876 113.029 180.004C112.727 180.133 112.583 180.485 112.712 180.787C113.381 182.328 114.119 183.853 114.916 185.33Z" fill="#830016" fill-opacity="0.3"/>
<path d="M173.766 202.97C175.138 202.544 176.51 202.039 177.843 201.474C179.16 200.915 180.468 200.285 181.722 199.602C182.97 198.923 184.203 198.175 185.382 197.377C186.556 196.585 187.706 195.723 188.801 194.821C189.895 193.92 190.955 192.954 191.956 191.953C192.962 190.947 193.928 189.887 194.819 188.802C195.721 187.713 196.583 186.563 197.376 185.384C197.559 185.112 197.489 184.74 197.217 184.557C196.945 184.374 196.573 184.443 196.39 184.716C195.617 185.86 194.78 186.979 193.903 188.04C193.031 189.1 192.09 190.13 191.114 191.106C190.143 192.077 189.108 193.018 188.043 193.895C186.978 194.772 185.858 195.609 184.719 196.382C183.574 197.155 182.375 197.888 181.157 198.547C179.938 199.21 178.665 199.825 177.382 200.37C176.089 200.919 174.752 201.41 173.414 201.826C172.062 202.247 170.67 202.609 169.278 202.891C167.871 203.178 166.429 203.401 164.993 203.545C163.541 203.694 162.055 203.768 160.584 203.768C160.252 203.768 159.984 204.035 159.984 204.367C159.984 204.699 160.252 204.967 160.584 204.967C162.095 204.967 163.62 204.887 165.116 204.739C166.593 204.59 168.074 204.362 169.52 204.065C170.947 203.773 172.379 203.406 173.766 202.97Z" fill="#830016" fill-opacity="0.3"/>
<path d="M204.065 151.654C203.773 150.227 203.402 148.795 202.971 147.403C202.54 146.021 202.034 144.649 201.475 143.327C201.346 143.024 200.994 142.881 200.692 143.009C200.39 143.138 200.246 143.49 200.375 143.792C200.92 145.08 201.41 146.413 201.831 147.755C202.252 149.108 202.614 150.5 202.896 151.892C203.184 153.303 203.407 154.745 203.55 156.177C203.699 157.633 203.773 159.119 203.773 160.586C203.773 162.052 203.699 163.538 203.55 164.994C203.402 166.426 203.184 167.868 202.896 169.279C202.609 170.671 202.252 172.059 201.831 173.416C201.41 174.763 200.925 176.096 200.375 177.384C200.246 177.686 200.39 178.038 200.692 178.167C200.766 178.201 200.846 178.216 200.925 178.216C201.158 178.216 201.376 178.077 201.475 177.854C202.034 176.532 202.54 175.16 202.971 173.777C203.407 172.385 203.773 170.954 204.065 169.527C204.363 168.076 204.591 166.594 204.739 165.123C204.893 163.627 204.967 162.101 204.967 160.59C204.967 159.08 204.888 157.559 204.739 156.058C204.591 154.586 204.363 153.105 204.065 151.654Z" fill="#830016" fill-opacity="0.3"/>
<path d="M181.153 122.615C182.372 123.279 183.566 124.007 184.715 124.78C185.859 125.552 186.979 126.39 188.039 127.266C189.104 128.143 190.135 129.085 191.11 130.055C192.086 131.036 193.028 132.067 193.899 133.127C194.776 134.187 195.613 135.306 196.386 136.451C196.5 136.619 196.688 136.713 196.882 136.713C196.996 136.713 197.114 136.679 197.213 136.609C197.486 136.426 197.56 136.055 197.372 135.782C196.574 134.608 195.717 133.454 194.816 132.364C193.919 131.279 192.953 130.214 191.953 129.208C190.952 128.208 189.892 127.247 188.797 126.34C187.702 125.439 186.553 124.577 185.379 123.784C184.2 122.986 182.971 122.238 181.718 121.56C180.465 120.876 179.157 120.247 177.839 119.687C176.507 119.122 175.134 118.622 173.762 118.191C173.445 118.097 173.113 118.27 173.014 118.582C172.915 118.9 173.093 119.231 173.406 119.33C174.743 119.747 176.076 120.237 177.369 120.782C178.667 121.342 179.935 121.951 181.153 122.615Z" fill="#830016" fill-opacity="0.3"/>
<path d="M160.584 116.204C160.252 116.204 159.984 116.472 159.984 116.804C159.984 117.136 160.252 117.403 160.584 117.403C162.055 117.403 163.541 117.478 164.993 117.626C165.012 117.626 165.032 117.631 165.052 117.631C165.354 117.631 165.612 117.403 165.647 117.096C165.681 116.769 165.443 116.477 165.112 116.442C163.62 116.279 162.1 116.204 160.584 116.204Z" fill="#830016" fill-opacity="0.3"/>
<path d="M135.785 123.794C134.611 124.586 133.461 125.448 132.367 126.35C131.272 127.251 130.212 128.217 129.211 129.218C128.205 130.224 127.239 131.284 126.348 132.374C126.14 132.626 126.174 133.003 126.427 133.216C126.536 133.31 126.675 133.354 126.808 133.354C126.982 133.354 127.15 133.28 127.269 133.136C128.141 132.076 129.082 131.046 130.058 130.07C131.029 129.099 132.064 128.158 133.129 127.281C134.194 126.404 135.314 125.567 136.453 124.794C137.598 124.021 138.797 123.288 140.015 122.629C141.234 121.966 142.507 121.351 143.79 120.806C144.092 120.678 144.236 120.326 144.107 120.024C143.978 119.722 143.626 119.578 143.324 119.707C142.007 120.266 140.699 120.896 139.445 121.579C138.197 122.248 136.964 122.996 135.785 123.794Z" fill="#830016" fill-opacity="0.3"/>
<path d="M116.433 156.058C116.28 157.554 116.206 159.08 116.206 160.59C116.206 162.101 116.285 163.622 116.433 165.123C116.582 166.594 116.81 168.076 117.107 169.527C117.399 170.954 117.771 172.385 118.202 173.777C118.633 175.16 119.138 176.532 119.698 177.854C120.258 179.172 120.887 180.475 121.571 181.733C122.249 182.982 122.997 184.215 123.795 185.394C124.592 186.568 125.449 187.722 126.351 188.812C127.248 189.897 128.214 190.962 129.214 191.968C130.215 192.968 131.275 193.929 132.37 194.836C133.465 195.738 134.614 196.6 135.788 197.392C136.967 198.19 138.195 198.938 139.449 199.616C139.538 199.666 139.637 199.691 139.731 199.691C139.944 199.691 140.147 199.577 140.256 199.379C140.415 199.091 140.306 198.725 140.018 198.571C138.8 197.907 137.606 197.179 136.457 196.406C135.312 195.634 134.193 194.796 133.133 193.92C132.068 193.043 131.037 192.102 130.061 191.131C129.085 190.15 128.144 189.119 127.272 188.059C126.395 186.999 125.558 185.88 124.786 184.735C124.008 183.586 123.28 182.387 122.621 181.173C121.957 179.95 121.343 178.682 120.798 177.399C120.253 176.111 119.762 174.778 119.341 173.436C118.92 172.083 118.559 170.691 118.276 169.299C117.989 167.887 117.766 166.446 117.622 165.014C117.474 163.558 117.399 162.072 117.399 160.605C117.399 159.139 117.474 157.653 117.622 156.196C117.771 154.765 117.989 153.323 118.276 151.911C118.564 150.519 118.92 149.132 119.341 147.775C119.44 147.458 119.262 147.126 118.95 147.027C118.633 146.928 118.301 147.106 118.202 147.418C117.766 148.81 117.399 150.242 117.107 151.669C116.81 153.105 116.582 154.586 116.433 156.058Z" fill="#830016" fill-opacity="0.3"/>
<path d="M151.653 204.065C151.692 204.075 151.732 204.075 151.771 204.075C152.049 204.075 152.297 203.882 152.356 203.599C152.42 203.277 152.212 202.96 151.89 202.896C150.503 202.614 149.111 202.252 147.754 201.831C147.437 201.732 147.105 201.91 147.006 202.222C146.907 202.539 147.085 202.871 147.397 202.97C148.794 203.406 150.226 203.773 151.653 204.065Z" fill="#830016" fill-opacity="0.3"/>
<path d="M160.585 197.803C161.853 197.803 163.131 197.739 164.385 197.61C165.623 197.481 166.862 197.293 168.075 197.046C169.274 196.798 170.473 196.491 171.642 196.124C172.796 195.762 173.946 195.341 175.06 194.871C175.362 194.742 175.506 194.39 175.377 194.088C175.248 193.786 174.897 193.642 174.594 193.771C173.515 194.227 172.405 194.638 171.285 194.985C170.156 195.336 168.997 195.634 167.838 195.871C166.663 196.114 165.46 196.297 164.266 196.416C163.052 196.54 161.814 196.605 160.59 196.605C160.258 196.605 159.991 196.872 159.991 197.204C159.991 197.536 160.258 197.803 160.585 197.803Z" fill="#830016" fill-opacity="0.3"/>
<path d="M181.38 191.438C182.366 190.774 183.327 190.051 184.249 189.293C185.165 188.54 186.052 187.727 186.894 186.89C187.731 186.048 188.544 185.161 189.297 184.245C190.054 183.328 190.773 182.362 191.442 181.382C192.11 180.396 192.739 179.36 193.309 178.31C193.884 177.25 194.414 176.16 194.879 175.056C195.35 173.941 195.771 172.792 196.133 171.637C196.499 170.468 196.806 169.27 197.049 168.071C197.114 167.749 196.906 167.432 196.584 167.367C196.262 167.303 195.945 167.511 195.88 167.833C195.642 168.987 195.345 170.151 194.993 171.281C194.647 172.4 194.235 173.515 193.78 174.59C193.329 175.655 192.819 176.715 192.259 177.736C191.709 178.751 191.1 179.752 190.451 180.708C189.807 181.659 189.108 182.595 188.375 183.482C187.642 184.369 186.859 185.231 186.047 186.043C185.234 186.856 184.373 187.638 183.486 188.371C182.599 189.105 181.663 189.803 180.712 190.447C180.439 190.63 180.365 191.002 180.553 191.274C180.667 191.443 180.855 191.537 181.049 191.537C181.162 191.542 181.276 191.507 181.38 191.438Z" fill="#830016" fill-opacity="0.3"/>
<path d="M197.802 160.586C197.802 159.322 197.738 158.044 197.609 156.786C197.485 155.543 197.292 154.304 197.044 153.096C196.801 151.902 196.489 150.703 196.128 149.529C195.766 148.375 195.345 147.225 194.874 146.111C194.409 145.011 193.879 143.916 193.304 142.856C192.734 141.806 192.105 140.775 191.436 139.79C190.773 138.804 190.049 137.843 189.291 136.926C188.538 136.01 187.726 135.123 186.889 134.281C186.047 133.439 185.16 132.631 184.244 131.878C183.327 131.12 182.361 130.397 181.375 129.733C181.103 129.545 180.731 129.62 180.548 129.892C180.365 130.164 180.434 130.536 180.707 130.719C181.658 131.363 182.594 132.062 183.481 132.795C184.367 133.523 185.229 134.306 186.042 135.123C186.854 135.936 187.637 136.798 188.37 137.684C189.103 138.571 189.802 139.507 190.446 140.458C191.09 141.414 191.699 142.415 192.254 143.431C192.814 144.456 193.324 145.511 193.775 146.576C194.23 147.651 194.642 148.766 194.988 149.885C195.34 151.02 195.642 152.179 195.875 153.333C196.113 154.502 196.301 155.706 196.42 156.905C196.544 158.124 196.608 159.357 196.608 160.581C196.608 160.913 196.876 161.18 197.208 161.18C197.535 161.185 197.802 160.918 197.802 160.586Z" fill="#830016" fill-opacity="0.3"/>
<path d="M175.062 126.3C173.947 125.83 172.798 125.409 171.644 125.047C170.475 124.685 169.276 124.373 168.077 124.126C167.755 124.061 167.438 124.269 167.373 124.591C167.304 124.913 167.517 125.23 167.839 125.295C168.998 125.532 170.158 125.83 171.287 126.181C172.407 126.528 173.516 126.939 174.596 127.395C174.67 127.43 174.75 127.445 174.829 127.445C175.062 127.445 175.28 127.306 175.379 127.078C175.508 126.776 175.364 126.424 175.062 126.3Z" fill="#830016" fill-opacity="0.3"/>
<path d="M160.585 124.562C160.917 124.562 161.184 124.294 161.184 123.962C161.184 123.63 160.917 123.363 160.585 123.363C159.317 123.363 158.039 123.427 156.785 123.556C155.547 123.685 154.309 123.873 153.095 124.121C151.896 124.368 150.697 124.676 149.528 125.042C148.374 125.404 147.225 125.825 146.11 126.295C145.005 126.761 143.911 127.291 142.855 127.866C141.81 128.435 140.775 129.06 139.789 129.733C138.803 130.397 137.842 131.12 136.921 131.878C136.004 132.631 135.118 133.444 134.275 134.281C133.433 135.123 132.626 136.01 131.873 136.926C131.115 137.843 130.392 138.809 129.728 139.79C129.059 140.775 128.43 141.811 127.86 142.861C127.286 143.916 126.756 145.011 126.29 146.116C125.819 147.23 125.398 148.379 125.037 149.534C124.67 150.703 124.363 151.902 124.12 153.1C123.873 154.309 123.679 155.553 123.556 156.791C123.427 158.049 123.362 159.327 123.362 160.591C123.362 161.854 123.427 163.132 123.556 164.39C123.585 164.697 123.848 164.925 124.15 164.925C124.17 164.925 124.19 164.925 124.209 164.92C124.536 164.886 124.774 164.593 124.744 164.266C124.621 163.048 124.556 161.814 124.556 160.591C124.556 159.367 124.621 158.129 124.744 156.915C124.868 155.711 125.052 154.512 125.289 153.343C125.527 152.189 125.824 151.025 126.176 149.895C126.523 148.776 126.934 147.661 127.39 146.586C127.841 145.521 128.351 144.461 128.911 143.441C129.46 142.425 130.07 141.424 130.719 140.468C131.363 139.517 132.061 138.581 132.794 137.694C133.527 136.807 134.31 135.945 135.123 135.133C135.935 134.321 136.797 133.538 137.684 132.805C138.57 132.072 139.507 131.373 140.458 130.729C141.419 130.08 142.415 129.471 143.43 128.921C144.451 128.366 145.511 127.856 146.581 127.4C147.661 126.944 148.77 126.533 149.89 126.186C151.019 125.835 152.178 125.538 153.338 125.3C154.512 125.057 155.715 124.874 156.909 124.755C158.123 124.626 159.361 124.562 160.585 124.562Z" fill="#830016" fill-opacity="0.3"/>
<path d="M128.39 178.627C128.485 178.627 128.584 178.603 128.673 178.553C128.965 178.395 129.069 178.033 128.911 177.746C128.351 176.72 127.841 175.665 127.39 174.6C127.261 174.298 126.909 174.154 126.607 174.283C126.305 174.412 126.161 174.763 126.29 175.066C126.756 176.165 127.286 177.26 127.86 178.32C127.974 178.513 128.182 178.627 128.39 178.627Z" fill="#830016" fill-opacity="0.3"/>
<path d="M136.925 189.293C137.841 190.051 138.807 190.774 139.793 191.438C140.784 192.107 141.819 192.736 142.859 193.305C143.914 193.88 145.009 194.405 146.114 194.876C146.188 194.91 146.267 194.925 146.347 194.925C146.58 194.925 146.802 194.787 146.897 194.559C147.025 194.256 146.882 193.905 146.58 193.776C145.509 193.325 144.449 192.81 143.429 192.255C142.418 191.705 141.418 191.096 140.457 190.447C139.505 189.803 138.569 189.105 137.682 188.371C136.796 187.643 135.934 186.86 135.121 186.043C134.309 185.231 133.526 184.369 132.793 183.482C132.58 183.224 132.204 183.19 131.951 183.403C131.698 183.611 131.659 183.987 131.872 184.245C132.625 185.161 133.437 186.048 134.274 186.89C135.121 187.732 136.008 188.54 136.925 189.293Z" fill="#830016" fill-opacity="0.3"/>
</svg>
