<svg width="235" height="204" viewBox="0 0 235 204" fill="none" xmlns="http://www.w3.org/2000/svg">
<path d="M103.909 21.9966C106.063 13.745 100.415 5.47634 91.2939 3.52792C82.1729 1.57949 73.0329 6.68919 70.8792 14.9407C68.7254 23.1923 74.3735 31.461 83.4945 33.4094C92.6155 35.3578 101.755 30.2481 103.909 21.9966Z" stroke="#830016" stroke-miterlimit="10" stroke-dasharray="5 5"/>
<path d="M173.229 13.7709L143.395 30.2933" stroke="#830016" stroke-miterlimit="10"/>
<path d="M161.346 35.5271L155.279 8.53706" stroke="#830016" stroke-miterlimit="10"/>
<path d="M66.3721 184.121C103.028 194.729 142.25 176.445 153.975 143.283C165.701 110.121 145.49 74.6385 108.834 64.0307C72.1777 53.4229 32.9565 71.7067 21.2309 104.869C9.50536 138.031 29.7157 173.513 66.3721 184.121Z" stroke="#830016" stroke-miterlimit="10" stroke-dasharray="5 5"/>
<path d="M234 99.3408L192.681 137.462" stroke="#830016" stroke-miterlimit="10"/>
<path d="M231.556 138.025L195.125 98.7777" stroke="#830016" stroke-miterlimit="10"/>
<path d="M224.159 34.0307L222.69 51.4731" stroke="#830016" stroke-miterlimit="10"/>
<path d="M233.066 45.6044L213.784 39.8994" stroke="#830016" stroke-miterlimit="10"/>
</svg>
