<svg width="736" height="744" viewBox="0 0 736 744" fill="none" xmlns="http://www.w3.org/2000/svg">
<path d="M391.3 741.554C353.505 735.168 326.39 709.449 302.481 686.757C289.676 674.61 277.567 663.128 264.628 654.886C235.388 636.276 209.316 629.206 184.094 622.371C143.324 611.338 101.165 599.914 55.7991 542.207C10.1245 484.09 -7.00588 428.765 3.44231 373.07C13.6781 318.448 50.1405 271.228 80.7512 236.213C100.721 213.345 114.684 185.048 129.439 155.092C142.282 129.04 155.549 102.111 173.549 77.6803C219.726 15.0521 264.686 -7.42529 323.879 2.57334C346.707 6.42047 370.172 14.7201 395.008 23.508C416.967 31.2608 439.659 39.287 465.094 45.5948C467.547 46.2002 470.154 46.747 472.819 47.1961C485.759 49.3833 499.393 49.4419 513.801 49.52C529.193 49.5981 545.087 49.6763 561.252 52.4103C580.603 55.6716 597.251 62.3308 612.102 72.7395C658.028 104.903 662.238 141.636 666.313 177.139C667.974 191.61 669.693 206.549 674.27 222.075C680.122 241.877 690.667 260.136 701.829 279.489C718.902 309.055 736.554 339.637 738.311 378.088C741.691 452.102 693.641 493.209 657.217 517.698C645.533 525.568 634.022 531.759 622.898 537.754C599.762 550.213 579.792 560.973 566.679 582.67C562.758 589.153 560.673 600.265 558.664 611.006C556.25 623.895 553.739 637.233 547.579 649.223C525.292 692.655 476.546 738.41 417.894 742.785C408.855 743.41 399.914 742.999 391.3 741.554Z" stroke="url(#paint0_linear_7_41)" stroke-miterlimit="10" stroke-dasharray="25 25"/>
<path d="M70.921 530.06C139.385 617.157 194.735 587.298 274.921 638.346C320.615 667.424 352.211 728.021 416.484 723.256C464.824 719.663 508.779 682.402 530.448 640.181C540.568 620.457 539.178 590.715 550.205 572.456C572.975 534.786 610.557 525.588 646.537 501.411C688.001 473.524 721.702 437.729 719.018 378.967C716.411 321.651 671.508 281.031 655.749 227.64C639.256 171.749 656.985 127.927 601.094 88.7529C556.636 57.6048 506.693 76.0008 460.478 64.5375C342.342 35.2642 277.799 -31.0939 189.018 89.3388C151.88 139.723 135.097 203.483 95.1971 249.122C24.2807 330.302 -19.9068 414.509 70.921 530.06Z" fill="url(#paint1_linear_7_41)"/>
<defs>
<linearGradient id="paint0_linear_7_41" x1="167.287" y1="64.7806" x2="587.189" y2="646.387" gradientUnits="userSpaceOnUse">
<stop stop-color="#830016"/>
<stop offset="1" stop-color="#A3BADF"/>
</linearGradient>
<linearGradient id="paint1_linear_7_41" x1="181.18" y1="84.4696" x2="578.21" y2="634.397" gradientUnits="userSpaceOnUse">
<stop offset="0.399038" stop-color="#830016"/>
<stop offset="0.879808" stop-color="#0C0000"/>
</linearGradient>
</defs>
</svg>
