<svg width="448" height="448" viewBox="0 0 448 448" fill="none" xmlns="http://www.w3.org/2000/svg">
<path d="M446.842 200.465C446.084 193.001 444.94 185.502 443.438 178.169C441.956 170.939 440.095 163.695 437.903 156.644C435.732 149.67 433.196 142.729 430.349 136.009C427.53 129.351 424.353 122.742 420.893 116.38C417.461 110.06 413.67 103.829 409.645 97.8606C405.634 91.9194 401.285 86.1024 396.715 80.5748C392.159 75.0541 387.287 69.692 382.221 64.6262C377.162 59.5673 371.8 54.6945 366.272 50.1318C360.738 45.5692 354.921 41.2133 348.987 37.202C343.018 33.17 336.787 29.3862 330.467 25.9538C324.106 22.5008 317.503 19.3166 310.838 16.4977C310.418 16.3185 309.928 16.5184 309.749 16.9388C309.57 17.3592 309.77 17.8486 310.19 18.0278C316.807 20.826 323.361 23.9827 329.675 27.415C335.946 30.8198 342.129 34.576 348.056 38.5804C353.949 42.5641 359.725 46.8787 365.218 51.4138C370.704 55.942 376.025 60.7803 381.049 65.7979C386.074 70.8223 390.919 76.15 395.433 81.6293C399.968 87.1225 404.283 92.8982 408.267 98.791C412.264 104.711 416.02 110.894 419.432 117.173C422.864 123.493 426.021 130.047 428.819 136.657C431.638 143.329 434.161 150.214 436.318 157.134C438.496 164.129 440.343 171.318 441.811 178.5C443.3 185.778 444.437 193.228 445.188 200.631C445.953 208.15 446.339 215.821 446.339 223.423C446.339 231.026 445.953 238.697 445.188 246.216C444.437 253.618 443.3 261.069 441.811 268.347C440.343 275.529 438.496 282.71 436.318 289.713C434.167 296.633 431.645 303.525 428.819 310.19C426.021 316.799 422.864 323.354 419.432 329.674C416.02 335.953 412.264 342.135 408.267 348.056C404.283 353.949 399.968 359.724 395.433 365.217C390.912 370.697 386.074 376.018 381.049 381.049C376.025 386.073 370.704 390.912 365.218 395.433C359.725 399.968 353.949 404.283 348.056 408.266C342.129 412.271 335.946 416.027 329.675 419.432C329.275 419.652 329.123 420.155 329.344 420.555C329.495 420.831 329.778 420.989 330.074 420.989C330.205 420.989 330.343 420.955 330.467 420.886C336.787 417.454 343.018 413.67 348.987 409.638C354.928 405.627 360.745 401.278 366.272 396.708C371.8 392.145 377.162 387.273 382.221 382.214C387.287 377.148 392.159 371.786 396.715 366.265C401.285 360.731 405.634 354.913 409.645 348.979C413.677 343.017 417.461 336.787 420.893 330.46C424.353 324.091 427.53 317.489 430.349 310.831C433.189 304.111 435.732 297.17 437.903 290.195C440.095 283.145 441.956 275.908 443.438 268.671C444.94 261.338 446.084 253.832 446.842 246.375C447.614 238.8 448 231.074 448 223.416C448 215.766 447.607 208.04 446.842 200.465Z" fill="#830016" fill-opacity="0.3"/>
<path d="M246.216 1.65873C253.625 2.40998 261.075 3.5472 268.347 5.03593C268.402 5.04971 268.457 5.04971 268.512 5.04971C268.898 5.04971 269.243 4.78091 269.325 4.38806C269.415 3.94006 269.125 3.49896 268.677 3.40936C261.351 1.90685 253.845 0.762737 246.381 0.0045909C245.912 -0.0436548 245.52 0.294065 245.471 0.748953C245.43 1.21073 245.761 1.61737 246.216 1.65873Z" fill="#830016" fill-opacity="0.3"/>
<path d="M81.0984 51.6068C81.2845 51.6068 81.4706 51.5447 81.6291 51.4138C87.1222 46.8787 92.8979 42.5642 98.7907 38.5804C104.718 34.5761 110.9 30.8198 117.172 27.415C123.486 23.9827 130.04 20.826 136.657 18.0278C143.335 15.202 150.22 12.6794 157.14 10.529C164.136 8.35109 171.324 6.50397 178.499 5.03592C185.777 3.5472 193.221 2.40998 200.63 1.65873C201.085 1.61048 201.416 1.20384 201.375 0.74895C201.326 0.294063 200.933 -0.0367649 200.465 0.00458852C193.001 0.762735 185.495 1.90685 178.168 3.40935C170.939 4.89119 163.695 6.75209 156.644 8.94382C149.676 11.108 142.736 13.6512 136.009 16.4977C129.344 19.3166 122.741 22.5009 116.38 25.9539C110.06 29.3862 103.829 33.17 97.8603 37.202C91.9192 41.2133 86.1022 45.5623 80.5746 50.1318C80.2231 50.4213 80.1679 50.9451 80.4643 51.3035C80.6228 51.5034 80.8641 51.6068 81.0984 51.6068Z" fill="#830016" fill-opacity="0.3"/>
<path d="M27.415 117.173C27.6356 116.773 27.484 116.263 27.0842 116.049C26.6776 115.829 26.1744 115.98 25.9539 116.38C22.494 122.749 19.3167 129.351 16.4978 136.009C13.6582 142.729 11.1149 149.67 8.94388 156.645C6.75216 163.695 4.89126 170.932 3.40943 178.169C1.90692 185.502 0.762816 193.008 0.00467128 200.465C-0.0435743 200.92 0.287252 201.327 0.749031 201.375C0.7766 201.375 0.804169 201.382 0.831738 201.382C1.25216 201.382 1.61056 201.065 1.6588 200.638C2.41006 193.235 3.54727 185.785 5.03599 178.507C6.50404 171.325 8.35115 164.143 10.5291 157.141C12.6795 150.221 15.202 143.329 18.0278 136.664C20.8261 130.047 23.9827 123.493 27.415 117.173Z" fill="#830016" fill-opacity="0.3"/>
<path d="M1.65915 246.216C1.6109 245.761 1.21115 245.43 0.749376 245.472C0.294489 245.52 -0.0363376 245.927 0.00501576 246.381C0.76316 253.846 1.90727 261.344 3.40977 268.678C3.49248 269.071 3.83709 269.339 4.22306 269.339C4.27819 269.339 4.33333 269.333 4.38847 269.326C4.83646 269.236 5.12594 268.795 5.03634 268.347C3.54762 261.069 2.41729 253.625 1.65915 246.216Z" fill="#830016" fill-opacity="0.3"/>
<path d="M223.423 446.339C215.821 446.339 208.15 445.953 200.631 445.188C193.222 444.437 185.771 443.299 178.5 441.811C171.325 440.343 164.137 438.496 157.141 436.318C150.228 434.167 143.336 431.645 136.657 428.819C130.041 426.021 123.486 422.864 117.173 419.432C110.901 416.027 104.719 412.271 98.7914 408.266C92.8986 404.282 87.1229 399.968 81.6298 395.433C76.1436 390.905 70.8228 386.066 65.7984 381.049C60.7739 376.024 55.9287 370.697 51.4143 365.217C46.8792 359.724 42.5647 353.948 38.581 348.056C34.5835 342.135 30.8272 335.953 27.4156 329.674C23.9832 323.354 20.8266 316.799 18.0284 310.19C17.8492 309.769 17.3598 309.569 16.9394 309.749C16.519 309.928 16.3191 310.417 16.4983 310.838C19.3172 317.495 22.4945 324.105 25.9544 330.467C29.3868 336.787 33.1775 343.017 37.2025 348.986C41.2138 354.927 45.5628 360.737 50.1323 366.272C54.6881 371.792 59.5609 377.155 64.6267 382.22C69.6856 387.279 75.0477 392.152 80.5753 396.715C86.1097 401.277 91.9268 405.633 97.861 409.645C103.83 413.677 110.06 417.46 116.38 420.893C122.742 424.346 129.345 427.53 136.009 430.349C142.736 433.195 149.677 435.732 156.645 437.903C163.695 440.095 170.932 441.955 178.169 443.437C185.502 444.94 193.001 446.084 200.466 446.842C208.047 447.614 215.766 448 223.423 448C223.885 448 224.257 447.628 224.257 447.166C224.257 446.711 223.885 446.339 223.423 446.339Z" fill="#830016" fill-opacity="0.3"/>
<path d="M303.646 413.484C297.471 416.103 291.096 418.439 284.7 420.431C278.235 422.444 271.591 424.16 264.946 425.525C258.22 426.903 251.341 427.958 244.483 428.654C244.029 428.702 243.698 429.109 243.739 429.564C243.78 429.991 244.146 430.308 244.566 430.308C244.594 430.308 244.621 430.308 244.649 430.301C251.555 429.598 258.495 428.537 265.277 427.144C271.976 425.773 278.676 424.043 285.196 422.01C291.64 420.004 298.064 417.647 304.294 415.007C304.715 414.828 304.914 414.339 304.735 413.918C304.556 413.505 304.067 413.312 303.646 413.484Z" fill="#830016" fill-opacity="0.3"/>
<path d="M369.227 369.229C364.574 373.881 359.646 378.361 354.567 382.552C349.487 386.749 344.139 390.746 338.68 394.441C338.301 394.696 338.198 395.213 338.46 395.592C338.618 395.826 338.88 395.957 339.149 395.957C339.307 395.957 339.473 395.909 339.611 395.812C345.118 392.09 350.5 388.058 355.621 383.827C360.735 379.602 365.712 375.08 370.398 370.394C370.722 370.07 370.722 369.546 370.398 369.222C370.074 368.898 369.551 368.905 369.227 369.229Z" fill="#830016" fill-opacity="0.3"/>
<path d="M394.668 339.84C394.813 339.937 394.972 339.985 395.13 339.985C395.399 339.985 395.661 339.854 395.819 339.62C399.555 334.092 403.07 328.323 406.247 322.472C409.452 316.586 412.402 310.472 415.014 304.297C415.193 303.876 414.994 303.387 414.573 303.208C414.153 303.029 413.663 303.229 413.484 303.649C410.886 309.769 407.963 315.834 404.786 321.679C401.63 327.482 398.149 333.203 394.441 338.689C394.186 339.068 394.289 339.585 394.668 339.84Z" fill="#830016" fill-opacity="0.3"/>
<path d="M425.523 264.949C425.434 265.397 425.723 265.838 426.171 265.928C426.226 265.942 426.281 265.942 426.337 265.942C426.722 265.942 427.067 265.673 427.15 265.28C428.542 258.491 429.603 251.551 430.306 244.652C431.023 237.642 431.382 230.495 431.382 223.423C431.382 216.345 431.023 209.205 430.306 202.188C429.603 195.289 428.542 188.349 427.15 181.56C425.778 174.868 424.048 168.168 422.015 161.648C420.003 155.204 417.652 148.774 415.013 142.55C412.4 136.375 409.451 130.261 406.246 124.375C403.061 118.524 399.553 112.755 395.818 107.227C392.103 101.734 388.071 96.3444 383.839 91.2166C379.614 86.1025 375.1 81.1332 370.406 76.4396C370.082 76.1157 369.558 76.1157 369.234 76.4396C368.911 76.7635 368.911 77.2873 369.234 77.6113C373.887 82.2635 378.374 87.1984 382.557 92.2711C386.761 97.3644 390.759 102.706 394.446 108.158C398.154 113.644 401.635 119.364 404.791 125.168C407.969 131.005 410.898 137.071 413.489 143.198C416.108 149.373 418.445 155.749 420.437 162.145C422.456 168.616 424.165 175.261 425.53 181.898C426.909 188.631 427.963 195.517 428.659 202.361C429.369 209.315 429.727 216.407 429.727 223.423C429.727 230.44 429.369 237.532 428.659 244.486C427.956 251.33 426.902 258.215 425.523 264.949Z" fill="#830016" fill-opacity="0.3"/>
<path d="M161.648 24.8303C161.207 24.9682 160.965 25.4299 161.103 25.871C161.241 26.3053 161.703 26.5534 162.144 26.4155C168.609 24.403 175.253 22.6868 181.897 21.3222C188.624 19.9437 195.502 18.8892 202.36 18.1931C216.262 16.7802 230.584 16.7802 244.485 18.1931C251.336 18.8892 258.222 19.9437 264.948 21.3222C271.592 22.6868 278.237 24.3961 284.701 26.4155C291.097 28.4074 297.473 30.7439 303.648 33.3629C309.768 35.9544 315.834 38.8836 321.678 42.0609C327.481 45.2176 333.202 48.6981 338.688 52.4062C338.833 52.5027 338.992 52.5509 339.15 52.5509C339.419 52.5509 339.681 52.42 339.839 52.1856C340.094 51.8065 339.998 51.2896 339.619 51.0346C334.091 47.299 328.322 43.7909 322.471 40.6067C316.578 37.4018 310.465 34.4519 304.296 31.8397C298.065 29.2 291.642 26.8429 285.198 24.8372C278.678 22.804 271.978 21.0809 265.279 19.7025C258.504 18.3103 251.564 17.2489 244.651 16.5459C230.639 15.1192 216.2 15.1192 202.188 16.5459C195.282 17.2489 188.341 18.3103 181.559 19.7025C174.867 21.0741 168.168 22.7971 161.648 24.8303Z" fill="#830016" fill-opacity="0.3"/>
<path d="M108.163 52.4063C113.649 48.6983 119.369 45.2177 125.173 42.061C125.579 41.8405 125.724 41.3373 125.503 40.9376C125.283 40.5378 124.78 40.3862 124.373 40.6068C118.522 43.791 112.753 47.2991 107.225 51.0347C106.846 51.2897 106.743 51.8067 107.005 52.1857C107.163 52.4201 107.425 52.551 107.694 52.551C107.852 52.551 108.018 52.5028 108.163 52.4063Z" fill="#830016" fill-opacity="0.3"/>
<path d="M19.6957 265.28C21.0672 271.972 22.7972 278.672 24.8304 285.192C26.8429 291.636 29.1932 298.066 31.8329 304.29C34.445 310.466 37.3949 316.579 40.5998 322.465C43.784 328.316 47.2921 334.085 51.0277 339.613C54.7426 345.106 58.7746 350.496 63.0064 355.623C67.2314 360.738 71.7458 365.707 76.4394 370.4C81.1261 375.087 86.0954 379.609 91.2163 383.833C96.3372 388.058 101.727 392.09 107.227 395.819C112.754 399.555 118.523 403.063 124.375 406.247C130.268 409.452 136.381 412.402 142.55 415.014C148.78 417.654 155.204 420.011 161.648 422.016C168.168 424.05 174.867 425.773 181.566 427.151C188.341 428.543 195.282 429.605 202.195 430.308C202.222 430.308 202.25 430.315 202.278 430.315C202.698 430.315 203.056 429.998 203.105 429.57C203.153 429.115 202.822 428.709 202.36 428.661C195.509 427.964 188.624 426.91 181.897 425.532C175.253 424.167 168.609 422.458 162.144 420.438C155.748 418.446 149.373 416.11 143.197 413.491C137.077 410.899 131.012 407.97 125.167 404.793C119.364 401.636 113.644 398.156 108.157 394.447C102.699 390.753 97.3504 386.756 92.2708 382.558C87.1912 378.368 82.2633 373.881 77.611 369.236C72.9588 364.583 68.4719 359.649 64.2884 354.576C60.0841 349.483 56.0866 344.141 52.3993 338.689C48.6913 333.203 45.2107 327.483 42.0541 321.679C38.8767 315.842 35.9476 309.776 33.3561 303.649C30.737 297.474 28.4006 291.098 26.4087 284.702C24.3893 278.231 22.68 271.586 21.3154 264.949C19.9369 258.216 18.8824 251.33 18.1863 244.486C17.4764 237.532 17.118 230.44 17.118 223.423C17.118 216.407 17.4764 209.315 18.1863 202.361C18.8824 195.517 19.9369 188.631 21.3154 181.898C22.68 175.261 24.3893 168.616 26.4087 162.145C28.4006 155.749 30.737 149.373 33.3561 143.198C35.9544 137.078 38.8767 131.012 42.0541 125.168C45.2107 119.364 48.6913 113.644 52.3993 108.158C56.0866 102.706 60.0841 97.3644 64.2884 92.2711C68.4788 87.1984 72.9588 82.2635 77.611 77.6113C77.935 77.2873 77.935 76.7635 77.611 76.4396C77.2871 76.1157 76.7633 76.1157 76.4394 76.4396C71.7526 81.1263 67.2314 86.1025 63.0064 91.2166C58.7677 96.3513 54.7357 101.734 51.0277 107.227C47.2921 112.755 43.7771 118.524 40.5998 124.375C37.3949 130.261 34.445 136.375 31.8329 142.55C29.1932 148.774 26.836 155.204 24.8304 161.648C22.7972 168.175 21.0672 174.875 19.6957 181.56C18.3035 188.349 17.2421 195.289 16.5391 202.189C15.8223 209.198 15.4639 216.345 15.4639 223.417C15.4639 230.495 15.8223 237.635 16.5391 244.652C17.2421 251.558 18.3035 258.498 19.6957 265.28Z" fill="#830016" fill-opacity="0.3"/>
<path d="M345.42 371.448C350.141 367.547 354.731 363.384 359.053 359.056C363.381 354.727 367.551 350.137 371.445 345.423C375.353 340.688 379.075 335.719 382.5 330.646C385.953 325.539 389.193 320.218 392.122 314.821C395.078 309.39 397.801 303.745 400.213 298.052C400.392 297.632 400.193 297.143 399.772 296.964C399.352 296.784 398.862 296.984 398.683 297.405C396.292 303.049 393.59 308.646 390.661 314.029C387.752 319.377 384.547 324.65 381.122 329.715C377.724 334.747 374.03 339.675 370.163 344.361C366.303 349.034 362.168 353.583 357.874 357.877C353.587 362.164 349.038 366.299 344.359 370.166C339.672 374.039 334.744 377.727 329.713 381.125C324.654 384.543 319.381 387.755 314.026 390.664C308.636 393.593 303.04 396.294 297.402 398.686C291.709 401.098 285.83 403.256 279.93 405.089C273.968 406.95 267.834 408.528 261.714 409.783C255.511 411.058 249.163 412.029 242.843 412.67C236.433 413.325 229.899 413.656 223.421 413.656C222.959 413.656 222.587 414.028 222.587 414.49C222.587 414.952 222.959 415.324 223.421 415.324C229.955 415.324 236.544 414.993 243.015 414.331C249.391 413.684 255.794 412.705 262.045 411.416C268.22 410.148 274.403 408.556 280.419 406.681C286.367 404.827 292.295 402.656 298.043 400.216C303.736 397.804 309.381 395.081 314.812 392.125C320.208 389.189 325.536 385.949 330.636 382.503C335.716 379.071 340.692 375.356 345.42 371.448Z" fill="#830016" fill-opacity="0.3"/>
<path d="M414.331 203.836C414.283 203.381 413.89 203.057 413.421 203.092C412.967 203.14 412.636 203.546 412.677 204.001C413.332 210.418 413.663 216.952 413.663 223.424C413.663 229.895 413.332 236.436 412.677 242.846C412.036 249.159 411.064 255.507 409.789 261.717C409.693 262.165 409.989 262.606 410.437 262.696C410.492 262.709 410.547 262.709 410.602 262.709C410.988 262.709 411.333 262.441 411.416 262.048C412.698 255.783 413.683 249.38 414.331 243.011C414.993 236.54 415.324 229.951 415.324 223.417C415.324 216.897 414.993 210.301 414.331 203.836Z" fill="#830016" fill-opacity="0.3"/>
<path d="M405.886 167.5C405.968 167.5 406.051 167.486 406.134 167.465C406.568 167.327 406.816 166.866 406.678 166.425C404.824 160.477 402.653 154.549 400.213 148.801C397.801 143.108 395.079 137.463 392.122 132.032C389.193 126.643 385.953 121.315 382.5 116.208C379.068 111.135 375.353 106.166 371.445 101.431C371.149 101.072 370.625 101.024 370.273 101.32C369.922 101.61 369.867 102.134 370.163 102.492C374.037 107.186 377.724 112.114 381.122 117.138C384.547 122.204 387.752 127.477 390.661 132.825C393.59 138.215 396.292 143.804 398.683 149.449C401.095 155.149 403.253 161.021 405.086 166.921C405.203 167.272 405.534 167.5 405.886 167.5Z" fill="#830016" fill-opacity="0.3"/>
<path d="M330.647 64.3436C325.546 60.8975 320.226 57.6582 314.822 54.7221C309.384 51.7653 303.739 49.0429 298.053 46.6306C292.305 44.1976 286.378 42.0197 280.43 40.1657C274.413 38.291 268.231 36.6989 262.055 35.4307C255.804 34.1487 249.394 33.17 243.026 32.5153C230.096 31.1988 216.773 31.1988 203.844 32.5153C197.468 33.1631 191.065 34.1487 184.814 35.4307C178.639 36.6989 172.456 38.291 166.44 40.1657C165.998 40.3035 165.757 40.7653 165.895 41.2064C166.033 41.6406 166.488 41.8887 166.936 41.7509C172.898 39.89 179.032 38.3116 185.152 37.0573C191.355 35.7822 197.703 34.8104 204.023 34.1694C216.842 32.8668 230.048 32.8668 242.867 34.1694C249.188 34.8104 255.535 35.7822 261.738 37.0573C267.859 38.3116 273.993 39.89 279.954 41.7509C285.847 43.5911 291.726 45.7415 297.419 48.1538C303.064 50.5454 308.654 53.2402 314.043 56.1763C319.399 59.0848 324.671 62.2966 329.73 65.7152C334.761 69.1199 339.689 72.8073 344.376 76.6738C344.528 76.8048 344.721 76.8668 344.907 76.8668C345.148 76.8668 345.382 76.7634 345.548 76.5636C345.837 76.2121 345.789 75.6883 345.437 75.3919C340.696 71.4978 335.719 67.776 330.647 64.3436Z" fill="#830016" fill-opacity="0.3"/>
<path d="M87.7909 87.7908C83.4626 92.1192 79.2928 96.7094 75.3987 101.424C71.4908 106.159 67.769 111.128 64.3436 116.201C60.8906 121.308 57.6512 126.629 54.722 132.025C51.7653 137.456 49.0428 143.101 46.6306 148.794C44.1976 154.542 42.0197 160.469 40.1657 166.418C40.0278 166.859 40.2759 167.32 40.7101 167.458C40.7928 167.486 40.8755 167.493 40.9583 167.493C41.3098 167.493 41.6406 167.265 41.7509 166.907C43.5911 161.014 45.7415 155.135 48.1537 149.435C50.5453 143.79 53.2471 138.194 56.1763 132.811C59.0848 127.463 62.2897 122.19 65.7151 117.124C69.113 112.093 72.8072 107.165 76.6737 102.478C80.5334 97.8053 84.6687 93.2564 88.9626 88.9625C93.2495 84.6756 97.7984 80.5402 102.478 76.6737C107.165 72.8002 112.093 69.1129 117.124 65.715C122.183 62.2964 127.456 59.0847 132.811 56.1761C133.218 55.9556 133.362 55.4525 133.142 55.0527C132.921 54.653 132.418 54.5013 132.011 54.7219C126.615 57.658 121.287 60.8973 116.187 64.3434C111.107 67.7758 106.138 71.4976 101.41 75.3986C96.7094 79.2996 92.1192 83.4694 87.7909 87.7908Z" fill="#830016" fill-opacity="0.3"/>
<path d="M32.5154 203.836C31.8537 210.307 31.5229 216.896 31.5229 223.43C31.5229 223.892 31.8951 224.264 32.3569 224.264C32.8187 224.264 33.1908 223.892 33.1908 223.43C33.1908 216.958 33.5217 210.418 34.1764 204.008C34.2247 203.553 33.8938 203.146 33.4321 203.098C32.9703 203.057 32.5636 203.374 32.5154 203.836Z" fill="#830016" fill-opacity="0.3"/>
<path d="M40.1664 280.429C42.0204 286.377 44.1914 292.305 46.6313 298.053C49.0436 303.746 51.766 309.39 54.7228 314.822C57.652 320.211 60.8913 325.539 64.3443 330.646C67.7766 335.719 71.4915 340.688 75.3994 345.423C79.2935 350.137 83.4633 354.728 87.7916 359.056C92.12 363.384 96.7033 367.554 101.424 371.448C106.153 375.356 111.122 379.071 116.201 382.503C121.302 385.949 126.622 389.189 132.026 392.125C137.464 395.082 143.109 397.804 148.795 400.216C154.543 402.649 160.47 404.827 166.418 406.681C172.435 408.556 178.617 410.148 184.793 411.416C184.848 411.43 184.903 411.43 184.958 411.43C185.344 411.43 185.689 411.161 185.771 410.768C185.868 410.32 185.572 409.879 185.124 409.79C179.003 408.535 172.869 406.957 166.907 405.096C161.015 403.256 155.136 401.106 149.443 398.693C143.798 396.302 138.208 393.6 132.819 390.671C127.463 387.762 122.191 384.55 117.132 381.132C112.101 377.727 107.173 374.04 102.486 370.173C97.806 366.307 93.2572 362.171 88.9702 357.884C84.6764 353.59 80.541 349.042 76.6814 344.369C72.8079 339.675 69.1206 334.747 65.7227 329.723C62.2973 324.657 59.0924 319.384 56.1839 314.036C53.2547 308.646 50.553 303.057 48.1614 297.412C45.7491 291.712 43.5918 285.84 41.7585 279.94C41.6206 279.506 41.1658 279.258 40.7178 279.395C40.2767 279.526 40.0354 279.988 40.1664 280.429Z" fill="#830016" fill-opacity="0.3"/>
<path d="M348.096 98.7566C344.119 94.7797 339.901 90.9408 335.566 87.3637C335.215 87.0742 334.691 87.1225 334.394 87.474C334.105 87.8255 334.153 88.3493 334.505 88.6457C338.799 92.1952 342.975 95.9859 346.918 99.9282C350.86 103.871 354.658 108.047 358.2 112.341C361.757 116.649 365.147 121.177 368.27 125.795C371.406 130.433 374.356 135.279 377.03 140.2C379.718 145.148 382.199 150.283 384.397 155.473C386.617 160.704 388.595 166.108 390.283 171.518C391.993 176.997 393.44 182.628 394.598 188.252C395.763 193.945 396.659 199.776 397.251 205.579C397.851 211.458 398.154 217.462 398.154 223.416C398.154 229.371 397.851 235.375 397.251 241.254C396.659 247.064 395.77 252.895 394.598 258.581C393.447 264.205 391.993 269.829 390.283 275.315C388.595 280.725 386.617 286.129 384.397 291.36C382.199 296.55 379.725 301.685 377.03 306.633C374.356 311.554 371.406 316.4 368.27 321.038C365.147 325.656 361.757 330.184 358.2 334.492C354.658 338.786 350.86 342.962 346.918 346.905C342.975 350.847 338.799 354.645 334.505 358.187C330.197 361.744 325.669 365.135 321.051 368.257C316.406 371.393 311.56 374.343 306.646 377.017C301.698 379.712 296.563 382.186 291.373 384.385C286.149 386.597 280.752 388.575 275.328 390.271C269.849 391.98 264.218 393.427 258.601 394.585C252.901 395.757 247.07 396.646 241.267 397.239C235.381 397.838 229.378 398.142 223.43 398.142C222.968 398.142 222.596 398.514 222.596 398.976C222.596 399.437 222.968 399.81 223.43 399.81C229.433 399.81 235.498 399.499 241.439 398.9C247.297 398.3 253.183 397.404 258.931 396.219C264.604 395.054 270.29 393.593 275.824 391.863C281.297 390.154 286.748 388.155 292.021 385.922C297.252 383.702 302.442 381.201 307.439 378.485C312.401 375.783 317.295 372.806 321.982 369.642C326.648 366.486 331.217 363.067 335.566 359.476C339.901 355.899 344.119 352.06 348.096 348.083C352.08 344.1 355.912 339.888 359.489 335.553C363.08 331.204 366.498 326.635 369.655 321.969C372.825 317.289 375.796 312.395 378.498 307.426C381.213 302.436 383.715 297.246 385.934 292.008C388.174 286.722 390.173 281.277 391.876 275.811C393.599 270.277 395.067 264.598 396.231 258.918C397.41 253.17 398.313 247.284 398.906 241.426C399.512 235.492 399.815 229.427 399.815 223.416C399.815 217.406 399.505 211.348 398.906 205.407C398.306 199.542 397.41 193.656 396.231 187.915C395.067 182.242 393.599 176.556 391.876 171.022C390.173 165.556 388.174 160.104 385.934 154.825C383.715 149.587 381.213 144.404 378.498 139.407C375.796 134.438 372.819 129.544 369.655 124.864C366.505 120.198 363.08 115.629 359.489 111.28C355.905 106.951 352.073 102.733 348.096 98.7566Z" fill="#830016" fill-opacity="0.3"/>
<path d="M275.816 54.977C270.281 53.254 264.595 51.7859 258.923 50.6211C258.475 50.5315 258.034 50.821 257.944 51.269C257.855 51.717 258.144 52.1581 258.592 52.2477C264.209 53.3987 269.84 54.853 275.32 56.5622C275.402 56.5898 275.485 56.5967 275.568 56.5967C275.919 56.5967 276.25 56.3693 276.36 56.0109C276.498 55.5766 276.257 55.1149 275.816 54.977Z" fill="#830016" fill-opacity="0.3"/>
<path d="M223.422 47.0303C217.419 47.0303 211.354 47.3404 205.413 47.94C199.555 48.5397 193.669 49.4357 187.921 50.6211C182.248 51.7859 176.562 53.2471 171.028 54.977C165.555 56.6863 160.104 58.685 154.831 60.9181C149.6 63.1374 144.41 65.6393 139.413 68.3549C134.451 71.0566 129.557 74.0272 124.87 77.1976C120.204 80.3542 115.635 83.7728 111.286 87.3637C106.951 90.9407 102.733 94.7797 98.7559 98.7565C98.4319 99.0805 98.4319 99.6043 98.7559 99.9282C98.9213 100.094 99.128 100.169 99.3417 100.169C99.5554 100.169 99.769 100.087 99.9275 99.9282C103.87 95.9858 108.047 92.1882 112.34 88.6456C116.648 85.0892 121.176 81.7051 125.794 78.5761C130.439 75.4401 135.285 72.4902 140.199 69.816C145.147 67.1211 150.282 64.6468 155.472 62.4482C160.696 60.2358 166.093 58.2577 171.517 56.5622C176.996 54.853 182.627 53.4056 188.244 52.2477C193.944 51.076 199.775 50.1869 205.578 49.5942C211.464 48.9946 217.467 48.6913 223.415 48.6913C223.877 48.6913 224.249 48.3191 224.249 47.8573C224.249 47.3956 223.884 47.0303 223.422 47.0303Z" fill="#830016" fill-opacity="0.3"/>
<path d="M62.0067 154.391C61.5863 154.211 61.0969 154.411 60.9177 154.832C58.6777 160.118 56.679 165.563 54.9766 171.028C53.2536 176.563 51.7855 182.242 50.6207 187.921C49.4422 193.669 48.5393 199.555 47.9465 205.414C47.34 211.348 47.0368 217.413 47.0368 223.423C47.0368 229.433 47.3469 235.492 47.9465 241.433C48.5462 247.298 49.4422 253.184 50.6207 258.925C51.7855 264.598 53.2536 270.284 54.9766 275.818C56.679 281.284 58.6777 286.735 60.9177 292.015C63.137 297.253 65.6389 302.436 68.3544 307.433C71.0562 312.402 74.0336 317.296 77.1971 321.975C80.3469 326.641 83.7723 331.211 87.3632 335.56C87.5286 335.76 87.7629 335.863 88.0041 335.863C88.1902 335.863 88.3763 335.801 88.5348 335.67C88.8863 335.381 88.9415 334.857 88.6451 334.499C85.0887 330.191 81.6978 325.663 78.5756 321.045C75.4396 316.406 72.4898 311.561 69.8156 306.64C67.1276 301.692 64.6464 296.557 62.4478 291.367C60.2285 286.136 58.2504 280.732 56.5618 275.322C54.8526 269.843 53.4052 264.212 52.2473 258.587C51.0825 252.895 50.1865 247.064 49.5938 241.26C48.9942 235.381 48.6909 229.378 48.6909 223.423C48.6909 217.468 48.9942 211.465 49.5938 205.586C50.1865 199.776 51.0756 193.945 52.2473 188.259C53.3983 182.635 54.8526 177.011 56.5618 171.525C58.2504 166.114 60.2285 160.711 62.4478 155.48C62.627 155.052 62.4271 154.57 62.0067 154.391Z" fill="#830016" fill-opacity="0.3"/>
<path d="M139.415 378.499C144.411 381.214 149.594 383.716 154.833 385.936C154.936 385.984 155.046 386.004 155.156 386.004C155.48 386.004 155.784 385.811 155.921 385.494C156.101 385.074 155.901 384.585 155.48 384.405C150.297 382.207 145.156 379.733 140.207 377.038C135.293 374.363 130.441 371.414 125.802 368.278C121.185 365.155 116.656 361.764 112.349 358.208C111.997 357.919 111.474 357.967 111.177 358.318C110.888 358.67 110.936 359.194 111.287 359.49C115.636 363.081 120.206 366.499 124.872 369.656C129.559 372.82 134.452 375.797 139.415 378.499Z" fill="#830016" fill-opacity="0.3"/>
<path d="M206.943 384.026C212.381 384.578 217.93 384.86 223.423 384.86C228.923 384.86 234.464 384.578 239.902 384.026C245.264 383.482 250.647 382.655 255.913 381.573C261.103 380.504 266.306 379.167 271.372 377.589C276.376 376.031 281.366 374.198 286.197 372.151C290.987 370.125 295.729 367.829 300.306 365.341C304.847 362.874 309.327 360.145 313.614 357.243C317.888 354.355 322.071 351.226 326.048 347.938C330.018 344.665 333.878 341.157 337.517 337.511C341.163 333.865 344.671 330.005 347.945 326.042C351.232 322.065 354.361 317.881 357.249 313.608C360.151 309.321 362.873 304.841 365.347 300.299C367.836 295.723 370.124 290.981 372.15 286.191C374.197 281.359 376.024 276.369 377.588 271.366C379.166 266.314 380.503 261.11 381.572 255.906C382.654 250.648 383.474 245.258 384.025 239.896C384.577 234.458 384.859 228.91 384.859 223.416C384.859 217.916 384.577 212.368 384.025 206.937C383.977 206.482 383.577 206.158 383.116 206.193C382.661 206.241 382.33 206.648 382.371 207.102C382.923 212.485 383.198 217.972 383.198 223.416C383.198 228.861 382.923 234.347 382.371 239.73C381.834 245.044 381.013 250.372 379.945 255.576C378.884 260.724 377.56 265.873 376.003 270.876C374.459 275.832 372.646 280.767 370.62 285.55C368.614 290.285 366.347 294.985 363.886 299.514C361.44 304.007 358.745 308.439 355.878 312.692C353.017 316.917 349.923 321.059 346.67 324.994C343.43 328.923 339.956 332.741 336.352 336.346C332.747 339.95 328.929 343.424 325 346.663C321.065 349.91 316.923 353.011 312.698 355.871C308.452 358.746 304.02 361.44 299.52 363.88C294.992 366.341 290.298 368.608 285.556 370.614C280.773 372.64 275.838 374.453 270.883 375.997C265.865 377.561 260.717 378.885 255.582 379.939C250.371 381.007 245.044 381.821 239.737 382.365C228.971 383.461 217.875 383.461 207.109 382.365C201.802 381.828 196.474 381.007 191.264 379.939C186.129 378.885 180.98 377.561 175.963 375.997C171.007 374.453 166.073 372.64 161.289 370.614C156.548 368.608 151.854 366.341 147.326 363.88C142.832 361.433 138.4 358.739 134.148 355.871C129.923 353.011 125.781 349.917 121.845 346.663C117.917 343.417 114.098 339.95 110.494 336.346C106.889 332.741 103.415 328.923 100.176 324.994C96.9229 321.052 93.8283 316.917 90.968 312.692C90.713 312.312 90.1961 312.209 89.817 312.471C89.4379 312.726 89.3346 313.243 89.5965 313.622C92.4843 317.888 95.6134 322.072 98.901 326.056C102.175 330.026 105.683 333.878 109.329 337.524C112.968 341.163 116.828 344.672 120.798 347.952C124.774 351.233 128.958 354.369 133.231 357.257C137.525 360.158 141.998 362.881 146.54 365.355C151.116 367.843 155.858 370.131 160.648 372.165C165.48 374.212 170.47 376.045 175.474 377.603C180.539 379.181 185.743 380.525 190.933 381.586C196.192 382.662 201.581 383.482 206.943 384.026Z" fill="#830016" fill-opacity="0.3"/>
<path d="M347.95 120.791C344.677 116.821 341.168 112.968 337.522 109.322C333.883 105.683 330.024 102.175 326.054 98.8945C322.077 95.6138 317.893 92.4778 313.62 89.59C313.241 89.3281 312.724 89.4314 312.469 89.8105C312.214 90.1896 312.311 90.7065 312.69 90.9615C316.915 93.8218 321.057 96.9164 324.992 100.17C328.921 103.416 332.739 106.883 336.344 110.487C339.948 114.092 343.422 117.91 346.661 121.839C349.915 125.781 353.009 129.916 355.87 134.141C356.028 134.376 356.29 134.507 356.559 134.507C356.717 134.507 356.883 134.458 357.021 134.362C357.4 134.107 357.503 133.59 357.241 133.211C354.367 128.952 351.238 124.775 347.95 120.791Z" fill="#830016" fill-opacity="0.3"/>
<path d="M270.338 69.8024C270.2 70.2435 270.448 70.7053 270.882 70.8431C275.838 72.387 280.773 74.1996 285.556 76.2259C285.659 76.2742 285.769 76.2949 285.88 76.2949C286.204 76.2949 286.507 76.1019 286.645 75.7848C286.824 75.3644 286.624 74.8751 286.204 74.6959C281.372 72.6489 276.382 70.8155 271.378 69.2579C270.937 69.1132 270.476 69.3613 270.338 69.8024Z" fill="#830016" fill-opacity="0.3"/>
<path d="M239.91 62.8205C229.034 61.7109 217.82 61.7109 206.944 62.8205C201.582 63.365 196.2 64.1921 190.934 65.2742C185.744 66.3425 180.54 67.6796 175.475 69.2579C170.471 70.8155 165.481 72.6489 160.649 74.6958C160.229 74.875 160.029 75.3644 160.208 75.7848C160.339 76.1019 160.649 76.2948 160.973 76.2948C161.084 76.2948 161.194 76.2742 161.297 76.2259C166.081 74.1996 171.015 72.3869 175.971 70.8431C180.988 69.2785 186.137 67.9552 191.272 66.9007C196.482 65.8324 201.81 65.0191 207.117 64.4747C217.882 63.3788 228.979 63.3788 239.745 64.4747C240.206 64.516 240.606 64.1921 240.654 63.7303C240.696 63.2754 240.365 62.8688 239.91 62.8205Z" fill="#830016" fill-opacity="0.3"/>
<path d="M120.791 98.8943C116.821 102.168 112.961 105.676 109.322 109.322C105.676 112.968 102.168 116.828 98.8943 120.791C95.6067 124.768 92.4777 128.951 89.5898 133.225C86.6882 137.512 83.9658 141.991 81.4915 146.533C79.0034 151.11 76.7152 155.852 74.6888 160.642C72.6419 165.473 70.8154 170.463 69.2509 175.467C67.6726 180.519 66.3355 185.723 65.2672 190.926C64.1851 196.185 63.3649 201.575 62.8135 206.937C62.2622 212.375 61.9796 217.923 61.9796 223.416C61.9796 228.916 62.2622 234.465 62.8135 239.896C63.358 245.265 64.1851 250.648 65.2672 255.906C66.3355 261.11 67.6795 266.314 69.2509 271.366C69.3612 271.724 69.692 271.952 70.0435 271.952C70.1262 271.952 70.2089 271.938 70.2916 271.917C70.7327 271.779 70.9739 271.317 70.8361 270.876C69.2784 265.873 67.9483 260.724 66.8937 255.576C65.8254 250.372 65.0122 245.037 64.4677 239.73C63.9163 234.347 63.6406 228.861 63.6406 223.416C63.6406 217.972 63.9163 212.485 64.4677 207.102C65.0053 201.789 65.8254 196.461 66.8937 191.257C67.9483 186.109 69.2784 180.96 70.8361 175.956C72.3799 171.001 74.1926 166.066 76.2189 161.283C78.2246 156.548 80.4921 151.847 82.9526 147.319C85.3994 142.825 88.0942 138.394 90.9614 134.141C93.8217 129.916 96.9163 125.774 100.169 121.839C103.409 117.91 106.882 114.092 110.487 110.487C114.092 106.882 117.91 103.409 121.839 100.169C122.19 99.8799 122.245 99.3561 121.949 98.9977C121.666 98.6531 121.142 98.6048 120.791 98.8943Z" fill="#830016" fill-opacity="0.3"/>
<path d="M266.857 363.88C266.94 363.88 267.022 363.867 267.105 363.846C271.668 362.426 276.21 360.758 280.607 358.897C284.963 357.05 289.291 354.969 293.454 352.694C297.589 350.44 301.67 347.959 305.577 345.32C309.472 342.687 313.276 339.84 316.901 336.849C320.513 333.865 324.028 330.674 327.35 327.351C330.665 324.036 333.863 320.521 336.847 316.903C339.839 313.284 342.685 309.473 345.318 305.579C345.573 305.2 345.477 304.683 345.097 304.428C344.718 304.166 344.201 304.269 343.946 304.648C341.341 308.494 338.522 312.264 335.572 315.841C332.623 319.418 329.459 322.892 326.185 326.173C322.904 329.454 319.431 332.61 315.854 335.56C312.27 338.517 308.507 341.336 304.661 343.934C300.801 346.546 296.762 349 292.675 351.226C288.554 353.466 284.28 355.527 279.973 357.353C275.624 359.194 271.137 360.841 266.623 362.247C266.182 362.385 265.94 362.846 266.078 363.288C266.175 363.653 266.499 363.88 266.857 363.88Z" fill="#830016" fill-opacity="0.3"/>
<path d="M365.843 252.688C364.885 257.361 363.679 262.047 362.252 266.61C360.846 271.118 359.199 275.611 357.359 279.96C357.18 280.381 357.38 280.87 357.8 281.049C357.903 281.097 358.014 281.118 358.124 281.118C358.448 281.118 358.751 280.925 358.889 280.608C360.75 276.211 362.418 271.669 363.838 267.106C365.278 262.495 366.498 257.753 367.47 253.025C368.455 248.228 369.207 243.321 369.703 238.441C370.206 233.486 370.461 228.434 370.461 223.43C370.461 218.426 370.206 213.374 369.703 208.419C369.207 203.539 368.455 198.632 367.47 193.835C366.498 189.107 365.278 184.365 363.838 179.754C363.7 179.32 363.238 179.072 362.797 179.21C362.356 179.347 362.115 179.809 362.252 180.25C363.672 184.813 364.878 189.493 365.843 194.173C366.815 198.914 367.559 203.767 368.049 208.591C368.545 213.492 368.8 218.488 368.8 223.437C368.8 228.386 368.545 233.383 368.049 238.283C367.559 243.094 366.815 247.946 365.843 252.688Z" fill="#830016" fill-opacity="0.3"/>
<path d="M238.434 77.1425C228.523 76.1363 218.323 76.1363 208.412 77.1425C203.525 77.6388 198.618 78.39 193.828 79.3756C189.093 80.3474 184.351 81.5673 179.747 83.0078C175.184 84.4276 170.642 86.0955 166.245 87.9564C161.889 89.8036 157.561 91.885 153.398 94.1595C149.263 96.4132 145.183 98.8944 141.275 101.534C137.381 104.167 133.576 107.013 129.951 110.005C129.599 110.294 129.544 110.818 129.84 111.176C130.13 111.528 130.654 111.576 131.012 111.287C134.596 108.33 138.359 105.511 142.205 102.913C146.065 100.3 150.104 97.8468 154.191 95.6206C158.312 93.3806 162.585 91.3199 166.893 89.4934C171.242 87.6532 175.729 86.0059 180.243 84.5999C184.799 83.1801 189.479 81.974 194.166 81.016C198.907 80.0442 203.753 79.2998 208.584 78.8104C218.385 77.8111 228.468 77.8111 238.269 78.8104C243.1 79.2998 247.953 80.0442 252.687 81.016C257.367 81.974 262.054 83.187 266.61 84.5999C271.124 86.0059 275.611 87.6532 279.96 89.4934C284.268 91.3199 288.541 93.3806 292.662 95.6206C296.756 97.8468 300.788 100.3 304.648 102.913C308.494 105.518 312.264 108.33 315.841 111.287C319.411 114.237 322.892 117.393 326.172 120.674C329.453 123.955 332.61 127.428 335.56 131.005C338.516 134.582 341.335 138.352 343.934 142.198C346.546 146.065 348.999 150.097 351.226 154.184C351.377 154.46 351.66 154.618 351.956 154.618C352.087 154.618 352.225 154.584 352.349 154.515C352.756 154.294 352.9 153.791 352.68 153.391C350.433 149.256 347.952 145.176 345.305 141.268C342.672 137.374 339.819 133.562 336.835 129.944C333.85 126.332 330.659 122.817 327.337 119.495C324.015 116.173 320.5 112.982 316.889 109.998C313.27 107.007 309.459 104.16 305.565 101.527C301.657 98.8875 297.577 96.4063 293.441 94.1526C289.271 91.885 284.95 89.7967 280.594 87.9495C276.197 86.0886 271.655 84.4207 267.092 83.0009C262.488 81.5673 257.746 80.3405 253.011 79.3687C248.228 78.3969 243.321 77.6457 238.434 77.1425Z" fill="#830016" fill-opacity="0.3"/>
<path d="M95.6201 154.184C95.8407 153.784 95.6891 153.274 95.2893 153.061C94.8827 152.84 94.3795 152.992 94.159 153.391C91.8914 157.561 89.8031 161.89 87.9629 166.245C86.102 170.643 84.4341 175.185 83.0143 179.747C81.5738 184.358 80.3539 189.1 79.3821 193.828C78.3965 198.625 77.6452 203.532 77.149 208.412C76.6458 213.368 76.3908 218.42 76.3908 223.423C76.3908 228.427 76.6458 233.479 77.149 238.435C77.1903 238.862 77.5556 239.179 77.976 239.179C78.0036 239.179 78.0312 239.179 78.0588 239.172C78.5136 239.124 78.8445 238.717 78.8031 238.262C78.3069 233.362 78.0519 228.365 78.0519 223.417C78.0519 218.468 78.3069 213.471 78.8031 208.571C79.2925 203.746 80.0368 198.894 81.0086 194.152C81.9666 189.479 83.1728 184.792 84.5995 180.23C86.0055 175.722 87.6527 171.229 89.4929 166.88C91.3125 162.586 93.3733 158.313 95.6201 154.184Z" fill="#830016" fill-opacity="0.3"/>
<path d="M101.533 305.579C104.166 309.473 107.019 313.284 110.004 316.903C112.988 320.514 116.179 324.029 119.501 327.351C122.816 330.673 126.338 333.865 129.95 336.849C133.568 339.84 137.38 342.687 141.274 345.319C145.182 347.959 149.262 350.44 153.397 352.694C157.567 354.962 161.888 357.05 166.244 358.897C166.348 358.945 166.458 358.966 166.568 358.966C166.892 358.966 167.195 358.773 167.333 358.456C167.512 358.036 167.313 357.546 166.892 357.367C162.585 355.541 158.311 353.48 154.19 351.24C150.096 349.014 146.064 346.56 142.204 343.948C138.358 341.343 134.588 338.531 131.011 335.567C127.441 332.617 123.96 329.46 120.68 326.18C117.399 322.899 114.242 319.425 111.293 315.848C108.336 312.271 105.517 308.501 102.919 304.655C100.306 300.789 97.8528 296.757 95.6266 292.67C95.406 292.27 94.9029 292.118 94.4962 292.339C94.0896 292.559 93.9449 293.063 94.1654 293.462C96.4054 297.591 98.8866 301.671 101.533 305.579Z" fill="#830016" fill-opacity="0.3"/>
<path d="M193.829 367.471C198.619 368.457 203.526 369.208 208.413 369.704C213.369 370.208 218.421 370.463 223.424 370.463C223.886 370.463 224.258 370.09 224.258 369.629C224.258 369.167 223.886 368.795 223.424 368.795C218.476 368.795 213.479 368.54 208.578 368.043C203.747 367.554 198.895 366.81 194.16 365.838C193.712 365.748 193.271 366.038 193.181 366.486C193.092 366.941 193.381 367.382 193.829 367.471Z" fill="#830016" fill-opacity="0.3"/>
<path d="M250.067 353.928C250.122 353.928 250.177 353.921 250.232 353.914C254.519 353.032 258.813 351.929 262.99 350.627C267.118 349.338 271.233 347.828 275.224 346.14C279.173 344.465 283.088 342.577 286.865 340.523C290.614 338.483 294.308 336.236 297.844 333.844C301.373 331.459 304.819 328.875 308.099 326.173C311.373 323.471 314.551 320.577 317.563 317.572C317.886 317.248 317.886 316.724 317.563 316.4C317.239 316.076 316.715 316.076 316.391 316.4C313.42 319.37 310.277 322.231 307.045 324.898C303.806 327.572 300.401 330.122 296.913 332.479C293.419 334.843 289.773 337.063 286.065 339.075C282.336 341.102 278.47 342.969 274.569 344.624C270.633 346.291 266.567 347.78 262.487 349.055C258.365 350.337 254.127 351.433 249.895 352.301C249.447 352.391 249.157 352.832 249.247 353.28C249.33 353.652 249.674 353.928 250.067 353.928Z" fill="#830016" fill-opacity="0.3"/>
<path d="M350.618 262.992C351.921 258.815 353.024 254.521 353.906 250.234C354.795 245.885 355.477 241.44 355.925 237.022C356.38 232.542 356.615 227.965 356.615 223.423C356.615 218.881 356.38 214.305 355.925 209.825C355.477 205.407 354.795 200.962 353.906 196.613C353.024 192.326 351.921 188.032 350.618 183.855C349.33 179.727 347.82 175.612 346.132 171.621C344.457 167.665 342.568 163.75 340.514 159.98C338.474 156.238 336.227 152.544 333.836 149.001C333.581 148.622 333.064 148.518 332.685 148.78C332.306 149.035 332.202 149.552 332.464 149.931C334.828 153.433 337.048 157.079 339.06 160.78C341.087 164.502 342.954 168.368 344.608 172.276C346.276 176.212 347.765 180.278 349.04 184.351C350.322 188.473 351.418 192.712 352.286 196.943C353.169 201.237 353.837 205.628 354.285 209.99C354.733 214.415 354.967 218.937 354.967 223.423C354.967 227.91 354.74 232.425 354.285 236.856C353.837 241.219 353.169 245.609 352.286 249.903C351.418 254.135 350.322 258.374 349.04 262.495C347.772 266.576 346.276 270.635 344.608 274.571C342.954 278.472 341.087 282.338 339.06 286.067C337.048 289.768 334.828 293.414 332.464 296.915C332.209 297.294 332.306 297.811 332.685 298.066C332.83 298.163 332.988 298.211 333.147 298.211C333.415 298.211 333.677 298.08 333.836 297.846C336.227 294.303 338.481 290.609 340.514 286.866C342.568 283.096 344.457 279.182 346.132 275.225C347.827 271.235 349.33 267.12 350.618 262.992Z" fill="#830016" fill-opacity="0.3"/>
<path d="M196.951 94.5661C201.238 93.6839 205.628 93.0154 209.998 92.5674C218.862 91.6645 227.994 91.6645 236.857 92.5674C241.227 93.0154 245.617 93.6839 249.904 94.5661C254.136 95.4345 258.375 96.5235 262.496 97.8124C266.576 99.0805 270.636 100.576 274.578 102.244C278.479 103.898 282.346 105.766 286.075 107.792C289.776 109.805 293.429 112.024 296.923 114.388C300.403 116.745 303.815 119.295 307.054 121.97C310.287 124.637 313.43 127.497 316.4 130.468C316.566 130.633 316.772 130.709 316.986 130.709C317.2 130.709 317.413 130.626 317.572 130.468C317.896 130.144 317.896 129.62 317.572 129.296C314.567 126.291 311.383 123.396 308.109 120.695C304.828 117.986 301.382 115.408 297.853 113.017C294.318 110.625 290.623 108.378 286.874 106.338C283.104 104.284 279.182 102.396 275.233 100.721C271.242 99.0323 267.128 97.5229 262.999 96.234C258.823 94.9314 254.529 93.8286 250.242 92.9464C245.9 92.0573 241.454 91.375 237.029 90.927C228.049 90.0103 218.806 90.0103 209.833 90.927C205.408 91.375 200.962 92.0573 196.62 92.9464C196.172 93.036 195.883 93.4771 195.972 93.9251C196.062 94.3731 196.503 94.6626 196.951 94.5661Z" fill="#830016" fill-opacity="0.3"/>
<path d="M171.627 100.714C167.678 102.389 163.763 104.277 159.986 106.331C156.237 108.371 152.542 110.618 149.007 113.01C145.478 115.394 142.032 117.979 138.751 120.681C135.477 123.383 132.3 126.277 129.288 129.282C128.964 129.606 128.964 130.13 129.288 130.454C129.453 130.619 129.66 130.695 129.874 130.695C130.087 130.695 130.301 130.613 130.46 130.454C133.43 127.483 136.573 124.623 139.805 121.956C143.045 119.282 146.45 116.732 149.937 114.374C153.431 112.01 157.077 109.791 160.785 107.779C164.514 105.752 168.381 103.884 172.282 102.23C172.702 102.051 172.902 101.562 172.723 101.141C172.537 100.735 172.047 100.535 171.627 100.714Z" fill="#830016" fill-opacity="0.3"/>
<path d="M114.388 149.938C114.643 149.559 114.546 149.042 114.167 148.787C113.788 148.532 113.271 148.629 113.016 149.008C110.624 152.55 108.371 156.245 106.337 159.987C104.284 163.757 102.395 167.672 100.72 171.628C100.541 172.049 100.741 172.538 101.161 172.717C101.265 172.765 101.375 172.786 101.485 172.786C101.809 172.786 102.113 172.593 102.25 172.276C103.905 168.375 105.772 164.508 107.799 160.78C109.797 157.086 112.024 153.433 114.388 149.938Z" fill="#830016" fill-opacity="0.3"/>
<path d="M92.9386 250.234C93.8208 254.521 94.9236 258.815 96.2262 262.991C97.515 267.12 99.0244 271.235 100.713 275.225C100.844 275.542 101.154 275.735 101.478 275.735C101.588 275.735 101.699 275.715 101.802 275.666C102.222 275.487 102.422 274.998 102.243 274.577C100.575 270.642 99.0865 266.575 97.8114 262.502C96.5294 258.381 95.4336 254.142 94.5652 249.91C93.6829 245.616 93.0144 241.226 92.5664 236.863C92.1184 232.438 91.8841 227.917 91.8841 223.43C91.8841 218.943 92.1115 214.429 92.5664 209.997C93.0144 205.634 93.6829 201.244 94.5652 196.95C94.6548 196.502 94.3653 196.061 93.9173 195.971C93.4693 195.882 93.0282 196.171 92.9386 196.619C92.0495 200.968 91.3672 205.414 90.9192 209.832C90.4643 214.312 90.2299 218.888 90.2299 223.43C90.2299 227.972 90.4643 232.548 90.9192 237.028C91.3672 241.439 92.0495 245.885 92.9386 250.234Z" fill="#830016" fill-opacity="0.3"/>
<path d="M120.681 308.101C123.382 311.375 126.277 314.56 129.282 317.565C129.448 317.73 129.654 317.806 129.868 317.806C130.082 317.806 130.295 317.723 130.454 317.565C130.778 317.241 130.778 316.717 130.454 316.393C127.483 313.422 124.63 310.279 121.956 307.047C119.275 303.801 116.725 300.396 114.374 296.915C114.119 296.536 113.602 296.433 113.223 296.695C112.844 296.95 112.741 297.467 113.003 297.846C115.387 301.368 117.972 304.814 120.681 308.101Z" fill="#830016" fill-opacity="0.3"/>
<path d="M183.863 350.62C183.946 350.647 184.029 350.654 184.111 350.654C184.463 350.654 184.794 350.427 184.904 350.068C185.042 349.627 184.794 349.166 184.359 349.028C180.279 347.76 176.22 346.264 172.277 344.596C168.376 342.942 164.51 341.074 160.781 339.048C157.08 337.035 153.427 334.816 149.933 332.452C149.554 332.19 149.037 332.293 148.782 332.672C148.527 333.052 148.623 333.568 149.002 333.823C152.538 336.215 156.232 338.462 159.982 340.502C163.752 342.556 167.673 344.444 171.623 346.119C175.613 347.822 179.735 349.331 183.863 350.62Z" fill="#830016" fill-opacity="0.3"/>
<path d="M223.423 354.955C218.943 354.955 214.429 354.727 209.99 354.273C209.529 354.231 209.129 354.555 209.081 355.017C209.032 355.472 209.363 355.878 209.825 355.927C214.312 356.382 218.888 356.616 223.423 356.616C223.885 356.616 224.257 356.244 224.257 355.782C224.257 355.327 223.885 354.955 223.423 354.955Z" fill="#830016" fill-opacity="0.3"/>
<path d="M235.582 342.714C235.61 342.714 235.638 342.714 235.665 342.707C239.649 342.301 243.646 341.687 247.554 340.888C248.002 340.798 248.292 340.357 248.202 339.909C248.112 339.461 247.671 339.172 247.223 339.261C243.371 340.054 239.421 340.653 235.493 341.053C235.038 341.101 234.707 341.508 234.748 341.963C234.797 342.39 235.162 342.714 235.582 342.714Z" fill="#830016" fill-opacity="0.3"/>
<path d="M298.587 314.629C295.665 317.041 292.605 319.329 289.483 321.445C286.34 323.568 283.059 325.566 279.73 327.372C276.381 329.192 272.9 330.874 269.399 332.355C268.978 332.535 268.778 333.024 268.958 333.444C269.089 333.761 269.399 333.954 269.723 333.954C269.833 333.954 269.943 333.934 270.047 333.885C273.603 332.376 277.125 330.681 280.523 328.833C283.893 327 287.222 324.974 290.406 322.823C293.57 320.68 296.678 318.357 299.642 315.917C299.993 315.628 300.048 315.104 299.752 314.746C299.469 314.387 298.939 314.339 298.587 314.629Z" fill="#830016" fill-opacity="0.3"/>
<path d="M315.267 299.955C315.509 299.955 315.743 299.852 315.908 299.652C318.348 296.695 320.671 293.586 322.814 290.416C323.069 290.037 322.973 289.52 322.594 289.265C322.215 289.01 321.698 289.107 321.443 289.486C319.327 292.615 317.039 295.675 314.633 298.59C314.344 298.942 314.392 299.466 314.744 299.762C314.895 299.893 315.081 299.955 315.267 299.955Z" fill="#830016" fill-opacity="0.3"/>
<path d="M336.339 258.546C335.195 262.213 333.858 265.866 332.356 269.402C332.177 269.822 332.376 270.311 332.797 270.49C332.9 270.539 333.011 270.559 333.121 270.559C333.445 270.559 333.755 270.366 333.886 270.049C335.409 266.459 336.767 262.757 337.925 259.036C339.096 255.272 340.096 251.406 340.881 247.553C341.681 243.645 342.294 239.641 342.701 235.657C343.115 231.618 343.321 227.497 343.321 223.416C343.321 222.955 342.949 222.583 342.487 222.583C342.026 222.583 341.653 222.955 341.653 223.416C341.653 227.442 341.447 231.501 341.04 235.492C340.64 239.42 340.034 243.363 339.248 247.222C338.483 251.027 337.497 254.838 336.339 258.546Z" fill="#830016" fill-opacity="0.3"/>
<path d="M176.795 112.961C173.239 114.471 169.717 116.166 166.319 118.013C165.919 118.234 165.768 118.737 165.988 119.137C166.209 119.537 166.712 119.688 167.119 119.468C170.468 117.648 173.949 115.966 177.45 114.485C180.993 112.982 184.646 111.645 188.305 110.501C192.006 109.343 195.818 108.364 199.629 107.585C203.489 106.793 207.431 106.193 211.36 105.793C219.327 104.98 227.536 104.98 235.503 105.793C239.432 106.193 243.374 106.8 247.234 107.585C251.045 108.364 254.85 109.35 258.558 110.501C262.224 111.645 265.877 112.982 269.413 114.485C272.921 115.973 276.395 117.648 279.744 119.468C283.073 121.28 286.354 123.272 289.497 125.395C292.619 127.504 295.686 129.799 298.602 132.205C301.51 134.603 304.336 137.174 307.003 139.841C309.67 142.508 312.234 145.334 314.64 148.243C317.045 151.158 319.34 154.218 321.449 157.347C323.572 160.49 325.571 163.771 327.377 167.1C329.196 170.443 330.878 173.923 332.367 177.431C333.869 180.974 335.206 184.627 336.35 188.287C337.508 191.995 338.487 195.806 339.266 199.611C339.348 200.003 339.693 200.272 340.079 200.272C340.134 200.272 340.189 200.265 340.244 200.258C340.692 200.169 340.982 199.728 340.892 199.28C340.1 195.427 339.107 191.56 337.935 187.797C336.778 184.082 335.42 180.374 333.897 176.784C332.387 173.22 330.685 169.698 328.838 166.307C327.004 162.93 324.978 159.608 322.828 156.424C320.684 153.253 318.362 150.145 315.922 147.188C313.489 144.238 310.877 141.371 308.175 138.669C305.466 135.961 302.606 133.356 299.656 130.923C296.692 128.476 293.591 126.153 290.42 124.017C287.236 121.859 283.907 119.84 280.537 118.006C277.139 116.159 273.61 114.457 270.061 112.954C266.47 111.431 262.762 110.074 259.047 108.916C255.291 107.744 251.424 106.751 247.565 105.959C243.657 105.159 239.652 104.546 235.676 104.139C227.591 103.319 219.272 103.319 211.194 104.139C207.211 104.546 203.213 105.159 199.305 105.959C195.439 106.751 191.579 107.744 187.823 108.916C184.087 110.08 180.386 111.438 176.795 112.961Z" fill="#830016" fill-opacity="0.3"/>
<path d="M124.252 157.589C124.396 157.685 124.555 157.733 124.714 157.733C124.982 157.733 125.244 157.603 125.403 157.368C127.519 154.239 129.807 151.179 132.212 148.264C134.618 145.355 137.182 142.529 139.849 139.862C142.516 137.195 145.342 134.624 148.25 132.225C148.602 131.936 148.657 131.412 148.361 131.054C148.064 130.702 147.541 130.647 147.189 130.943C144.239 133.376 141.379 135.982 138.67 138.683C135.969 141.385 133.363 144.252 130.923 147.202C128.484 150.159 126.161 153.267 124.017 156.438C123.769 156.81 123.873 157.327 124.252 157.589Z" fill="#830016" fill-opacity="0.3"/>
<path d="M105.957 247.56C106.749 251.413 107.742 255.28 108.913 259.043C110.071 262.758 111.429 266.466 112.952 270.056C113.083 270.374 113.393 270.567 113.717 270.567C113.828 270.567 113.938 270.546 114.041 270.498C114.462 270.318 114.662 269.829 114.482 269.409C112.98 265.866 111.643 262.213 110.499 258.553C109.341 254.845 108.362 251.034 107.583 247.229C106.791 243.377 106.191 239.427 105.791 235.506C105.385 231.522 105.178 227.456 105.178 223.431C105.178 219.405 105.385 215.346 105.791 211.355C106.191 207.427 106.798 203.484 107.583 199.632C108.362 195.827 109.348 192.023 110.499 188.308C111.643 184.641 112.98 180.988 114.482 177.452C114.662 177.032 114.462 176.543 114.041 176.363C113.621 176.184 113.131 176.384 112.952 176.805C111.429 180.395 110.071 184.096 108.913 187.818C107.742 191.581 106.742 195.448 105.957 199.301C105.157 203.209 104.544 207.213 104.137 211.197C103.724 215.236 103.517 219.357 103.517 223.437C103.517 227.518 103.724 231.639 104.137 235.678C104.544 239.648 105.157 243.652 105.957 247.56Z" fill="#830016" fill-opacity="0.3"/>
<path d="M138.684 308.17C141.393 310.879 144.253 313.484 147.203 315.917C150.167 318.364 153.268 320.687 156.439 322.823C156.584 322.92 156.742 322.968 156.901 322.968C157.169 322.968 157.431 322.837 157.59 322.603C157.845 322.223 157.748 321.707 157.369 321.452C154.247 319.343 151.18 317.047 148.265 314.642C145.356 312.244 142.53 309.673 139.863 307.005C137.196 304.338 134.632 301.512 132.226 298.604C129.821 295.688 127.526 292.628 125.417 289.499C125.162 289.12 124.645 289.017 124.266 289.279C123.887 289.534 123.783 290.051 124.045 290.43C126.189 293.6 128.511 296.708 130.951 299.665C133.37 302.601 135.976 305.468 138.684 308.17Z" fill="#830016" fill-opacity="0.3"/>
<path d="M199.292 340.888C203.2 341.687 207.204 342.301 211.181 342.708C211.209 342.708 211.236 342.714 211.264 342.714C211.684 342.714 212.042 342.397 212.091 341.97C212.139 341.515 211.808 341.108 211.346 341.06C207.418 340.66 203.475 340.054 199.616 339.268C195.804 338.489 192 337.504 188.292 336.353C184.625 335.209 180.972 333.872 177.437 332.369C177.016 332.19 176.527 332.39 176.348 332.81C176.168 333.231 176.368 333.72 176.789 333.899C180.38 335.422 184.088 336.78 187.803 337.938C191.566 339.096 195.425 340.095 199.292 340.888Z" fill="#830016" fill-opacity="0.3"/>
<path d="M265.1 322.155C268.271 320.811 271.42 319.287 274.467 317.633C277.479 315.993 280.449 314.187 283.303 312.257C286.135 310.341 288.913 308.26 291.553 306.082C294.185 303.904 296.749 301.574 299.169 299.162C299.492 298.838 299.492 298.314 299.169 297.99C298.845 297.666 298.321 297.666 297.997 297.99C295.619 300.368 293.096 302.663 290.498 304.807C287.9 306.95 285.164 308.997 282.372 310.886C279.56 312.781 276.638 314.566 273.674 316.179C270.683 317.806 267.581 319.301 264.452 320.624C261.296 321.962 258.036 323.154 254.762 324.174C251.461 325.201 248.056 326.083 244.658 326.779C244.21 326.869 243.92 327.31 244.01 327.758C244.093 328.151 244.437 328.42 244.823 328.42C244.878 328.42 244.934 328.413 244.989 328.406C248.442 327.696 251.895 326.807 255.251 325.759C258.58 324.725 261.895 323.512 265.1 322.155Z" fill="#830016" fill-opacity="0.3"/>
<path d="M328.407 244.996C329.123 241.502 329.668 237.932 330.033 234.368C330.399 230.757 330.585 227.076 330.585 223.43C330.585 219.777 330.399 216.097 330.033 212.492C329.668 208.929 329.123 205.352 328.407 201.865C327.697 198.411 326.808 194.958 325.76 191.602C324.726 188.28 323.513 184.965 322.149 181.76C320.798 178.576 319.281 175.426 317.627 172.393C315.987 169.381 314.181 166.404 312.251 163.557C310.335 160.725 308.261 157.947 306.076 155.307C303.898 152.675 301.568 150.111 299.156 147.691C296.737 145.272 294.18 142.943 291.54 140.772C288.9 138.594 286.123 136.512 283.29 134.596C280.437 132.666 277.466 130.861 274.454 129.22C271.415 127.566 268.265 126.043 265.088 124.699C261.883 123.341 258.568 122.128 255.246 121.087C251.889 120.04 248.436 119.151 244.983 118.441C244.535 118.351 244.094 118.641 244.005 119.089C243.915 119.537 244.204 119.978 244.652 120.067C248.05 120.764 251.448 121.639 254.756 122.673C258.03 123.693 261.29 124.885 264.447 126.222C267.569 127.545 270.671 129.041 273.669 130.668C276.632 132.28 279.562 134.059 282.367 135.961C285.158 137.849 287.894 139.896 290.493 142.04C293.091 144.183 295.607 146.472 297.991 148.856C300.369 151.234 302.664 153.757 304.808 156.355C306.958 158.96 308.998 161.69 310.887 164.481C312.782 167.286 314.56 170.208 316.18 173.179C317.806 176.163 319.302 179.265 320.632 182.401C321.969 185.557 323.162 188.817 324.182 192.091C325.209 195.393 326.091 198.797 326.787 202.195C327.49 205.635 328.028 209.15 328.386 212.658C328.744 216.214 328.93 219.833 328.93 223.43C328.93 227.021 328.744 230.646 328.386 234.203C328.028 237.711 327.49 241.233 326.787 244.665C326.091 248.063 325.216 251.461 324.182 254.769C323.162 258.043 321.969 261.303 320.632 264.46C319.302 267.589 317.806 270.697 316.18 273.682C315.959 274.081 316.111 274.591 316.511 274.805C316.635 274.874 316.773 274.908 316.904 274.908C317.2 274.908 317.483 274.75 317.634 274.474C319.281 271.442 320.805 268.292 322.155 265.108C323.513 261.903 324.726 258.588 325.767 255.266C326.808 251.902 327.697 248.449 328.407 244.996Z" fill="#830016" fill-opacity="0.3"/>
<path d="M212.65 118.469C216.207 118.103 219.832 117.924 223.423 117.924C223.884 117.924 224.257 117.552 224.257 117.09C224.257 116.628 223.884 116.256 223.423 116.256C219.777 116.256 216.096 116.442 212.485 116.807C212.03 116.856 211.699 117.262 211.74 117.717C211.782 118.145 212.147 118.462 212.567 118.462C212.595 118.469 212.623 118.469 212.65 118.469Z" fill="#830016" fill-opacity="0.3"/>
<path d="M172.78 130.771C172.911 130.771 173.048 130.737 173.173 130.668C176.164 129.041 179.272 127.546 182.394 126.222C185.551 124.885 188.811 123.693 192.085 122.673C192.519 122.535 192.767 122.073 192.629 121.632C192.491 121.198 192.037 120.95 191.589 121.087C188.267 122.121 184.951 123.341 181.746 124.699C178.576 126.043 175.426 127.566 172.38 129.22C171.973 129.441 171.829 129.944 172.049 130.344C172.201 130.619 172.49 130.771 172.78 130.771Z" fill="#830016" fill-opacity="0.3"/>
<path d="M142.037 156.355C144.18 153.757 146.475 151.241 148.853 148.856C151.231 146.478 153.753 144.183 156.352 142.04C156.703 141.75 156.758 141.227 156.462 140.868C156.166 140.517 155.642 140.462 155.29 140.758C152.658 142.936 150.094 145.265 147.675 147.678C145.255 150.097 142.933 152.654 140.755 155.294C138.57 157.94 136.495 160.711 134.579 163.544C132.649 166.39 130.844 169.368 129.203 172.38C128.983 172.779 129.134 173.289 129.534 173.503C129.658 173.572 129.796 173.606 129.927 173.606C130.223 173.606 130.506 173.448 130.658 173.172C132.27 170.202 134.049 167.279 135.951 164.474C137.846 161.69 139.893 158.96 142.037 156.355Z" fill="#830016" fill-opacity="0.3"/>
<path d="M120.069 202.189C120.765 198.791 121.64 195.393 122.674 192.084C122.812 191.643 122.564 191.182 122.13 191.044C121.689 190.906 121.227 191.154 121.089 191.588C120.041 194.945 119.152 198.398 118.442 201.851C117.726 205.345 117.181 208.915 116.816 212.479C116.451 216.09 116.265 219.771 116.265 223.417C116.265 227.069 116.451 230.75 116.816 234.355C117.181 237.918 117.726 241.495 118.442 244.982C119.152 248.435 120.041 251.888 121.089 255.245C122.123 258.567 123.336 261.882 124.701 265.087C126.051 268.271 127.568 271.421 129.222 274.454C130.862 277.466 132.668 280.443 134.598 283.289C136.514 286.122 138.588 288.9 140.773 291.539C142.951 294.172 145.281 296.736 147.693 299.155C150.112 301.575 152.669 303.904 155.309 306.075C157.949 308.253 160.726 310.335 163.559 312.251C163.704 312.347 163.862 312.395 164.021 312.395C164.29 312.395 164.551 312.264 164.71 312.03C164.965 311.651 164.868 311.134 164.489 310.879C161.698 308.991 158.962 306.944 156.363 304.8C153.765 302.657 151.249 300.368 148.865 297.984C146.487 295.606 144.192 293.083 142.048 290.485C139.898 287.88 137.858 285.15 135.969 282.359C134.074 279.554 132.296 276.632 130.676 273.661C129.05 270.677 127.554 267.575 126.224 264.439C124.887 261.283 123.694 258.023 122.674 254.749C121.647 251.447 120.765 248.043 120.069 244.645C119.366 241.205 118.828 237.69 118.47 234.182C118.112 230.626 117.926 227.007 117.926 223.41C117.926 219.819 118.112 216.194 118.47 212.637C118.828 209.143 119.366 205.628 120.069 202.189Z" fill="#830016" fill-opacity="0.3"/>
<path d="M191.595 325.767C194.951 326.814 198.404 327.703 201.857 328.413C205.358 329.13 208.936 329.674 212.485 330.04C212.513 330.04 212.54 330.047 212.568 330.047C212.988 330.047 213.347 329.73 213.395 329.302C213.443 328.847 213.112 328.441 212.65 328.392C209.149 328.034 205.634 327.496 202.188 326.793C198.79 326.097 195.392 325.222 192.084 324.188C188.81 323.168 185.55 321.976 182.394 320.639C181.973 320.459 181.484 320.659 181.305 321.08C181.125 321.5 181.325 321.99 181.746 322.169C184.957 323.513 188.266 324.726 191.595 325.767Z" fill="#830016" fill-opacity="0.3"/>
<path d="M233.863 317.006C233.815 316.552 233.415 316.221 232.953 316.262C226.661 316.903 220.189 316.903 213.896 316.262C210.802 315.945 207.686 315.469 204.64 314.842C201.635 314.229 198.63 313.45 195.708 312.54C192.813 311.637 189.932 310.583 187.141 309.397C184.37 308.226 181.627 306.902 178.987 305.462C176.361 304.035 173.77 302.457 171.295 300.782C168.835 299.121 166.416 297.308 164.107 295.406C161.812 293.511 159.579 291.478 157.476 289.375C155.367 287.266 153.341 285.04 151.453 282.745C149.557 280.45 147.745 278.031 146.077 275.556C144.395 273.068 142.824 270.477 141.397 267.865C139.956 265.218 138.633 262.475 137.461 259.711C137.282 259.291 136.793 259.091 136.372 259.27C135.952 259.449 135.752 259.939 135.931 260.359C137.124 263.171 138.468 265.969 139.936 268.657C141.383 271.325 142.989 273.957 144.698 276.487C146.401 279.003 148.241 281.463 150.171 283.8C152.094 286.136 154.161 288.404 156.305 290.547C158.441 292.684 160.716 294.751 163.052 296.681C165.403 298.618 167.863 300.458 170.365 302.154C172.887 303.863 175.527 305.462 178.194 306.916C180.882 308.377 183.681 309.728 186.493 310.921C189.332 312.127 192.268 313.202 195.218 314.119C198.196 315.049 201.256 315.835 204.316 316.462C207.411 317.096 210.581 317.585 213.738 317.902C216.943 318.226 220.203 318.392 223.435 318.392C226.667 318.392 229.927 318.226 233.132 317.902C233.573 317.868 233.911 317.461 233.863 317.006Z" fill="#830016" fill-opacity="0.3"/>
<path d="M306.923 268.664C308.391 265.969 309.735 263.178 310.928 260.366C312.134 257.526 313.209 254.59 314.126 251.64C315.056 248.656 315.842 245.596 316.469 242.542C316.566 242.094 316.269 241.653 315.821 241.564C315.373 241.474 314.932 241.764 314.843 242.212C314.229 245.21 313.45 248.215 312.541 251.144C311.638 254.039 310.583 256.927 309.398 259.711C308.226 262.475 306.903 265.218 305.462 267.865C304.036 270.484 302.464 273.068 300.782 275.556C299.114 278.031 297.302 280.443 295.406 282.745C293.511 285.04 291.485 287.266 289.383 289.375C287.281 291.477 285.047 293.504 282.752 295.399C280.443 297.301 278.024 299.114 275.564 300.775C273.083 302.45 270.491 304.028 267.872 305.455C267.465 305.675 267.321 306.178 267.541 306.578C267.693 306.854 267.975 307.012 268.272 307.012C268.403 307.012 268.541 306.978 268.665 306.909C271.339 305.455 273.972 303.856 276.494 302.147C278.996 300.451 281.464 298.611 283.807 296.674C286.143 294.744 288.418 292.677 290.554 290.54C292.698 288.397 294.766 286.122 296.688 283.792C298.618 281.456 300.458 278.996 302.161 276.48C303.87 273.964 305.476 271.324 306.923 268.664Z" fill="#830016" fill-opacity="0.3"/>
<path d="M314.848 204.642C315.475 207.689 315.951 210.804 316.261 213.898C316.578 217.048 316.744 220.253 316.744 223.43C316.744 223.892 317.116 224.264 317.578 224.264C318.039 224.264 318.412 223.892 318.412 223.43C318.412 220.205 318.246 216.938 317.922 213.733C317.598 210.583 317.116 207.413 316.482 204.311C315.855 201.258 315.069 198.198 314.138 195.214C314.001 194.779 313.546 194.531 313.098 194.669C312.663 194.807 312.415 195.269 312.553 195.71C313.456 198.632 314.228 201.644 314.848 204.642Z" fill="#830016" fill-opacity="0.3"/>
<path d="M306.923 178.19C305.476 175.522 303.87 172.889 302.161 170.36C300.458 167.844 298.618 165.384 296.688 163.047C294.765 160.711 292.698 158.443 290.554 156.3C290.23 155.976 289.706 155.976 289.382 156.3C289.058 156.624 289.058 157.148 289.382 157.472C291.491 159.581 293.518 161.807 295.406 164.102C297.302 166.397 299.114 168.816 300.782 171.29C302.464 173.779 304.035 176.37 305.462 178.982C305.614 179.258 305.896 179.416 306.193 179.416C306.323 179.416 306.461 179.382 306.585 179.313C306.992 179.092 307.144 178.589 306.923 178.19Z" fill="#830016" fill-opacity="0.3"/>
<path d="M203.662 131.357C203.751 131.805 204.192 132.094 204.64 132.005C207.687 131.378 210.802 130.902 213.897 130.585C220.189 129.944 226.661 129.944 232.954 130.585C236.048 130.902 239.164 131.378 242.21 132.005C245.215 132.618 248.22 133.397 251.142 134.307C254.037 135.21 256.918 136.264 259.709 137.45C262.48 138.621 265.223 139.945 267.863 141.385C270.489 142.812 273.08 144.39 275.554 146.065C275.699 146.161 275.858 146.21 276.016 146.21C276.285 146.21 276.547 146.079 276.705 145.844C276.96 145.465 276.864 144.948 276.485 144.693C273.962 142.984 271.323 141.385 268.655 139.931C265.967 138.47 263.169 137.119 260.357 135.927C257.518 134.72 254.581 133.645 251.632 132.729C248.654 131.798 245.594 131.012 242.534 130.385C239.439 129.751 236.269 129.262 233.112 128.945C226.709 128.29 220.12 128.29 213.717 128.945C210.568 129.269 207.397 129.751 204.296 130.385C203.855 130.468 203.565 130.909 203.662 131.357Z" fill="#830016" fill-opacity="0.3"/>
<path d="M163.039 150.159C162.687 150.448 162.632 150.972 162.929 151.33C163.094 151.53 163.328 151.634 163.57 151.634C163.756 151.634 163.942 151.572 164.1 151.441C166.409 149.538 168.828 147.726 171.289 146.065C173.77 144.39 176.362 142.812 178.981 141.385C181.627 139.944 184.37 138.621 187.134 137.449C187.555 137.27 187.754 136.781 187.575 136.36C187.396 135.94 186.907 135.74 186.486 135.919C183.667 137.112 180.876 138.463 178.188 139.924C175.514 141.378 172.881 142.977 170.358 144.686C167.85 146.382 165.389 148.222 163.039 150.159Z" fill="#830016" fill-opacity="0.3"/>
<path d="M136.359 187.577C136.463 187.625 136.573 187.646 136.683 187.646C137.007 187.646 137.31 187.453 137.448 187.136C138.62 184.372 139.943 181.629 141.384 178.982C141.604 178.583 141.453 178.072 141.053 177.859C140.646 177.638 140.143 177.79 139.923 178.19C138.455 180.885 137.111 183.676 135.918 186.488C135.739 186.908 135.939 187.398 136.359 187.577Z" fill="#830016" fill-opacity="0.3"/>
<path d="M132.006 204.642C132.096 204.194 131.807 203.753 131.359 203.663C130.911 203.574 130.469 203.863 130.38 204.311C129.746 207.413 129.256 210.583 128.939 213.733C128.615 216.938 128.45 220.198 128.45 223.43C128.45 226.656 128.615 229.923 128.939 233.128C129.263 236.277 129.746 239.448 130.38 242.549C130.463 242.942 130.807 243.211 131.193 243.211C131.248 243.211 131.303 243.204 131.359 243.197C131.807 243.108 132.096 242.667 132.006 242.219C131.379 239.172 130.904 236.057 130.594 232.962C130.276 229.813 130.111 226.608 130.111 223.43C130.111 220.26 130.276 217.055 130.594 213.905C130.904 210.804 131.379 207.688 132.006 204.642Z" fill="#830016" fill-opacity="0.3"/>
<path d="M146.639 255.838C147.687 258.312 148.865 260.759 150.154 263.123C151.429 265.466 152.835 267.782 154.338 269.994C155.826 272.2 157.439 274.357 159.141 276.411C160.83 278.458 162.643 280.45 164.524 282.331C166.406 284.213 168.398 286.026 170.445 287.714C172.492 289.403 174.649 291.022 176.861 292.518C179.074 294.014 181.383 295.42 183.733 296.695C186.097 297.977 188.551 299.162 191.018 300.21C193.513 301.264 196.091 302.215 198.675 303.015C201.294 303.828 203.975 304.524 206.656 305.076C209.372 305.634 212.15 306.061 214.92 306.344C217.725 306.633 220.593 306.778 223.432 306.778C226.272 306.778 229.139 306.633 231.944 306.344C232.399 306.296 232.73 305.889 232.688 305.434C232.64 304.979 232.247 304.648 231.779 304.69C226.279 305.248 220.599 305.248 215.099 304.69C212.384 304.414 209.661 303.994 207.001 303.449C204.375 302.912 201.742 302.229 199.178 301.437C196.649 300.651 194.126 299.72 191.68 298.687C189.26 297.66 186.855 296.502 184.539 295.24C182.237 293.986 179.97 292.608 177.806 291.146C175.641 289.678 173.526 288.093 171.513 286.439C169.5 284.778 167.55 283.007 165.71 281.16C163.863 279.313 162.091 277.362 160.43 275.356C158.769 273.344 157.184 271.228 155.723 269.064C154.255 266.893 152.876 264.625 151.629 262.33C150.368 260.014 149.21 257.616 148.183 255.19C147.149 252.75 146.225 250.227 145.433 247.691C145.295 247.257 144.84 247.009 144.392 247.146C143.958 247.284 143.71 247.746 143.848 248.187C144.64 250.772 145.584 253.349 146.639 255.838Z" fill="#830016" fill-opacity="0.3"/>
<path d="M270.22 291.367C269.965 290.988 269.448 290.885 269.069 291.147C266.898 292.615 264.637 293.993 262.335 295.241C260.019 296.502 257.614 297.66 255.195 298.687C252.748 299.721 250.225 300.651 247.696 301.437C247.262 301.575 247.014 302.036 247.151 302.477C247.262 302.836 247.592 303.063 247.944 303.063C248.027 303.063 248.109 303.05 248.192 303.029C250.777 302.222 253.347 301.278 255.849 300.224C258.317 299.176 260.77 297.997 263.134 296.709C265.485 295.434 267.794 294.028 270.006 292.532C270.371 292.263 270.475 291.746 270.22 291.367Z" fill="#830016" fill-opacity="0.3"/>
<path d="M291.144 269.064C289.683 271.221 288.098 273.337 286.437 275.356C284.783 277.362 283.004 279.313 281.157 281.16C280.833 281.484 280.833 282.007 281.157 282.331C281.323 282.497 281.53 282.573 281.743 282.573C281.957 282.573 282.17 282.49 282.329 282.331C284.211 280.45 286.023 278.458 287.712 276.411C289.407 274.357 291.027 272.193 292.516 269.994C292.771 269.615 292.674 269.098 292.295 268.843C291.916 268.581 291.399 268.685 291.144 269.064Z" fill="#830016" fill-opacity="0.3"/>
<path d="M303.448 239.868C303.358 240.316 303.647 240.757 304.095 240.847C304.151 240.861 304.206 240.861 304.261 240.861C304.647 240.861 304.991 240.592 305.074 240.199C305.632 237.484 306.06 234.699 306.342 231.928C306.632 229.116 306.777 226.256 306.777 223.417C306.777 220.584 306.632 217.717 306.342 214.905C306.06 212.134 305.632 209.356 305.074 206.634C304.523 203.946 303.834 201.258 303.013 198.653C302.876 198.212 302.407 197.97 301.973 198.108C301.532 198.246 301.29 198.708 301.428 199.149C302.228 201.699 302.903 204.332 303.448 206.972C303.992 209.632 304.413 212.361 304.688 215.077C304.971 217.834 305.109 220.639 305.109 223.417C305.109 226.194 304.964 229.006 304.688 231.756C304.413 234.479 303.999 237.208 303.448 239.868Z" fill="#830016" fill-opacity="0.3"/>
<path d="M286.55 170.325C286.198 170.615 286.143 171.139 286.439 171.497C288.1 173.51 289.686 175.626 291.147 177.79C292.615 179.961 293.993 182.228 295.241 184.524C295.392 184.799 295.675 184.958 295.971 184.958C296.102 184.958 296.24 184.923 296.364 184.854C296.771 184.634 296.915 184.131 296.695 183.731C295.42 181.388 294.014 179.072 292.511 176.859C291.023 174.654 289.41 172.497 287.707 170.443C287.425 170.077 286.901 170.029 286.55 170.325Z" fill="#830016" fill-opacity="0.3"/>
<path d="M141.247 215.828C141.275 215.828 141.302 215.835 141.33 215.835C141.75 215.835 142.109 215.518 142.157 215.091C142.432 212.375 142.853 209.653 143.397 206.986C143.942 204.346 144.617 201.713 145.417 199.163C146.209 196.626 147.133 194.104 148.167 191.664C149.194 189.238 150.352 186.839 151.613 184.524C152.86 182.222 154.239 179.954 155.707 177.79C157.168 175.633 158.753 173.517 160.414 171.497C162.068 169.492 163.847 167.541 165.694 165.694C167.534 163.854 169.491 162.076 171.497 160.415C173.503 158.761 175.619 157.175 177.79 155.707C179.961 154.239 182.221 152.861 184.523 151.613C186.839 150.352 189.244 149.194 191.664 148.167C194.11 147.133 196.633 146.203 199.162 145.417C201.726 144.618 204.359 143.942 206.985 143.405C209.645 142.86 212.375 142.44 215.083 142.164C220.583 141.606 226.263 141.606 231.763 142.164C234.478 142.44 237.201 142.86 239.861 143.405C242.487 143.942 245.12 144.625 247.684 145.417C250.213 146.203 252.736 147.133 255.182 148.167C257.601 149.194 260.007 150.352 262.323 151.613C264.625 152.868 266.892 154.246 269.056 155.707C269.435 155.969 269.952 155.866 270.207 155.487C270.462 155.108 270.366 154.591 269.987 154.336C267.774 152.84 265.466 151.434 263.115 150.159C260.751 148.877 258.298 147.692 255.83 146.644C253.335 145.589 250.758 144.638 248.173 143.839C245.554 143.026 242.873 142.329 240.192 141.778C237.476 141.22 234.699 140.792 231.928 140.51C226.318 139.938 220.521 139.938 214.911 140.51C212.14 140.792 209.363 141.22 206.647 141.778C203.966 142.329 201.278 143.019 198.666 143.839C196.082 144.645 193.511 145.589 191.009 146.644C188.541 147.692 186.088 148.87 183.724 150.159C181.374 151.434 179.065 152.84 176.852 154.336C174.64 155.831 172.483 157.444 170.436 159.14C168.389 160.835 166.397 162.641 164.515 164.522C162.634 166.404 160.821 168.396 159.132 170.443C157.437 172.497 155.817 174.661 154.328 176.86C152.833 179.072 151.427 181.388 150.145 183.731C148.863 186.088 147.677 188.542 146.63 191.016C145.575 193.504 144.631 196.082 143.825 198.673C143.011 201.279 142.322 203.967 141.764 206.655C141.206 209.37 140.778 212.155 140.496 214.925C140.461 215.373 140.792 215.78 141.247 215.828Z" fill="#830016" fill-opacity="0.3"/>
<path d="M244.89 292.442C247.13 291.746 249.357 290.926 251.528 290.009C253.671 289.099 255.794 288.072 257.848 286.963C259.888 285.853 261.887 284.633 263.803 283.337C265.712 282.049 267.586 280.643 269.365 279.175C271.143 277.707 272.866 276.142 274.499 274.509C274.823 274.185 274.823 273.661 274.499 273.337C274.175 273.013 273.652 273.013 273.328 273.337C271.736 274.929 270.047 276.466 268.31 277.9C266.566 279.34 264.74 280.705 262.872 281.966C260.997 283.234 259.04 284.426 257.048 285.509C255.049 286.597 252.968 287.597 250.873 288.486C248.757 289.382 246.572 290.181 244.387 290.864C242.175 291.553 239.9 292.139 237.626 292.608C235.324 293.083 232.967 293.441 230.623 293.683C230.169 293.731 229.838 294.138 229.879 294.593C229.92 295.02 230.286 295.337 230.706 295.337C230.734 295.337 230.761 295.337 230.789 295.33C233.187 295.089 235.6 294.717 237.957 294.234C240.3 293.752 242.63 293.152 244.89 292.442Z" fill="#830016" fill-opacity="0.3"/>
<path d="M292.599 237.635C292.131 239.91 291.545 242.184 290.856 244.396C290.173 246.588 289.374 248.773 288.478 250.882C287.589 252.977 286.589 255.052 285.5 257.051C284.418 259.036 283.226 261 281.958 262.875C281.703 263.254 281.799 263.771 282.178 264.026C282.323 264.122 282.482 264.17 282.64 264.17C282.909 264.17 283.171 264.039 283.329 263.805C284.625 261.882 285.845 259.883 286.955 257.843C288.071 255.796 289.091 253.667 290.001 251.53C290.918 249.373 291.738 247.14 292.434 244.893C293.137 242.625 293.737 240.296 294.219 237.973C294.702 235.616 295.074 233.203 295.315 230.805C295.563 228.365 295.687 225.884 295.687 223.423C295.687 220.963 295.563 218.482 295.315 216.042C295.074 213.643 294.702 211.231 294.219 208.874C293.744 206.544 293.144 204.215 292.434 201.954C291.731 199.707 290.911 197.474 290.001 195.317C289.091 193.173 288.071 191.051 286.955 189.004C286.734 188.604 286.231 188.452 285.824 188.673C285.418 188.893 285.273 189.396 285.494 189.796C286.583 191.795 287.582 193.876 288.471 195.965C289.367 198.074 290.166 200.259 290.849 202.45C291.538 204.663 292.124 206.937 292.593 209.212C293.061 211.514 293.426 213.871 293.661 216.214C293.902 218.592 294.026 221.018 294.026 223.423C294.026 225.829 293.902 228.255 293.661 230.633C293.433 232.976 293.068 235.333 292.599 237.635Z" fill="#830016" fill-opacity="0.3"/>
<path d="M274.508 172.345C272.874 170.712 271.151 169.14 269.373 167.679C269.022 167.39 268.498 167.438 268.201 167.789C267.912 168.141 267.96 168.665 268.312 168.961C270.049 170.395 271.737 171.925 273.329 173.524C274.921 175.116 276.458 176.804 277.892 178.541C278.057 178.741 278.292 178.844 278.533 178.844C278.719 178.844 278.905 178.782 279.064 178.651C279.415 178.362 279.47 177.838 279.174 177.48C277.706 175.702 276.134 173.972 274.508 172.345Z" fill="#830016" fill-opacity="0.3"/>
<path d="M250.882 158.368C252.977 159.257 255.051 160.256 257.057 161.345C257.181 161.414 257.319 161.448 257.45 161.448C257.746 161.448 258.029 161.29 258.18 161.014C258.401 160.614 258.249 160.104 257.85 159.891C255.803 158.774 253.68 157.754 251.529 156.844C249.358 155.928 247.125 155.108 244.892 154.411C244.451 154.274 243.989 154.522 243.851 154.956C243.714 155.397 243.962 155.859 244.396 155.997C246.581 156.672 248.766 157.472 250.882 158.368Z" fill="#830016" fill-opacity="0.3"/>
<path d="M231.542 152.433C231.591 151.978 231.26 151.572 230.798 151.523C225.932 151.027 220.908 151.027 216.042 151.523C213.643 151.765 211.231 152.137 208.874 152.619C206.544 153.095 204.215 153.694 201.954 154.404C199.714 155.101 197.488 155.921 195.317 156.837C194.896 157.017 194.697 157.506 194.876 157.926C195.007 158.243 195.317 158.436 195.641 158.436C195.751 158.436 195.861 158.416 195.965 158.367C198.081 157.471 200.266 156.672 202.45 155.99C204.663 155.3 206.937 154.715 209.212 154.246C211.514 153.77 213.871 153.412 216.214 153.171C220.97 152.688 225.877 152.688 230.633 153.171C231.108 153.226 231.501 152.895 231.542 152.433Z" fill="#830016" fill-opacity="0.3"/>
<path d="M164.888 183.972C166.15 182.104 167.521 180.278 168.955 178.534C170.388 176.797 171.918 175.109 173.517 173.517C173.841 173.193 173.841 172.669 173.517 172.345C173.193 172.021 172.67 172.021 172.346 172.345C170.712 173.978 169.141 175.701 167.68 177.48C166.205 179.265 164.806 181.132 163.517 183.042C163.262 183.421 163.358 183.938 163.737 184.193C163.882 184.289 164.041 184.337 164.199 184.337C164.468 184.337 164.73 184.213 164.888 183.972Z" fill="#830016" fill-opacity="0.3"/>
<path d="M157.926 194.876C157.505 194.696 157.016 194.896 156.837 195.317C155.92 197.474 155.1 199.707 154.404 201.954C153.701 204.222 153.101 206.551 152.619 208.874C152.136 211.231 151.764 213.643 151.523 216.042C151.275 218.482 151.151 220.963 151.151 223.423C151.151 223.885 151.523 224.257 151.985 224.257C152.446 224.257 152.819 223.885 152.819 223.423C152.819 221.018 152.943 218.592 153.184 216.214C153.425 213.871 153.784 211.513 154.252 209.211C154.721 206.937 155.307 204.663 155.996 202.45C156.678 200.258 157.478 198.074 158.374 195.965C158.546 195.544 158.353 195.055 157.926 194.876Z" fill="#830016" fill-opacity="0.3"/>
<path d="M159.884 257.85C160.993 259.883 162.206 261.889 163.509 263.812C164.798 265.721 166.204 267.596 167.672 269.374C169.14 271.152 170.711 272.875 172.338 274.509C173.971 276.142 175.694 277.714 177.473 279.175C179.258 280.65 181.125 282.049 183.035 283.338C184.951 284.633 186.956 285.853 188.99 286.963C191.036 288.079 193.159 289.099 195.31 290.009C197.481 290.926 199.714 291.746 201.947 292.442C204.214 293.145 206.544 293.752 208.867 294.227C211.224 294.71 213.636 295.082 216.035 295.323C216.062 295.323 216.09 295.33 216.117 295.33C216.538 295.33 216.896 295.013 216.944 294.586C216.993 294.131 216.662 293.724 216.2 293.676C213.857 293.435 211.499 293.076 209.197 292.601C206.923 292.132 204.649 291.546 202.436 290.857C200.251 290.175 198.073 289.375 195.951 288.479C193.855 287.59 191.781 286.591 189.775 285.502C187.783 284.42 185.826 283.227 183.951 281.959C182.084 280.698 180.257 279.326 178.513 277.893C176.776 276.459 175.088 274.929 173.496 273.33C171.904 271.738 170.367 270.049 168.933 268.313C167.493 266.569 166.128 264.742 164.867 262.875C163.599 261 162.406 259.036 161.324 257.051C160.235 255.052 159.236 252.97 158.347 250.882C158.167 250.462 157.678 250.262 157.258 250.441C156.837 250.62 156.637 251.109 156.817 251.53C157.747 253.673 158.774 255.796 159.884 257.85Z" fill="#830016" fill-opacity="0.3"/>
<path d="M241.761 282.394C243.67 281.801 245.579 281.098 247.433 280.312C249.267 279.533 251.086 278.658 252.83 277.707C254.567 276.763 256.283 275.722 257.923 274.612C259.557 273.51 261.156 272.31 262.679 271.056C264.202 269.802 265.677 268.458 267.069 267.065C268.468 265.666 269.812 264.191 271.053 262.682C272.307 261.166 273.507 259.567 274.609 257.926C274.864 257.547 274.768 257.03 274.389 256.775C274.01 256.52 273.493 256.617 273.238 256.996C272.163 258.588 270.998 260.145 269.778 261.62C268.565 263.095 267.255 264.529 265.898 265.887C264.547 267.238 263.106 268.547 261.624 269.767C260.143 270.987 258.585 272.152 257 273.227C255.408 274.302 253.74 275.322 252.044 276.239C250.349 277.162 248.577 278.017 246.792 278.775C244.993 279.54 243.133 280.223 241.272 280.802C239.39 281.387 237.453 281.89 235.517 282.283C233.559 282.683 231.554 282.993 229.555 283.193C227.535 283.4 225.468 283.503 223.421 283.503C222.959 283.503 222.587 283.875 222.587 284.337C222.587 284.799 222.959 285.171 223.421 285.171C225.523 285.171 227.646 285.061 229.727 284.854C231.781 284.647 233.842 284.33 235.854 283.917C237.839 283.51 239.831 283 241.761 282.394Z" fill="#830016" fill-opacity="0.3"/>
<path d="M283.918 210.997C283.511 209.012 282.994 207.02 282.394 205.083C281.795 203.16 281.092 201.251 280.313 199.411C280.134 198.99 279.644 198.791 279.224 198.97C278.804 199.149 278.604 199.638 278.783 200.059C279.541 201.851 280.223 203.705 280.809 205.573C281.395 207.454 281.898 209.391 282.291 211.328C282.691 213.292 283.001 215.297 283.201 217.289C283.408 219.316 283.511 221.383 283.511 223.423C283.511 225.464 283.408 227.531 283.201 229.557C282.994 231.549 282.691 233.555 282.291 235.519C281.891 237.456 281.395 239.386 280.809 241.274C280.223 243.149 279.548 245.003 278.783 246.795C278.604 247.215 278.804 247.705 279.224 247.884C279.327 247.932 279.438 247.953 279.548 247.953C279.872 247.953 280.175 247.76 280.313 247.45C281.092 245.61 281.795 243.7 282.394 241.777C283.001 239.841 283.511 237.849 283.918 235.864C284.331 233.844 284.648 231.784 284.855 229.737C285.069 227.655 285.172 225.532 285.172 223.43C285.172 221.328 285.062 219.212 284.855 217.124C284.648 215.077 284.331 213.016 283.918 210.997Z" fill="#830016" fill-opacity="0.3"/>
<path d="M252.04 170.595C253.735 171.518 255.396 172.531 256.995 173.606C258.587 174.682 260.145 175.846 261.62 177.066C263.102 178.286 264.535 179.596 265.893 180.947C267.251 182.311 268.56 183.745 269.773 185.22C270.993 186.695 272.158 188.252 273.233 189.845C273.392 190.079 273.654 190.21 273.922 190.21C274.081 190.21 274.246 190.162 274.384 190.065C274.763 189.81 274.867 189.293 274.605 188.914C273.495 187.281 272.303 185.675 271.048 184.158C269.801 182.649 268.457 181.167 267.065 179.768C265.672 178.376 264.197 177.039 262.674 175.778C261.151 174.523 259.552 173.324 257.919 172.221C256.278 171.111 254.569 170.071 252.825 169.127C251.082 168.175 249.262 167.3 247.429 166.521C245.575 165.736 243.666 165.039 241.756 164.44C241.315 164.309 240.853 164.55 240.716 164.984C240.578 165.425 240.826 165.887 241.26 166.025C243.121 166.604 244.975 167.286 246.774 168.044C248.58 168.823 250.344 169.671 252.04 170.595Z" fill="#830016" fill-opacity="0.3"/>
<path d="M223.421 161.676C222.959 161.676 222.587 162.048 222.587 162.51C222.587 162.972 222.959 163.344 223.421 163.344C225.468 163.344 227.535 163.447 229.555 163.654C229.582 163.654 229.61 163.661 229.638 163.661C230.058 163.661 230.416 163.344 230.465 162.916C230.513 162.461 230.182 162.055 229.72 162.007C227.646 161.779 225.53 161.676 223.421 161.676Z" fill="#830016" fill-opacity="0.3"/>
<path d="M188.918 172.235C187.284 173.337 185.685 174.537 184.162 175.791C182.639 177.045 181.164 178.389 179.772 179.782C178.373 181.181 177.029 182.656 175.788 184.172C175.499 184.524 175.547 185.047 175.899 185.344C176.05 185.475 176.243 185.537 176.429 185.537C176.67 185.537 176.905 185.433 177.07 185.233C178.283 183.759 179.593 182.325 180.951 180.967C182.301 179.616 183.742 178.307 185.224 177.087C186.706 175.867 188.263 174.702 189.848 173.627C191.44 172.552 193.108 171.532 194.804 170.615C196.499 169.691 198.271 168.837 200.056 168.079C200.476 167.899 200.676 167.41 200.497 166.99C200.318 166.569 199.828 166.369 199.408 166.549C197.575 167.327 195.755 168.203 194.011 169.154C192.274 170.084 190.558 171.125 188.918 172.235Z" fill="#830016" fill-opacity="0.3"/>
<path d="M161.994 217.124C161.78 219.205 161.677 221.328 161.677 223.43C161.677 225.532 161.787 227.648 161.994 229.736C162.201 231.783 162.518 233.844 162.931 235.864C163.338 237.849 163.855 239.841 164.455 241.777C165.054 243.7 165.757 245.609 166.536 247.45C167.315 249.283 168.19 251.096 169.141 252.846C170.085 254.583 171.126 256.299 172.236 257.94C173.345 259.573 174.538 261.179 175.792 262.695C177.04 264.205 178.384 265.686 179.776 267.086C181.168 268.478 182.643 269.815 184.166 271.076C185.689 272.331 187.288 273.53 188.922 274.633C190.562 275.742 192.272 276.783 194.015 277.727C194.139 277.796 194.277 277.831 194.408 277.831C194.704 277.831 194.987 277.672 195.139 277.396C195.359 276.997 195.208 276.487 194.808 276.273C193.112 275.349 191.451 274.336 189.852 273.261C188.26 272.186 186.703 271.021 185.228 269.801C183.746 268.581 182.312 267.272 180.955 265.921C179.597 264.556 178.287 263.123 177.074 261.648C175.854 260.173 174.689 258.615 173.614 257.023C172.532 255.424 171.519 253.756 170.602 252.067C169.679 250.365 168.824 248.601 168.066 246.815C167.308 245.023 166.626 243.169 166.04 241.302C165.454 239.42 164.951 237.483 164.558 235.547C164.158 233.582 163.848 231.577 163.648 229.585C163.441 227.559 163.338 225.491 163.338 223.451C163.338 221.411 163.441 219.343 163.648 217.317C163.855 215.325 164.158 213.319 164.558 211.355C164.958 209.418 165.454 207.488 166.04 205.6C166.178 205.159 165.929 204.697 165.495 204.559C165.054 204.421 164.592 204.669 164.455 205.104C163.848 207.04 163.338 209.032 162.931 211.017C162.518 213.016 162.201 215.077 161.994 217.124Z" fill="#830016" fill-opacity="0.3"/>
<path d="M210.995 283.917C211.05 283.93 211.105 283.93 211.16 283.93C211.546 283.93 211.891 283.662 211.974 283.269C212.063 282.821 211.774 282.38 211.326 282.29C209.396 281.897 207.459 281.394 205.571 280.808C205.13 280.67 204.668 280.918 204.53 281.353C204.392 281.794 204.64 282.256 205.075 282.393C207.018 283 209.01 283.51 210.995 283.917Z" fill="#830016" fill-opacity="0.3"/>
<path d="M223.423 275.205C225.187 275.205 226.965 275.115 228.709 274.936C230.432 274.757 232.155 274.495 233.844 274.15C235.512 273.806 237.18 273.378 238.806 272.868C240.412 272.365 242.011 271.779 243.562 271.125C243.982 270.945 244.182 270.456 244.003 270.036C243.824 269.615 243.334 269.415 242.914 269.594C241.411 270.229 239.868 270.801 238.31 271.283C236.739 271.772 235.126 272.186 233.513 272.517C231.879 272.855 230.205 273.11 228.544 273.275C226.855 273.447 225.132 273.537 223.43 273.537C222.968 273.537 222.596 273.909 222.596 274.371C222.596 274.833 222.968 275.205 223.423 275.205Z" fill="#830016" fill-opacity="0.3"/>
<path d="M252.356 266.348C253.727 265.425 255.064 264.418 256.346 263.364C257.621 262.316 258.855 261.186 260.027 260.021C261.191 258.849 262.322 257.616 263.369 256.341C264.424 255.066 265.423 253.722 266.354 252.357C267.284 250.985 268.16 249.545 268.952 248.084C269.752 246.609 270.489 245.093 271.137 243.556C271.792 242.005 272.378 240.406 272.881 238.8C273.391 237.173 273.818 235.505 274.156 233.837C274.245 233.389 273.956 232.948 273.508 232.859C273.06 232.769 272.619 233.059 272.529 233.507C272.198 235.113 271.785 236.732 271.295 238.304C270.813 239.861 270.241 241.412 269.607 242.908C268.98 244.39 268.27 245.864 267.491 247.284C266.726 248.697 265.878 250.089 264.975 251.42C264.079 252.743 263.108 254.046 262.087 255.279C261.067 256.513 259.978 257.712 258.848 258.843C257.718 259.973 256.519 261.062 255.285 262.082C254.051 263.102 252.749 264.074 251.425 264.97C251.046 265.225 250.943 265.742 251.205 266.121C251.363 266.355 251.625 266.486 251.894 266.486C252.052 266.493 252.211 266.445 252.356 266.348Z" fill="#830016" fill-opacity="0.3"/>
<path d="M275.203 223.423C275.203 221.666 275.113 219.888 274.934 218.137C274.762 216.407 274.493 214.684 274.148 213.002C273.811 211.341 273.376 209.673 272.873 208.04C272.37 206.434 271.784 204.835 271.13 203.284C270.482 201.754 269.744 200.231 268.945 198.756C268.152 197.295 267.277 195.861 266.346 194.49C265.423 193.118 264.416 191.781 263.362 190.506C262.314 189.231 261.184 187.997 260.019 186.826C258.848 185.654 257.614 184.53 256.339 183.483C255.064 182.428 253.72 181.422 252.348 180.499C251.969 180.237 251.452 180.34 251.197 180.719C250.942 181.098 251.039 181.615 251.418 181.87C252.741 182.766 254.044 183.738 255.277 184.758C256.511 185.771 257.71 186.86 258.841 187.997C259.971 189.128 261.06 190.327 262.08 191.561C263.1 192.794 264.072 194.097 264.968 195.42C265.864 196.75 266.712 198.143 267.484 199.556C268.262 200.982 268.972 202.45 269.599 203.932C270.234 205.428 270.806 206.979 271.288 208.536C271.777 210.114 272.198 211.727 272.522 213.333C272.853 214.96 273.114 216.635 273.28 218.302C273.452 219.998 273.542 221.714 273.542 223.416C273.542 223.878 273.914 224.25 274.376 224.25C274.831 224.257 275.203 223.885 275.203 223.423Z" fill="#830016" fill-opacity="0.3"/>
<path d="M243.565 175.722C242.014 175.067 240.415 174.482 238.809 173.978C237.182 173.475 235.514 173.041 233.847 172.696C233.399 172.607 232.957 172.896 232.868 173.344C232.771 173.792 233.068 174.233 233.516 174.323C235.128 174.654 236.741 175.067 238.313 175.557C239.87 176.039 241.414 176.611 242.917 177.245C243.02 177.294 243.13 177.314 243.241 177.314C243.565 177.314 243.868 177.121 244.006 176.804C244.185 176.384 243.985 175.894 243.565 175.722Z" fill="#830016" fill-opacity="0.3"/>
<path d="M223.423 173.303C223.884 173.303 224.257 172.931 224.257 172.469C224.257 172.007 223.884 171.635 223.423 171.635C221.658 171.635 219.88 171.725 218.136 171.904C216.413 172.083 214.69 172.345 213.002 172.69C211.334 173.034 209.666 173.461 208.039 173.971C206.433 174.475 204.834 175.06 203.284 175.715C201.747 176.363 200.223 177.101 198.755 177.9C197.301 178.693 195.861 179.561 194.489 180.498C193.118 181.422 191.78 182.428 190.499 183.483C189.223 184.53 187.99 185.661 186.818 186.825C185.646 187.997 184.523 189.231 183.475 190.506C182.421 191.781 181.415 193.125 180.491 194.49C179.561 195.861 178.685 197.302 177.893 198.763C177.093 200.231 176.356 201.754 175.708 203.291C175.053 204.842 174.467 206.441 173.964 208.047C173.454 209.673 173.027 211.341 172.689 213.009C172.344 214.691 172.076 216.421 171.903 218.144C171.724 219.894 171.635 221.673 171.635 223.43C171.635 225.188 171.724 226.966 171.903 228.717C171.945 229.144 172.31 229.461 172.73 229.461C172.758 229.461 172.786 229.461 172.813 229.454C173.268 229.406 173.599 228.999 173.557 228.544C173.385 226.849 173.296 225.133 173.296 223.43C173.296 221.728 173.385 220.005 173.557 218.316C173.73 216.641 173.985 214.973 174.316 213.347C174.646 211.741 175.06 210.121 175.549 208.55C176.032 206.992 176.604 205.441 177.238 203.946C177.865 202.464 178.575 200.989 179.354 199.569C180.119 198.156 180.967 196.764 181.869 195.434C182.765 194.111 183.737 192.808 184.757 191.574C185.777 190.341 186.866 189.141 187.997 188.011C189.127 186.881 190.326 185.792 191.56 184.772C192.794 183.752 194.096 182.78 195.42 181.884C196.757 180.981 198.142 180.133 199.555 179.368C200.975 178.596 202.45 177.886 203.938 177.252C205.441 176.618 206.985 176.046 208.542 175.564C210.114 175.074 211.727 174.661 213.339 174.33C214.973 173.992 216.648 173.737 218.309 173.572C219.997 173.393 221.72 173.303 223.423 173.303Z" fill="#830016" fill-opacity="0.3"/>
<path d="M178.63 248.525C178.761 248.525 178.899 248.491 179.023 248.422C179.43 248.201 179.574 247.698 179.354 247.298C178.575 245.872 177.865 244.404 177.238 242.922C177.059 242.501 176.569 242.301 176.149 242.481C175.729 242.66 175.529 243.149 175.708 243.57C176.356 245.1 177.093 246.623 177.893 248.098C178.051 248.367 178.341 248.525 178.63 248.525Z" fill="#830016" fill-opacity="0.3"/>
<path d="M190.504 263.364C191.779 264.418 193.123 265.425 194.494 266.348C195.873 267.279 197.313 268.154 198.761 268.947C200.229 269.746 201.752 270.477 203.289 271.131C203.392 271.18 203.502 271.2 203.613 271.2C203.937 271.2 204.247 271.007 204.378 270.69C204.557 270.27 204.357 269.781 203.937 269.601C202.448 268.974 200.973 268.257 199.553 267.485C198.147 266.72 196.755 265.873 195.418 264.97C194.095 264.074 192.792 263.102 191.558 262.082C190.324 261.069 189.125 259.98 187.995 258.843C186.865 257.712 185.776 256.513 184.756 255.279C184.459 254.921 183.935 254.873 183.584 255.169C183.232 255.458 183.177 255.982 183.474 256.341C184.521 257.616 185.652 258.849 186.816 260.021C187.995 261.193 189.229 262.316 190.504 263.364Z" fill="#830016" fill-opacity="0.3"/>
</svg>
