<svg width="256" height="234" viewBox="0 0 256 234" fill="none" xmlns="http://www.w3.org/2000/svg">
<path d="M113.249 208.478C115.596 217.965 109.441 227.472 99.4999 229.712C89.559 231.952 79.5975 226.077 77.2502 216.59C74.9029 207.103 81.0586 197.597 90.9995 195.357C100.94 193.117 110.902 198.991 113.249 208.478Z" stroke="#830016" stroke-miterlimit="10" stroke-dasharray="5 5"/>
<path d="M188.8 215.42L156.285 201.454" stroke="#830016" stroke-miterlimit="10"/>
<path d="M179.409 192.922L165.676 223.953" stroke="#830016" stroke-miterlimit="10"/>
<path d="M72.338 22.0825C112.289 9.88665 155.036 30.9077 167.815 69.0343C180.595 107.161 158.568 147.955 118.617 160.151C78.6655 172.347 35.9188 151.326 23.1393 113.199C10.3598 75.0728 32.3868 34.2784 72.338 22.0825Z" stroke="#830016" stroke-miterlimit="10" stroke-dasharray="5 5"/>
<path d="M255.033 119.157L210 76.1258" stroke="#830016" stroke-miterlimit="10"/>
<path d="M253.77 75.0802L211.263 120.203" stroke="#830016" stroke-miterlimit="10"/>
<path d="M245.576 194.64L241.437 174.587" stroke="#830016" stroke-miterlimit="10"/>
<path d="M254.013 182.461L233 186.766" stroke="#830016" stroke-miterlimit="10"/>
</svg>
