<svg width="135" height="135" viewBox="0 0 135 135" fill="none" xmlns="http://www.w3.org/2000/svg">
<path d="M134.651 60.4082C134.423 58.1589 134.078 55.8992 133.625 53.6894C133.179 51.5107 132.618 49.3279 131.957 47.2032C131.303 45.1014 130.539 43.01 129.681 40.985C128.832 38.9787 127.874 36.9869 126.832 35.07C125.797 33.1654 124.655 31.2879 123.442 29.4893C122.233 27.699 120.923 25.9461 119.546 24.2804C118.173 22.6169 116.705 21.001 115.178 19.4745C113.654 17.9501 112.038 16.4817 110.372 15.1068C108.704 13.7319 106.952 12.4193 105.163 11.2105C103.365 9.99552 101.487 8.8553 99.5827 7.821C97.6658 6.78047 95.6761 5.82094 93.6677 4.97149C93.541 4.91749 93.3936 4.97772 93.3396 5.10441C93.2856 5.2311 93.3458 5.37856 93.4725 5.43256C95.4663 6.27578 97.4415 7.227 99.3439 8.2613C101.234 9.28729 103.097 10.4192 104.883 11.6259C106.659 12.8263 108.399 14.1265 110.054 15.4931C111.708 16.8576 113.311 18.3156 114.825 19.8276C116.339 21.3416 117.799 22.9471 119.16 24.5982C120.526 26.2535 121.826 27.994 123.027 29.7697C124.231 31.5538 125.363 33.4167 126.391 35.3088C127.426 37.2133 128.377 39.1885 129.22 41.1802C130.07 43.1906 130.83 45.2655 131.48 47.3507C132.136 49.4587 132.693 51.6249 133.135 53.7891C133.584 55.9823 133.926 58.2274 134.153 60.458C134.383 62.7239 134.5 65.0355 134.5 67.3263C134.5 69.6172 134.383 71.9287 134.153 74.1946C133.926 76.4252 133.584 78.6704 133.135 80.8636C132.693 83.0277 132.136 85.1918 131.48 87.302C130.832 89.3872 130.072 91.4641 129.22 93.4724C128.377 95.4642 127.426 97.4393 126.391 99.3439C125.363 101.236 124.231 103.099 123.027 104.883C121.826 106.659 120.526 108.399 119.16 110.054C117.797 111.706 116.339 113.309 114.825 114.825C113.311 116.339 111.708 117.797 110.054 119.16C108.399 120.526 106.659 121.826 104.883 123.027C103.097 124.233 101.234 125.365 99.3439 126.391C99.2234 126.458 99.1777 126.609 99.2442 126.73C99.2899 126.813 99.3751 126.861 99.4644 126.861C99.5038 126.861 99.5454 126.85 99.5827 126.83C101.487 125.795 103.365 124.655 105.163 123.44C106.954 122.231 108.707 120.921 110.372 119.544C112.038 118.169 113.654 116.701 115.178 115.176C116.705 113.65 118.173 112.034 119.546 110.37C120.923 108.702 122.233 106.949 123.442 105.161C124.657 103.365 125.797 101.487 126.832 99.5806C127.874 97.6616 128.832 95.6719 129.681 93.6656C130.537 91.6406 131.303 89.5492 131.957 87.4474C132.618 85.3227 133.179 83.1419 133.625 80.9612C134.078 78.7514 134.423 76.4896 134.651 74.2424C134.884 71.9599 135 69.6317 135 67.3242C135 65.0189 134.882 62.6907 134.651 60.4082Z" fill="#830016" fill-opacity="0.3"/>
<path d="M74.1946 0.49984C76.4273 0.726222 78.6724 1.06891 80.8635 1.51752C80.8802 1.52168 80.8968 1.52168 80.9134 1.52168C81.0297 1.52168 81.1335 1.44068 81.1585 1.32229C81.1855 1.18729 81.0982 1.05437 80.9632 1.02737C78.7555 0.574609 76.4938 0.229843 74.2445 0.00138342C74.1032 -0.0131549 73.9849 0.0886133 73.9703 0.225689C73.9579 0.364841 74.0576 0.487379 74.1946 0.49984Z" fill="#830016" fill-opacity="0.3"/>
<path d="M24.4381 15.5516C24.4942 15.5516 24.5503 15.5329 24.5981 15.4934C26.2533 14.1268 27.9938 12.8267 29.7695 11.6262C31.5557 10.4195 33.4186 9.28761 35.3086 8.26162C37.211 7.22733 39.1862 6.27611 41.18 5.43288C43.1925 4.58135 45.2673 3.82121 47.3525 3.17321C49.4606 2.51691 51.6268 1.9603 53.7888 1.51792C55.982 1.06931 58.2251 0.726623 60.4578 0.500241C60.5948 0.485702 60.6945 0.363165 60.6821 0.22609C60.6675 0.089014 60.5491 -0.0106774 60.4079 0.00178406C58.1586 0.230243 55.8969 0.575009 53.6892 1.02777C51.5105 1.47431 49.3277 2.03507 47.203 2.69553C45.1033 3.34767 43.0118 4.11405 40.9848 4.97181C38.9764 5.82126 36.9867 6.78079 35.0698 7.82132C33.1653 8.85562 31.2877 9.99584 29.4891 11.2108C27.6989 12.4196 25.946 13.7301 24.2803 15.1071C24.1744 15.1943 24.1577 15.3522 24.2471 15.4602C24.2948 15.5204 24.3675 15.5516 24.4381 15.5516Z" fill="#830016" fill-opacity="0.3"/>
<path d="M8.26123 35.3086C8.32769 35.1881 8.282 35.0344 8.16154 34.97C8.039 34.9036 7.88739 34.9493 7.82093 35.0697C6.77832 36.9888 5.82087 38.9785 4.97142 40.9848C4.11574 43.0097 3.34937 45.1012 2.69514 47.203C2.03469 49.3277 1.47393 51.5084 1.0274 53.6892C0.574631 55.899 0.229866 58.1607 0.00140764 60.4079C-0.0131306 60.545 0.0865604 60.6676 0.225713 60.6821C0.23402 60.6821 0.242328 60.6842 0.250635 60.6842C0.377326 60.6842 0.485325 60.5886 0.499863 60.4599C0.726245 58.2293 1.06893 55.9841 1.51754 53.7909C1.95992 51.6268 2.51653 49.4627 3.17283 47.3525C3.82082 45.2673 4.58097 43.1904 5.43249 41.1821C6.27571 39.1882 7.22693 37.2131 8.26123 35.3086Z" fill="#830016" fill-opacity="0.3"/>
<path d="M0.499873 74.1944C0.485335 74.0573 0.364875 73.9576 0.225723 73.97C0.0886475 73.9846 -0.0110435 74.1071 0.00141785 74.2442C0.229877 76.4935 0.574641 78.7532 1.02741 80.963C1.05233 81.0814 1.15617 81.1624 1.27248 81.1624C1.28909 81.1624 1.30571 81.1603 1.32232 81.1582C1.45732 81.1312 1.54455 80.9983 1.51755 80.8633C1.06894 78.6701 0.728332 76.427 0.499873 74.1944Z" fill="#830016" fill-opacity="0.3"/>
<path d="M67.3263 134.499C65.0354 134.499 62.7239 134.383 60.458 134.153C58.2253 133.926 55.9802 133.584 53.789 133.135C51.627 132.693 49.4608 132.136 47.3527 131.48C45.2696 130.832 43.1927 130.072 41.1802 129.22C39.1864 128.377 37.2113 127.426 35.3088 126.391C33.4188 125.365 31.5559 124.233 29.7697 123.027C27.994 121.826 26.2535 120.526 24.5983 119.159C22.945 117.795 21.3417 116.337 19.8276 114.825C18.3136 113.311 16.8535 111.705 15.4931 110.054C14.1265 108.399 12.8264 106.659 11.626 104.883C10.4214 103.099 9.28945 101.236 8.26138 99.3437C7.22709 97.4392 6.27587 95.4641 5.43265 93.4723C5.37865 93.3456 5.23119 93.2854 5.1045 93.3394C4.97781 93.3934 4.91758 93.5409 4.97158 93.6676C5.82103 95.6738 6.77848 97.6656 7.82108 99.5826C8.85538 101.487 9.99767 103.365 11.2106 105.163C12.4193 106.954 13.7299 108.704 15.1068 110.372C16.4797 112.036 17.948 113.652 19.4746 115.178C20.999 116.702 22.6148 118.171 24.2805 119.546C25.9482 120.921 27.7011 122.233 29.4893 123.442C31.2879 124.657 33.1655 125.797 35.07 126.832C36.987 127.872 38.9766 128.832 40.985 129.681C43.012 130.539 45.1035 131.303 47.2032 131.957C49.3279 132.618 51.5086 133.179 53.6894 133.625C55.8992 134.078 58.1588 134.423 60.4081 134.651C62.6927 134.884 65.0188 135 67.3263 135C67.4654 135 67.5776 134.888 67.5776 134.749C67.5776 134.612 67.4654 134.499 67.3263 134.499Z" fill="#830016" fill-opacity="0.3"/>
<path d="M91.5005 124.599C89.6396 125.388 87.7185 126.092 85.7911 126.692C83.843 127.299 81.8408 127.816 79.8387 128.227C77.8117 128.643 75.7389 128.96 73.6724 129.17C73.5353 129.185 73.4356 129.307 73.4481 129.444C73.4606 129.573 73.5706 129.669 73.6973 129.669C73.7056 129.669 73.7139 129.669 73.7222 129.666C75.8033 129.455 77.8947 129.135 79.9384 128.715C81.9572 128.302 83.9759 127.781 85.9406 127.168C87.8825 126.564 89.8182 125.853 91.6957 125.058C91.8224 125.004 91.8826 124.856 91.8286 124.73C91.7746 124.605 91.6272 124.547 91.5005 124.599Z" fill="#830016" fill-opacity="0.3"/>
<path d="M111.262 111.263C109.861 112.665 108.376 114.015 106.845 115.278C105.314 116.543 103.703 117.748 102.058 118.861C101.943 118.938 101.912 119.093 101.991 119.208C102.039 119.278 102.118 119.318 102.199 119.318C102.247 119.318 102.297 119.303 102.338 119.274C103.998 118.153 105.62 116.938 107.163 115.662C108.704 114.389 110.203 113.027 111.616 111.614C111.713 111.517 111.713 111.359 111.616 111.261C111.518 111.164 111.36 111.166 111.262 111.263Z" fill="#830016" fill-opacity="0.3"/>
<path d="M118.929 102.407C118.973 102.437 119.021 102.451 119.068 102.451C119.149 102.451 119.228 102.412 119.276 102.341C120.402 100.675 121.461 98.9369 122.418 97.1736C123.384 95.4 124.273 93.5578 125.06 91.6969C125.114 91.5702 125.054 91.4227 124.927 91.3687C124.801 91.3147 124.653 91.3749 124.599 91.5016C123.816 93.3459 122.936 95.1736 121.978 96.9348C121.027 98.6836 119.978 100.407 118.861 102.061C118.784 102.175 118.815 102.331 118.929 102.407Z" fill="#830016" fill-opacity="0.3"/>
<path d="M128.227 79.8395C128.2 79.9745 128.287 80.1074 128.422 80.1344C128.439 80.1386 128.455 80.1386 128.472 80.1386C128.588 80.1386 128.692 80.0576 128.717 79.9392C129.137 77.8935 129.456 75.802 129.668 73.723C129.884 71.6108 129.992 69.4571 129.992 67.3262C129.992 65.1932 129.884 63.0415 129.668 60.9272C129.456 58.8483 129.137 56.7568 128.717 54.7111C128.304 52.6944 127.782 50.6756 127.17 48.7109C126.563 46.769 125.855 44.8312 125.06 42.9558C124.272 41.0949 123.384 39.2527 122.418 37.479C121.458 35.7157 120.401 33.9773 119.275 32.3117C118.156 30.6564 116.941 29.0322 115.666 27.487C114.393 25.946 113.032 24.4485 111.618 23.0341C111.52 22.9365 111.362 22.9365 111.265 23.0341C111.167 23.1318 111.167 23.2896 111.265 23.3872C112.667 24.7891 114.019 26.2762 115.279 27.8048C116.546 29.3396 117.751 30.9492 118.862 32.5921C119.979 34.2453 121.028 35.9691 121.98 37.7179C122.937 39.477 123.82 41.3047 124.601 43.151C125.39 45.0119 126.094 46.9331 126.694 48.8604C127.303 50.8106 127.818 52.8128 128.229 54.8128C128.644 56.842 128.962 58.9168 129.172 60.9792C129.386 63.0748 129.494 65.2119 129.494 67.3262C129.494 69.4405 129.386 71.5776 129.172 73.6732C128.96 75.7356 128.642 77.8104 128.227 79.8395Z" fill="#830016" fill-opacity="0.3"/>
<path d="M48.7108 7.48269C48.5779 7.52423 48.5052 7.66338 48.5467 7.79631C48.5882 7.92715 48.7274 8.00192 48.8603 7.96038C50.8085 7.35393 52.8106 6.83678 54.8127 6.42555C56.8398 6.01017 58.9125 5.6924 60.979 5.48264C65.1681 5.05687 69.4839 5.05687 73.673 5.48264C75.7374 5.6924 77.8123 6.01017 79.8393 6.42555C81.8414 6.83678 83.8436 7.35185 85.7917 7.96038C87.7191 8.56061 89.6402 9.26468 91.5011 10.0539C93.3454 10.8348 95.1731 11.7175 96.9343 12.6749C98.683 13.6262 100.407 14.675 102.06 15.7924C102.104 15.8215 102.151 15.836 102.199 15.836C102.28 15.836 102.359 15.7965 102.407 15.7259C102.484 15.6117 102.455 15.4559 102.34 15.3791C100.675 14.2534 98.9364 13.1963 97.1731 12.2367C95.3974 11.271 93.5551 10.382 91.6963 9.5949C89.8188 8.79945 87.8831 8.08915 85.9412 7.48477C83.9765 6.87208 81.9578 6.35286 79.939 5.93748C77.8974 5.51794 75.806 5.1981 73.7229 4.98626C69.5005 4.55634 65.1494 4.55634 60.9271 4.98626C58.846 5.1981 56.7546 5.51794 54.7109 5.93748C52.6943 6.35078 50.6755 6.87001 48.7108 7.48269Z" fill="#830016" fill-opacity="0.3"/>
<path d="M32.5936 15.7918C34.2468 14.6744 35.9707 13.6256 37.7194 12.6744C37.8419 12.6079 37.8856 12.4563 37.8191 12.3358C37.7526 12.2154 37.601 12.1697 37.4785 12.2362C35.7152 13.1957 33.9768 14.2528 32.3112 15.3785C32.1969 15.4554 32.1658 15.6111 32.2447 15.7254C32.2925 15.796 32.3714 15.8354 32.4524 15.8354C32.5002 15.8354 32.55 15.8209 32.5936 15.7918Z" fill="#830016" fill-opacity="0.3"/>
<path d="M5.93513 79.9392C6.34843 81.9559 6.86973 83.9746 7.48242 85.9394C8.08887 87.8813 8.79709 89.819 9.59254 91.6945C10.3797 93.5554 11.2686 95.3976 12.2344 97.1712C13.1939 98.9345 14.251 100.673 15.3767 102.339C16.4961 103.994 17.7111 105.618 18.9863 107.163C20.2595 108.704 21.6199 110.202 23.0342 111.616C24.4465 113.028 25.944 114.391 27.4871 115.664C29.0302 116.937 30.6544 118.152 32.3117 119.276C33.9774 120.401 35.7158 121.459 37.479 122.418C39.2548 123.384 41.097 124.273 42.9558 125.06C44.8333 125.855 46.769 126.566 48.7109 127.17C50.6756 127.783 52.6944 128.302 54.7131 128.717C56.7547 129.137 58.8462 129.457 60.9293 129.669C60.9376 129.669 60.9459 129.671 60.9542 129.671C61.0809 129.671 61.1889 129.575 61.2034 129.446C61.218 129.309 61.1183 129.187 60.9791 129.172C58.9147 128.962 56.8399 128.645 54.8128 128.229C52.8107 127.818 50.8086 127.303 48.8604 126.694C46.9331 126.094 45.0119 125.39 43.151 124.601C41.3068 123.82 39.4791 122.937 37.7179 121.98C35.9691 121.029 34.2453 119.98 32.5921 118.862C30.9472 117.749 29.3355 116.545 27.8049 115.28C26.2742 114.017 24.7892 112.665 23.3873 111.265C21.9854 109.863 20.6333 108.376 19.3726 106.848C18.1057 105.313 16.9011 103.703 15.79 102.06C14.6726 100.407 13.6238 98.6832 12.6726 96.9345C11.7151 95.1753 10.8324 93.3477 10.0515 91.5013C9.26232 89.6404 8.55825 87.7193 7.95802 85.7919C7.34949 83.8417 6.83442 81.8396 6.4232 79.8395C6.00782 77.8104 5.69005 75.7355 5.48029 73.6732C5.26637 71.5776 5.15837 69.4405 5.15837 67.3262C5.15837 65.2119 5.26637 63.0747 5.48029 60.9792C5.69005 58.9168 6.00782 56.842 6.4232 54.8128C6.83442 52.8128 7.34949 50.8106 7.95802 48.8604C8.55825 46.9331 9.26232 45.0119 10.0515 43.151C10.8345 41.3067 11.7151 39.4791 12.6726 37.7178C13.6238 35.9691 14.6726 34.2453 15.79 32.5921C16.9011 30.9492 18.1057 29.3396 19.3726 27.8048C20.6354 26.2762 21.9854 24.7891 23.3873 23.3872C23.4849 23.2896 23.4849 23.1318 23.3873 23.0341C23.2897 22.9365 23.1318 22.9365 23.0342 23.0341C21.6219 24.4464 20.2595 25.946 18.9863 27.487C17.7091 29.0343 16.4941 30.6564 15.3767 32.3117C14.251 33.9773 13.1918 35.7157 12.2344 37.479C11.2686 39.2527 10.3797 41.0949 9.59254 42.9558C8.79709 44.8312 8.08679 46.769 7.48242 48.7109C6.86973 50.6777 6.34843 52.6965 5.93513 54.7111C5.51559 56.7568 5.19575 58.8483 4.98391 60.9272C4.76791 63.0394 4.65991 65.1932 4.65991 67.3241C4.65991 69.4571 4.76791 71.6087 4.98391 73.723C5.19575 75.8041 5.51559 77.8955 5.93513 79.9392Z" fill="#830016" fill-opacity="0.3"/>
<path d="M104.089 111.932C105.511 110.756 106.895 109.502 108.197 108.197C109.501 106.893 110.758 105.51 111.931 104.089C113.109 102.662 114.23 101.165 115.262 99.6365C116.303 98.0975 117.279 96.4941 118.162 94.8679C119.053 93.2313 119.873 91.5303 120.6 89.8148C120.654 89.6881 120.594 89.5406 120.467 89.4866C120.34 89.4326 120.193 89.4929 120.139 89.6195C119.418 91.3205 118.604 93.007 117.721 94.629C116.845 96.2407 115.879 97.8295 114.847 99.3561C113.823 100.872 112.71 102.357 111.545 103.769C110.382 105.178 109.136 106.548 107.842 107.842C106.55 109.134 105.179 110.38 103.769 111.545C102.357 112.713 100.872 113.824 99.3554 114.848C97.831 115.878 96.2422 116.846 94.6284 117.722C93.0043 118.605 91.3178 119.419 89.6189 120.14C87.9034 120.867 86.1318 121.517 84.354 122.069C82.5575 122.63 80.709 123.105 78.8648 123.483C76.9956 123.868 75.0827 124.161 73.1782 124.354C71.2467 124.551 69.2778 124.651 67.3255 124.651C67.1864 124.651 67.0742 124.763 67.0742 124.902C67.0742 125.041 67.1864 125.153 67.3255 125.153C69.2944 125.153 71.2799 125.054 73.2301 124.854C75.1513 124.659 77.0807 124.364 78.9645 123.976C80.8254 123.594 82.6883 123.114 84.5015 122.549C86.2938 121.99 88.08 121.336 89.8121 120.601C91.5276 119.874 93.2286 119.053 94.8652 118.162C96.4914 117.278 98.0968 116.302 99.6337 115.263C101.164 114.229 102.664 113.109 104.089 111.932Z" fill="#830016" fill-opacity="0.3"/>
<path d="M124.854 61.4238C124.84 61.2867 124.721 61.1891 124.58 61.1995C124.443 61.214 124.343 61.3366 124.356 61.4736C124.553 63.4072 124.653 65.3761 124.653 67.3263C124.653 69.2766 124.553 71.2475 124.356 73.1791C124.163 75.0815 123.87 76.9943 123.486 78.8656C123.456 79.0006 123.546 79.1335 123.681 79.1605C123.697 79.1647 123.714 79.1647 123.731 79.1647C123.847 79.1647 123.951 79.0837 123.976 78.9653C124.362 77.0774 124.659 75.148 124.854 73.2289C125.054 71.2787 125.153 69.2932 125.153 67.3243C125.153 65.3595 125.054 63.3719 124.854 61.4238Z" fill="#830016" fill-opacity="0.3"/>
<path d="M122.309 50.474C122.334 50.474 122.359 50.4699 122.384 50.4636C122.515 50.4221 122.59 50.2829 122.548 50.15C121.99 48.3577 121.335 46.5715 120.6 44.8394C119.873 43.1239 119.053 41.4229 118.162 39.7863C117.279 38.1621 116.303 36.5567 115.262 35.0177C114.228 33.4891 113.109 31.9917 111.931 30.5648C111.842 30.4568 111.684 30.4423 111.578 30.5316C111.472 30.6188 111.456 30.7767 111.545 30.8847C112.712 32.299 113.823 33.784 114.847 35.2981C115.879 36.8246 116.845 38.4134 117.722 40.0251C118.604 41.6493 119.418 43.3336 120.139 45.0346C120.866 46.7522 121.516 48.5217 122.068 50.2996C122.104 50.4055 122.203 50.474 122.309 50.474Z" fill="#830016" fill-opacity="0.3"/>
<path d="M99.637 19.3889C98.1001 18.3504 96.4967 17.3743 94.8684 16.4895C93.2297 15.5985 91.5287 14.7782 89.8153 14.0513C88.0832 13.3181 86.297 12.6618 84.5047 12.1031C82.6915 11.5382 80.8286 11.0584 78.9677 10.6763C77.0839 10.29 75.1524 9.99507 73.2334 9.79776C69.3371 9.40107 65.3225 9.40107 61.4262 9.79776C59.5051 9.99299 57.5756 10.29 55.6919 10.6763C53.831 11.0584 51.968 11.5382 50.1549 12.1031C50.022 12.1447 49.9493 12.2838 49.9908 12.4167C50.0323 12.5476 50.1694 12.6223 50.3044 12.5808C52.1009 12.02 53.9494 11.5444 55.7937 11.1664C57.6629 10.7822 59.5757 10.4894 61.4802 10.2962C65.3432 9.90368 69.3226 9.90368 73.1856 10.2962C75.0901 10.4894 77.0029 10.7822 78.8721 11.1664C80.7164 11.5444 82.5649 12.02 84.3614 12.5808C86.1371 13.1353 87.9087 13.7833 89.6242 14.5103C91.3252 15.2309 93.0096 16.043 94.6337 16.9278C96.2475 17.8042 97.8363 18.7721 99.3607 19.8022C100.877 20.8282 102.362 21.9393 103.774 23.1045C103.82 23.1439 103.878 23.1626 103.934 23.1626C104.007 23.1626 104.077 23.1315 104.127 23.0712C104.214 22.9653 104.2 22.8075 104.094 22.7182C102.665 21.5447 101.166 20.4232 99.637 19.3889Z" fill="#830016" fill-opacity="0.3"/>
<path d="M26.4549 26.4548C25.1506 27.7591 23.8941 29.1423 22.7206 30.5629C21.543 31.9897 20.4215 33.4872 19.3893 35.0158C18.3488 36.5548 17.3726 38.1581 16.4899 39.7844C15.599 41.421 14.7786 43.1219 14.0517 44.8375C13.3185 46.5696 12.6622 48.3557 12.1035 50.1481C12.062 50.281 12.1368 50.4202 12.2676 50.4617C12.2925 50.47 12.3175 50.4721 12.3424 50.4721C12.4483 50.4721 12.548 50.4036 12.5812 50.2956C13.1358 48.5198 13.7837 46.7482 14.5107 45.0306C15.2313 43.3296 16.0455 41.6432 16.9282 40.0211C17.8046 38.4094 18.7704 36.8206 19.8026 35.2941C20.8265 33.778 21.9397 32.293 23.1049 30.8807C24.2679 29.4725 25.5141 28.1018 26.808 26.8079C28.0998 25.516 29.4705 24.2699 30.8808 23.1048C32.2931 21.9375 33.778 20.8264 35.2942 19.8025C36.8186 18.7723 38.4074 17.8045 40.0212 16.928C40.1437 16.8616 40.1873 16.71 40.1209 16.5895C40.0544 16.4691 39.9028 16.4234 39.7803 16.4898C38.1541 17.3746 36.5486 18.3507 35.0117 19.3892C33.481 20.4235 31.9836 21.545 30.5588 22.7205C29.1424 23.8961 27.7592 25.1526 26.4549 26.4548Z" fill="#830016" fill-opacity="0.3"/>
<path d="M9.79813 61.424C9.59874 63.3742 9.49905 65.3597 9.49905 67.3286C9.49905 67.4678 9.61121 67.5799 9.75036 67.5799C9.88951 67.5799 10.0017 67.4678 10.0017 67.3286C10.0017 65.3784 10.1014 63.4074 10.2987 61.4759C10.3132 61.3388 10.2135 61.2163 10.0744 61.2018C9.9352 61.1893 9.81267 61.2848 9.79813 61.424Z" fill="#830016" fill-opacity="0.3"/>
<path d="M12.1036 84.5044C12.6623 86.2968 13.3165 88.0829 14.0518 89.8151C14.7787 91.5306 15.5991 93.2316 16.49 94.8682C17.3727 96.4923 18.3489 98.0978 19.3894 99.6367C20.4237 101.165 21.5431 102.663 22.7207 104.09C23.8942 105.51 25.1507 106.893 26.455 108.198C27.7593 109.502 29.1404 110.759 30.5631 111.932C31.9879 113.11 33.4853 114.229 35.016 115.263C36.5529 116.302 38.1562 117.278 39.7845 118.163C41.4232 119.054 43.1242 119.874 44.8376 120.601C46.5698 121.334 48.3559 121.99 50.1482 122.549C51.9614 123.114 53.8244 123.594 55.6853 123.976C55.7019 123.98 55.7185 123.98 55.7351 123.98C55.8514 123.98 55.9553 123.899 55.9802 123.781C56.0093 123.646 55.9199 123.513 55.7849 123.486C53.9407 123.108 52.0922 122.632 50.2957 122.071C48.52 121.517 46.7484 120.869 45.0329 120.142C43.3319 119.421 41.6475 118.607 40.0234 117.724C38.4096 116.848 36.8208 115.88 35.2964 114.85C33.7802 113.824 32.2952 112.713 30.883 111.548C29.4727 110.383 28.102 109.136 26.8102 107.845C25.5162 106.551 24.2701 105.18 23.107 103.772C21.9398 102.357 20.8287 100.873 19.8048 99.3584C18.7726 97.8319 17.8068 96.2431 16.9304 94.6314C16.0477 93.0073 15.2335 91.3229 14.5128 89.6219C13.7859 87.9043 13.1359 86.1348 12.5834 84.357C12.5419 84.2261 12.4048 84.1514 12.2698 84.1929C12.1369 84.2324 12.0642 84.3715 12.1036 84.5044Z" fill="#830016" fill-opacity="0.3"/>
<path d="M104.895 29.7593C103.697 28.561 102.426 27.4041 101.119 26.3262C101.013 26.239 100.856 26.2535 100.766 26.3594C100.679 26.4654 100.694 26.6232 100.799 26.7125C102.093 27.7821 103.352 28.9244 104.54 30.1124C105.728 31.3004 106.872 32.559 107.94 33.8529C109.011 35.151 110.033 36.5155 110.974 37.907C111.919 39.3048 112.808 40.7648 113.614 42.2477C114.424 43.739 115.172 45.2863 115.834 46.8502C116.503 48.4265 117.099 50.0548 117.608 51.6852C118.123 53.3363 118.559 55.0332 118.908 56.7279C119.259 58.4434 119.529 60.2005 119.707 61.9492C119.888 63.7208 119.98 65.5298 119.98 67.3243C119.98 69.1187 119.888 70.9277 119.707 72.6993C119.529 74.4501 119.261 76.2072 118.908 77.9206C118.561 79.6154 118.123 81.3101 117.608 82.9633C117.099 84.5937 116.503 86.222 115.834 87.7984C115.172 89.3623 114.426 90.9096 113.614 92.4008C112.808 93.8837 111.919 95.3438 110.974 96.7415C110.033 98.133 109.011 99.4976 107.94 100.796C106.872 102.09 105.728 103.348 104.54 104.536C103.352 105.724 102.093 106.868 100.799 107.936C99.5014 109.008 98.1368 110.03 96.7453 110.97C95.3455 111.915 93.8854 112.804 92.4046 113.61C90.9134 114.422 89.3661 115.168 87.8022 115.83C86.2279 116.497 84.6017 117.093 82.9672 117.604C81.3161 118.119 79.6192 118.555 77.9266 118.904C76.209 119.257 74.4519 119.525 72.7032 119.704C70.9295 119.884 69.1205 119.976 67.3282 119.976C67.189 119.976 67.0768 120.088 67.0768 120.227C67.0768 120.366 67.189 120.478 67.3282 120.478C69.1371 120.478 70.9648 120.385 72.7551 120.204C74.5204 120.024 76.2941 119.754 78.0262 119.396C79.7355 119.045 81.449 118.605 83.1167 118.084C84.7658 117.569 86.4086 116.966 87.9974 116.293C89.5738 115.625 91.1377 114.871 92.6435 114.052C94.1388 113.238 95.6134 112.341 97.0257 111.388C98.4318 110.437 99.8087 109.406 101.119 108.324C102.426 107.246 103.697 106.09 104.895 104.891C106.096 103.691 107.25 102.422 108.328 101.115C109.41 99.8049 110.44 98.428 111.392 97.0219C112.347 95.6117 113.242 94.1371 114.056 92.6396C114.875 91.1359 115.628 89.572 116.297 87.9936C116.972 86.4006 117.575 84.7599 118.088 83.1129C118.607 81.4451 119.049 79.7337 119.4 78.0224C119.755 76.2902 120.027 74.5166 120.206 72.7512C120.389 70.963 120.48 69.1353 120.48 67.3243C120.48 65.5132 120.387 63.6876 120.206 61.8973C120.025 60.1299 119.755 58.3562 119.4 56.6261C119.049 54.9168 118.607 53.2034 118.088 51.5356C117.575 49.8887 116.972 48.2458 116.297 46.6549C115.628 45.0765 114.875 43.5147 114.056 42.0089C113.242 40.5115 112.345 39.0369 111.392 37.6266C110.442 36.2206 109.41 34.8436 108.328 33.5331C107.248 32.2288 106.093 30.9577 104.895 29.7593Z" fill="#830016" fill-opacity="0.3"/>
<path d="M83.1141 16.5668C81.4464 16.0475 79.7329 15.6052 78.0236 15.2542C77.8886 15.2272 77.7557 15.3144 77.7287 15.4494C77.7017 15.5844 77.7889 15.7173 77.9239 15.7443C79.6166 16.0912 81.3134 16.5294 82.9646 17.0445C82.9895 17.0528 83.0144 17.0548 83.0393 17.0548C83.1453 17.0548 83.245 16.9863 83.2782 16.8783C83.3197 16.7475 83.247 16.6083 83.1141 16.5668Z" fill="#830016" fill-opacity="0.3"/>
<path d="M67.3259 14.1716C65.5169 14.1716 63.6892 14.2651 61.899 14.4458C60.1336 14.6265 58.3599 14.8965 56.6278 15.2537C54.9185 15.6047 53.2051 16.045 51.5373 16.5663C49.8883 17.0814 48.2454 17.6837 46.6566 18.3566C45.0802 19.0254 43.5163 19.7793 42.0106 20.5976C40.5152 21.4117 39.0406 22.3069 37.6283 23.2622C36.2223 24.2135 34.8453 25.2436 33.5348 26.3257C32.2284 27.4036 30.9573 28.5604 29.759 29.7588C29.6614 29.8564 29.6614 30.0142 29.759 30.1119C29.8088 30.1617 29.8711 30.1845 29.9355 30.1845C29.9999 30.1845 30.0643 30.1596 30.112 30.1119C31.3 28.9239 32.5586 27.7795 33.8525 26.712C35.1506 25.6403 36.5151 24.6205 37.9066 23.6776C39.3065 22.7326 40.7665 21.8437 42.2474 21.0379C43.7386 20.2258 45.2859 19.4802 46.8498 18.8177C48.4241 18.151 50.0503 17.5549 51.6848 17.044C53.3359 16.5289 55.0327 16.0928 56.7254 15.7438C58.443 15.3908 60.2001 15.1229 61.9488 14.9442C63.7225 14.7635 65.5315 14.6722 67.3238 14.6722C67.463 14.6722 67.5751 14.56 67.5751 14.4209C67.5751 14.2817 67.465 14.1716 67.3259 14.1716Z" fill="#830016" fill-opacity="0.3"/>
<path d="M18.685 46.524C18.5583 46.47 18.4109 46.5302 18.3569 46.6569C17.6819 48.2499 17.0796 49.8906 16.5666 51.5376C16.0473 53.2054 15.605 54.9167 15.254 56.6281C14.8988 58.3602 14.6267 60.1339 14.4481 61.8993C14.2654 63.6875 14.174 65.5152 14.174 67.3262C14.174 69.1373 14.2674 70.9629 14.4481 72.7532C14.6288 74.5206 14.8988 76.2943 15.254 78.0244C15.605 79.7337 16.0473 81.4471 16.5666 83.1148C17.0796 84.7618 17.6819 86.4047 18.3569 87.9956C19.0256 89.574 19.7795 91.1358 20.5978 92.6416C21.412 94.139 22.3092 95.6136 23.2625 97.0239C24.2116 98.4299 25.2438 99.8069 26.3259 101.117C26.3758 101.178 26.4464 101.209 26.5191 101.209C26.5751 101.209 26.6312 101.19 26.679 101.151C26.7849 101.063 26.8015 100.906 26.7122 100.798C25.6405 99.4995 24.6187 98.135 23.6779 96.7435C22.7329 95.3457 21.844 93.8857 21.0381 92.4028C20.2281 90.9115 19.4805 89.3642 18.8179 87.8003C18.1492 86.224 17.5531 84.5957 17.0443 82.9653C16.5292 81.3142 16.093 79.6173 15.7441 77.9226C15.3931 76.2071 15.1231 74.45 14.9445 72.7013C14.7638 70.9297 14.6724 69.1207 14.6724 67.3262C14.6724 65.5318 14.7638 63.7228 14.9445 61.9512C15.1231 60.2004 15.391 58.4433 15.7441 56.7299C16.091 55.0351 16.5292 53.3404 17.0443 51.6872C17.5531 50.0568 18.1492 48.4285 18.8179 46.8521C18.8719 46.7234 18.8117 46.578 18.685 46.524Z" fill="#830016" fill-opacity="0.3"/>
<path d="M42.0111 114.057C43.5168 114.875 45.0787 115.629 46.6571 116.298C46.6883 116.312 46.7215 116.318 46.7547 116.318C46.8523 116.318 46.9437 116.26 46.9853 116.165C47.0393 116.038 46.979 115.89 46.8523 115.836C45.2905 115.174 43.7412 114.428 42.2499 113.616C40.7691 112.81 39.307 111.922 37.9092 110.977C36.5177 110.036 35.1532 109.014 33.8551 107.942C33.7492 107.855 33.5914 107.869 33.5021 107.975C33.4148 108.081 33.4294 108.239 33.5353 108.328C34.8458 109.411 36.2228 110.441 37.6288 111.392C39.0411 112.345 40.5157 113.242 42.0111 114.057Z" fill="#830016" fill-opacity="0.3"/>
<path d="M62.3602 115.722C63.9988 115.888 65.6707 115.974 67.326 115.974C68.9834 115.974 70.6532 115.888 72.2919 115.722C73.9077 115.558 75.5298 115.309 77.1165 114.983C78.6804 114.661 80.2485 114.258 81.775 113.782C83.2828 113.313 84.7865 112.761 86.2424 112.144C87.6859 111.533 89.1148 110.842 90.4938 110.092C91.8625 109.348 93.2125 108.526 94.5043 107.651C95.792 106.781 97.0527 105.838 98.251 104.848C99.4473 103.861 100.61 102.804 101.707 101.705C102.806 100.607 103.863 99.4435 104.849 98.2493C105.84 97.0509 106.783 95.7903 107.653 94.5026C108.528 93.2107 109.348 91.8608 110.094 90.4921C110.843 89.113 111.533 87.6841 112.143 86.2407C112.76 84.7848 113.311 83.2811 113.782 81.7732C114.258 80.2509 114.661 78.6828 114.983 77.1148C115.309 75.5301 115.556 73.9059 115.722 72.2901C115.888 70.6514 115.973 68.9795 115.973 67.3242C115.973 65.6669 115.888 63.995 115.722 62.3584C115.707 62.2213 115.587 62.1237 115.448 62.1341C115.311 62.1486 115.211 62.2711 115.223 62.4082C115.39 64.0303 115.473 65.6835 115.473 67.3242C115.473 68.965 115.39 70.6182 115.223 72.2403C115.061 73.8416 114.814 75.447 114.492 77.0151C114.173 78.5665 113.774 80.118 113.304 81.6258C112.839 83.1191 112.293 84.6061 111.682 86.0475C111.078 87.4743 110.395 88.8908 109.653 90.2553C108.916 91.6095 108.104 92.9449 107.24 94.2263C106.378 95.4995 105.445 96.7477 104.465 97.9336C103.489 99.1175 102.442 100.268 101.356 101.354C100.27 102.44 99.1192 103.487 97.9353 104.463C96.7494 105.442 95.5012 106.376 94.2281 107.238C92.9487 108.104 91.6133 108.916 90.2571 109.652C88.8925 110.393 87.4782 111.076 86.0493 111.681C84.6079 112.291 83.1208 112.837 81.6275 113.303C80.1156 113.774 78.5641 114.173 77.0168 114.491C75.4467 114.813 73.8413 115.058 72.242 115.222C68.9979 115.552 65.6541 115.552 62.41 115.222C60.8108 115.06 59.2054 114.813 57.6352 114.491C56.0879 114.173 54.5365 113.774 53.0245 113.303C51.5312 112.837 50.0442 112.291 48.6028 111.681C47.1739 111.076 45.7595 110.393 44.395 109.652C43.0409 108.914 41.7054 108.102 40.424 107.238C39.1508 106.376 37.9026 105.444 36.7167 104.463C35.5329 103.485 34.3823 102.44 33.2961 101.354C32.2098 100.268 31.1631 99.1175 30.1869 97.9336C29.2067 96.7456 28.2741 95.4995 27.4122 94.2263C27.3354 94.1121 27.1796 94.081 27.0654 94.1599C26.9511 94.2367 26.92 94.3925 26.9989 94.5067C27.8691 95.7923 28.812 97.053 29.8027 98.2535C30.7893 99.4498 31.8464 100.611 32.9451 101.709C34.0417 102.806 35.2047 103.863 36.401 104.852C37.5994 105.84 38.8601 106.785 40.1478 107.656C41.4417 108.53 42.7896 109.35 44.1582 110.096C45.5373 110.846 46.9662 111.535 48.4096 112.148C49.8656 112.765 51.3692 113.317 52.8771 113.787C54.4036 114.262 55.9716 114.667 57.5355 114.987C59.1202 115.311 60.7443 115.558 62.3602 115.722Z" fill="#830016" fill-opacity="0.3"/>
<path d="M104.851 36.3993C103.865 35.203 102.807 34.042 101.709 32.9433C100.612 31.8467 99.4491 30.7896 98.2529 29.801C97.0545 28.8124 95.7938 27.8674 94.5061 26.9971C94.3919 26.9182 94.2361 26.9494 94.1593 27.0636C94.0824 27.1778 94.1115 27.3336 94.2257 27.4104C95.4989 28.2724 96.7471 29.2049 97.933 30.1852C99.1168 31.1634 100.267 32.2081 101.354 33.2943C102.44 34.3805 103.487 35.5311 104.463 36.715C105.443 37.903 106.376 39.1491 107.238 40.4222C107.285 40.4929 107.364 40.5323 107.445 40.5323C107.493 40.5323 107.543 40.5178 107.584 40.4887C107.699 40.4119 107.73 40.2561 107.651 40.1419C106.785 38.8583 105.842 37.5997 104.851 36.3993Z" fill="#830016" fill-opacity="0.3"/>
<path d="M81.4634 21.0344C81.4219 21.1674 81.4967 21.3065 81.6275 21.3481C83.1208 21.8133 84.6079 22.3595 86.0492 22.9701C86.0804 22.9847 86.1136 22.9909 86.1468 22.9909C86.2444 22.9909 86.3358 22.9327 86.3774 22.8372C86.4314 22.7105 86.3711 22.563 86.2444 22.509C84.7885 21.8922 83.2849 21.3397 81.777 20.8704C81.6441 20.8268 81.505 20.9015 81.4634 21.0344Z" fill="#830016" fill-opacity="0.3"/>
<path d="M72.2943 18.9305C69.017 18.5961 65.6379 18.5961 62.3605 18.9305C60.7447 19.0945 59.1226 19.3438 57.5359 19.6699C55.972 19.9918 54.4039 20.3947 52.8774 20.8703C51.3696 21.3397 49.8659 21.8921 48.41 22.509C48.2833 22.563 48.2231 22.7104 48.2771 22.8371C48.3166 22.9327 48.41 22.9908 48.5076 22.9908C48.5409 22.9908 48.5741 22.9846 48.6052 22.97C50.0466 22.3594 51.5337 21.8132 53.027 21.348C54.5389 20.8765 56.0904 20.4778 57.6377 20.16C59.2078 19.8381 60.8132 19.593 62.4125 19.4289C65.6566 19.0987 69.0004 19.0987 72.2445 19.4289C72.3836 19.4414 72.5041 19.3438 72.5186 19.2046C72.5311 19.0675 72.4314 18.945 72.2943 18.9305Z" fill="#830016" fill-opacity="0.3"/>
<path d="M36.399 29.8005C35.2028 30.787 34.0397 31.8442 32.9431 32.9429C31.8444 34.0415 30.7873 35.2046 29.8007 36.3988C28.8101 37.5972 27.8672 38.8579 26.9969 40.1456C26.1226 41.4374 25.3022 42.7874 24.5566 44.1561C23.8068 45.5351 23.1173 46.964 22.5067 48.4075C21.8898 49.8634 21.3395 51.3671 20.868 52.8749C20.3924 54.3973 19.9895 55.9653 19.6676 57.5334C19.3415 59.1181 19.0943 60.7422 18.9282 62.358C18.762 63.9967 18.6769 65.6686 18.6769 67.3239C18.6769 68.9813 18.762 70.6532 18.9282 72.2898C19.0923 73.9077 19.3415 75.5297 19.6676 77.1144C19.9895 78.6825 20.3945 80.2505 20.868 81.7729C20.9012 81.8809 21.0009 81.9495 21.1069 81.9495C21.1318 81.9495 21.1567 81.9453 21.1816 81.9391C21.3145 81.8975 21.3872 81.7584 21.3457 81.6255C20.8763 80.1176 20.4755 78.5662 20.1577 77.0147C19.8358 75.4467 19.5907 73.8391 19.4266 72.2399C19.2605 70.6179 19.1774 68.9647 19.1774 67.3239C19.1774 65.6831 19.2605 64.0299 19.4266 62.4079C19.5886 60.8066 19.8358 59.2011 20.1577 57.6331C20.4755 56.0816 20.8763 54.5302 21.3457 53.0224C21.8109 51.5291 22.3571 50.042 22.9678 48.6006C23.5721 47.1738 24.2554 45.7573 24.9969 44.3928C25.7342 43.0387 26.5462 41.7032 27.4102 40.4218C28.2721 39.1486 29.2047 37.9004 30.185 36.7145C31.1611 35.5307 32.2079 34.3801 33.2941 33.2939C34.3803 32.2076 35.5309 31.1609 36.7147 30.1847C36.8207 30.0975 36.8373 29.9397 36.748 29.8317C36.6628 29.7278 36.505 29.7133 36.399 29.8005Z" fill="#830016" fill-opacity="0.3"/>
<path d="M80.4145 109.652C80.4394 109.652 80.4643 109.648 80.4892 109.641C81.8641 109.214 83.2328 108.711 84.5579 108.15C85.8705 107.594 87.1748 106.966 88.4292 106.281C89.6753 105.602 90.9049 104.854 92.0825 104.059C93.2559 103.265 94.4024 102.408 95.4948 101.506C96.5831 100.607 97.6423 99.6452 98.6434 98.6442C99.6424 97.6452 100.606 96.586 101.505 95.4956C102.407 94.4052 103.264 93.2567 104.058 92.0832C104.135 91.969 104.106 91.8132 103.991 91.7364C103.877 91.6575 103.721 91.6886 103.645 91.8029C102.859 92.9618 102.01 94.0978 101.121 95.1757C100.232 96.2537 99.2789 97.3004 98.2924 98.289C97.3038 99.2776 96.257 100.229 95.1791 101.118C94.0991 102.009 92.9651 102.858 91.8062 103.641C90.6432 104.428 89.4261 105.168 88.1945 105.839C86.9525 106.514 85.6649 107.135 84.3668 107.685C83.0563 108.239 81.7042 108.736 80.3438 109.16C80.2109 109.201 80.1382 109.34 80.1798 109.473C80.2088 109.583 80.3065 109.652 80.4145 109.652Z" fill="#830016" fill-opacity="0.3"/>
<path d="M110.243 76.1448C109.954 77.5529 109.591 78.9652 109.161 80.3401C108.737 81.6984 108.241 83.0526 107.686 84.3631C107.632 84.4898 107.693 84.6373 107.819 84.6913C107.85 84.7058 107.884 84.712 107.917 84.712C108.014 84.712 108.106 84.6539 108.147 84.5583C108.708 83.2333 109.211 81.8646 109.639 80.4897C110.073 79.1002 110.44 77.6713 110.733 76.2466C111.03 74.801 111.256 73.3223 111.406 71.8519C111.558 70.3586 111.634 68.8362 111.634 67.3284C111.634 65.8205 111.558 64.2982 111.406 62.8049C111.256 61.3344 111.03 59.8557 110.733 58.4101C110.44 56.9854 110.073 55.5565 109.639 54.167C109.597 54.0362 109.458 53.9614 109.325 54.003C109.192 54.0445 109.119 54.1836 109.161 54.3166C109.589 55.6915 109.952 57.1017 110.243 58.5119C110.536 59.9408 110.76 61.403 110.908 62.8568C111.057 64.3335 111.134 65.8392 111.134 67.3304C111.134 68.8216 111.057 70.3274 110.908 71.8041C110.76 73.2538 110.536 74.7159 110.243 76.1448Z" fill="#830016" fill-opacity="0.3"/>
<path d="M71.8496 23.2462C68.863 22.943 65.7892 22.943 62.8027 23.2462C61.3301 23.3958 59.8514 23.6221 58.4079 23.9191C56.9811 24.212 55.5522 24.5796 54.1648 25.0137C52.7899 25.4415 51.4213 25.9441 50.0962 26.5049C48.7836 27.0615 47.4793 27.6887 46.2249 28.3741C44.9787 29.0532 43.7492 29.8009 42.5716 30.5964C41.3981 31.3898 40.2517 32.2475 39.1593 33.1489C39.0533 33.2361 39.0367 33.394 39.126 33.502C39.2133 33.6079 39.3711 33.6224 39.4791 33.5352C40.5591 32.6442 41.6931 31.7948 42.852 31.0118C44.015 30.2246 45.2321 29.4852 46.4637 28.8144C47.7057 28.1394 48.9934 27.5184 50.2914 26.968C51.6019 26.4135 52.954 25.9171 54.3144 25.4934C55.6872 25.0656 57.0974 24.7021 58.5097 24.4134C59.9386 24.1206 61.3987 23.8963 62.8546 23.7488C65.8079 23.4477 68.8464 23.4477 71.7998 23.7488C73.2557 23.8963 74.7178 24.1206 76.1446 24.4134C77.5549 24.7021 78.9671 25.0677 80.34 25.4934C81.7003 25.9171 83.0524 26.4135 84.3629 26.968C85.661 27.5184 86.9487 28.1394 88.1906 28.8144C89.4243 29.4852 90.6393 30.2246 91.8024 31.0118C92.9613 31.7968 94.0973 32.6442 95.1752 33.5352C96.2511 34.4241 97.2999 35.3753 98.2885 36.3639C99.2771 37.3525 100.228 38.3993 101.117 39.4772C102.008 40.5551 102.858 41.6912 103.641 42.8501C104.428 44.0152 105.167 45.2302 105.838 46.4618C105.884 46.5449 105.969 46.5927 106.058 46.5927C106.098 46.5927 106.139 46.5823 106.177 46.5615C106.299 46.4951 106.343 46.3435 106.276 46.223C105.599 44.9769 104.852 43.7473 104.054 42.5697C103.261 41.3963 102.401 40.2477 101.501 39.1574C100.602 38.0691 99.6406 37.0099 98.6395 36.0088C97.6384 35.0077 96.5792 34.0461 95.4909 33.1468C94.4006 32.2454 93.252 31.3877 92.0786 30.5943C90.901 29.7988 89.6715 29.0512 88.4253 28.372C87.1688 27.6887 85.8666 27.0594 84.554 26.5028C83.2289 25.942 81.8603 25.4394 80.4854 25.0116C79.098 24.5796 77.6691 24.2099 76.2423 23.9171C74.8009 23.6242 73.3221 23.3978 71.8496 23.2462Z" fill="#830016" fill-opacity="0.3"/>
<path d="M28.8141 46.4619C28.8806 46.3414 28.8349 46.1877 28.7144 46.1234C28.5919 46.0569 28.4403 46.1026 28.3738 46.2231C27.6905 47.4796 27.0612 48.7839 26.5067 50.0965C25.9459 51.4215 25.4433 52.7902 25.0155 54.1651C24.5814 55.5546 24.2138 56.9835 23.9209 58.4082C23.6239 59.8538 23.3976 61.3325 23.248 62.803C23.0964 64.2963 23.0196 65.8186 23.0196 67.3265C23.0196 68.8343 23.0964 70.3567 23.248 71.85C23.2605 71.9787 23.3706 72.0743 23.4972 72.0743C23.5056 72.0743 23.5139 72.0743 23.5222 72.0722C23.6592 72.0576 23.7589 71.9351 23.7465 71.798C23.5969 70.3214 23.5201 68.8156 23.5201 67.3244C23.5201 65.8332 23.5969 64.3274 23.7465 62.8507C23.8939 61.3969 24.1182 59.9348 24.4111 58.5059C24.6998 57.0977 25.0632 55.6854 25.4931 54.3105C25.9168 52.9522 26.4132 51.5981 26.9677 50.2876C27.516 48.9936 28.137 47.706 28.8141 46.4619Z" fill="#830016" fill-opacity="0.3"/>
<path d="M30.5959 92.0826C31.3893 93.256 32.2492 94.4046 33.1485 95.4949C34.0477 96.5832 35.0094 97.6424 36.0104 98.6435C37.0094 99.6446 38.0707 100.606 39.159 101.505C40.2494 102.407 41.3979 103.265 42.5713 104.058C43.7489 104.853 44.9785 105.601 46.2246 106.28C47.4811 106.964 48.7833 107.593 50.0959 108.149C50.1271 108.164 50.1603 108.17 50.1935 108.17C50.2912 108.17 50.3825 108.112 50.4241 108.017C50.4781 107.89 50.4179 107.742 50.2912 107.688C48.9931 107.138 47.7054 106.517 46.4634 105.842C45.2298 105.171 44.0148 104.432 42.8517 103.645C41.6928 102.86 40.5567 102.012 39.4788 101.119C38.403 100.23 37.3542 99.279 36.3656 98.2904C35.377 97.3018 34.4257 96.2551 33.5368 95.1772C32.6458 94.0993 31.7964 92.9632 31.0134 91.8043C30.2263 90.6391 29.4869 89.4241 28.816 88.1925C28.7496 88.0721 28.598 88.0264 28.4754 88.0928C28.3529 88.1593 28.3093 88.3109 28.3757 88.4314C29.0507 89.6754 29.7984 90.905 30.5959 92.0826Z" fill="#830016" fill-opacity="0.3"/>
<path d="M58.4084 110.733C59.8518 111.03 61.3306 111.257 62.8031 111.406C64.2964 111.558 65.8188 111.635 67.3266 111.635C67.4657 111.635 67.5779 111.523 67.5779 111.384C67.5779 111.244 67.4657 111.132 67.3266 111.132C65.8354 111.132 64.3296 111.055 62.8529 110.906C61.397 110.758 59.9349 110.534 58.5081 110.241C58.3731 110.214 58.2402 110.301 58.2132 110.436C58.1862 110.574 58.2734 110.706 58.4084 110.733Z" fill="#830016" fill-opacity="0.3"/>
<path d="M75.3551 106.652C75.3717 106.652 75.3883 106.65 75.4049 106.648C76.6967 106.382 77.9906 106.05 79.2492 105.658C80.4933 105.269 81.7332 104.814 82.9357 104.306C84.1258 103.801 85.3055 103.232 86.4436 102.613C87.5734 101.998 88.6867 101.321 89.7521 100.6C90.8155 99.8818 91.8539 99.1029 92.8425 98.2888C93.8291 97.4746 94.7865 96.6023 95.6941 95.6968C95.7917 95.5992 95.7917 95.4413 95.6941 95.3437C95.5965 95.2461 95.4386 95.2461 95.341 95.3437C94.4459 96.2389 93.4988 97.1008 92.5248 97.9045C91.5486 98.7104 90.5226 99.4788 89.4717 100.189C88.4187 100.902 87.3201 101.57 86.2027 102.177C85.0791 102.787 83.9139 103.35 82.7384 103.849C81.5525 104.351 80.3271 104.8 79.0976 105.184C77.8556 105.57 76.5783 105.901 75.3031 106.162C75.1681 106.189 75.0809 106.322 75.1079 106.457C75.1328 106.569 75.2367 106.652 75.3551 106.652Z" fill="#830016" fill-opacity="0.3"/>
<path d="M105.655 79.2497C106.048 77.9911 106.38 76.6972 106.646 75.4053C106.914 74.0948 107.119 72.7552 107.254 71.4239C107.391 70.0739 107.462 68.6949 107.462 67.3262C107.462 65.9575 107.391 64.5784 107.254 63.2284C107.119 61.8972 106.914 60.5576 106.646 59.247C106.38 57.9552 106.048 56.6613 105.655 55.4027C105.267 54.1586 104.812 52.9187 104.303 51.7162C103.798 50.524 103.229 49.3444 102.61 48.2083C101.996 47.0805 101.319 45.9673 100.598 44.8998C100.521 44.7856 100.365 44.7544 100.251 44.8333C100.137 44.9102 100.106 45.0659 100.185 45.1802C100.897 46.2352 101.566 47.3339 102.172 48.4492C102.783 49.5707 103.346 50.7359 103.844 51.9135C104.347 53.0994 104.795 54.3248 105.18 55.5522C105.566 56.7942 105.896 58.0715 106.158 59.3467C106.424 60.6406 106.625 61.9636 106.76 63.2783C106.895 64.6117 106.966 65.9741 106.966 67.3262C106.966 68.6782 106.897 70.0386 106.76 71.3741C106.625 72.6887 106.424 74.0117 106.158 75.3056C105.896 76.5809 105.566 77.8582 105.18 79.1001C104.797 80.3297 104.347 81.553 103.844 82.7389C103.346 83.9144 102.783 85.0795 102.172 86.2031C101.566 87.3184 100.897 88.4171 100.185 89.4722C100.108 89.5864 100.137 89.7422 100.251 89.819C100.295 89.8481 100.342 89.8626 100.39 89.8626C100.471 89.8626 100.55 89.8232 100.598 89.7526C101.319 88.685 101.998 87.5718 102.61 86.4441C103.229 85.308 103.798 84.1283 104.303 82.9362C104.814 81.7337 105.267 80.4937 105.655 79.2497Z" fill="#830016" fill-opacity="0.3"/>
<path d="M59.349 28.4966C60.6408 28.2308 61.9638 28.0293 63.2806 27.8943C65.9515 27.6223 68.7034 27.6223 71.3743 27.8943C72.691 28.0293 74.014 28.2308 75.3058 28.4966C76.581 28.7583 77.8583 29.0865 79.1003 29.4749C80.3298 29.857 81.5531 30.3077 82.7411 30.8103C83.9166 31.3088 85.0818 31.8716 86.2054 32.4822C87.3207 33.0887 88.4214 33.7574 89.4744 34.4698C90.5233 35.1801 91.5513 35.9486 92.5275 36.7544C93.5015 37.5582 94.4486 38.4201 95.3437 39.3152C95.3936 39.3651 95.4559 39.3879 95.5203 39.3879C95.5847 39.3879 95.649 39.363 95.6968 39.3152C95.7944 39.2176 95.7944 39.0598 95.6968 38.9622C94.7913 38.0566 93.8318 37.1843 92.8452 36.3702C91.8566 35.554 90.8182 34.7772 89.7548 34.0565C88.6894 33.3358 87.5761 32.6588 86.4463 32.044C85.3102 31.4251 84.1285 30.856 82.9384 30.3513C81.7359 29.8425 80.496 29.3876 79.2519 28.9993C77.9933 28.6067 76.6994 28.2744 75.4076 28.0086C74.0991 27.7407 72.7595 27.535 71.4262 27.4C68.72 27.1238 65.9349 27.1238 63.2307 27.4C61.8974 27.535 60.5578 27.7407 59.2493 28.0086C59.1143 28.0356 59.0271 28.1685 59.0541 28.3035C59.0811 28.4385 59.214 28.5257 59.349 28.4966Z" fill="#830016" fill-opacity="0.3"/>
<path d="M51.7179 30.3492C50.5278 30.8539 49.3481 31.423 48.21 32.0419C47.0802 32.6567 45.967 33.3337 44.9015 34.0544C43.8381 34.773 42.7997 35.5519 41.8111 36.366C40.8246 37.1802 39.8671 38.0525 38.9595 38.958C38.8619 39.0556 38.8619 39.2135 38.9595 39.3111C39.0093 39.3609 39.0717 39.3838 39.136 39.3838C39.2004 39.3838 39.2648 39.3588 39.3126 39.3111C40.2077 38.4159 41.1548 37.554 42.1288 36.7503C43.105 35.9444 44.131 35.176 45.1819 34.4657C46.2349 33.7533 47.3336 33.0845 48.4509 32.4781C49.5745 31.8675 50.7397 31.3046 51.9152 30.8062C52.0419 30.7522 52.1021 30.6047 52.0481 30.478C51.992 30.3555 51.8446 30.2952 51.7179 30.3492Z" fill="#830016" fill-opacity="0.3"/>
<path d="M34.4695 45.1827C34.5463 45.0684 34.5172 44.9127 34.403 44.8358C34.2888 44.759 34.133 44.7881 34.0562 44.9023C33.3355 45.9698 32.6563 47.083 32.0436 48.2108C31.4247 49.3469 30.8557 50.5265 30.351 51.7187C30.297 51.8454 30.3572 51.9928 30.4839 52.0468C30.515 52.0614 30.5483 52.0676 30.5815 52.0676C30.6791 52.0676 30.7705 52.0094 30.812 51.9139C31.3105 50.7384 31.8733 49.5732 32.4839 48.4496C33.0862 47.3364 33.7571 46.2357 34.4695 45.1827Z" fill="#830016" fill-opacity="0.3"/>
<path d="M28.0061 75.4054C28.2719 76.6973 28.6042 77.9912 28.9967 79.2498C29.3851 80.4938 29.84 81.7338 30.3488 82.9363C30.3883 83.0318 30.4817 83.09 30.5793 83.09C30.6126 83.09 30.6458 83.0837 30.677 83.0692C30.8036 83.0152 30.8639 82.8677 30.8099 82.7411C30.3073 81.5551 29.8587 80.3298 29.4744 79.1023C29.0881 77.8603 28.7579 76.583 28.4962 75.3078C28.2304 74.0139 28.0289 72.6909 27.8939 71.3762C27.7589 70.0429 27.6883 68.6804 27.6883 67.3284C27.6883 65.9763 27.7568 64.6159 27.8939 63.2805C28.0289 61.9658 28.2304 60.6428 28.4962 59.3489C28.5232 59.2139 28.436 59.081 28.301 59.054C28.166 59.027 28.0331 59.1142 28.0061 59.2492C27.7381 60.5597 27.5325 61.8993 27.3975 63.2306C27.2605 64.5806 27.1898 65.9597 27.1898 67.3284C27.1898 68.697 27.2605 70.0761 27.3975 71.4261C27.5325 72.7553 27.7381 74.0949 28.0061 75.4054Z" fill="#830016" fill-opacity="0.3"/>
<path d="M36.3658 92.8433C37.1799 93.8299 38.0522 94.7894 38.9578 95.6949C39.0076 95.7448 39.0699 95.7676 39.1343 95.7676C39.1987 95.7676 39.2631 95.7427 39.3108 95.6949C39.4085 95.5973 39.4085 95.4395 39.3108 95.3419C38.4157 94.4467 37.5559 93.4996 36.75 92.5256C35.9421 91.5474 35.1737 90.5214 34.4654 89.4725C34.3886 89.3583 34.2328 89.3272 34.1186 89.4061C34.0044 89.4829 33.9732 89.6387 34.0521 89.7529C34.7707 90.8142 35.5496 91.8527 36.3658 92.8433Z" fill="#830016" fill-opacity="0.3"/>
<path d="M55.4051 105.656C55.4301 105.664 55.455 105.666 55.4799 105.666C55.5858 105.666 55.6855 105.598 55.7187 105.49C55.7603 105.357 55.6855 105.217 55.5547 105.176C54.3251 104.794 53.1019 104.343 51.9139 103.84C50.7383 103.342 49.5732 102.779 48.4496 102.169C47.3343 101.562 46.2336 100.893 45.1806 100.181C45.0663 100.102 44.9106 100.133 44.8337 100.247C44.7569 100.362 44.786 100.517 44.9002 100.594C45.9656 101.315 47.0789 101.992 48.2087 102.607C49.3447 103.226 50.5265 103.795 51.7166 104.299C52.9191 104.812 54.1611 105.267 55.4051 105.656Z" fill="#830016" fill-opacity="0.3"/>
<path d="M67.3261 106.963C65.9761 106.963 64.6157 106.894 63.2782 106.757C63.1391 106.744 63.0186 106.842 63.0041 106.981C62.9895 107.118 63.0892 107.241 63.2284 107.255C64.5804 107.392 65.9595 107.463 67.3261 107.463C67.4652 107.463 67.5774 107.351 67.5774 107.212C67.5774 107.075 67.4652 106.963 67.3261 106.963Z" fill="#830016" fill-opacity="0.3"/>
<path d="M70.9902 103.273C70.9985 103.273 71.0068 103.273 71.0151 103.271C72.2156 103.149 73.4202 102.964 74.5978 102.723C74.7328 102.696 74.82 102.563 74.793 102.428C74.766 102.293 74.6331 102.206 74.4981 102.233C73.3371 102.472 72.147 102.652 70.9632 102.773C70.8261 102.787 70.7264 102.91 70.7389 103.047C70.7534 103.176 70.8635 103.273 70.9902 103.273Z" fill="#830016" fill-opacity="0.3"/>
<path d="M89.976 94.8097C89.0954 95.5366 88.1733 96.2261 87.2324 96.8637C86.2854 97.5034 85.2968 98.1057 84.2936 98.6499C83.2843 99.1982 82.2354 99.7049 81.1804 100.151C81.0537 100.205 80.9934 100.353 81.0474 100.48C81.0869 100.575 81.1804 100.633 81.278 100.633C81.3112 100.633 81.3444 100.627 81.3756 100.613C82.4473 100.158 83.5086 99.6468 84.5325 99.0902C85.5481 98.5377 86.5512 97.9271 87.5107 97.2791C88.464 96.6332 89.4007 95.9333 90.2938 95.1981C90.3997 95.1108 90.4163 94.953 90.327 94.845C90.2419 94.737 90.0819 94.7224 89.976 94.8097Z" fill="#830016" fill-opacity="0.3"/>
<path d="M95.0024 90.3882C95.0751 90.3882 95.1457 90.357 95.1955 90.2968C95.9308 89.4058 96.6307 88.4691 97.2766 87.5137C97.3534 87.3995 97.3244 87.2437 97.2101 87.1669C97.0959 87.09 96.9401 87.1191 96.8633 87.2333C96.2257 88.1763 95.5362 89.0984 94.8113 89.9769C94.7241 90.0829 94.7386 90.2407 94.8445 90.33C94.8902 90.3695 94.9463 90.3882 95.0024 90.3882Z" fill="#830016" fill-opacity="0.3"/>
<path d="M101.352 77.9105C101.008 79.0154 100.605 80.1162 100.152 81.1816C100.098 81.3083 100.158 81.4558 100.285 81.5098C100.316 81.5243 100.349 81.5306 100.382 81.5306C100.48 81.5306 100.574 81.4724 100.613 81.3769C101.072 80.2948 101.481 79.1795 101.83 78.058C102.183 76.924 102.484 75.7588 102.721 74.5979C102.962 73.4203 103.147 72.2136 103.269 71.0131C103.394 69.7961 103.456 68.5541 103.456 67.3245C103.456 67.1854 103.344 67.0732 103.205 67.0732C103.066 67.0732 102.954 67.1854 102.954 67.3245C102.954 68.5375 102.891 69.7608 102.769 70.9633C102.648 72.1471 102.466 73.3351 102.229 74.4982C101.998 75.6446 101.701 76.7931 101.352 77.9105Z" fill="#830016" fill-opacity="0.3"/>
<path d="M53.2754 34.0394C52.2037 34.4942 51.1424 35.0051 50.1185 35.5617C49.9981 35.6282 49.9524 35.7798 50.0188 35.9003C50.0853 36.0207 50.2369 36.0664 50.3595 36C51.3688 35.4516 52.4177 34.9449 53.4727 34.4984C54.5402 34.0456 55.641 33.6427 56.7438 33.2979C57.8591 32.949 59.0077 32.6541 60.1562 32.4194C61.3192 32.1805 62.5072 31.9998 63.6911 31.8794C66.092 31.6343 68.5655 31.6343 70.9664 31.8794C72.1503 31.9998 73.3382 32.1826 74.5013 32.4194C75.6498 32.6541 76.7963 32.9511 77.9137 33.2979C79.0186 33.6427 80.1193 34.0456 81.1848 34.4984C82.2419 34.947 83.2887 35.4516 84.298 36C85.3012 36.5462 86.2898 37.1464 87.2368 37.7861C88.1777 38.4216 89.1019 39.1132 89.9804 39.8381C90.8569 40.5608 91.7084 41.3355 92.5122 42.1393C93.3159 42.943 94.0885 43.7946 94.8134 44.671C95.5382 45.5495 96.2298 46.4717 96.8653 47.4146C97.505 48.3617 98.1073 49.3503 98.6515 50.3534C99.1998 51.3607 99.7065 52.4096 100.155 53.4667C100.608 54.5342 101.011 55.635 101.356 56.7378C101.705 57.8552 101.999 59.0037 102.234 60.1502C102.259 60.2686 102.363 60.3496 102.479 60.3496C102.496 60.3496 102.512 60.3475 102.529 60.3454C102.664 60.3184 102.751 60.1855 102.724 60.0505C102.485 58.8895 102.186 57.7244 101.833 56.5904C101.484 55.4709 101.075 54.3535 100.616 53.2715C100.161 52.1977 99.6484 51.1364 99.0918 50.1146C98.5393 49.0969 97.9287 48.0958 97.2807 47.1363C96.6348 46.1809 95.9349 45.2442 95.1997 44.3533C94.4665 43.4643 93.6794 42.6003 92.8652 41.7862C92.049 40.97 91.1871 40.1849 90.2982 39.4518C89.4051 38.7145 88.4705 38.0145 87.5151 37.3707C86.5556 36.7206 85.5525 36.1121 84.5369 35.5596C83.513 35.003 82.4496 34.49 81.38 34.0373C80.2979 33.5783 79.1806 33.1691 78.0611 32.8202C76.9292 32.4671 75.7641 32.1681 74.601 31.9292C73.4234 31.6883 72.2167 31.5035 71.0184 31.3809C68.5822 31.1338 66.0753 31.1338 63.6412 31.3809C62.4408 31.5035 61.2362 31.6883 60.0586 31.9292C58.8934 32.1681 57.7304 32.4671 56.5985 32.8202C55.4728 33.1712 54.3575 33.5804 53.2754 34.0394Z" fill="#830016" fill-opacity="0.3"/>
<path d="M37.442 47.4875C37.4856 47.5166 37.5333 47.5311 37.5811 47.5311C37.6621 47.5311 37.741 47.4916 37.7888 47.421C38.4264 46.4781 39.1159 45.556 39.8408 44.6774C40.5656 43.801 41.3382 42.9494 42.142 42.1457C42.9457 41.3419 43.7973 40.5672 44.6737 39.8445C44.7796 39.7572 44.7962 39.5994 44.7069 39.4914C44.6176 39.3855 44.4598 39.3689 44.3539 39.4582C43.465 40.1913 42.603 40.9764 41.7868 41.7905C40.9727 42.6047 40.1876 43.4687 39.4524 44.3576C38.7172 45.2486 38.0173 46.1853 37.3713 47.1406C37.2966 47.2528 37.3277 47.4086 37.442 47.4875Z" fill="#830016" fill-opacity="0.3"/>
<path d="M31.9289 74.6C32.1677 75.761 32.4668 76.9261 32.8198 78.0601C33.1688 79.1795 33.5779 80.2969 34.0369 81.379C34.0764 81.4745 34.1698 81.5327 34.2674 81.5327C34.3007 81.5327 34.3339 81.5264 34.3651 81.5119C34.4917 81.4579 34.552 81.3104 34.498 81.1837C34.0452 80.1162 33.6423 79.0155 33.2975 77.9126C32.9486 76.7953 32.6537 75.6467 32.419 74.5003C32.1802 73.3393 31.9995 72.1492 31.879 70.9675C31.7565 69.767 31.6942 68.5416 31.6942 67.3287C31.6942 66.1158 31.7565 64.8925 31.879 63.69C31.9995 62.5062 32.1822 61.3182 32.419 60.1572C32.6537 59.0107 32.9507 57.8643 33.2975 56.7448C33.6423 55.6399 34.0452 54.5392 34.498 53.4737C34.552 53.347 34.4917 53.1996 34.3651 53.1456C34.2384 53.0916 34.0909 53.1518 34.0369 53.2785C33.5779 54.3605 33.1688 55.4758 32.8198 56.5974C32.4668 57.7314 32.1656 58.8965 31.9289 60.0575C31.6879 61.2351 31.5031 62.4418 31.3806 63.6422C31.2559 64.8593 31.1936 66.1013 31.1936 67.3308C31.1936 68.5603 31.2559 69.8023 31.3806 71.0194C31.5031 72.2157 31.6879 73.4224 31.9289 74.6Z" fill="#830016" fill-opacity="0.3"/>
<path d="M41.7911 92.8638C42.6073 93.68 43.4692 94.465 44.3581 95.1982C45.2512 95.9355 46.1858 96.6354 47.1412 97.2793C47.1848 97.3083 47.2326 97.3229 47.2803 97.3229C47.3613 97.3229 47.4403 97.2834 47.488 97.2128C47.5649 97.0986 47.5358 96.9428 47.4216 96.866C46.4807 96.2304 45.5565 95.5388 44.678 94.814C43.8015 94.0912 42.95 93.3165 42.1463 92.5128C41.3425 91.709 40.5699 90.8575 39.845 89.981C39.1202 89.1025 38.4286 88.1803 37.7931 87.2374C37.7162 87.1232 37.5605 87.092 37.4462 87.171C37.332 87.2478 37.3009 87.4036 37.3798 87.5178C38.0257 88.4732 38.7256 89.4099 39.4608 90.3009C40.1898 91.1856 40.9749 92.0496 41.7911 92.8638Z" fill="#830016" fill-opacity="0.3"/>
<path d="M60.0544 102.723C61.232 102.964 62.4387 103.149 63.637 103.271C63.6453 103.271 63.6537 103.273 63.662 103.273C63.7887 103.273 63.8967 103.178 63.9112 103.049C63.9257 102.912 63.826 102.789 63.6869 102.775C62.5031 102.654 61.3151 102.472 60.152 102.235C59.0035 102 57.857 101.703 56.7397 101.356C55.6348 101.011 54.534 100.609 53.4686 100.156C53.3419 100.102 53.1944 100.162 53.1404 100.289C53.0864 100.415 53.1466 100.563 53.2733 100.617C54.3554 101.076 55.4728 101.485 56.5922 101.834C57.7262 102.183 58.8893 102.484 60.0544 102.723Z" fill="#830016" fill-opacity="0.3"/>
<path d="M79.8852 97.078C80.8405 96.673 81.7897 96.214 82.7077 95.7155C83.6153 95.2212 84.5104 94.6771 85.3703 94.0955C86.2239 93.5182 87.0609 92.8909 87.8563 92.2346C88.6497 91.5783 89.4223 90.8763 90.1513 90.1494C90.2489 90.0518 90.2489 89.894 90.1513 89.7964C90.0537 89.6987 89.8958 89.6987 89.7982 89.7964C89.0817 90.5129 88.3215 91.2045 87.5385 91.8504C86.7556 92.4963 85.931 93.1132 85.0899 93.6822C84.2425 94.2534 83.3619 94.7913 82.4688 95.2773C81.5675 95.7674 80.6329 96.2181 79.6899 96.6169C78.7387 97.0198 77.7564 97.3791 76.7698 97.6865C75.775 97.996 74.749 98.2618 73.7251 98.4716C73.5901 98.4986 73.5029 98.6315 73.5299 98.7665C73.5548 98.8849 73.6586 98.9659 73.7749 98.9659C73.7916 98.9659 73.8082 98.9638 73.8248 98.9617C74.8653 98.7478 75.9058 98.4799 76.9173 98.1642C77.9204 97.8527 78.9194 97.4871 79.8852 97.078Z" fill="#830016" fill-opacity="0.3"/>
<path d="M98.9618 73.8268C99.1778 72.7738 99.3419 71.698 99.452 70.6242C99.5621 69.5359 99.6181 68.4268 99.6181 67.3281C99.6181 66.2274 99.5621 65.1183 99.452 64.0321C99.3419 62.9583 99.1778 61.8804 98.9618 60.8295C98.7479 59.789 98.48 58.7485 98.1643 57.737C97.8528 56.7359 97.4872 55.737 97.076 54.7712C96.6689 53.8117 96.212 52.8625 95.7136 51.9487C95.2193 51.0411 94.6751 50.1439 94.0936 49.2861C93.5162 48.4325 92.8911 47.5955 92.2327 46.8C91.5764 46.0067 90.8744 45.2341 90.1475 44.5051C89.4185 43.7761 88.648 43.0741 87.8525 42.4199C87.0571 41.7636 86.2201 41.1363 85.3665 40.559C84.5066 39.9774 83.6115 39.4333 82.7039 38.939C81.788 38.4405 80.8388 37.9815 79.8814 37.5765C78.9156 37.1674 77.9166 36.8018 76.9156 36.4882C75.9041 36.1725 74.8636 35.9046 73.8231 35.6907C73.6881 35.6637 73.5552 35.7509 73.5282 35.8859C73.5012 36.0209 73.5884 36.1538 73.7234 36.1808C74.7473 36.3906 75.7712 36.6544 76.7681 36.9659C77.7546 37.2733 78.737 37.6326 79.6882 38.0355C80.6291 38.4343 81.5637 38.885 82.4671 39.3751C83.3602 39.8611 84.2429 40.397 85.0882 40.9702C85.9293 41.5392 86.7538 42.1561 87.5368 42.802C88.3198 43.4479 89.0779 44.1375 89.7965 44.8561C90.513 45.5726 91.2046 46.3327 91.8505 47.1157C92.4985 47.9008 93.1133 48.7233 93.6824 49.5644C94.2535 50.4097 94.7893 51.2903 95.2774 52.1855C95.7676 53.0847 96.2183 54.0194 96.6191 54.9644C97.022 55.9156 97.3813 56.8979 97.6887 57.8845C97.9982 58.8793 98.264 59.9053 98.4738 60.9292C98.6856 61.9656 98.8476 63.0248 98.9556 64.0819C99.0636 65.1536 99.1197 66.244 99.1197 67.3281C99.1197 68.4102 99.0636 69.5027 98.9556 70.5743C98.8476 71.6315 98.6856 72.6928 98.4738 73.7271C98.264 74.751 98.0002 75.7749 97.6887 76.7718C97.3813 77.7584 97.022 78.7407 96.6191 79.6919C96.2183 80.6349 95.7676 81.5715 95.2774 82.4708C95.211 82.5913 95.2567 82.745 95.3771 82.8094C95.4145 82.8301 95.456 82.8405 95.4955 82.8405C95.5848 82.8405 95.67 82.7928 95.7156 82.7097C96.212 81.7958 96.671 80.8467 97.0781 79.8872C97.4872 78.9214 97.8528 77.9224 98.1664 76.9214C98.48 75.9078 98.7479 74.8673 98.9618 73.8268Z" fill="#830016" fill-opacity="0.3"/>
<path d="M64.0798 35.6992C65.1515 35.5891 66.2439 35.5351 67.326 35.5351C67.4651 35.5351 67.5773 35.4229 67.5773 35.2838C67.5773 35.1446 67.4651 35.0325 67.326 35.0325C66.2273 35.0325 65.1183 35.0885 64.03 35.1986C63.8929 35.2132 63.7932 35.3357 63.8056 35.4728C63.8181 35.6015 63.9282 35.6971 64.0549 35.6971C64.0632 35.6992 64.0715 35.6992 64.0798 35.6992Z" fill="#830016" fill-opacity="0.3"/>
<path d="M52.0654 39.4064C52.1048 39.4064 52.1464 39.396 52.1838 39.3752C53.0851 38.885 54.0218 38.4344 54.9626 38.0356C55.9139 37.6327 56.8962 37.2734 57.8828 36.966C58.0136 36.9245 58.0884 36.7853 58.0468 36.6524C58.0053 36.5215 57.8682 36.4468 57.7332 36.4883C56.7322 36.7998 55.7332 37.1675 54.7674 37.5766C53.812 37.9816 52.8629 38.4406 51.9449 38.939C51.8224 39.0055 51.7788 39.1571 51.8452 39.2776C51.8909 39.3607 51.9781 39.4064 52.0654 39.4064Z" fill="#830016" fill-opacity="0.3"/>
<path d="M42.8012 47.1157C43.4471 46.3327 44.1387 45.5747 44.8553 44.8561C45.5718 44.1395 46.3319 43.4479 47.1149 42.802C47.2209 42.7148 47.2375 42.5569 47.1482 42.4489C47.0589 42.343 46.901 42.3264 46.7951 42.4157C46.0017 43.072 45.2291 43.774 44.5001 44.5009C43.7711 45.2299 43.0712 46.0004 42.4149 46.7959C41.7565 47.5934 41.1314 48.4283 40.554 49.2819C39.9725 50.1397 39.4283 51.0369 38.934 51.9445C38.8676 52.065 38.9133 52.2187 39.0337 52.2831C39.0711 52.3038 39.1126 52.3142 39.1521 52.3142C39.2414 52.3142 39.3266 52.2664 39.3723 52.1834C39.8583 51.2882 40.3941 50.4076 40.9673 49.5623C41.5385 48.7232 42.1553 47.9008 42.8012 47.1157Z" fill="#830016" fill-opacity="0.3"/>
<path d="M36.1815 60.927C36.3912 59.9031 36.655 58.8792 36.9665 57.8822C37.0081 57.7493 36.9333 57.6102 36.8024 57.5686C36.6695 57.5271 36.5304 57.6019 36.4888 57.7327C36.1731 58.7442 35.9052 59.7847 35.6913 60.8252C35.4753 61.8782 35.3112 62.954 35.2012 64.0278C35.0911 65.1161 35.035 66.2252 35.035 67.3238C35.035 68.4246 35.0911 69.5337 35.2012 70.6199C35.3112 71.6936 35.4753 72.7716 35.6913 73.8225C35.9052 74.863 36.1731 75.9035 36.4888 76.915C36.8004 77.916 37.1659 78.915 37.5771 79.8808C37.9842 80.8403 38.4411 81.7895 38.9396 82.7033C39.4339 83.6109 39.978 84.5081 40.5596 85.3659C41.1369 86.2195 41.7621 87.0565 42.4205 87.8519C43.0768 88.6453 43.7787 89.4179 44.5057 90.1469C45.2346 90.8759 46.0052 91.5779 46.8006 92.2321C47.5961 92.8884 48.4331 93.5157 49.2867 94.093C49.3303 94.1221 49.3781 94.1366 49.4258 94.1366C49.5068 94.1366 49.5857 94.0972 49.6335 94.0266C49.7104 93.9123 49.6813 93.7566 49.5671 93.6797C48.7259 93.1107 47.9014 92.4938 47.1184 91.8479C46.3354 91.202 45.5773 90.5124 44.8587 89.7938C44.1422 89.0773 43.4506 88.3172 42.8047 87.5342C42.1567 86.7491 41.5419 85.9267 40.9729 85.0855C40.4017 84.2402 39.8659 83.3596 39.3778 82.4645C38.8876 81.5652 38.437 80.6306 38.0361 79.6856C37.6332 78.7343 37.2739 77.752 36.9665 76.7654C36.6571 75.7706 36.3912 74.7446 36.1815 73.7207C35.9696 72.6843 35.8076 71.6251 35.6996 70.568C35.5916 69.4963 35.5355 68.4059 35.5355 67.3218C35.5355 66.2397 35.5916 65.1472 35.6996 64.0756C35.8076 63.0226 35.9696 61.9634 36.1815 60.927Z" fill="#830016" fill-opacity="0.3"/>
<path d="M57.735 98.1661C58.7464 98.4818 59.787 98.7497 60.8275 98.9636C61.8826 99.1796 62.9605 99.3437 64.0301 99.4538C64.0384 99.4538 64.0467 99.4559 64.055 99.4559C64.1817 99.4559 64.2897 99.3603 64.3042 99.2316C64.3187 99.0945 64.2191 98.972 64.0799 98.9574C63.0248 98.8494 61.9656 98.6874 60.9272 98.4756C59.9033 98.2658 58.8794 98.002 57.8824 97.6905C56.8959 97.3831 55.9135 97.0238 54.9623 96.6209C54.8356 96.5669 54.6882 96.6271 54.6342 96.7538C54.5802 96.8805 54.6404 97.028 54.7671 97.082C55.7349 97.487 56.7318 97.8525 57.735 98.1661Z" fill="#830016" fill-opacity="0.3"/>
<path d="M70.472 95.5267C70.4575 95.3896 70.337 95.2899 70.1979 95.3024C68.3017 95.4955 66.3515 95.4955 64.4553 95.3024C63.5227 95.2068 62.584 95.0635 61.666 94.8745C60.7605 94.6897 59.855 94.455 58.9743 94.1808C58.1021 93.9088 57.2339 93.591 56.3928 93.2338C55.5578 92.8807 54.7312 92.4819 53.9358 92.0479C53.1445 91.618 52.3636 91.1423 51.618 90.6376C50.8765 90.1371 50.1475 89.5909 49.4518 89.0177C48.7602 88.4465 48.0872 87.8338 47.4538 87.2004C46.8183 86.5648 46.2077 85.894 45.6386 85.2024C45.0674 84.5108 44.5212 83.7818 44.0186 83.0362C43.5118 82.2864 43.0383 81.5055 42.6084 80.7184C42.1743 79.9208 41.7756 79.0942 41.4225 78.2614C41.3685 78.1347 41.221 78.0745 41.0943 78.1285C40.9676 78.1825 40.9074 78.3299 40.9614 78.4566C41.3207 79.304 41.7257 80.1472 42.1681 80.9572C42.6042 81.761 43.0882 82.5543 43.6032 83.3166C44.1162 84.0746 44.6708 84.8161 45.2523 85.5202C45.8317 86.2242 46.4548 86.9075 47.1007 87.5534C47.7446 88.1973 48.4299 88.8204 49.134 89.4019C49.8422 89.9855 50.5837 90.54 51.3376 91.051C52.0977 91.566 52.8932 92.0479 53.697 92.4861C54.5069 92.9264 55.3502 93.3335 56.1975 93.6928C57.0532 94.0562 57.938 94.3802 58.8269 94.6565C59.7241 94.9368 60.6462 95.1736 61.5684 95.3626C62.5009 95.5537 63.4563 95.7011 64.4075 95.7967C65.3733 95.8943 66.3556 95.9441 67.3297 95.9441C68.3038 95.9441 69.2861 95.8943 70.2519 95.7967C70.3848 95.7863 70.4866 95.6638 70.472 95.5267Z" fill="#830016" fill-opacity="0.3"/>
<path d="M92.4882 80.9591C92.9306 80.1471 93.3356 79.3059 93.6949 78.4585C94.0583 77.6029 94.3823 76.7181 94.6585 75.8292C94.9389 74.9299 95.1757 74.0077 95.3647 73.0877C95.3938 72.9527 95.3045 72.8197 95.1695 72.7927C95.0345 72.7657 94.9015 72.853 94.8745 72.988C94.6897 73.8914 94.455 74.797 94.1809 75.6796C93.9088 76.5519 93.591 77.4222 93.2338 78.2612C92.8807 79.0941 92.482 79.9207 92.0479 80.7182C91.618 81.5074 91.1444 82.2863 90.6377 83.036C90.1351 83.7816 89.5888 84.5086 89.0177 85.2022C88.4465 85.8938 87.8359 86.5647 87.2025 87.2002C86.569 87.8337 85.8961 88.4443 85.2045 89.0154C84.5087 89.5887 83.7798 90.1349 83.0383 90.6354C82.2906 91.1401 81.5097 91.6157 80.7205 92.0456C80.5979 92.1121 80.5543 92.2637 80.6208 92.3842C80.6665 92.4672 80.7516 92.515 80.8409 92.515C80.8804 92.515 80.9219 92.5046 80.9593 92.4839C81.7652 92.0456 82.5585 91.5638 83.3187 91.0487C84.0726 90.5378 84.8161 89.9833 85.5223 89.3997C86.2263 88.8181 86.9117 88.1951 87.5556 87.5512C88.2015 86.9053 88.8245 86.2199 89.404 85.5179C89.9855 84.8139 90.5401 84.0724 91.053 83.3143C91.5681 82.5563 92.052 81.7608 92.4882 80.9591Z" fill="#830016" fill-opacity="0.3"/>
<path d="M94.8762 61.6667C95.0652 62.5847 95.2085 63.5234 95.302 64.456C95.3975 65.4051 95.4474 66.3709 95.4474 67.3283C95.4474 67.4675 95.5595 67.5796 95.6987 67.5796C95.8378 67.5796 95.95 67.4675 95.95 67.3283C95.95 66.3563 95.9001 65.3719 95.8025 64.4061C95.7049 63.457 95.5595 62.5016 95.3684 61.567C95.1795 60.6469 94.9427 59.7248 94.6623 58.8255C94.6208 58.6946 94.4837 58.6199 94.3487 58.6614C94.2178 58.7029 94.1431 58.8421 94.1846 58.975C94.4567 59.8556 94.6893 60.7632 94.8762 61.6667Z" fill="#830016" fill-opacity="0.3"/>
<path d="M92.488 53.6958C92.0519 52.8921 91.568 52.0987 91.0529 51.3365C90.5399 50.5784 89.9854 49.8369 89.4038 49.1329C88.8244 48.4288 88.2013 47.7455 87.5554 47.0996C87.4578 47.002 87.2999 47.002 87.2023 47.0996C87.1047 47.1972 87.1047 47.355 87.2023 47.4527C87.8379 48.0882 88.4485 48.759 89.0175 49.4506C89.5887 50.1422 90.1349 50.8712 90.6375 51.6168C91.1443 52.3666 91.6178 53.1475 92.0477 53.9347C92.0934 54.0177 92.1786 54.0655 92.2679 54.0655C92.3073 54.0655 92.3489 54.0551 92.3863 54.0344C92.5088 53.9679 92.5545 53.8163 92.488 53.6958Z" fill="#830016" fill-opacity="0.3"/>
<path d="M61.3712 39.5831C61.3982 39.7181 61.5312 39.8054 61.6662 39.7784C62.5841 39.5894 63.5229 39.4461 64.4554 39.3505C66.3516 39.1574 68.3018 39.1574 70.198 39.3505C71.1306 39.4461 72.0693 39.5894 72.9873 39.7784C73.8928 39.9632 74.7984 40.1979 75.679 40.4721C76.5513 40.7441 77.4194 41.0619 78.2606 41.4191C79.0955 41.7722 79.9221 42.171 80.7175 42.605C81.5088 43.035 82.2897 43.5106 83.0353 44.0153C83.079 44.0443 83.1267 44.0589 83.1745 44.0589C83.2555 44.0589 83.3344 44.0194 83.3822 43.9488C83.459 43.8346 83.43 43.6788 83.3157 43.602C82.5556 43.0869 81.7601 42.605 80.9564 42.1668C80.1464 41.7265 79.3032 41.3194 78.4558 40.9601C77.6001 40.5967 76.7153 40.2727 75.8264 39.9965C74.9292 39.7161 74.0071 39.4793 73.0849 39.2903C72.1524 39.0992 71.197 38.9518 70.2458 38.8562C68.3164 38.6589 66.3309 38.6589 64.4014 38.8562C63.4523 38.9538 62.4969 39.0992 61.5623 39.2903C61.4294 39.3152 61.3422 39.4481 61.3712 39.5831Z" fill="#830016" fill-opacity="0.3"/>
<path d="M49.13 45.2487C49.0241 45.3359 49.0074 45.4938 49.0968 45.6018C49.1466 45.662 49.2172 45.6932 49.2899 45.6932C49.346 45.6932 49.4021 45.6745 49.4498 45.635C50.1456 45.0618 50.8746 44.5156 51.616 44.015C52.3637 43.5103 53.1446 43.0347 53.9338 42.6048C54.7314 42.1707 55.558 41.772 56.3908 41.4189C56.5175 41.3649 56.5777 41.2174 56.5237 41.0907C56.4697 40.964 56.3223 40.9038 56.1956 40.9578C55.3461 41.3171 54.505 41.7242 53.695 42.1645C52.8892 42.6027 52.0958 43.0846 51.3357 43.5996C50.5797 44.1106 49.8382 44.6651 49.13 45.2487Z" fill="#830016" fill-opacity="0.3"/>
<path d="M41.0905 56.5245C41.1216 56.539 41.1549 56.5452 41.1881 56.5452C41.2857 56.5452 41.3771 56.4871 41.4186 56.3915C41.7717 55.5587 42.1705 54.7321 42.6046 53.9346C42.671 53.8141 42.6253 53.6604 42.5049 53.596C42.3823 53.5296 42.2307 53.5753 42.1642 53.6957C41.7219 54.5078 41.3169 55.3489 40.9576 56.1963C40.9036 56.323 40.9638 56.4705 41.0905 56.5245Z" fill="#830016" fill-opacity="0.3"/>
<path d="M39.7788 61.6668C39.8058 61.5318 39.7186 61.3988 39.5836 61.3718C39.4486 61.3448 39.3157 61.4321 39.2887 61.5671C39.0976 62.5017 38.9502 63.4571 38.8546 64.4062C38.757 65.372 38.7072 66.3543 38.7072 67.3284C38.7072 68.3004 38.757 69.2848 38.8546 70.2506C38.9522 71.1997 39.0976 72.1551 39.2887 73.0897C39.3136 73.2081 39.4175 73.2891 39.5338 73.2891C39.5504 73.2891 39.567 73.287 39.5836 73.285C39.7186 73.258 39.8058 73.125 39.7788 72.99C39.5898 72.072 39.4465 71.1333 39.3531 70.2008C39.2575 69.2516 39.2077 68.2859 39.2077 67.3284C39.2077 66.373 39.2575 65.4073 39.3531 64.4581C39.4465 63.5235 39.5898 62.5848 39.7788 61.6668Z" fill="#830016" fill-opacity="0.3"/>
<path d="M44.1881 77.0936C44.5038 77.8392 44.859 78.5765 45.2474 79.2889C45.6316 79.995 46.0553 80.6929 46.508 81.3596C46.9567 82.0242 47.4426 82.6742 47.9556 83.2932C48.4645 83.91 49.0107 84.5102 49.5777 85.0772C50.1447 85.6442 50.7449 86.1904 51.3618 86.6993C51.9786 87.2081 52.6287 87.6962 53.2953 88.1469C53.962 88.5976 54.6578 89.0213 55.366 89.4055C56.0784 89.7918 56.8178 90.149 57.5613 90.4647C58.3131 90.7825 59.0899 91.0691 59.8687 91.31C60.6579 91.5551 61.4659 91.7648 62.2738 91.931C63.0921 92.0992 63.9291 92.228 64.764 92.3131C65.6093 92.4004 66.4733 92.444 67.3289 92.444C68.1846 92.444 69.0486 92.4004 69.8939 92.3131C70.031 92.2986 70.1307 92.1761 70.1182 92.039C70.1037 91.9019 69.9853 91.8022 69.8441 91.8147C68.1867 91.9829 66.4753 91.9829 64.818 91.8147C63.9997 91.7316 63.1793 91.6049 62.3776 91.4408C61.5863 91.2788 60.7929 91.0732 60.0203 90.8344C59.2581 90.5976 58.498 90.3172 57.7607 90.0057C57.0317 89.6962 56.3068 89.3473 55.609 88.9673C54.9153 88.5893 54.232 88.1739 53.5799 87.7336C52.9277 87.2912 52.2901 86.8135 51.6837 86.3151C51.0772 85.8145 50.4895 85.2808 49.9349 84.7241C49.3783 84.1675 48.8446 83.5798 48.344 82.9754C47.8435 82.3689 47.3658 81.7313 46.9255 81.0792C46.4831 80.425 46.0677 79.7417 45.6918 79.05C45.3118 78.3522 44.9628 77.6294 44.6534 76.8984C44.3418 76.1632 44.0635 75.403 43.8247 74.6387C43.7832 74.5079 43.6461 74.4331 43.5111 74.4746C43.3802 74.5162 43.3055 74.6553 43.347 74.7882C43.5858 75.5671 43.8704 76.3438 44.1881 77.0936Z" fill="#830016" fill-opacity="0.3"/>
<path d="M81.4277 87.8007C81.3509 87.6864 81.1951 87.6553 81.0809 87.7342C80.4267 88.1766 79.7455 88.592 79.0518 88.9679C78.3539 89.348 77.6291 89.6969 76.9001 90.0063C76.1628 90.3179 75.4027 90.5983 74.6404 90.835C74.5096 90.8766 74.4348 91.0157 74.4764 91.1486C74.5096 91.2566 74.6093 91.3252 74.7152 91.3252C74.7401 91.3252 74.7651 91.321 74.79 91.3148C75.5688 91.0718 76.3435 90.7872 77.0974 90.4695C77.8409 90.1538 78.5803 89.7986 79.2927 89.4103C80.0009 89.026 80.6967 88.6023 81.3634 88.1517C81.4734 88.0707 81.5046 87.9149 81.4277 87.8007Z" fill="#830016" fill-opacity="0.3"/>
<path d="M87.7332 81.0797C87.2929 81.7298 86.8152 82.3674 86.3146 82.9759C85.8162 83.5803 85.2803 84.1681 84.7237 84.7247C84.6261 84.8223 84.6261 84.9801 84.7237 85.0778C84.7736 85.1276 84.8359 85.1504 84.9003 85.1504C84.9646 85.1504 85.029 85.1255 85.0768 85.0778C85.6438 84.5108 86.19 83.9105 86.6989 83.2937C87.2098 82.6748 87.6978 82.0226 88.1465 81.3601C88.2233 81.2459 88.1942 81.0901 88.08 81.0133C87.9658 80.9343 87.81 80.9655 87.7332 81.0797Z" fill="#830016" fill-opacity="0.3"/>
<path d="M91.4407 72.2817C91.4137 72.4167 91.501 72.5496 91.636 72.5766C91.6526 72.5807 91.6692 72.5807 91.6858 72.5807C91.8021 72.5807 91.906 72.4997 91.9309 72.3814C92.0991 71.5631 92.2279 70.724 92.313 69.8891C92.4003 69.0417 92.4439 68.1798 92.4439 67.3241C92.4439 66.4705 92.4003 65.6065 92.313 64.7591C92.2279 63.9242 92.0991 63.0872 91.9309 62.2668C91.7647 61.4568 91.557 60.6469 91.3099 59.8618C91.2684 59.7289 91.1271 59.6562 90.9963 59.6977C90.8634 59.7392 90.7907 59.8784 90.8322 60.0113C91.0731 60.7798 91.2767 61.5732 91.4407 62.3686C91.6048 63.1703 91.7315 63.9927 91.8146 64.811C91.8997 65.6418 91.9413 66.4871 91.9413 67.3241C91.9413 68.1611 91.8977 69.0085 91.8146 69.8371C91.7315 70.6575 91.6069 71.48 91.4407 72.2817Z" fill="#830016" fill-opacity="0.3"/>
<path d="M86.3487 51.3261C86.2428 51.4133 86.2261 51.5712 86.3154 51.6792C86.816 52.2856 87.2937 52.9232 87.734 53.5754C88.1763 54.2296 88.5917 54.9129 88.9676 55.6045C89.0133 55.6876 89.0985 55.7354 89.1878 55.7354C89.2273 55.7354 89.2688 55.725 89.3062 55.7042C89.4287 55.6378 89.4723 55.4861 89.4059 55.3657C89.0216 54.6595 88.598 53.9617 88.1452 53.295C87.6966 52.6304 87.2106 51.9803 86.6976 51.3614C86.6124 51.2513 86.4546 51.2368 86.3487 51.3261Z" fill="#830016" fill-opacity="0.3"/>
<path d="M42.5633 65.0374C42.5716 65.0374 42.58 65.0394 42.5883 65.0394C42.715 65.0394 42.8229 64.9439 42.8375 64.8151C42.9206 63.9968 43.0473 63.1764 43.2113 62.3727C43.3754 61.5772 43.5789 60.7838 43.8199 60.0154C44.0587 59.2511 44.337 58.4909 44.6485 57.7557C44.958 57.0247 45.3069 56.3019 45.687 55.6041C46.0629 54.9104 46.4783 54.2271 46.9207 53.5749C47.361 52.9249 47.8387 52.2872 48.3392 51.6787C48.8376 51.0743 49.3735 50.4866 49.9301 49.93C50.4846 49.3754 51.0745 48.8396 51.6788 48.3391C52.2832 47.8406 52.9208 47.3629 53.5751 46.9205C54.2293 46.4781 54.9105 46.0628 55.6042 45.6868C56.302 45.3068 57.0268 44.9579 57.7558 44.6484C58.4931 44.3369 59.2533 44.0565 60.0155 43.8197C60.7881 43.5788 61.5815 43.3753 62.3728 43.2133C63.1745 43.0492 63.9969 42.9225 64.8131 42.8394C66.4705 42.6712 68.1819 42.6712 69.8392 42.8394C70.6575 42.9225 71.4779 43.0492 72.2796 43.2133C73.0709 43.3753 73.8643 43.5809 74.6369 43.8197C75.3991 44.0565 76.1592 44.3369 76.8965 44.6484C77.6255 44.9579 78.3504 45.3068 79.0482 45.6868C79.7419 46.0648 80.4252 46.4802 81.0773 46.9205C81.1916 46.9995 81.3473 46.9683 81.4242 46.8541C81.501 46.7398 81.4719 46.5841 81.3577 46.5072C80.691 46.0565 79.9953 45.6328 79.287 45.2486C78.5747 44.8623 77.8353 44.5051 77.0918 44.1894C76.3399 43.8716 75.5632 43.585 74.7843 43.3441C73.9951 43.099 73.1872 42.8893 72.3793 42.7231C71.561 42.5549 70.724 42.4261 69.8891 42.341C68.1985 42.1686 66.4518 42.1686 64.7612 42.341C63.9263 42.4261 63.0893 42.5549 62.271 42.7231C61.4631 42.8893 60.6531 43.0969 59.866 43.3441C59.0871 43.5871 58.3125 43.8716 57.5585 44.1894C56.815 44.5051 56.0756 44.8602 55.3633 45.2486C54.655 45.6328 53.9593 46.0565 53.2926 46.5072C52.6259 46.9579 51.9758 47.4439 51.359 47.9548C50.7422 48.4657 50.1419 49.0099 49.5749 49.5769C49.008 50.1439 48.4617 50.7441 47.9529 51.3609C47.442 51.9799 46.9539 52.632 46.5053 53.2945C46.0546 53.9612 45.6309 54.6591 45.2446 55.3652C44.8583 56.0755 44.5011 56.8149 44.1854 57.5605C43.8676 58.3103 43.5831 59.087 43.3401 59.8679C43.095 60.653 42.8873 61.463 42.7191 62.273C42.5509 63.0913 42.4221 63.9304 42.337 64.7653C42.3266 64.9003 42.4263 65.0228 42.5633 65.0374Z" fill="#830016" fill-opacity="0.3"/>
<path d="M73.795 88.1243C74.47 87.9146 75.1408 87.6674 75.7951 87.3912C76.441 87.117 77.0807 86.8076 77.6996 86.4732C78.3143 86.1388 78.9166 85.7712 79.494 85.3807C80.0693 84.9924 80.6342 84.5687 81.1701 84.1263C81.7059 83.6839 82.2251 83.2125 82.7174 82.7202C82.815 82.6226 82.815 82.4648 82.7174 82.3672C82.6197 82.2695 82.4619 82.2695 82.3643 82.3672C81.8845 82.8469 81.3757 83.3101 80.8523 83.7421C80.3269 84.1761 79.7765 84.5874 79.2136 84.9674C78.6487 85.3496 78.0589 85.7089 77.4587 86.035C76.8564 86.3631 76.2291 86.6643 75.5978 86.9322C74.9601 87.2022 74.3018 87.4431 73.6434 87.6487C72.9767 87.8564 72.2913 88.0329 71.606 88.1742C70.9123 88.3175 70.202 88.4255 69.4958 88.4982C69.3588 88.5127 69.2591 88.6353 69.2715 88.7723C69.284 88.9011 69.3941 88.9966 69.5208 88.9966C69.5291 88.9966 69.5374 88.9966 69.5457 88.9946C70.2684 88.9219 70.9954 88.8097 71.7057 88.6643C72.4118 88.5189 73.1138 88.3383 73.795 88.1243Z" fill="#830016" fill-opacity="0.3"/>
<path d="M88.1716 71.6089C88.0304 72.2943 87.8538 72.9796 87.6461 73.6463C87.4405 74.3068 87.1996 74.9652 86.9296 75.6007C86.6617 76.2321 86.3605 76.8572 86.0324 77.4595C85.7063 78.0577 85.347 78.6496 84.9649 79.2145C84.888 79.3287 84.9171 79.4845 85.0313 79.5613C85.0749 79.5904 85.1227 79.605 85.1705 79.605C85.2515 79.605 85.3304 79.5655 85.3782 79.4949C85.7686 78.9154 86.1362 78.3131 86.4706 77.6984C86.8071 77.0815 87.1144 76.4398 87.3886 75.7959C87.6648 75.1458 87.912 74.4729 88.1217 73.7959C88.3336 73.1126 88.5143 72.4106 88.6597 71.7106C88.805 71.0003 88.9172 70.2734 88.9899 69.5507C89.0647 68.8154 89.102 68.0678 89.102 67.3263C89.102 66.5849 89.0647 65.8372 88.9899 65.102C88.9172 64.3792 88.805 63.6523 88.6597 62.942C88.5164 62.24 88.3357 61.538 88.1217 60.8568C87.9099 60.1797 87.6628 59.5068 87.3886 58.8567C87.1144 58.2108 86.8071 57.5711 86.4706 56.9543C86.4041 56.8338 86.2525 56.7881 86.13 56.8546C86.0075 56.921 85.9638 57.0726 86.0303 57.1931C86.3585 57.7954 86.6596 58.4226 86.9275 59.0519C87.1975 59.6875 87.4384 60.3458 87.6441 61.0063C87.8517 61.673 88.0283 62.3584 88.1695 63.0437C88.3107 63.7374 88.4208 64.4477 88.4914 65.1539C88.5641 65.8704 88.6015 66.6015 88.6015 67.3263C88.6015 68.0512 88.5641 68.7822 88.4914 69.4987C88.4229 70.2049 88.3128 70.9152 88.1716 71.6089Z" fill="#830016" fill-opacity="0.3"/>
<path d="M82.7201 51.9347C82.2279 51.4424 81.7086 50.9689 81.1728 50.5286C81.0669 50.4414 80.909 50.4559 80.8197 50.5618C80.7325 50.6678 80.747 50.8256 80.853 50.9149C81.3763 51.3469 81.8852 51.808 82.365 52.2898C82.8447 52.7696 83.3079 53.2784 83.7399 53.8018C83.7897 53.862 83.8603 53.8932 83.933 53.8932C83.9891 53.8932 84.0452 53.8745 84.0929 53.835C84.1989 53.7478 84.2155 53.59 84.1262 53.482C83.6838 52.9461 83.2102 52.4248 82.7201 51.9347Z" fill="#830016" fill-opacity="0.3"/>
<path d="M75.6006 47.7227C76.232 47.9906 76.8571 48.2918 77.4615 48.6199C77.4989 48.6407 77.5404 48.6511 77.5799 48.6511C77.6692 48.6511 77.7543 48.6033 77.8 48.5202C77.8665 48.3998 77.8208 48.2461 77.7003 48.1817C77.0835 47.8452 76.4438 47.5378 75.7958 47.2637C75.1416 46.9875 74.4687 46.7403 73.7958 46.5305C73.6628 46.489 73.5237 46.5638 73.4821 46.6946C73.4406 46.8275 73.5154 46.9667 73.6462 47.0082C74.3046 47.2118 74.963 47.4527 75.6006 47.7227Z" fill="#830016" fill-opacity="0.3"/>
<path d="M69.7729 45.9339C69.7874 45.7968 69.6877 45.6743 69.5486 45.6598C68.0823 45.5102 66.5682 45.5102 65.1019 45.6598C64.3792 45.7325 63.6523 45.8446 62.942 45.99C62.24 46.1333 61.538 46.314 60.8568 46.5279C60.1818 46.7377 59.5109 46.9848 58.8567 47.2611C58.73 47.3151 58.6698 47.4625 58.7238 47.5892C58.7632 47.6847 58.8567 47.7429 58.9543 47.7429C58.9875 47.7429 59.0208 47.7367 59.0519 47.7221C59.6895 47.4521 60.3479 47.2112 61.0063 47.0056C61.673 46.7979 62.3584 46.6214 63.0437 46.4801C63.7374 46.3368 64.4477 46.2288 65.1539 46.1561C66.5869 46.0108 68.0657 46.0108 69.4987 46.1561C69.642 46.1728 69.7604 46.0731 69.7729 45.9339Z" fill="#830016" fill-opacity="0.3"/>
<path d="M49.6873 55.438C50.0674 54.8752 50.4807 54.3248 50.9127 53.7994C51.3447 53.276 51.8058 52.7671 52.2876 52.2874C52.3852 52.1898 52.3852 52.0319 52.2876 51.9343C52.19 51.8367 52.0322 51.8367 51.9345 51.9343C51.4423 52.4265 50.9688 52.9457 50.5285 53.4816C50.084 54.0195 49.6624 54.5823 49.274 55.1576C49.1972 55.2719 49.2263 55.4276 49.3405 55.5045C49.3841 55.5336 49.4319 55.5481 49.4796 55.5481C49.5606 55.5481 49.6396 55.5107 49.6873 55.438Z" fill="#830016" fill-opacity="0.3"/>
<path d="M47.5894 58.7239C47.4627 58.6699 47.3152 58.7302 47.2612 58.8569C46.985 59.5069 46.7378 60.1798 46.5281 60.8569C46.3162 61.5402 46.1355 62.2422 45.9901 62.9421C45.8448 63.6524 45.7326 64.3793 45.6599 65.1021C45.5851 65.8373 45.5478 66.585 45.5478 67.3265C45.5478 67.4656 45.6599 67.5778 45.7991 67.5778C45.9382 67.5778 46.0504 67.4656 46.0504 67.3265C46.0504 66.6016 46.0878 65.8706 46.1604 65.154C46.2331 64.4479 46.3411 63.7376 46.4824 63.0439C46.6236 62.3585 46.8001 61.6731 47.0078 61.0064C47.2134 60.346 47.4544 59.6876 47.7243 59.0521C47.7763 58.9254 47.7181 58.7779 47.5894 58.7239Z" fill="#830016" fill-opacity="0.3"/>
<path d="M48.1793 77.7003C48.5137 78.3129 48.8793 78.9173 49.2718 79.4968C49.6602 80.0721 50.0839 80.637 50.5262 81.1728C50.9686 81.7087 51.4421 82.2279 51.9323 82.7201C52.4245 83.2124 52.9437 83.6859 53.4796 84.1262C54.0175 84.5706 54.5803 84.9923 55.1556 85.3806C55.733 85.7711 56.3374 86.1387 56.9501 86.4731C57.5669 86.8095 58.2066 87.1169 58.8546 87.3911C59.5088 87.6673 60.1817 87.9145 60.8546 88.1242C61.5379 88.3361 62.2399 88.5188 62.9398 88.6621C63.6501 88.8075 64.3771 88.9197 65.0998 88.9924C65.1081 88.9924 65.1164 88.9944 65.1247 88.9944C65.2514 88.9944 65.3594 88.8989 65.374 88.7701C65.3885 88.6331 65.2888 88.5105 65.1497 88.496C64.4435 88.4233 63.7332 88.3153 63.0395 88.172C62.3542 88.0308 61.6688 87.8542 61.0021 87.6465C60.3437 87.4409 59.6874 87.2 59.0477 86.93C58.4164 86.6621 57.7912 86.3609 57.1868 86.0328C56.5866 85.7067 55.9968 85.3474 55.4319 84.9653C54.869 84.5852 54.3186 84.1719 53.7932 83.7399C53.2698 83.3079 52.761 82.8468 52.2812 82.365C51.8014 81.8852 51.3383 81.3764 50.9063 80.853C50.4722 80.3275 50.061 79.7772 49.6809 79.2143C49.2988 78.6494 48.9395 78.0575 48.6134 77.4593C48.2853 76.857 47.9841 76.2298 47.7162 75.6005C47.6622 75.4738 47.5147 75.4136 47.388 75.4676C47.2613 75.5216 47.2011 75.669 47.2551 75.7957C47.5355 76.4417 47.845 77.0813 48.1793 77.7003Z" fill="#830016" fill-opacity="0.3"/>
<path d="M72.8521 85.0962C73.4274 84.9176 74.0027 84.7058 74.5614 84.469C75.1139 84.2343 75.6622 83.9705 76.1876 83.6839C76.711 83.3994 77.2282 83.0858 77.7225 82.7514C78.2147 82.4191 78.6965 82.0577 79.1555 81.6797C79.6145 81.3017 80.059 80.8967 80.4785 80.4772C80.9001 80.0556 81.3051 79.6111 81.679 79.1563C82.057 78.6993 82.4183 78.2175 82.7506 77.7232C82.8275 77.609 82.7984 77.4532 82.6842 77.3764C82.5699 77.2995 82.4142 77.3286 82.3373 77.4428C82.0133 77.9226 81.6623 78.392 81.2947 78.8364C80.9292 79.2809 80.5346 79.7129 80.1254 80.122C79.7184 80.5291 79.2843 80.9237 78.8378 81.2913C78.3912 81.6589 77.9219 82.0099 77.4442 82.3339C76.9644 82.6579 76.4618 82.9653 75.9509 83.2415C75.44 83.5198 74.9062 83.7774 74.3683 84.0058C73.8262 84.2364 73.2654 84.442 72.7047 84.6164C72.1377 84.793 71.5541 84.9446 70.9705 85.063C70.3806 85.1834 69.7763 85.2769 69.174 85.3371C68.5654 85.3994 67.9424 85.4306 67.3255 85.4306C67.1864 85.4306 67.0742 85.5427 67.0742 85.6819C67.0742 85.821 67.1864 85.9332 67.3255 85.9332C67.959 85.9332 68.5987 85.9 69.2259 85.8377C69.8448 85.7754 70.4658 85.6798 71.0722 85.5552C71.6704 85.4327 72.2706 85.279 72.8521 85.0962Z" fill="#830016" fill-opacity="0.3"/>
<path d="M85.5555 63.582C85.433 62.9839 85.2772 62.3836 85.0965 61.8C84.9158 61.2206 84.704 60.6453 84.4693 60.0907C84.4153 59.964 84.2678 59.9038 84.1411 59.9578C84.0145 60.0118 83.9542 60.1593 84.0082 60.286C84.2367 60.826 84.4423 61.3847 84.6188 61.9475C84.7954 62.5145 84.947 63.0981 85.0654 63.6817C85.1858 64.2736 85.2793 64.878 85.3395 65.4782C85.4018 66.0888 85.433 66.7119 85.433 67.3267C85.433 67.9414 85.4018 68.5645 85.3395 69.1751C85.2772 69.7753 85.1858 70.3797 85.0654 70.9716C84.9449 71.5552 84.7954 72.1368 84.6188 72.7058C84.4423 73.2708 84.2388 73.8295 84.0082 74.3694C83.9542 74.4961 84.0145 74.6436 84.1411 74.6976C84.1723 74.7121 84.2055 74.7184 84.2388 74.7184C84.3364 74.7184 84.4278 74.6602 84.4693 74.5667C84.704 74.0122 84.9158 73.4369 85.0965 72.8575C85.2793 72.2739 85.433 71.6736 85.5555 71.0755C85.6801 70.4669 85.7757 69.846 85.838 69.2291C85.9024 68.6019 85.9335 67.9622 85.9335 67.3287C85.9335 66.6953 85.9003 66.0577 85.838 65.4284C85.7757 64.8115 85.6801 64.1905 85.5555 63.582Z" fill="#830016" fill-opacity="0.3"/>
<path d="M75.9494 51.4069C76.4603 51.6852 76.9609 51.9905 77.4427 52.3145C77.9225 52.6385 78.3918 52.9895 78.8363 53.3571C79.2828 53.7247 79.7148 54.1193 80.124 54.5264C80.5331 54.9376 80.9277 55.3696 81.2933 55.8141C81.6609 56.2586 82.0119 56.7279 82.3359 57.2077C82.3836 57.2783 82.4626 57.3178 82.5436 57.3178C82.5913 57.3178 82.6412 57.3032 82.6827 57.2742C82.7969 57.1973 82.8281 57.0415 82.7492 56.9273C82.4148 56.4351 82.0555 55.9512 81.6775 55.4942C81.3016 55.0394 80.8966 54.5929 80.477 54.1713C80.0575 53.7517 79.6131 53.3488 79.1541 52.9687C78.6951 52.5907 78.2132 52.2294 77.721 51.8971C77.2267 51.5627 76.7116 51.2491 76.1862 50.9645C75.6607 50.6779 75.1124 50.4141 74.56 50.1795C74.0013 49.9427 73.426 49.7329 72.8507 49.5522C72.7178 49.5128 72.5786 49.5855 72.5371 49.7163C72.4955 49.8492 72.5703 49.9884 72.7011 50.0299C73.2619 50.2044 73.8206 50.41 74.3627 50.6385C74.9068 50.8731 75.4385 51.1286 75.9494 51.4069Z" fill="#830016" fill-opacity="0.3"/>
<path d="M67.3255 48.7195C67.1864 48.7195 67.0742 48.8316 67.0742 48.9708C67.0742 49.1099 67.1864 49.2221 67.3255 49.2221C67.9424 49.2221 68.5654 49.2532 69.174 49.3156C69.1823 49.3156 69.1906 49.3176 69.1989 49.3176C69.3256 49.3176 69.4336 49.2221 69.4481 49.0933C69.4626 48.9562 69.363 48.8337 69.2238 48.8192C68.5987 48.7506 67.9611 48.7195 67.3255 48.7195Z" fill="#830016" fill-opacity="0.3"/>
<path d="M56.9284 51.901C56.4362 52.2333 55.9544 52.5947 55.4954 52.9727C55.0364 53.3507 54.5919 53.7557 54.1724 54.1752C53.7508 54.5968 53.3458 55.0413 52.9719 55.4982C52.8847 55.6041 52.8992 55.762 53.0052 55.8513C53.0509 55.8907 53.109 55.9094 53.1651 55.9094C53.2378 55.9094 53.3084 55.8783 53.3582 55.818C53.7238 55.3736 54.1184 54.9416 54.5275 54.5324C54.9346 54.1254 55.3687 53.7307 55.8152 53.3631C56.2617 52.9955 56.7311 52.6445 57.2088 52.3205C57.6886 51.9965 58.1912 51.6892 58.7021 51.4129C59.213 51.1346 59.7468 50.8771 60.2847 50.6486C60.4114 50.5946 60.4716 50.4472 60.4176 50.3205C60.3636 50.1938 60.2161 50.1336 60.0895 50.1876C59.537 50.4222 58.9887 50.686 58.4632 50.9726C57.9399 51.253 57.4227 51.5666 56.9284 51.901Z" fill="#830016" fill-opacity="0.3"/>
<path d="M48.8151 65.4281C48.7507 66.0553 48.7196 66.695 48.7196 67.3284C48.7196 67.9619 48.7528 68.5995 48.8151 69.2288C48.8774 69.8456 48.973 70.4666 49.0976 71.0752C49.2201 71.6733 49.3759 72.2735 49.5566 72.8571C49.7373 73.4366 49.9491 74.0119 50.1838 74.5664C50.4185 75.1189 50.6822 75.6651 50.9689 76.1926C51.2534 76.716 51.567 77.2332 51.9014 77.7275C52.2358 78.2197 52.5951 78.7036 52.9731 79.1605C53.349 79.6154 53.754 80.0619 54.1735 80.4835C54.593 80.9031 55.0375 81.306 55.4965 81.686C55.9555 82.064 56.4373 82.4254 56.9295 82.7577C57.4239 83.0921 57.9389 83.4057 58.4644 83.6903C58.5018 83.711 58.5433 83.7214 58.5828 83.7214C58.6721 83.7214 58.7572 83.6736 58.8029 83.5906C58.8694 83.4701 58.8237 83.3164 58.7032 83.252C58.1923 82.9737 57.6918 82.6684 57.2099 82.3444C56.7302 82.0204 56.2608 81.6694 55.8163 81.3018C55.3698 80.9342 54.9378 80.5396 54.5287 80.1325C54.1195 79.7213 53.7249 79.2893 53.3594 78.8448C52.9918 78.4004 52.6408 77.931 52.3168 77.4512C51.9907 76.9694 51.6854 76.4668 51.4092 75.958C51.1309 75.445 50.8733 74.9133 50.6449 74.3754C50.4164 73.8354 50.2108 73.2767 50.0342 72.7138C49.8577 72.1468 49.7061 71.5632 49.5877 70.9796C49.4673 70.3877 49.3738 69.7833 49.3136 69.1831C49.2513 68.5725 49.2201 67.9494 49.2201 67.3347C49.2201 66.7199 49.2513 66.0968 49.3136 65.4862C49.3759 64.886 49.4673 64.2816 49.5877 63.6897C49.7082 63.1061 49.8577 62.5245 50.0342 61.9555C50.0758 61.8226 50.001 61.6834 49.8702 61.6419C49.7373 61.6003 49.5981 61.6751 49.5566 61.8059C49.3738 62.3895 49.2201 62.9898 49.0976 63.5879C48.973 64.1902 48.8774 64.8112 48.8151 65.4281Z" fill="#830016" fill-opacity="0.3"/>
<path d="M63.5811 85.5556C63.5977 85.5598 63.6143 85.5598 63.6309 85.5598C63.7472 85.5598 63.8511 85.4788 63.876 85.3604C63.903 85.2254 63.8158 85.0925 63.6808 85.0655C63.0992 84.9471 62.5156 84.7955 61.9466 84.6189C61.8136 84.5774 61.6745 84.6521 61.633 84.783C61.5914 84.9159 61.6662 85.0551 61.797 85.0966C62.3827 85.2794 62.9829 85.4331 63.5811 85.5556Z" fill="#830016" fill-opacity="0.3"/>
<path d="M67.3261 82.9302C67.8578 82.9302 68.3936 82.9032 68.9191 82.8492C69.4383 82.7952 69.9575 82.7162 70.4663 82.6124C70.969 82.5085 71.4716 82.3798 71.9617 82.2261C72.4456 82.0745 72.9275 81.8979 73.3948 81.7006C73.5215 81.6466 73.5817 81.4992 73.5277 81.3725C73.4737 81.2458 73.3262 81.1856 73.1995 81.2396C72.7468 81.4306 72.2816 81.603 71.8122 81.7484C71.3386 81.8959 70.8526 82.0205 70.3666 82.1202C69.8744 82.2219 69.3697 82.2988 68.8692 82.3486C68.3604 82.4005 67.8411 82.4275 67.3282 82.4275C67.189 82.4275 67.0768 82.5397 67.0768 82.6788C67.0768 82.818 67.189 82.9302 67.3261 82.9302Z" fill="#830016" fill-opacity="0.3"/>
<path d="M76.0448 80.2611C76.4581 79.9828 76.861 79.6796 77.2473 79.3618C77.6315 79.0461 78.0033 78.7055 78.3564 78.3545C78.7074 78.0015 79.048 77.6297 79.3637 77.2455C79.6814 76.8612 79.9826 76.4562 80.263 76.045C80.5434 75.6317 80.8071 75.1976 81.046 74.7573C81.2869 74.3129 81.5091 73.856 81.7043 73.3928C81.9016 72.9255 82.0782 72.4437 82.2298 71.9597C82.3835 71.4696 82.5122 70.967 82.614 70.4644C82.641 70.3294 82.5538 70.1965 82.4188 70.1695C82.2838 70.1425 82.1509 70.2297 82.1239 70.3647C82.0242 70.8486 81.8996 71.3367 81.7521 71.8102C81.6067 72.2796 81.4343 72.7469 81.2433 73.1976C81.0543 73.6441 80.8403 74.0886 80.6057 74.5164C80.3751 74.9422 80.1197 75.3617 79.8476 75.7625C79.5776 76.1613 79.2848 76.5538 78.9774 76.9256C78.67 77.2974 78.3418 77.6588 78.0012 77.9994C77.6606 78.34 77.2992 78.6681 76.9275 78.9755C76.5557 79.2829 76.1632 79.5757 75.7644 79.8457C75.6502 79.9226 75.619 80.0783 75.6979 80.1926C75.7457 80.2632 75.8246 80.3027 75.9056 80.3027C75.9534 80.3047 76.0012 80.2902 76.0448 80.2611Z" fill="#830016" fill-opacity="0.3"/>
<path d="M82.9294 67.3261C82.9294 66.7965 82.9024 66.2607 82.8484 65.7331C82.7965 65.2118 82.7155 64.6926 82.6116 64.1859C82.5099 63.6853 82.379 63.1827 82.2274 62.6905C82.0758 62.2066 81.8993 61.7247 81.702 61.2574C81.5067 60.7964 81.2845 60.3374 81.0436 59.8929C80.8047 59.4526 80.541 59.0206 80.2606 58.6073C79.9823 58.194 79.6791 57.7911 79.3613 57.4068C79.0456 57.0226 78.705 56.6509 78.354 56.2978C78.0009 55.9447 77.6292 55.6062 77.2449 55.2905C76.8607 54.9727 76.4557 54.6695 76.0424 54.3912C75.9282 54.3123 75.7724 54.3434 75.6956 54.4576C75.6187 54.5719 75.6478 54.7276 75.762 54.8045C76.1608 55.0745 76.5533 55.3673 76.9251 55.6747C77.2969 55.98 77.6582 56.3082 77.9988 56.6509C78.3395 56.9915 78.6676 57.3528 78.975 57.7246C79.2824 58.0964 79.5752 58.4889 79.8452 58.8877C80.1152 59.2885 80.3707 59.7081 80.6033 60.1338C80.838 60.5637 81.0519 61.0061 81.2409 61.4527C81.432 61.9033 81.6043 62.3706 81.7497 62.84C81.8972 63.3156 82.0239 63.8016 82.1215 64.2855C82.2212 64.7757 82.3001 65.2804 82.35 65.783C82.4019 66.2939 82.4289 66.8111 82.4289 67.3241C82.4289 67.4632 82.541 67.5754 82.6802 67.5754C82.8173 67.5774 82.9294 67.4653 82.9294 67.3261Z" fill="#830016" fill-opacity="0.3"/>
<path d="M73.3956 52.9518C72.9283 52.7545 72.4465 52.578 71.9625 52.4264C71.4724 52.2747 70.9698 52.1439 70.4672 52.0401C70.3322 52.0131 70.1992 52.1003 70.1722 52.2353C70.1432 52.3703 70.2325 52.5032 70.3675 52.5302C70.8535 52.6299 71.3395 52.7545 71.813 52.902C72.2824 53.0474 72.7476 53.2197 73.2004 53.4108C73.2315 53.4254 73.2648 53.4316 73.298 53.4316C73.3956 53.4316 73.487 53.3734 73.5285 53.2779C73.5825 53.1512 73.5223 53.0037 73.3956 52.9518Z" fill="#830016" fill-opacity="0.3"/>
<path d="M67.3261 52.2231C67.4652 52.2231 67.5774 52.1109 67.5774 51.9718C67.5774 51.8326 67.4652 51.7205 67.3261 51.7205C66.7944 51.7205 66.2585 51.7475 65.7331 51.8015C65.2138 51.8555 64.6946 51.9344 64.1858 52.0382C63.6832 52.1421 63.1806 52.2708 62.6904 52.4245C62.2065 52.5761 61.7247 52.7527 61.2574 52.95C60.7942 53.1452 60.3352 53.3674 59.8928 53.6084C59.4546 53.8472 59.0205 54.1089 58.6072 54.3914C58.1939 54.6697 57.791 54.9729 57.4047 55.2907C57.0205 55.6063 56.6487 55.947 56.2956 56.298C55.9426 56.651 55.604 57.0228 55.2884 57.407C54.9706 57.7912 54.6674 58.1962 54.3891 58.6075C54.1087 59.0208 53.8449 59.4548 53.6061 59.8951C53.3651 60.3375 53.1429 60.7965 52.9477 61.2597C52.7504 61.727 52.5738 62.2088 52.4222 62.6927C52.2685 63.1829 52.1398 63.6855 52.038 64.1881C51.9342 64.6949 51.8532 65.2162 51.8012 65.7354C51.7472 66.2629 51.7202 66.7988 51.7202 67.3284C51.7202 67.858 51.7472 68.3938 51.8012 68.9214C51.8137 69.0501 51.9238 69.1457 52.0505 69.1457C52.0588 69.1457 52.0671 69.1457 52.0754 69.1436C52.2125 69.1291 52.3122 69.0065 52.2997 68.8694C52.2478 68.3585 52.2208 67.8414 52.2208 67.3284C52.2208 66.8154 52.2478 66.2962 52.2997 65.7873C52.3516 65.2826 52.4285 64.78 52.5282 64.2899C52.6278 63.806 52.7525 63.3179 52.8999 62.8443C53.0453 62.375 53.2177 61.9077 53.4088 61.457C53.5978 61.0104 53.8117 60.566 54.0464 60.1381C54.2769 59.7124 54.5324 59.2928 54.8044 58.892C55.0744 58.4932 55.3673 58.1007 55.6747 57.7289C55.982 57.3572 56.3102 56.9958 56.6508 56.6552C56.9914 56.3146 57.3528 55.9864 57.7246 55.679C58.0963 55.3716 58.4889 55.0788 58.8876 54.8088C59.2905 54.5367 59.708 54.2813 60.1338 54.0507C60.5616 53.8181 61.0061 53.6042 61.4547 53.4131C61.9074 53.2221 62.3727 53.0497 62.842 52.9043C63.3156 52.7568 63.8016 52.6322 64.2875 52.5325C64.7798 52.4308 65.2845 52.3539 65.785 52.3041C66.2938 52.2501 66.8131 52.2231 67.3261 52.2231Z" fill="#830016" fill-opacity="0.3"/>
<path d="M53.8282 74.8901C53.8676 74.8901 53.9092 74.8797 53.9465 74.8589C54.0691 74.7925 54.1127 74.6409 54.0462 74.5204C53.8116 74.0905 53.5976 73.6481 53.4086 73.2016C53.3546 73.0749 53.2072 73.0147 53.0805 73.0687C52.9538 73.1227 52.8936 73.2701 52.9476 73.3968C53.1428 73.8579 53.365 74.3169 53.6059 74.7613C53.6537 74.8423 53.7409 74.8901 53.8282 74.8901Z" fill="#830016" fill-opacity="0.3"/>
<path d="M57.4062 79.3621C57.7904 79.6799 58.1954 79.9831 58.6087 80.2614C59.0241 80.5418 59.4581 80.8056 59.8943 81.0444C60.3367 81.2853 60.7957 81.5055 61.2588 81.7028C61.29 81.7173 61.3232 81.7236 61.3564 81.7236C61.454 81.7236 61.5475 81.6654 61.587 81.5699C61.641 81.4432 61.5807 81.2957 61.454 81.2417C61.0054 81.0527 60.561 80.8367 60.1331 80.6041C59.7094 80.3736 59.2899 80.1181 58.887 79.846C58.4882 79.576 58.0957 79.2832 57.7239 78.9758C57.3522 78.6705 56.9908 78.3424 56.6502 77.9997C56.3096 77.6591 55.9814 77.2977 55.674 76.9259C55.5847 76.8179 55.4269 76.8034 55.321 76.8927C55.215 76.9799 55.1984 77.1378 55.2877 77.2458C55.6034 77.63 55.944 78.0018 56.295 78.3548C56.6502 78.7079 57.0219 79.0464 57.4062 79.3621Z" fill="#830016" fill-opacity="0.3"/>
</svg>
