<svg width="496" height="382" viewBox="0 0 496 382" fill="none" xmlns="http://www.w3.org/2000/svg">
<path d="M480.153 196.629C488.875 248.548 451.842 297.385 397.438 305.709C343.034 314.033 291.86 278.691 283.138 226.772C274.416 174.852 311.449 126.015 365.853 117.692C420.257 109.368 471.431 144.709 480.153 196.629Z" stroke="#830016" stroke-miterlimit="10" stroke-dasharray="5 5"/>
<path d="M374.319 214.115C386.08 284.129 336.142 349.986 262.777 361.211C189.412 372.436 120.404 324.777 108.642 254.763C96.8801 184.749 146.819 118.892 220.184 107.667C293.548 96.4428 362.557 144.101 374.319 214.115Z" stroke="#830016" stroke-miterlimit="10" stroke-dasharray="5 5"/>
<path d="M35.3853 189.723L0.345215 156.283" stroke="#830016" stroke-miterlimit="10"/>
<path d="M35.3853 156.283L0.345215 189.723" stroke="#830016" stroke-miterlimit="10"/>
<path d="M445.072 13.671C464.444 21.2212 473.734 42.3288 465.822 60.8161C457.911 79.3033 435.793 88.1695 416.421 80.6193C397.049 73.069 387.759 51.9615 395.67 33.4742C403.582 14.9869 425.7 6.12071 445.072 13.671Z" stroke="#830016" stroke-miterlimit="10" stroke-dasharray="5 5"/>
<path d="M352.607 83.1582L338.083 42.4368" stroke="#830016" stroke-miterlimit="10"/>
<path d="M366.68 55.3439L324.01 70.2511" stroke="#830016" stroke-miterlimit="10"/>
</svg>
